<svg width="239" height="65" viewBox="0 0 239 65" fill="none" xmlns="http://www.w3.org/2000/svg">
<path d="M-1 0H229C234.523 0 239 4.47715 239 10V55C239 60.5228 234.523 65 229 65H-1V0Z" fill="#FE7F2D"/>
<path d="M45.5042 43.288C44.1842 43.288 42.8522 43.24 41.5082 43.144C40.1642 43.072 38.9882 42.904 37.9802 42.64V18.412C38.5082 18.316 39.0722 18.232 39.6722 18.16C40.2722 18.064 40.8842 17.992 41.5082 17.944C42.1322 17.896 42.7442 17.86 43.3442 17.836C43.9682 17.812 44.5562 17.8 45.1082 17.8C46.6202 17.8 48.0242 17.92 49.3202 18.16C50.6162 18.376 51.7322 18.748 52.6682 19.276C53.6282 19.804 54.3722 20.5 54.9002 21.364C55.4282 22.228 55.6922 23.296 55.6922 24.568C55.6922 25.744 55.4042 26.752 54.8282 27.592C54.2762 28.432 53.4962 29.104 52.4882 29.608C54.0002 30.112 55.1162 30.856 55.8362 31.84C56.5562 32.824 56.9162 34.072 56.9162 35.584C56.9162 38.152 55.9802 40.084 54.1082 41.38C52.2362 42.652 49.3682 43.288 45.5042 43.288ZM42.4442 31.768V39.364C42.9482 39.412 43.4882 39.448 44.0642 39.472C44.6402 39.496 45.1682 39.508 45.6482 39.508C46.5842 39.508 47.4482 39.448 48.2402 39.328C49.0562 39.208 49.7522 39.004 50.3282 38.716C50.9282 38.404 51.3962 37.996 51.7322 37.492C52.0922 36.988 52.2722 36.34 52.2722 35.548C52.2722 34.132 51.7562 33.148 50.7242 32.596C49.6922 32.044 48.2642 31.768 46.4402 31.768H42.4442ZM42.4442 28.204H45.6482C47.3762 28.204 48.7322 27.964 49.7162 27.484C50.7002 26.98 51.1922 26.092 51.1922 24.82C51.1922 23.62 50.6762 22.768 49.6442 22.264C48.6362 21.76 47.3162 21.508 45.6842 21.508C44.9882 21.508 44.3642 21.52 43.8122 21.544C43.2842 21.568 42.8282 21.604 42.4442 21.652V28.204ZM72.1523 28.096C71.7923 27.976 71.2883 27.856 70.6403 27.736C70.0163 27.592 69.2843 27.52 68.4443 27.52C67.9643 27.52 67.4483 27.568 66.8963 27.664C66.3683 27.76 65.9963 27.844 65.7803 27.916V43H61.4243V25.072C62.2643 24.76 63.3083 24.472 64.5563 24.208C65.8283 23.92 67.2323 23.776 68.7683 23.776C69.0563 23.776 69.3923 23.8 69.7763 23.848C70.1603 23.872 70.5443 23.92 70.9283 23.992C71.3123 24.04 71.6843 24.112 72.0443 24.208C72.4043 24.28 72.6923 24.352 72.9083 24.424L72.1523 28.096ZM82.5679 39.94C83.9119 39.94 84.9319 39.868 85.6279 39.724V34.9C85.3879 34.828 85.0399 34.756 84.5839 34.684C84.1279 34.612 83.6239 34.576 83.0719 34.576C82.5919 34.576 82.0999 34.612 81.5959 34.684C81.1159 34.756 80.6719 34.888 80.2639 35.08C79.8799 35.272 79.5679 35.548 79.3279 35.908C79.0879 36.244 78.9679 36.676 78.9679 37.204C78.9679 38.236 79.2919 38.956 79.9399 39.364C80.5879 39.748 81.4639 39.94 82.5679 39.94ZM82.2079 23.704C83.6479 23.704 84.8599 23.884 85.8439 24.244C86.8279 24.604 87.6079 25.108 88.1839 25.756C88.7839 26.404 89.2039 27.196 89.4439 28.132C89.7079 29.044 89.8399 30.052 89.8399 31.156V42.568C89.1679 42.712 88.1479 42.88 86.7799 43.072C85.4359 43.288 83.9119 43.396 82.2079 43.396C81.0799 43.396 80.0479 43.288 79.1119 43.072C78.1759 42.856 77.3719 42.508 76.6999 42.028C76.0519 41.548 75.5359 40.924 75.1519 40.156C74.7919 39.388 74.6119 38.44 74.6119 37.312C74.6119 36.232 74.8159 35.32 75.2239 34.576C75.6559 33.832 76.2319 33.232 76.9519 32.776C77.6719 32.296 78.4999 31.96 79.4359 31.768C80.3959 31.552 81.3919 31.444 82.4239 31.444C82.9039 31.444 83.4079 31.48 83.9359 31.552C84.4639 31.6 85.0279 31.696 85.6279 31.84V31.12C85.6279 30.616 85.5679 30.136 85.4479 29.68C85.3279 29.224 85.1119 28.828 84.7999 28.492C84.5119 28.132 84.1159 27.856 83.6119 27.664C83.1319 27.472 82.5199 27.376 81.7759 27.376C80.7679 27.376 79.8439 27.448 79.0039 27.592C78.1639 27.736 77.4799 27.904 76.9519 28.096L76.4119 24.568C76.9639 24.376 77.7679 24.184 78.8239 23.992C79.8799 23.8 81.0079 23.704 82.2079 23.704ZM95.1743 24.784C96.0143 24.544 97.1063 24.316 98.4503 24.1C99.7943 23.884 101.282 23.776 102.914 23.776C104.45 23.776 105.734 23.992 106.766 24.424C107.798 24.832 108.614 25.42 109.214 26.188C109.838 26.932 110.27 27.844 110.51 28.924C110.774 29.98 110.906 31.144 110.906 32.416V43H106.55V33.1C106.55 32.092 106.478 31.24 106.334 30.544C106.214 29.824 105.998 29.248 105.686 28.816C105.398 28.36 104.99 28.036 104.462 27.844C103.958 27.628 103.334 27.52 102.59 27.52C102.038 27.52 101.462 27.556 100.862 27.628C100.262 27.7 99.8183 27.76 99.5303 27.808V43H95.1743V24.784ZM119.653 33.532C119.653 35.452 120.109 36.964 121.021 38.068C121.933 39.148 123.193 39.688 124.801 39.688C125.497 39.688 126.085 39.664 126.565 39.616C127.069 39.544 127.477 39.472 127.789 39.4V28.6C127.405 28.336 126.889 28.096 126.241 27.88C125.617 27.64 124.945 27.52 124.225 27.52C122.641 27.52 121.477 28.06 120.733 29.14C120.013 30.22 119.653 31.684 119.653 33.532ZM132.145 42.424C131.281 42.688 130.189 42.928 128.869 43.144C127.573 43.36 126.205 43.468 124.765 43.468C123.277 43.468 121.945 43.24 120.769 42.784C119.593 42.328 118.585 41.68 117.745 40.84C116.929 39.976 116.293 38.944 115.837 37.744C115.405 36.52 115.189 35.152 115.189 33.64C115.189 32.152 115.369 30.808 115.729 29.608C116.113 28.384 116.665 27.34 117.385 26.476C118.105 25.612 118.981 24.952 120.013 24.496C121.045 24.016 122.233 23.776 123.577 23.776C124.489 23.776 125.293 23.884 125.989 24.1C126.685 24.316 127.285 24.556 127.789 24.82V15.784L132.145 15.064V42.424ZM142.07 43H137.714V24.172H142.07V43ZM142.538 18.664C142.538 19.48 142.274 20.128 141.746 20.608C141.218 21.088 140.594 21.328 139.874 21.328C139.13 21.328 138.494 21.088 137.966 20.608C137.438 20.128 137.174 19.48 137.174 18.664C137.174 17.824 137.438 17.164 137.966 16.684C138.494 16.204 139.13 15.964 139.874 15.964C140.594 15.964 141.218 16.204 141.746 16.684C142.274 17.164 142.538 17.824 142.538 18.664ZM147.627 24.784C148.467 24.544 149.559 24.316 150.903 24.1C152.247 23.884 153.735 23.776 155.367 23.776C156.903 23.776 158.187 23.992 159.219 24.424C160.251 24.832 161.067 25.42 161.667 26.188C162.291 26.932 162.723 27.844 162.963 28.924C163.227 29.98 163.359 31.144 163.359 32.416V43H159.003V33.1C159.003 32.092 158.931 31.24 158.787 30.544C158.667 29.824 158.451 29.248 158.139 28.816C157.851 28.36 157.443 28.036 156.915 27.844C156.411 27.628 155.787 27.52 155.043 27.52C154.491 27.52 153.915 27.556 153.315 27.628C152.715 27.7 152.271 27.76 151.983 27.808V43H147.627V24.784ZM172.106 33.1C172.106 34.948 172.502 36.304 173.294 37.168C174.11 38.008 175.154 38.428 176.426 38.428C177.122 38.428 177.77 38.332 178.37 38.14C178.994 37.948 179.498 37.72 179.882 37.456V27.7C179.57 27.628 179.186 27.568 178.73 27.52C178.274 27.448 177.698 27.412 177.002 27.412C175.418 27.412 174.206 27.94 173.366 28.996C172.526 30.028 172.106 31.396 172.106 33.1ZM184.238 41.092C184.238 44.092 183.47 46.288 181.934 47.68C180.422 49.072 178.094 49.768 174.95 49.768C173.798 49.768 172.67 49.672 171.566 49.48C170.486 49.288 169.502 49.036 168.614 48.724L169.406 45.016C170.15 45.328 170.99 45.58 171.926 45.772C172.886 45.964 173.918 46.06 175.022 46.06C176.774 46.06 178.022 45.7 178.766 44.98C179.51 44.26 179.882 43.192 179.882 41.776V41.056C179.45 41.272 178.874 41.488 178.154 41.704C177.458 41.92 176.654 42.028 175.742 42.028C174.542 42.028 173.438 41.836 172.43 41.452C171.446 41.068 170.594 40.504 169.874 39.76C169.178 39.016 168.626 38.092 168.218 36.988C167.834 35.86 167.642 34.564 167.642 33.1C167.642 31.732 167.846 30.472 168.254 29.32C168.686 28.168 169.298 27.184 170.09 26.368C170.906 25.552 171.89 24.916 173.042 24.46C174.194 24.004 175.502 23.776 176.966 23.776C178.382 23.776 179.726 23.884 180.998 24.1C182.27 24.316 183.35 24.544 184.238 24.784V41.092Z" fill="white"/>
</svg>
