<svg width="455" height="65" viewBox="0 0 455 65" fill="none" xmlns="http://www.w3.org/2000/svg">
<path d="M0 0H445C450.523 0 455 4.47715 455 10V55C455 60.5228 450.523 65 445 65H0V0Z" fill="#FE7F2D"/>
<path d="M65.6893 48.54C63.8173 48.54 62.1373 48.252 60.6493 47.676C59.1613 47.1 57.9013 46.26 56.8693 45.156C55.8373 44.028 55.0453 42.66 54.4933 41.052C53.9413 39.444 53.6653 37.596 53.6653 35.508C53.6653 33.42 53.9773 31.572 54.6013 29.964C55.2493 28.356 56.1253 27 57.2293 25.896C58.3333 24.768 59.6293 23.916 61.1173 23.34C62.6053 22.764 64.2013 22.476 65.9053 22.476C66.9373 22.476 67.8733 22.56 68.7133 22.728C69.5533 22.872 70.2853 23.04 70.9093 23.232C71.5333 23.424 72.0493 23.628 72.4573 23.844C72.8653 24.06 73.1533 24.216 73.3213 24.312L71.9893 28.02C71.4133 27.66 70.5853 27.324 69.5053 27.012C68.4493 26.676 67.2973 26.508 66.0493 26.508C64.9693 26.508 63.9613 26.7 63.0253 27.084C62.0893 27.444 61.2733 27.996 60.5773 28.74C59.9053 29.484 59.3773 30.42 58.9933 31.548C58.6093 32.676 58.4173 33.984 58.4173 35.472C58.4173 36.792 58.5613 38.004 58.8493 39.108C59.1613 40.212 59.6293 41.172 60.2533 41.988C60.8773 42.78 61.6693 43.404 62.6293 43.86C63.5893 44.292 64.7413 44.508 66.0853 44.508C67.6933 44.508 69.0013 44.352 70.0093 44.04C71.0173 43.704 71.7973 43.392 72.3493 43.104L73.5733 46.812C73.2853 47.004 72.8893 47.196 72.3853 47.388C71.9053 47.58 71.3293 47.772 70.6573 47.964C69.9853 48.132 69.2293 48.264 68.3893 48.36C67.5493 48.48 66.6493 48.54 65.6893 48.54ZM93.9133 38.568C93.9133 40.056 93.6973 41.412 93.2653 42.636C92.8333 43.86 92.2213 44.904 91.4293 45.768C90.6373 46.632 89.6773 47.304 88.5493 47.784C87.4453 48.264 86.2213 48.504 84.8773 48.504C83.5333 48.504 82.3093 48.264 81.2053 47.784C80.1013 47.304 79.1533 46.632 78.3613 45.768C77.5693 44.904 76.9453 43.86 76.4893 42.636C76.0573 41.412 75.8413 40.056 75.8413 38.568C75.8413 37.08 76.0573 35.736 76.4893 34.536C76.9453 33.312 77.5693 32.268 78.3613 31.404C79.1773 30.54 80.1373 29.88 81.2413 29.424C82.3453 28.944 83.5573 28.704 84.8773 28.704C86.1973 28.704 87.4093 28.944 88.5133 29.424C89.6413 29.88 90.6013 30.54 91.3933 31.404C92.1853 32.268 92.7973 33.312 93.2293 34.536C93.6853 35.736 93.9133 37.08 93.9133 38.568ZM89.4493 38.568C89.4493 36.696 89.0413 35.22 88.2253 34.14C87.4333 33.036 86.3173 32.484 84.8773 32.484C83.4373 32.484 82.3093 33.036 81.4933 34.14C80.7013 35.22 80.3053 36.696 80.3053 38.568C80.3053 40.464 80.7013 41.964 81.4933 43.068C82.3093 44.172 83.4373 44.724 84.8773 44.724C86.3173 44.724 87.4333 44.172 88.2253 43.068C89.0413 41.964 89.4493 40.464 89.4493 38.568ZM109.129 38.1C109.129 36.132 108.877 34.716 108.373 33.852C107.893 32.964 106.981 32.52 105.637 32.52C105.157 32.52 104.629 32.556 104.053 32.628C103.477 32.7 103.045 32.76 102.757 32.808V48H98.4009V29.784C99.2409 29.544 100.333 29.316 101.677 29.1C103.045 28.884 104.485 28.776 105.997 28.776C107.293 28.776 108.349 28.944 109.165 29.28C110.005 29.616 110.701 30.06 111.253 30.612C111.517 30.42 111.853 30.216 112.261 30C112.669 29.784 113.125 29.592 113.629 29.424C114.133 29.232 114.661 29.076 115.213 28.956C115.789 28.836 116.365 28.776 116.941 28.776C118.405 28.776 119.605 28.992 120.541 29.424C121.501 29.832 122.245 30.42 122.773 31.188C123.325 31.932 123.697 32.844 123.889 33.924C124.105 34.98 124.213 36.144 124.213 37.416V48H119.857V38.1C119.857 36.132 119.617 34.716 119.137 33.852C118.657 32.964 117.733 32.52 116.365 32.52C115.669 32.52 115.009 32.64 114.385 32.88C113.761 33.096 113.293 33.312 112.981 33.528C113.173 34.128 113.305 34.764 113.377 35.436C113.449 36.108 113.485 36.828 113.485 37.596V48H109.129V38.1ZM142.041 38.676C142.041 36.732 141.597 35.22 140.709 34.14C139.845 33.06 138.441 32.52 136.497 32.52C136.089 32.52 135.657 32.544 135.201 32.592C134.769 32.616 134.337 32.688 133.905 32.808V43.572C134.289 43.836 134.793 44.088 135.417 44.328C136.065 44.544 136.749 44.652 137.469 44.652C139.053 44.652 140.205 44.112 140.925 43.032C141.669 41.952 142.041 40.5 142.041 38.676ZM146.505 38.604C146.505 40.044 146.313 41.364 145.929 42.564C145.569 43.764 145.041 44.796 144.345 45.66C143.649 46.524 142.773 47.196 141.717 47.676C140.685 48.156 139.509 48.396 138.189 48.396C137.301 48.396 136.485 48.288 135.741 48.072C134.997 47.856 134.385 47.616 133.905 47.352V54.66H129.549V29.784C130.437 29.544 131.529 29.316 132.825 29.1C134.121 28.884 135.489 28.776 136.929 28.776C138.417 28.776 139.749 29.004 140.925 29.46C142.101 29.916 143.097 30.576 143.913 31.44C144.753 32.28 145.389 33.312 145.821 34.536C146.277 35.736 146.505 37.092 146.505 38.604ZM149.951 38.676C149.951 37.02 150.191 35.568 150.671 34.32C151.175 33.072 151.835 32.04 152.651 31.224C153.467 30.384 154.403 29.76 155.459 29.352C156.515 28.92 157.595 28.704 158.699 28.704C161.291 28.704 163.307 29.508 164.747 31.116C166.211 32.724 166.943 35.124 166.943 38.316C166.943 38.556 166.931 38.832 166.907 39.144C166.907 39.432 166.895 39.696 166.871 39.936H154.451C154.571 41.448 155.099 42.624 156.035 43.464C156.995 44.28 158.375 44.688 160.175 44.688C161.231 44.688 162.191 44.592 163.055 44.4C163.943 44.208 164.639 44.004 165.143 43.788L165.719 47.352C165.479 47.472 165.143 47.604 164.711 47.748C164.303 47.868 163.823 47.976 163.271 48.072C162.743 48.192 162.167 48.288 161.543 48.36C160.919 48.432 160.283 48.468 159.635 48.468C157.979 48.468 156.539 48.228 155.315 47.748C154.091 47.244 153.083 46.56 152.291 45.696C151.499 44.808 150.911 43.776 150.527 42.6C150.143 41.4 149.951 40.092 149.951 38.676ZM162.587 36.732C162.587 36.132 162.503 35.568 162.335 35.04C162.167 34.488 161.915 34.02 161.579 33.636C161.267 33.228 160.871 32.916 160.391 32.7C159.935 32.46 159.383 32.34 158.735 32.34C158.063 32.34 157.475 32.472 156.971 32.736C156.467 32.976 156.035 33.3 155.675 33.708C155.339 34.116 155.075 34.584 154.883 35.112C154.691 35.64 154.559 36.18 154.487 36.732H162.587ZM171.345 24.204L175.701 23.484V29.172H182.397V32.808H175.701V40.476C175.701 41.988 175.941 43.068 176.421 43.716C176.901 44.364 177.717 44.688 178.869 44.688C179.661 44.688 180.357 44.604 180.957 44.436C181.581 44.268 182.073 44.112 182.433 43.968L183.153 47.424C182.649 47.64 181.989 47.856 181.173 48.072C180.357 48.312 179.397 48.432 178.293 48.432C176.949 48.432 175.821 48.252 174.909 47.892C174.021 47.532 173.313 47.016 172.785 46.344C172.257 45.648 171.885 44.82 171.669 43.86C171.453 42.876 171.345 41.76 171.345 40.512V24.204ZM191 48H186.644V29.172H191V48ZM191.468 23.664C191.468 24.48 191.204 25.128 190.676 25.608C190.148 26.088 189.524 26.328 188.804 26.328C188.06 26.328 187.424 26.088 186.896 25.608C186.368 25.128 186.104 24.48 186.104 23.664C186.104 22.824 186.368 22.164 186.896 21.684C187.424 21.204 188.06 20.964 188.804 20.964C189.524 20.964 190.148 21.204 190.676 21.684C191.204 22.164 191.468 22.824 191.468 23.664ZM196.341 24.204L200.697 23.484V29.172H207.393V32.808H200.697V40.476C200.697 41.988 200.937 43.068 201.417 43.716C201.897 44.364 202.713 44.688 203.865 44.688C204.657 44.688 205.353 44.604 205.953 44.436C206.577 44.268 207.069 44.112 207.429 43.968L208.149 47.424C207.645 47.64 206.985 47.856 206.169 48.072C205.353 48.312 204.393 48.432 203.289 48.432C201.945 48.432 200.817 48.252 199.905 47.892C199.017 47.532 198.309 47.016 197.781 46.344C197.253 45.648 196.881 44.82 196.665 43.86C196.449 42.876 196.341 41.76 196.341 40.512V24.204ZM215.996 48H211.64V29.172H215.996V48ZM216.464 23.664C216.464 24.48 216.2 25.128 215.672 25.608C215.144 26.088 214.52 26.328 213.8 26.328C213.056 26.328 212.42 26.088 211.892 25.608C211.364 25.128 211.1 24.48 211.1 23.664C211.1 22.824 211.364 22.164 211.892 21.684C212.42 21.204 213.056 20.964 213.8 20.964C214.52 20.964 215.144 21.204 215.672 21.684C216.2 22.164 216.464 22.824 216.464 23.664ZM226.377 48C225.177 45.528 223.941 42.696 222.669 39.504C221.421 36.288 220.281 32.844 219.249 29.172H223.893C224.157 30.228 224.457 31.368 224.793 32.592C225.153 33.792 225.525 35.004 225.909 36.228C226.317 37.428 226.725 38.604 227.133 39.756C227.565 40.884 227.961 41.904 228.321 42.816C228.681 41.904 229.065 40.884 229.473 39.756C229.881 38.604 230.277 37.428 230.661 36.228C231.069 35.004 231.453 33.792 231.813 32.592C232.173 31.368 232.485 30.228 232.749 29.172H237.249C236.217 32.844 235.065 36.288 233.793 39.504C232.545 42.696 231.321 45.528 230.121 48H226.377ZM239.037 38.676C239.037 37.02 239.277 35.568 239.757 34.32C240.261 33.072 240.921 32.04 241.737 31.224C242.553 30.384 243.489 29.76 244.545 29.352C245.601 28.92 246.681 28.704 247.785 28.704C250.377 28.704 252.393 29.508 253.833 31.116C255.297 32.724 256.029 35.124 256.029 38.316C256.029 38.556 256.017 38.832 255.993 39.144C255.993 39.432 255.981 39.696 255.957 39.936H243.537C243.657 41.448 244.185 42.624 245.121 43.464C246.081 44.28 247.461 44.688 249.261 44.688C250.317 44.688 251.277 44.592 252.141 44.4C253.029 44.208 253.725 44.004 254.229 43.788L254.805 47.352C254.565 47.472 254.229 47.604 253.797 47.748C253.389 47.868 252.909 47.976 252.357 48.072C251.829 48.192 251.253 48.288 250.629 48.36C250.005 48.432 249.369 48.468 248.721 48.468C247.065 48.468 245.625 48.228 244.401 47.748C243.177 47.244 242.169 46.56 241.377 45.696C240.585 44.808 239.997 43.776 239.613 42.6C239.229 41.4 239.037 40.092 239.037 38.676ZM251.673 36.732C251.673 36.132 251.589 35.568 251.421 35.04C251.253 34.488 251.001 34.02 250.665 33.636C250.353 33.228 249.957 32.916 249.477 32.7C249.021 32.46 248.469 32.34 247.821 32.34C247.149 32.34 246.561 32.472 246.057 32.736C245.553 32.976 245.121 33.3 244.761 33.708C244.425 34.116 244.161 34.584 243.969 35.112C243.777 35.64 243.645 36.18 243.573 36.732H251.673ZM285.825 48C285.489 47.016 285.141 46.044 284.781 45.084C284.421 44.124 284.073 43.14 283.737 42.132H273.225C272.889 43.14 272.541 44.136 272.181 45.12C271.845 46.08 271.509 47.04 271.173 48H266.457C267.393 45.336 268.281 42.876 269.121 40.62C269.961 38.364 270.777 36.228 271.569 34.212C272.385 32.196 273.189 30.276 273.981 28.452C274.773 26.628 275.589 24.828 276.429 23.052H280.713C281.553 24.828 282.369 26.628 283.161 28.452C283.953 30.276 284.745 32.196 285.537 34.212C286.353 36.228 287.181 38.364 288.021 40.62C288.885 42.876 289.785 45.336 290.721 48H285.825ZM278.481 27.876C277.929 29.148 277.293 30.696 276.573 32.52C275.877 34.344 275.145 36.324 274.377 38.46H282.585C281.817 36.324 281.073 34.332 280.353 32.484C279.633 30.636 279.009 29.1 278.481 27.876ZM293.659 29.784C294.499 29.544 295.591 29.316 296.935 29.1C298.279 28.884 299.767 28.776 301.399 28.776C302.935 28.776 304.219 28.992 305.251 29.424C306.283 29.832 307.099 30.42 307.699 31.188C308.323 31.932 308.755 32.844 308.995 33.924C309.259 34.98 309.391 36.144 309.391 37.416V48H305.035V38.1C305.035 37.092 304.963 36.24 304.819 35.544C304.699 34.824 304.483 34.248 304.171 33.816C303.883 33.36 303.475 33.036 302.947 32.844C302.443 32.628 301.819 32.52 301.075 32.52C300.523 32.52 299.947 32.556 299.347 32.628C298.747 32.7 298.303 32.76 298.015 32.808V48H293.659V29.784ZM321.341 44.94C322.685 44.94 323.705 44.868 324.401 44.724V39.9C324.161 39.828 323.813 39.756 323.357 39.684C322.901 39.612 322.397 39.576 321.845 39.576C321.365 39.576 320.873 39.612 320.369 39.684C319.889 39.756 319.445 39.888 319.037 40.08C318.653 40.272 318.341 40.548 318.101 40.908C317.861 41.244 317.741 41.676 317.741 42.204C317.741 43.236 318.065 43.956 318.713 44.364C319.361 44.748 320.237 44.94 321.341 44.94ZM320.981 28.704C322.421 28.704 323.633 28.884 324.617 29.244C325.601 29.604 326.381 30.108 326.957 30.756C327.557 31.404 327.977 32.196 328.217 33.132C328.481 34.044 328.613 35.052 328.613 36.156V47.568C327.941 47.712 326.921 47.88 325.553 48.072C324.209 48.288 322.685 48.396 320.981 48.396C319.853 48.396 318.821 48.288 317.885 48.072C316.949 47.856 316.145 47.508 315.473 47.028C314.825 46.548 314.309 45.924 313.925 45.156C313.565 44.388 313.385 43.44 313.385 42.312C313.385 41.232 313.589 40.32 313.997 39.576C314.429 38.832 315.005 38.232 315.725 37.776C316.445 37.296 317.273 36.96 318.209 36.768C319.169 36.552 320.165 36.444 321.197 36.444C321.677 36.444 322.181 36.48 322.709 36.552C323.237 36.6 323.801 36.696 324.401 36.84V36.12C324.401 35.616 324.341 35.136 324.221 34.68C324.101 34.224 323.885 33.828 323.573 33.492C323.285 33.132 322.889 32.856 322.385 32.664C321.905 32.472 321.293 32.376 320.549 32.376C319.541 32.376 318.617 32.448 317.777 32.592C316.937 32.736 316.253 32.904 315.725 33.096L315.185 29.568C315.737 29.376 316.541 29.184 317.597 28.992C318.653 28.8 319.781 28.704 320.981 28.704ZM340.5 48.36C339.204 48.336 338.124 48.192 337.26 47.928C336.42 47.664 335.748 47.292 335.244 46.812C334.74 46.308 334.38 45.696 334.164 44.976C333.972 44.232 333.876 43.392 333.876 42.456V20.784L338.232 20.064V41.628C338.232 42.156 338.268 42.6 338.34 42.96C338.436 43.32 338.592 43.632 338.808 43.896C339.024 44.136 339.312 44.328 339.672 44.472C340.056 44.592 340.536 44.688 341.112 44.76L340.5 48.36ZM360.007 29.172C358.063 36.324 355.807 42.804 353.239 48.612C352.759 49.692 352.267 50.616 351.763 51.384C351.259 52.152 350.695 52.788 350.071 53.292C349.447 53.796 348.751 54.156 347.983 54.372C347.215 54.612 346.327 54.732 345.319 54.732C344.647 54.732 343.975 54.66 343.303 54.516C342.655 54.372 342.163 54.216 341.827 54.048L342.619 50.556C343.483 50.892 344.335 51.06 345.175 51.06C346.303 51.06 347.179 50.784 347.803 50.232C348.451 49.704 349.015 48.876 349.495 47.748C348.127 45.108 346.807 42.228 345.535 39.108C344.287 35.988 343.171 32.676 342.187 29.172H346.831C347.071 30.18 347.359 31.272 347.695 32.448C348.055 33.624 348.439 34.824 348.847 36.048C349.255 37.248 349.687 38.448 350.143 39.648C350.599 40.848 351.055 41.964 351.511 42.996C352.279 40.86 352.999 38.592 353.671 36.192C354.343 33.768 354.955 31.428 355.507 29.172H360.007ZM368.019 44.868C369.171 44.868 370.011 44.736 370.539 44.472C371.067 44.184 371.331 43.704 371.331 43.032C371.331 42.408 371.043 41.892 370.467 41.484C369.915 41.076 368.991 40.632 367.695 40.152C366.903 39.864 366.171 39.564 365.499 39.252C364.851 38.916 364.287 38.532 363.807 38.1C363.327 37.668 362.943 37.152 362.655 36.552C362.391 35.928 362.259 35.172 362.259 34.284C362.259 32.556 362.895 31.2 364.167 30.216C365.439 29.208 367.167 28.704 369.351 28.704C370.455 28.704 371.511 28.812 372.519 29.028C373.527 29.22 374.283 29.412 374.787 29.604L373.995 33.132C373.515 32.916 372.903 32.724 372.159 32.556C371.415 32.364 370.551 32.268 369.567 32.268C368.679 32.268 367.959 32.424 367.407 32.736C366.855 33.024 366.579 33.48 366.579 34.104C366.579 34.416 366.627 34.692 366.723 34.932C366.843 35.172 367.035 35.4 367.299 35.616C367.563 35.808 367.911 36.012 368.343 36.228C368.775 36.42 369.303 36.624 369.927 36.84C370.959 37.224 371.835 37.608 372.555 37.992C373.275 38.352 373.863 38.772 374.319 39.252C374.799 39.708 375.147 40.236 375.363 40.836C375.579 41.436 375.687 42.156 375.687 42.996C375.687 44.796 375.015 46.164 373.671 47.1C372.351 48.012 370.455 48.468 367.983 48.468C366.327 48.468 364.995 48.324 363.987 48.036C362.979 47.772 362.271 47.556 361.863 47.388L362.619 43.752C363.267 44.016 364.035 44.268 364.923 44.508C365.835 44.748 366.867 44.868 368.019 44.868ZM384.148 48H379.792V29.172H384.148V48ZM384.616 23.664C384.616 24.48 384.352 25.128 383.824 25.608C383.296 26.088 382.672 26.328 381.952 26.328C381.208 26.328 380.572 26.088 380.044 25.608C379.516 25.128 379.252 24.48 379.252 23.664C379.252 22.824 379.516 22.164 380.044 21.684C380.572 21.204 381.208 20.964 381.952 20.964C382.672 20.964 383.296 21.204 383.824 21.684C384.352 22.164 384.616 22.824 384.616 23.664ZM394.422 44.868C395.574 44.868 396.414 44.736 396.942 44.472C397.47 44.184 397.734 43.704 397.734 43.032C397.734 42.408 397.446 41.892 396.87 41.484C396.318 41.076 395.394 40.632 394.098 40.152C393.306 39.864 392.574 39.564 391.902 39.252C391.254 38.916 390.69 38.532 390.21 38.1C389.73 37.668 389.346 37.152 389.058 36.552C388.794 35.928 388.662 35.172 388.662 34.284C388.662 32.556 389.298 31.2 390.57 30.216C391.842 29.208 393.57 28.704 395.754 28.704C396.858 28.704 397.914 28.812 398.922 29.028C399.93 29.22 400.686 29.412 401.19 29.604L400.398 33.132C399.918 32.916 399.306 32.724 398.562 32.556C397.818 32.364 396.954 32.268 395.97 32.268C395.082 32.268 394.362 32.424 393.81 32.736C393.258 33.024 392.982 33.48 392.982 34.104C392.982 34.416 393.03 34.692 393.126 34.932C393.246 35.172 393.438 35.4 393.702 35.616C393.966 35.808 394.314 36.012 394.746 36.228C395.178 36.42 395.706 36.624 396.33 36.84C397.362 37.224 398.238 37.608 398.958 37.992C399.678 38.352 400.266 38.772 400.722 39.252C401.202 39.708 401.55 40.236 401.766 40.836C401.982 41.436 402.09 42.156 402.09 42.996C402.09 44.796 401.418 46.164 400.074 47.1C398.754 48.012 396.858 48.468 394.386 48.468C392.73 48.468 391.398 48.324 390.39 48.036C389.382 47.772 388.674 47.556 388.266 47.388L389.022 43.752C389.67 44.016 390.438 44.268 391.326 44.508C392.238 44.748 393.27 44.868 394.422 44.868Z" fill="white"/>
</svg>
