<svg width="211" height="58" viewBox="0 0 211 58" fill="none" xmlns="http://www.w3.org/2000/svg">
<g filter="url(#filter0_d)">
<rect x="4" width="203" height="50" rx="25" fill="#D90368"/>
</g>
<path d="M36.4806 18.6246L30.9906 31.2246H28.6866L23.1786 18.6246H25.7166L29.9106 28.3446L34.1406 18.6246H36.4806ZM37.6821 21.6126H39.9321V31.2246H37.6821V21.6126ZM38.8161 20.0286C38.4081 20.0286 38.0661 19.9026 37.7901 19.6506C37.5141 19.3866 37.3761 19.0626 37.3761 18.6786C37.3761 18.2946 37.5141 17.9766 37.7901 17.7246C38.0661 17.4606 38.4081 17.3286 38.8161 17.3286C39.2241 17.3286 39.5661 17.4546 39.8421 17.7066C40.1181 17.9466 40.2561 18.2526 40.2561 18.6246C40.2561 19.0206 40.1181 19.3566 39.8421 19.6326C39.5781 19.8966 39.2361 20.0286 38.8161 20.0286ZM51.9212 26.4726C51.9212 26.6286 51.9092 26.8506 51.8852 27.1386H44.3432C44.4752 27.8466 44.8172 28.4106 45.3692 28.8306C45.9332 29.2386 46.6292 29.4426 47.4572 29.4426C48.5132 29.4426 49.3832 29.0946 50.0672 28.3986L51.2732 29.7846C50.8412 30.3006 50.2952 30.6906 49.6352 30.9546C48.9752 31.2186 48.2312 31.3506 47.4032 31.3506C46.3472 31.3506 45.4172 31.1406 44.6132 30.7206C43.8092 30.3006 43.1852 29.7186 42.7412 28.9746C42.3092 28.2186 42.0932 27.3666 42.0932 26.4186C42.0932 25.4826 42.3032 24.6426 42.7232 23.8986C43.1552 23.1426 43.7492 22.5546 44.5052 22.1346C45.2612 21.7146 46.1132 21.5046 47.0612 21.5046C47.9972 21.5046 48.8312 21.7146 49.5632 22.1346C50.3072 22.5426 50.8832 23.1246 51.2912 23.8806C51.7112 24.6246 51.9212 25.4886 51.9212 26.4726ZM47.0612 23.3046C46.3412 23.3046 45.7292 23.5206 45.2252 23.9526C44.7332 24.3726 44.4332 24.9366 44.3252 25.6446H49.7792C49.6832 24.9486 49.3892 24.3846 48.8972 23.9526C48.4052 23.5206 47.7932 23.3046 47.0612 23.3046ZM68.9007 21.6126L65.3547 31.2246H63.1947L60.7107 24.6006L58.1907 31.2246H56.0307L52.5027 21.6126H54.6267L57.1647 28.7046L59.8107 21.6126H61.7007L64.2927 28.7406L66.9027 21.6126H68.9007ZM77.9783 20.5866V24.4206H84.0623V26.4006H77.9783V31.2246H75.6383V18.6246H84.8363V20.5866H77.9783ZM95.9256 21.6126V31.2246H93.7836V30.0006C93.4236 30.4326 92.9736 30.7686 92.4336 31.0086C91.8936 31.2366 91.3116 31.3506 90.6876 31.3506C89.4036 31.3506 88.3896 30.9966 87.6456 30.2886C86.9136 29.5686 86.5476 28.5066 86.5476 27.1026V21.6126H88.7976V26.7966C88.7976 27.6606 88.9896 28.3086 89.3736 28.7406C89.7696 29.1606 90.3276 29.3706 91.0476 29.3706C91.8516 29.3706 92.4876 29.1246 92.9556 28.6326C93.4356 28.1286 93.6756 27.4086 93.6756 26.4726V21.6126H95.9256ZM98.8715 17.8686H101.122V31.2246H98.8715V17.8686ZM104.075 17.8686H106.325V31.2246H104.075V17.8686ZM122.64 28.3086H116.34L115.098 31.2246H112.686L118.356 18.6246H120.66L126.348 31.2246H123.9L122.64 28.3086ZM121.866 26.4726L119.49 20.9646L117.132 26.4726H121.866ZM133.189 21.5046C134.401 21.5046 135.373 21.8586 136.105 22.5666C136.837 23.2746 137.203 24.3246 137.203 25.7166V31.2246H134.953V26.0046C134.953 25.1646 134.755 24.5346 134.359 24.1146C133.963 23.6826 133.399 23.4666 132.667 23.4666C131.839 23.4666 131.185 23.7186 130.705 24.2226C130.225 24.7146 129.985 25.4286 129.985 26.3646V31.2246H127.735V21.6126H129.877V22.8546C130.249 22.4106 130.717 22.0746 131.281 21.8466C131.845 21.6186 132.481 21.5046 133.189 21.5046ZM143.729 21.5046C145.145 21.5046 146.225 21.8466 146.969 22.5306C147.725 23.2026 148.103 24.2226 148.103 25.5906V31.2246H145.979V30.0546C145.703 30.4746 145.307 30.7986 144.791 31.0266C144.287 31.2426 143.675 31.3506 142.955 31.3506C142.235 31.3506 141.605 31.2306 141.065 30.9906C140.525 30.7386 140.105 30.3966 139.805 29.9646C139.517 29.5206 139.373 29.0226 139.373 28.4706C139.373 27.6066 139.691 26.9166 140.327 26.4006C140.975 25.8726 141.989 25.6086 143.369 25.6086H145.853V25.4646C145.853 24.7926 145.649 24.2766 145.241 23.9166C144.845 23.5566 144.251 23.3766 143.459 23.3766C142.919 23.3766 142.385 23.4606 141.857 23.6286C141.341 23.7966 140.903 24.0306 140.543 24.3306L139.661 22.6926C140.165 22.3086 140.771 22.0146 141.479 21.8106C142.187 21.6066 142.937 21.5046 143.729 21.5046ZM143.423 29.7126C143.987 29.7126 144.485 29.5866 144.917 29.3346C145.361 29.0706 145.673 28.6986 145.853 28.2186V27.1026H143.531C142.235 27.1026 141.587 27.5286 141.587 28.3806C141.587 28.7886 141.749 29.1126 142.073 29.3526C142.397 29.5926 142.847 29.7126 143.423 29.7126ZM150.991 17.8686H153.241V31.2246H150.991V17.8686ZM165.194 21.6126L160.694 31.9986C160.274 33.0426 159.764 33.7746 159.164 34.1946C158.564 34.6266 157.838 34.8426 156.986 34.8426C156.506 34.8426 156.032 34.7646 155.564 34.6086C155.096 34.4526 154.712 34.2366 154.412 33.9606L155.312 32.3046C155.528 32.5086 155.78 32.6706 156.068 32.7906C156.368 32.9106 156.668 32.9706 156.968 32.9706C157.364 32.9706 157.688 32.8686 157.94 32.6646C158.204 32.4606 158.444 32.1186 158.66 31.6386L158.822 31.2606L154.628 21.6126H156.968L159.992 28.7226L163.034 21.6126H165.194ZM169.447 31.3506C168.667 31.3506 167.905 31.2486 167.161 31.0446C166.417 30.8406 165.823 30.5826 165.379 30.2706L166.243 28.5606C166.675 28.8486 167.191 29.0826 167.791 29.2626C168.403 29.4306 169.003 29.5146 169.591 29.5146C170.935 29.5146 171.607 29.1606 171.607 28.4526C171.607 28.1166 171.433 27.8826 171.085 27.7506C170.749 27.6186 170.203 27.4926 169.447 27.3726C168.655 27.2526 168.007 27.1146 167.503 26.9586C167.011 26.8026 166.579 26.5326 166.207 26.1486C165.847 25.7526 165.667 25.2066 165.667 24.5106C165.667 23.5986 166.045 22.8726 166.801 22.3326C167.569 21.7806 168.601 21.5046 169.897 21.5046C170.557 21.5046 171.217 21.5826 171.877 21.7386C172.537 21.8826 173.077 22.0806 173.497 22.3326L172.633 24.0426C171.817 23.5626 170.899 23.3226 169.879 23.3226C169.219 23.3226 168.715 23.4246 168.367 23.6286C168.031 23.8206 167.863 24.0786 167.863 24.4026C167.863 24.7626 168.043 25.0206 168.403 25.1766C168.775 25.3206 169.345 25.4586 170.113 25.5906C170.881 25.7106 171.511 25.8486 172.003 26.0046C172.495 26.1606 172.915 26.4246 173.263 26.7966C173.623 27.1686 173.803 27.6966 173.803 28.3806C173.803 29.2806 173.413 30.0006 172.633 30.5406C171.853 31.0806 170.791 31.3506 169.447 31.3506ZM175.741 21.6126H177.991V31.2246H175.741V21.6126ZM176.875 20.0286C176.467 20.0286 176.125 19.9026 175.849 19.6506C175.573 19.3866 175.435 19.0626 175.435 18.6786C175.435 18.2946 175.573 17.9766 175.849 17.7246C176.125 17.4606 176.467 17.3286 176.875 17.3286C177.283 17.3286 177.625 17.4546 177.901 17.7066C178.177 17.9466 178.315 18.2526 178.315 18.6246C178.315 19.0206 178.177 19.3566 177.901 19.6326C177.637 19.8966 177.295 20.0286 176.875 20.0286ZM183.914 31.3506C183.134 31.3506 182.372 31.2486 181.628 31.0446C180.884 30.8406 180.29 30.5826 179.846 30.2706L180.71 28.5606C181.142 28.8486 181.658 29.0826 182.258 29.2626C182.87 29.4306 183.47 29.5146 184.058 29.5146C185.402 29.5146 186.074 29.1606 186.074 28.4526C186.074 28.1166 185.9 27.8826 185.552 27.7506C185.216 27.6186 184.67 27.4926 183.914 27.3726C183.122 27.2526 182.474 27.1146 181.97 26.9586C181.478 26.8026 181.046 26.5326 180.674 26.1486C180.314 25.7526 180.134 25.2066 180.134 24.5106C180.134 23.5986 180.512 22.8726 181.268 22.3326C182.036 21.7806 183.068 21.5046 184.364 21.5046C185.024 21.5046 185.684 21.5826 186.344 21.7386C187.004 21.8826 187.544 22.0806 187.964 22.3326L187.1 24.0426C186.284 23.5626 185.366 23.3226 184.346 23.3226C183.686 23.3226 183.182 23.4246 182.834 23.6286C182.498 23.8206 182.33 24.0786 182.33 24.4026C182.33 24.7626 182.51 25.0206 182.87 25.1766C183.242 25.3206 183.812 25.4586 184.58 25.5906C185.348 25.7106 185.978 25.8486 186.47 26.0046C186.962 26.1606 187.382 26.4246 187.73 26.7966C188.09 27.1686 188.27 27.6966 188.27 28.3806C188.27 29.2806 187.88 30.0006 187.1 30.5406C186.32 31.0806 185.258 31.3506 183.914 31.3506Z" fill="white"/>
<defs>
<filter id="filter0_d" x="0" y="0" width="211" height="58" filterUnits="userSpaceOnUse" color-interpolation-filters="sRGB">
<feFlood flood-opacity="0" result="BackgroundImageFix"/>
<feColorMatrix in="SourceAlpha" type="matrix" values="0 0 0 0 0 0 0 0 0 0 0 0 0 0 0 0 0 0 127 0"/>
<feOffset dy="4"/>
<feGaussianBlur stdDeviation="2"/>
<feColorMatrix type="matrix" values="0 0 0 0 0 0 0 0 0 0 0 0 0 0 0 0 0 0 0.25 0"/>
<feBlend mode="normal" in2="BackgroundImageFix" result="effect1_dropShadow"/>
<feBlend mode="normal" in="SourceGraphic" in2="effect1_dropShadow" result="shape"/>
</filter>
</defs>
</svg>
