<svg width="290" height="65" viewBox="0 0 290 65" fill="none" xmlns="http://www.w3.org/2000/svg">
<path d="M0 0H280C285.523 0 290 4.47715 290 10V55C290 60.5228 285.523 65 280 65H0V0Z" fill="#FE7F2D"/>
<path d="M62.3793 45.54C60.6753 45.54 59.2113 45.3 57.9873 44.82C56.7633 44.316 55.7433 43.62 54.9273 42.732C54.1353 41.844 53.5473 40.8 53.1633 39.6C52.7793 38.4 52.5873 37.08 52.5873 35.64V20.052H57.1593V35.208C57.1593 36.336 57.2793 37.308 57.5193 38.124C57.7833 38.916 58.1433 39.564 58.5993 40.068C59.0793 40.572 59.6313 40.944 60.2553 41.184C60.9033 41.424 61.6233 41.544 62.4153 41.544C63.2073 41.544 63.9273 41.424 64.5753 41.184C65.2233 40.944 65.7753 40.572 66.2313 40.068C66.7113 39.564 67.0713 38.916 67.3113 38.124C67.5753 37.308 67.7073 36.336 67.7073 35.208V20.052H72.2793V35.64C72.2793 37.08 72.0753 38.4 71.6673 39.6C71.2833 40.8 70.6833 41.844 69.8673 42.732C69.0753 43.62 68.0553 44.316 66.8073 44.82C65.5593 45.3 64.0833 45.54 62.3793 45.54ZM82.5798 41.868C83.7318 41.868 84.5718 41.736 85.0998 41.472C85.6278 41.184 85.8918 40.704 85.8918 40.032C85.8918 39.408 85.6038 38.892 85.0278 38.484C84.4758 38.076 83.5518 37.632 82.2558 37.152C81.4638 36.864 80.7318 36.564 80.0598 36.252C79.4118 35.916 78.8478 35.532 78.3678 35.1C77.8878 34.668 77.5038 34.152 77.2158 33.552C76.9518 32.928 76.8198 32.172 76.8198 31.284C76.8198 29.556 77.4558 28.2 78.7278 27.216C79.9998 26.208 81.7278 25.704 83.9118 25.704C85.0158 25.704 86.0718 25.812 87.0798 26.028C88.0878 26.22 88.8438 26.412 89.3478 26.604L88.5558 30.132C88.0758 29.916 87.4638 29.724 86.7198 29.556C85.9758 29.364 85.1118 29.268 84.1278 29.268C83.2398 29.268 82.5198 29.424 81.9678 29.736C81.4158 30.024 81.1398 30.48 81.1398 31.104C81.1398 31.416 81.1878 31.692 81.2838 31.932C81.4038 32.172 81.5958 32.4 81.8598 32.616C82.1238 32.808 82.4718 33.012 82.9038 33.228C83.3358 33.42 83.8638 33.624 84.4878 33.84C85.5198 34.224 86.3958 34.608 87.1158 34.992C87.8358 35.352 88.4238 35.772 88.8798 36.252C89.3598 36.708 89.7078 37.236 89.9238 37.836C90.1398 38.436 90.2478 39.156 90.2478 39.996C90.2478 41.796 89.5758 43.164 88.2318 44.1C86.9118 45.012 85.0158 45.468 82.5438 45.468C80.8878 45.468 79.5558 45.324 78.5478 45.036C77.5398 44.772 76.8318 44.556 76.4238 44.388L77.1798 40.752C77.8278 41.016 78.5958 41.268 79.4838 41.508C80.3958 41.748 81.4278 41.868 82.5798 41.868ZM93.2729 35.676C93.2729 34.02 93.5129 32.568 93.9929 31.32C94.4969 30.072 95.1569 29.04 95.9729 28.224C96.7889 27.384 97.7249 26.76 98.7809 26.352C99.8369 25.92 100.917 25.704 102.021 25.704C104.613 25.704 106.629 26.508 108.069 28.116C109.533 29.724 110.265 32.124 110.265 35.316C110.265 35.556 110.253 35.832 110.229 36.144C110.229 36.432 110.217 36.696 110.193 36.936H97.7729C97.8929 38.448 98.4209 39.624 99.3569 40.464C100.317 41.28 101.697 41.688 103.497 41.688C104.553 41.688 105.513 41.592 106.377 41.4C107.265 41.208 107.961 41.004 108.465 40.788L109.041 44.352C108.801 44.472 108.465 44.604 108.033 44.748C107.625 44.868 107.145 44.976 106.593 45.072C106.065 45.192 105.489 45.288 104.865 45.36C104.241 45.432 103.605 45.468 102.957 45.468C101.301 45.468 99.8609 45.228 98.6369 44.748C97.4129 44.244 96.4049 43.56 95.6129 42.696C94.8209 41.808 94.2329 40.776 93.8489 39.6C93.4649 38.4 93.2729 37.092 93.2729 35.676ZM105.909 33.732C105.909 33.132 105.825 32.568 105.657 32.04C105.489 31.488 105.237 31.02 104.901 30.636C104.589 30.228 104.193 29.916 103.713 29.7C103.257 29.46 102.705 29.34 102.057 29.34C101.385 29.34 100.797 29.472 100.293 29.736C99.7889 29.976 99.3569 30.3 98.9969 30.708C98.6609 31.116 98.3969 31.584 98.2049 32.112C98.0129 32.64 97.8809 33.18 97.8089 33.732H105.909ZM125.611 30.096C125.251 29.976 124.747 29.856 124.099 29.736C123.475 29.592 122.743 29.52 121.903 29.52C121.423 29.52 120.907 29.568 120.355 29.664C119.827 29.76 119.455 29.844 119.239 29.916V45H114.883V27.072C115.723 26.76 116.767 26.472 118.015 26.208C119.287 25.92 120.691 25.776 122.227 25.776C122.515 25.776 122.851 25.8 123.235 25.848C123.619 25.872 124.003 25.92 124.387 25.992C124.771 26.04 125.143 26.112 125.503 26.208C125.863 26.28 126.151 26.352 126.367 26.424L125.611 30.096ZM138.021 45V20.052H153.789V23.904H142.557V30.276H152.529V34.128H142.557V45H138.021ZM164.185 45.36C162.889 45.336 161.809 45.192 160.945 44.928C160.105 44.664 159.433 44.292 158.929 43.812C158.425 43.308 158.065 42.696 157.849 41.976C157.657 41.232 157.561 40.392 157.561 39.456V17.784L161.917 17.064V38.628C161.917 39.156 161.953 39.6 162.025 39.96C162.121 40.32 162.277 40.632 162.493 40.896C162.709 41.136 162.997 41.328 163.357 41.472C163.741 41.592 164.221 41.688 164.797 41.76L164.185 45.36ZM185.349 35.568C185.349 37.056 185.133 38.412 184.701 39.636C184.269 40.86 183.657 41.904 182.865 42.768C182.073 43.632 181.113 44.304 179.985 44.784C178.881 45.264 177.657 45.504 176.313 45.504C174.969 45.504 173.745 45.264 172.641 44.784C171.537 44.304 170.589 43.632 169.797 42.768C169.005 41.904 168.381 40.86 167.925 39.636C167.493 38.412 167.277 37.056 167.277 35.568C167.277 34.08 167.493 32.736 167.925 31.536C168.381 30.312 169.005 29.268 169.797 28.404C170.613 27.54 171.573 26.88 172.677 26.424C173.781 25.944 174.993 25.704 176.313 25.704C177.633 25.704 178.845 25.944 179.949 26.424C181.077 26.88 182.037 27.54 182.829 28.404C183.621 29.268 184.233 30.312 184.665 31.536C185.121 32.736 185.349 34.08 185.349 35.568ZM180.885 35.568C180.885 33.696 180.477 32.22 179.661 31.14C178.869 30.036 177.753 29.484 176.313 29.484C174.873 29.484 173.745 30.036 172.929 31.14C172.137 32.22 171.741 33.696 171.741 35.568C171.741 37.464 172.137 38.964 172.929 40.068C173.745 41.172 174.873 41.724 176.313 41.724C177.753 41.724 178.869 41.172 179.661 40.068C180.477 38.964 180.885 37.464 180.885 35.568ZM200.682 33.156C200.13 35.268 199.53 37.332 198.882 39.348C198.258 41.34 197.634 43.224 197.01 45H193.446C192.966 43.896 192.462 42.636 191.934 41.22C191.406 39.804 190.878 38.292 190.35 36.684C189.822 35.076 189.294 33.384 188.766 31.608C188.238 29.832 187.722 28.02 187.218 26.172H191.826C192.042 27.18 192.294 28.272 192.582 29.448C192.87 30.6 193.17 31.788 193.482 33.012C193.794 34.212 194.118 35.388 194.454 36.54C194.79 37.692 195.126 38.748 195.462 39.708C195.822 38.604 196.17 37.464 196.506 36.288C196.866 35.112 197.202 33.936 197.514 32.76C197.826 31.584 198.114 30.444 198.378 29.34C198.666 28.212 198.918 27.156 199.134 26.172H202.482C202.698 27.156 202.938 28.212 203.202 29.34C203.466 30.444 203.742 31.584 204.03 32.76C204.342 33.936 204.666 35.112 205.002 36.288C205.362 37.464 205.722 38.604 206.082 39.708C206.394 38.748 206.718 37.692 207.054 36.54C207.39 35.388 207.714 34.212 208.026 33.012C208.362 31.788 208.674 30.6 208.962 29.448C209.25 28.272 209.502 27.18 209.718 26.172H214.218C213.714 28.02 213.198 29.832 212.67 31.608C212.142 33.384 211.614 35.076 211.086 36.684C210.558 38.292 210.03 39.804 209.502 41.22C208.974 42.636 208.458 43.896 207.954 45H204.426C203.802 43.224 203.154 41.34 202.482 39.348C201.834 37.332 201.234 35.268 200.682 33.156ZM222.256 41.868C223.408 41.868 224.248 41.736 224.776 41.472C225.304 41.184 225.568 40.704 225.568 40.032C225.568 39.408 225.28 38.892 224.704 38.484C224.152 38.076 223.228 37.632 221.932 37.152C221.14 36.864 220.408 36.564 219.736 36.252C219.088 35.916 218.524 35.532 218.044 35.1C217.564 34.668 217.18 34.152 216.892 33.552C216.628 32.928 216.496 32.172 216.496 31.284C216.496 29.556 217.132 28.2 218.404 27.216C219.676 26.208 221.404 25.704 223.588 25.704C224.692 25.704 225.748 25.812 226.756 26.028C227.764 26.22 228.52 26.412 229.024 26.604L228.232 30.132C227.752 29.916 227.14 29.724 226.396 29.556C225.652 29.364 224.788 29.268 223.804 29.268C222.916 29.268 222.196 29.424 221.644 29.736C221.092 30.024 220.816 30.48 220.816 31.104C220.816 31.416 220.864 31.692 220.96 31.932C221.08 32.172 221.272 32.4 221.536 32.616C221.8 32.808 222.148 33.012 222.58 33.228C223.012 33.42 223.54 33.624 224.164 33.84C225.196 34.224 226.072 34.608 226.792 34.992C227.512 35.352 228.1 35.772 228.556 36.252C229.036 36.708 229.384 37.236 229.6 37.836C229.816 38.436 229.924 39.156 229.924 39.996C229.924 41.796 229.252 43.164 227.908 44.1C226.588 45.012 224.692 45.468 222.22 45.468C220.564 45.468 219.232 45.324 218.224 45.036C217.216 44.772 216.508 44.556 216.1 44.388L216.856 40.752C217.504 41.016 218.272 41.268 219.16 41.508C220.072 41.748 221.104 41.868 222.256 41.868Z" fill="white"/>
</svg>
