<svg width="178" height="58" viewBox="0 0 178 58" fill="none" xmlns="http://www.w3.org/2000/svg">
<g filter="url(#filter0_d)">
<rect x="4" width="170" height="50" rx="25" fill="#FF03FF"/>
<path d="M30.8272 17.6246L25.3372 30.2246H23.0332L17.5252 17.6246H20.0632L24.2572 27.3446L28.4872 17.6246H30.8272ZM32.0287 20.6126H34.2787V30.2246H32.0287V20.6126ZM33.1627 19.0286C32.7547 19.0286 32.4127 18.9026 32.1367 18.6506C31.8607 18.3866 31.7227 18.0626 31.7227 17.6786C31.7227 17.2946 31.8607 16.9766 32.1367 16.7246C32.4127 16.4606 32.7547 16.3286 33.1627 16.3286C33.5707 16.3286 33.9127 16.4546 34.1887 16.7066C34.4647 16.9466 34.6027 17.2526 34.6027 17.6246C34.6027 18.0206 34.4647 18.3566 34.1887 18.6326C33.9247 18.8966 33.5827 19.0286 33.1627 19.0286ZM46.2679 25.4726C46.2679 25.6286 46.2559 25.8506 46.2319 26.1386H38.6899C38.8219 26.8466 39.1639 27.4106 39.7159 27.8306C40.2799 28.2386 40.9759 28.4426 41.8039 28.4426C42.8599 28.4426 43.7299 28.0946 44.4139 27.3986L45.6199 28.7846C45.1879 29.3006 44.6419 29.6906 43.9819 29.9546C43.3219 30.2186 42.5779 30.3506 41.7499 30.3506C40.6939 30.3506 39.7639 30.1406 38.9599 29.7206C38.1559 29.3006 37.5319 28.7186 37.0879 27.9746C36.6559 27.2186 36.4399 26.3666 36.4399 25.4186C36.4399 24.4826 36.6499 23.6426 37.0699 22.8986C37.5019 22.1426 38.0959 21.5546 38.8519 21.1346C39.6079 20.7146 40.4599 20.5046 41.4079 20.5046C42.3439 20.5046 43.1779 20.7146 43.9099 21.1346C44.6539 21.5426 45.2299 22.1246 45.6379 22.8806C46.0579 23.6246 46.2679 24.4886 46.2679 25.4726ZM41.4079 22.3046C40.6879 22.3046 40.0759 22.5206 39.5719 22.9526C39.0799 23.3726 38.7799 23.9366 38.6719 24.6446H44.1259C44.0299 23.9486 43.7359 23.3846 43.2439 22.9526C42.7519 22.5206 42.1399 22.3046 41.4079 22.3046ZM63.2473 20.6126L59.7013 30.2246H57.5413L55.0573 23.6006L52.5373 30.2246H50.3773L46.8493 20.6126H48.9733L51.5113 27.7046L54.1573 20.6126H56.0473L58.6393 27.7406L61.2493 20.6126H63.2473ZM75.169 17.6246C76.261 17.6246 77.209 17.8046 78.013 18.1646C78.829 18.5246 79.453 19.0406 79.885 19.7126C80.317 20.3846 80.533 21.1826 80.533 22.1066C80.533 23.0186 80.317 23.8166 79.885 24.5006C79.453 25.1726 78.829 25.6886 78.013 26.0486C77.209 26.4086 76.261 26.5886 75.169 26.5886H72.325V30.2246H69.985V17.6246H75.169ZM75.061 24.6086C76.081 24.6086 76.855 24.3926 77.383 23.9606C77.911 23.5286 78.175 22.9106 78.175 22.1066C78.175 21.3026 77.911 20.6846 77.383 20.2526C76.855 19.8206 76.081 19.6046 75.061 19.6046H72.325V24.6086H75.061ZM84.7078 22.0166C85.3558 21.0086 86.4958 20.5046 88.1278 20.5046V22.6466C87.9358 22.6106 87.7618 22.5926 87.6058 22.5926C86.7298 22.5926 86.0458 22.8506 85.5538 23.3666C85.0618 23.8706 84.8158 24.6026 84.8158 25.5626V30.2246H82.5658V20.6126H84.7078V22.0166ZM94.2687 30.3506C93.2967 30.3506 92.4207 30.1406 91.6407 29.7206C90.8607 29.3006 90.2487 28.7186 89.8047 27.9746C89.3727 27.2186 89.1567 26.3666 89.1567 25.4186C89.1567 24.4706 89.3727 23.6246 89.8047 22.8806C90.2487 22.1366 90.8607 21.5546 91.6407 21.1346C92.4207 20.7146 93.2967 20.5046 94.2687 20.5046C95.2527 20.5046 96.1347 20.7146 96.9147 21.1346C97.6947 21.5546 98.3007 22.1366 98.7327 22.8806C99.1767 23.6246 99.3987 24.4706 99.3987 25.4186C99.3987 26.3666 99.1767 27.2186 98.7327 27.9746C98.3007 28.7186 97.6947 29.3006 96.9147 29.7206C96.1347 30.1406 95.2527 30.3506 94.2687 30.3506ZM94.2687 28.4246C95.0967 28.4246 95.7807 28.1486 96.3207 27.5966C96.8607 27.0446 97.1307 26.3186 97.1307 25.4186C97.1307 24.5186 96.8607 23.7926 96.3207 23.2406C95.7807 22.6886 95.0967 22.4126 94.2687 22.4126C93.4407 22.4126 92.7567 22.6886 92.2167 23.2406C91.6887 23.7926 91.4247 24.5186 91.4247 25.4186C91.4247 26.3186 91.6887 27.0446 92.2167 27.5966C92.7567 28.1486 93.4407 28.4246 94.2687 28.4246ZM107.328 29.7026C107.064 29.9186 106.74 30.0806 106.356 30.1886C105.984 30.2966 105.588 30.3506 105.168 30.3506C104.112 30.3506 103.296 30.0746 102.72 29.5226C102.144 28.9706 101.856 28.1666 101.856 27.1106V22.4846H100.272V20.6846H101.856V18.4886H104.106V20.6846H106.68V22.4846H104.106V27.0566C104.106 27.5246 104.22 27.8846 104.448 28.1366C104.676 28.3766 105.006 28.4966 105.438 28.4966C105.942 28.4966 106.362 28.3646 106.698 28.1006L107.328 29.7026ZM113.183 30.3506C112.211 30.3506 111.335 30.1406 110.555 29.7206C109.775 29.3006 109.163 28.7186 108.719 27.9746C108.287 27.2186 108.071 26.3666 108.071 25.4186C108.071 24.4706 108.287 23.6246 108.719 22.8806C109.163 22.1366 109.775 21.5546 110.555 21.1346C111.335 20.7146 112.211 20.5046 113.183 20.5046C114.167 20.5046 115.049 20.7146 115.829 21.1346C116.609 21.5546 117.215 22.1366 117.647 22.8806C118.091 23.6246 118.313 24.4706 118.313 25.4186C118.313 26.3666 118.091 27.2186 117.647 27.9746C117.215 28.7186 116.609 29.3006 115.829 29.7206C115.049 30.1406 114.167 30.3506 113.183 30.3506ZM113.183 28.4246C114.011 28.4246 114.695 28.1486 115.235 27.5966C115.775 27.0446 116.045 26.3186 116.045 25.4186C116.045 24.5186 115.775 23.7926 115.235 23.2406C114.695 22.6886 114.011 22.4126 113.183 22.4126C112.355 22.4126 111.671 22.6886 111.131 23.2406C110.603 23.7926 110.339 24.5186 110.339 25.4186C110.339 26.3186 110.603 27.0446 111.131 27.5966C111.671 28.1486 112.355 28.4246 113.183 28.4246ZM126.242 29.7026C125.978 29.9186 125.654 30.0806 125.27 30.1886C124.898 30.2966 124.502 30.3506 124.082 30.3506C123.026 30.3506 122.21 30.0746 121.634 29.5226C121.058 28.9706 120.77 28.1666 120.77 27.1106V22.4846H119.186V20.6846H120.77V18.4886H123.02V20.6846H125.594V22.4846H123.02V27.0566C123.02 27.5246 123.134 27.8846 123.362 28.1366C123.59 28.3766 123.92 28.4966 124.352 28.4966C124.856 28.4966 125.276 28.3646 125.612 28.1006L126.242 29.7026ZM136.917 20.6126L132.417 30.9986C131.997 32.0426 131.487 32.7746 130.887 33.1946C130.287 33.6266 129.561 33.8426 128.709 33.8426C128.229 33.8426 127.755 33.7646 127.287 33.6086C126.819 33.4526 126.435 33.2366 126.135 32.9606L127.035 31.3046C127.251 31.5086 127.503 31.6706 127.791 31.7906C128.091 31.9106 128.391 31.9706 128.691 31.9706C129.087 31.9706 129.411 31.8686 129.663 31.6646C129.927 31.4606 130.167 31.1186 130.383 30.6386L130.545 30.2606L126.351 20.6126H128.691L131.715 27.7226L134.757 20.6126H136.917ZM143.652 20.5046C144.588 20.5046 145.422 20.7086 146.154 21.1166C146.898 21.5246 147.48 22.1006 147.9 22.8446C148.32 23.5886 148.53 24.4466 148.53 25.4186C148.53 26.3906 148.32 27.2546 147.9 28.0106C147.48 28.7546 146.898 29.3306 146.154 29.7386C145.422 30.1466 144.588 30.3506 143.652 30.3506C142.356 30.3506 141.33 29.9186 140.574 29.0546V33.7166H138.324V20.6126H140.466V21.8726C140.838 21.4166 141.294 21.0746 141.834 20.8466C142.386 20.6186 142.992 20.5046 143.652 20.5046ZM143.4 28.4246C144.228 28.4246 144.906 28.1486 145.434 27.5966C145.974 27.0446 146.244 26.3186 146.244 25.4186C146.244 24.5186 145.974 23.7926 145.434 23.2406C144.906 22.6886 144.228 22.4126 143.4 22.4126C142.86 22.4126 142.374 22.5386 141.942 22.7906C141.51 23.0306 141.168 23.3786 140.916 23.8346C140.664 24.2906 140.538 24.8186 140.538 25.4186C140.538 26.0186 140.664 26.5466 140.916 27.0026C141.168 27.4586 141.51 27.8126 141.942 28.0646C142.374 28.3046 142.86 28.4246 143.4 28.4246ZM159.7 25.4726C159.7 25.6286 159.688 25.8506 159.664 26.1386H152.122C152.254 26.8466 152.596 27.4106 153.148 27.8306C153.712 28.2386 154.408 28.4426 155.236 28.4426C156.292 28.4426 157.162 28.0946 157.846 27.3986L159.052 28.7846C158.62 29.3006 158.074 29.6906 157.414 29.9546C156.754 30.2186 156.01 30.3506 155.182 30.3506C154.126 30.3506 153.196 30.1406 152.392 29.7206C151.588 29.3006 150.964 28.7186 150.52 27.9746C150.088 27.2186 149.872 26.3666 149.872 25.4186C149.872 24.4826 150.082 23.6426 150.502 22.8986C150.934 22.1426 151.528 21.5546 152.284 21.1346C153.04 20.7146 153.892 20.5046 154.84 20.5046C155.776 20.5046 156.61 20.7146 157.342 21.1346C158.086 21.5426 158.662 22.1246 159.07 22.8806C159.49 23.6246 159.7 24.4886 159.7 25.4726ZM154.84 22.3046C154.12 22.3046 153.508 22.5206 153.004 22.9526C152.512 23.3726 152.212 23.9366 152.104 24.6446H157.558C157.462 23.9486 157.168 23.3846 156.676 22.9526C156.184 22.5206 155.572 22.3046 154.84 22.3046Z" fill="white"/>
</g>
<defs>
<filter id="filter0_d" x="0" y="0" width="178" height="58" filterUnits="userSpaceOnUse" color-interpolation-filters="sRGB">
<feFlood flood-opacity="0" result="BackgroundImageFix"/>
<feColorMatrix in="SourceAlpha" type="matrix" values="0 0 0 0 0 0 0 0 0 0 0 0 0 0 0 0 0 0 127 0"/>
<feOffset dy="4"/>
<feGaussianBlur stdDeviation="2"/>
<feColorMatrix type="matrix" values="0 0 0 0 0 0 0 0 0 0 0 0 0 0 0 0 0 0 0.25 0"/>
<feBlend mode="normal" in2="BackgroundImageFix" result="effect1_dropShadow"/>
<feBlend mode="normal" in="SourceGraphic" in2="effect1_dropShadow" result="shape"/>
</filter>
</defs>
</svg>
