<svg width="311" height="65" viewBox="0 0 311 65" fill="none" xmlns="http://www.w3.org/2000/svg">
<path d="M0 0H301C306.523 0 311 4.47715 311 10V55C311 60.5228 306.523 65 301 65H0V0Z" fill="#FE7F2D"/>
<path d="M55.4721 47C54.8481 46.04 54.1281 45.032 53.3121 43.976C52.4961 42.92 51.6321 41.9 50.7201 40.916C49.8321 39.932 48.9081 38.996 47.9481 38.108C46.9881 37.22 46.0401 36.452 45.1041 35.804V47H40.5681V22.052H45.1041V32.348C45.8961 31.556 46.7241 30.716 47.5881 29.828C48.4521 28.916 49.3041 28.004 50.1441 27.092C51.0081 26.156 51.8241 25.256 52.5921 24.392C53.3601 23.528 54.0561 22.748 54.6801 22.052H60.1161C59.3241 22.964 58.4841 23.912 57.5961 24.896C56.7081 25.88 55.7961 26.876 54.8601 27.884C53.9241 28.868 52.9761 29.852 52.0161 30.836C51.0801 31.82 50.1561 32.756 49.2441 33.644C50.2521 34.412 51.2721 35.312 52.3041 36.344C53.3601 37.352 54.3921 38.444 55.4001 39.62C56.4081 40.772 57.3681 41.984 58.2801 43.256C59.2161 44.504 60.0681 45.752 60.8361 47H55.4721ZM61.9135 37.676C61.9135 36.02 62.1535 34.568 62.6335 33.32C63.1375 32.072 63.7975 31.04 64.6135 30.224C65.4295 29.384 66.3655 28.76 67.4215 28.352C68.4775 27.92 69.5575 27.704 70.6615 27.704C73.2535 27.704 75.2695 28.508 76.7095 30.116C78.1735 31.724 78.9055 34.124 78.9055 37.316C78.9055 37.556 78.8935 37.832 78.8695 38.144C78.8695 38.432 78.8575 38.696 78.8335 38.936H66.4135C66.5335 40.448 67.0615 41.624 67.9975 42.464C68.9575 43.28 70.3375 43.688 72.1375 43.688C73.1935 43.688 74.1535 43.592 75.0175 43.4C75.9055 43.208 76.6015 43.004 77.1055 42.788L77.6815 46.352C77.4415 46.472 77.1055 46.604 76.6735 46.748C76.2655 46.868 75.7855 46.976 75.2335 47.072C74.7055 47.192 74.1295 47.288 73.5055 47.36C72.8815 47.432 72.2455 47.468 71.5975 47.468C69.9415 47.468 68.5015 47.228 67.2775 46.748C66.0535 46.244 65.0455 45.56 64.2535 44.696C63.4615 43.808 62.8735 42.776 62.4895 41.6C62.1055 40.4 61.9135 39.092 61.9135 37.676ZM74.5495 35.732C74.5495 35.132 74.4655 34.568 74.2975 34.04C74.1295 33.488 73.8775 33.02 73.5415 32.636C73.2295 32.228 72.8335 31.916 72.3535 31.7C71.8975 31.46 71.3455 31.34 70.6975 31.34C70.0255 31.34 69.4375 31.472 68.9335 31.736C68.4295 31.976 67.9975 32.3 67.6375 32.708C67.3015 33.116 67.0375 33.584 66.8455 34.112C66.6535 34.64 66.5215 35.18 66.4495 35.732H74.5495ZM98.896 28.172C96.952 35.324 94.696 41.804 92.128 47.612C91.648 48.692 91.156 49.616 90.652 50.384C90.148 51.152 89.584 51.788 88.96 52.292C88.336 52.796 87.64 53.156 86.872 53.372C86.104 53.612 85.216 53.732 84.208 53.732C83.536 53.732 82.864 53.66 82.192 53.516C81.544 53.372 81.052 53.216 80.716 53.048L81.508 49.556C82.372 49.892 83.224 50.06 84.064 50.06C85.192 50.06 86.068 49.784 86.692 49.232C87.34 48.704 87.904 47.876 88.384 46.748C87.016 44.108 85.696 41.228 84.424 38.108C83.176 34.988 82.06 31.676 81.076 28.172H85.72C85.96 29.18 86.248 30.272 86.584 31.448C86.944 32.624 87.328 33.824 87.736 35.048C88.144 36.248 88.576 37.448 89.032 38.648C89.488 39.848 89.944 40.964 90.4 41.996C91.168 39.86 91.888 37.592 92.56 35.192C93.232 32.768 93.844 30.428 94.396 28.172H98.896ZM128.198 22.052V25.976H120.53V47H115.958V25.976H108.29V22.052H128.198ZM136.625 43.94C137.969 43.94 138.989 43.868 139.685 43.724V38.9C139.445 38.828 139.097 38.756 138.641 38.684C138.185 38.612 137.681 38.576 137.129 38.576C136.649 38.576 136.157 38.612 135.653 38.684C135.173 38.756 134.729 38.888 134.321 39.08C133.937 39.272 133.625 39.548 133.385 39.908C133.145 40.244 133.025 40.676 133.025 41.204C133.025 42.236 133.349 42.956 133.997 43.364C134.645 43.748 135.521 43.94 136.625 43.94ZM136.265 27.704C137.705 27.704 138.917 27.884 139.901 28.244C140.885 28.604 141.665 29.108 142.241 29.756C142.841 30.404 143.261 31.196 143.501 32.132C143.765 33.044 143.897 34.052 143.897 35.156V46.568C143.225 46.712 142.205 46.88 140.837 47.072C139.493 47.288 137.969 47.396 136.265 47.396C135.137 47.396 134.105 47.288 133.169 47.072C132.233 46.856 131.429 46.508 130.757 46.028C130.109 45.548 129.593 44.924 129.209 44.156C128.849 43.388 128.669 42.44 128.669 41.312C128.669 40.232 128.873 39.32 129.281 38.576C129.713 37.832 130.289 37.232 131.009 36.776C131.729 36.296 132.557 35.96 133.493 35.768C134.453 35.552 135.449 35.444 136.481 35.444C136.961 35.444 137.465 35.48 137.993 35.552C138.521 35.6 139.085 35.696 139.685 35.84V35.12C139.685 34.616 139.625 34.136 139.505 33.68C139.385 33.224 139.169 32.828 138.857 32.492C138.569 32.132 138.173 31.856 137.669 31.664C137.189 31.472 136.577 31.376 135.833 31.376C134.825 31.376 133.901 31.448 133.061 31.592C132.221 31.736 131.537 31.904 131.009 32.096L130.469 28.568C131.021 28.376 131.825 28.184 132.881 27.992C133.937 27.8 135.065 27.704 136.265 27.704ZM153.587 35.516C154.139 34.94 154.727 34.328 155.351 33.68C155.975 33.008 156.587 32.348 157.187 31.7C157.787 31.028 158.351 30.392 158.879 29.792C159.431 29.168 159.899 28.628 160.283 28.172H165.431C164.231 29.516 162.959 30.908 161.615 32.348C160.295 33.788 158.963 35.192 157.619 36.56C158.339 37.16 159.095 37.892 159.887 38.756C160.679 39.596 161.447 40.496 162.191 41.456C162.935 42.416 163.631 43.376 164.279 44.336C164.927 45.296 165.467 46.184 165.899 47H160.859C160.427 46.256 159.923 45.476 159.347 44.66C158.795 43.844 158.195 43.052 157.547 42.284C156.899 41.516 156.239 40.796 155.567 40.124C154.895 39.428 154.235 38.84 153.587 38.36V47H149.231V19.784L153.587 19.064V35.516ZM167.171 37.676C167.171 36.02 167.411 34.568 167.891 33.32C168.395 32.072 169.055 31.04 169.871 30.224C170.687 29.384 171.623 28.76 172.679 28.352C173.735 27.92 174.815 27.704 175.919 27.704C178.511 27.704 180.527 28.508 181.967 30.116C183.431 31.724 184.163 34.124 184.163 37.316C184.163 37.556 184.151 37.832 184.127 38.144C184.127 38.432 184.115 38.696 184.091 38.936H171.671C171.791 40.448 172.319 41.624 173.255 42.464C174.215 43.28 175.595 43.688 177.395 43.688C178.451 43.688 179.411 43.592 180.275 43.4C181.163 43.208 181.859 43.004 182.363 42.788L182.939 46.352C182.699 46.472 182.363 46.604 181.931 46.748C181.523 46.868 181.043 46.976 180.491 47.072C179.963 47.192 179.387 47.288 178.763 47.36C178.139 47.432 177.503 47.468 176.855 47.468C175.199 47.468 173.759 47.228 172.535 46.748C171.311 46.244 170.303 45.56 169.511 44.696C168.719 43.808 168.131 42.776 167.747 41.6C167.363 40.4 167.171 39.092 167.171 37.676ZM179.807 35.732C179.807 35.132 179.723 34.568 179.555 34.04C179.387 33.488 179.135 33.02 178.799 32.636C178.487 32.228 178.091 31.916 177.611 31.7C177.155 31.46 176.603 31.34 175.955 31.34C175.283 31.34 174.695 31.472 174.191 31.736C173.687 31.976 173.255 32.3 172.895 32.708C172.559 33.116 172.295 33.584 172.103 34.112C171.911 34.64 171.779 35.18 171.707 35.732H179.807ZM195.406 43.94C196.75 43.94 197.77 43.868 198.466 43.724V38.9C198.226 38.828 197.878 38.756 197.422 38.684C196.966 38.612 196.462 38.576 195.91 38.576C195.43 38.576 194.938 38.612 194.434 38.684C193.954 38.756 193.51 38.888 193.102 39.08C192.718 39.272 192.406 39.548 192.166 39.908C191.926 40.244 191.806 40.676 191.806 41.204C191.806 42.236 192.13 42.956 192.778 43.364C193.426 43.748 194.302 43.94 195.406 43.94ZM195.046 27.704C196.486 27.704 197.698 27.884 198.682 28.244C199.666 28.604 200.446 29.108 201.022 29.756C201.622 30.404 202.042 31.196 202.282 32.132C202.546 33.044 202.678 34.052 202.678 35.156V46.568C202.006 46.712 200.986 46.88 199.618 47.072C198.274 47.288 196.75 47.396 195.046 47.396C193.918 47.396 192.886 47.288 191.95 47.072C191.014 46.856 190.21 46.508 189.538 46.028C188.89 45.548 188.374 44.924 187.99 44.156C187.63 43.388 187.45 42.44 187.45 41.312C187.45 40.232 187.654 39.32 188.062 38.576C188.494 37.832 189.07 37.232 189.79 36.776C190.51 36.296 191.338 35.96 192.274 35.768C193.234 35.552 194.23 35.444 195.262 35.444C195.742 35.444 196.246 35.48 196.774 35.552C197.302 35.6 197.866 35.696 198.466 35.84V35.12C198.466 34.616 198.406 34.136 198.286 33.68C198.166 33.224 197.95 32.828 197.638 32.492C197.35 32.132 196.954 31.856 196.45 31.664C195.97 31.472 195.358 31.376 194.614 31.376C193.606 31.376 192.682 31.448 191.842 31.592C191.002 31.736 190.318 31.904 189.79 32.096L189.25 28.568C189.802 28.376 190.606 28.184 191.662 27.992C192.718 27.8 193.846 27.704 195.046 27.704ZM218.893 35.156C218.341 37.268 217.741 39.332 217.093 41.348C216.469 43.34 215.845 45.224 215.221 47H211.657C211.177 45.896 210.673 44.636 210.145 43.22C209.617 41.804 209.089 40.292 208.561 38.684C208.033 37.076 207.505 35.384 206.977 33.608C206.449 31.832 205.933 30.02 205.429 28.172H210.037C210.253 29.18 210.505 30.272 210.793 31.448C211.081 32.6 211.381 33.788 211.693 35.012C212.005 36.212 212.329 37.388 212.665 38.54C213.001 39.692 213.337 40.748 213.673 41.708C214.033 40.604 214.381 39.464 214.717 38.288C215.077 37.112 215.413 35.936 215.725 34.76C216.037 33.584 216.325 32.444 216.589 31.34C216.877 30.212 217.129 29.156 217.345 28.172H220.693C220.909 29.156 221.149 30.212 221.413 31.34C221.677 32.444 221.953 33.584 222.241 34.76C222.553 35.936 222.877 37.112 223.213 38.288C223.573 39.464 223.933 40.604 224.293 41.708C224.605 40.748 224.929 39.692 225.265 38.54C225.601 37.388 225.925 36.212 226.237 35.012C226.573 33.788 226.885 32.6 227.173 31.448C227.461 30.272 227.713 29.18 227.929 28.172H232.429C231.925 30.02 231.409 31.832 230.881 33.608C230.353 35.384 229.825 37.076 229.297 38.684C228.769 40.292 228.241 41.804 227.713 43.22C227.185 44.636 226.669 45.896 226.165 47H222.637C222.013 45.224 221.365 43.34 220.693 41.348C220.045 39.332 219.445 37.268 218.893 35.156ZM242.375 43.94C243.719 43.94 244.739 43.868 245.435 43.724V38.9C245.195 38.828 244.847 38.756 244.391 38.684C243.935 38.612 243.431 38.576 242.879 38.576C242.399 38.576 241.907 38.612 241.403 38.684C240.923 38.756 240.479 38.888 240.071 39.08C239.687 39.272 239.375 39.548 239.135 39.908C238.895 40.244 238.775 40.676 238.775 41.204C238.775 42.236 239.099 42.956 239.747 43.364C240.395 43.748 241.271 43.94 242.375 43.94ZM242.015 27.704C243.455 27.704 244.667 27.884 245.651 28.244C246.635 28.604 247.415 29.108 247.991 29.756C248.591 30.404 249.011 31.196 249.251 32.132C249.515 33.044 249.647 34.052 249.647 35.156V46.568C248.975 46.712 247.955 46.88 246.587 47.072C245.243 47.288 243.719 47.396 242.015 47.396C240.887 47.396 239.855 47.288 238.919 47.072C237.983 46.856 237.179 46.508 236.507 46.028C235.859 45.548 235.343 44.924 234.959 44.156C234.599 43.388 234.419 42.44 234.419 41.312C234.419 40.232 234.623 39.32 235.031 38.576C235.463 37.832 236.039 37.232 236.759 36.776C237.479 36.296 238.307 35.96 239.243 35.768C240.203 35.552 241.199 35.444 242.231 35.444C242.711 35.444 243.215 35.48 243.743 35.552C244.271 35.6 244.835 35.696 245.435 35.84V35.12C245.435 34.616 245.375 34.136 245.255 33.68C245.135 33.224 244.919 32.828 244.607 32.492C244.319 32.132 243.923 31.856 243.419 31.664C242.939 31.472 242.327 31.376 241.583 31.376C240.575 31.376 239.651 31.448 238.811 31.592C237.971 31.736 237.287 31.904 236.759 32.096L236.219 28.568C236.771 28.376 237.575 28.184 238.631 27.992C239.687 27.8 240.815 27.704 242.015 27.704ZM269.896 28.172C267.952 35.324 265.696 41.804 263.128 47.612C262.648 48.692 262.156 49.616 261.652 50.384C261.148 51.152 260.584 51.788 259.96 52.292C259.336 52.796 258.64 53.156 257.872 53.372C257.104 53.612 256.216 53.732 255.208 53.732C254.536 53.732 253.864 53.66 253.192 53.516C252.544 53.372 252.052 53.216 251.716 53.048L252.508 49.556C253.372 49.892 254.224 50.06 255.064 50.06C256.192 50.06 257.068 49.784 257.692 49.232C258.34 48.704 258.904 47.876 259.384 46.748C258.016 44.108 256.696 41.228 255.424 38.108C254.176 34.988 253.06 31.676 252.076 28.172H256.72C256.96 29.18 257.248 30.272 257.584 31.448C257.944 32.624 258.328 33.824 258.736 35.048C259.144 36.248 259.576 37.448 260.032 38.648C260.488 39.848 260.944 40.964 261.4 41.996C262.168 39.86 262.888 37.592 263.56 35.192C264.232 32.768 264.844 30.428 265.396 28.172H269.896Z" fill="white"/>
</svg>
