<svg width="551" height="284" viewBox="0 0 551 284" fill="none" xmlns="http://www.w3.org/2000/svg">
<rect width="6.26818" height="35.5487" rx="3.13409" transform="matrix(-0.677068 0.73592 -0.741886 -0.670526 66.3089 81.1875)" fill="#16CCB1"/>
<rect width="6.24592" height="35.6743" rx="3.12296" transform="matrix(-0.237923 0.971284 -0.972246 -0.233961 311.208 136.449)" fill="#16CCB1"/>
<rect width="6.27583" height="35.5053" rx="3.13792" transform="matrix(0.771793 0.635874 -0.642596 0.766205 117.294 42.7847)" fill="#16CCB1"/>
<rect width="6.27706" height="35.4983" rx="3.13853" transform="matrix(0.785938 0.618305 -0.625086 0.780556 312.009 44.6779)" fill="#16CCB1"/>
<rect width="6.27062" height="35.5349" rx="3.13531" transform="matrix(0.708721 -0.705489 0.711762 0.702421 254.92 4.42383)" fill="#FF03FF"/>
<rect width="6.26257" height="35.5804" rx="3.13128" transform="matrix(0.597998 -0.801498 0.806553 0.591162 249.843 93.5848)" fill="#FF03FF"/>
<rect width="6.25411" height="35.6282" rx="3.12706" transform="matrix(0.452798 0.891613 -0.894824 0.44642 61.2738 115.617)" fill="#FF03FF"/>
<rect width="6.26672" height="35.557" rx="3.13336" transform="matrix(0.657458 -0.753491 0.759246 0.650804 57.9871 23.4039)" fill="#FF03FF"/>
<path d="M92.064 246.662C81.7961 246.662 73.8283 242.432 68.1605 233.971V227.317C70.3783 232.246 73.5819 236.107 77.7712 238.9C82.0426 241.692 87.1354 243.089 93.0497 243.089C97.1568 243.089 100.935 242.185 104.385 240.378C107.918 238.571 110.71 236.025 112.764 232.739C114.817 229.453 115.844 225.675 115.844 221.403C115.844 217.542 115.187 214.216 113.873 211.423C112.559 208.63 110.382 205.96 107.343 203.414C104.303 200.785 99.9086 197.705 94.1586 194.173L90.2158 191.709C86.6015 189.491 83.6854 187.519 81.4676 185.794C79.2497 184.069 77.3194 182.057 75.6765 179.757C73.5408 176.553 72.4729 172.857 72.4729 168.668C72.4729 163.082 74.2801 158.728 77.8944 155.607C81.5086 152.485 86.1086 150.925 91.6943 150.925C99.2515 150.925 105.248 153.718 109.684 159.303V165.587C107.794 162.137 105.207 159.427 101.921 157.455C98.6354 155.484 95.0211 154.498 91.0783 154.498C86.9711 154.498 83.5211 155.771 80.7283 158.318C77.9354 160.864 76.539 164.273 76.539 168.544C76.539 172.734 77.8122 176.348 80.3586 179.387C82.9872 182.344 87.3818 185.589 93.5425 189.121C101.1 193.557 106.973 197.582 111.162 201.196C114.119 203.907 116.255 206.905 117.569 210.191C118.966 213.476 119.664 217.132 119.664 221.157C119.664 226.25 118.473 230.726 116.091 234.587C113.709 238.448 110.423 241.446 106.234 243.582C102.044 245.635 97.3211 246.662 92.064 246.662ZM132.596 189.491H136.538V203.044C138.756 198.609 142.206 195.035 146.888 192.325C151.571 189.532 156.499 188.135 161.674 188.135C167.013 188.135 171.901 189.45 176.337 192.078C180.854 194.707 184.428 198.239 187.056 202.675C189.685 207.11 190.999 211.957 190.999 217.214C190.999 222.471 189.685 227.317 187.056 231.753C184.428 236.189 180.854 239.721 176.337 242.35C171.901 244.978 167.013 246.292 161.674 246.292C156.663 246.292 151.817 244.937 147.135 242.226C142.535 239.516 139.003 235.942 136.538 231.507V269.58H132.596V189.491ZM161.921 242.842C166.438 242.842 170.628 241.692 174.488 239.392C178.349 237.01 181.388 233.889 183.606 230.028C185.906 226.085 187.056 221.814 187.056 217.214C187.056 212.696 185.906 208.466 183.606 204.523C181.306 200.58 178.226 197.459 174.365 195.159C170.504 192.776 166.315 191.585 161.797 191.585C157.279 191.585 153.049 192.776 149.106 195.159C145.246 197.541 142.124 200.703 139.742 204.646C137.442 208.589 136.292 212.819 136.292 217.337C136.292 221.855 137.442 226.085 139.742 230.028C142.124 233.889 145.287 237.01 149.229 239.392C153.172 241.692 157.403 242.842 161.921 242.842ZM202.144 189.491H206.087V202.305C207.73 198.28 210.112 195.117 213.233 192.818C216.437 190.518 220.051 189.368 224.076 189.368C226.623 189.368 229.21 189.901 231.839 190.969V195.528C229.457 193.721 226.787 192.818 223.83 192.818C220.873 192.818 217.998 193.721 215.205 195.528C212.494 197.335 210.276 199.759 208.551 202.798C206.908 205.837 206.087 209.082 206.087 212.532V244.937H202.144V189.491ZM246.416 176.8C245.266 176.8 244.24 176.389 243.336 175.568C242.515 174.746 242.104 173.719 242.104 172.487C242.104 171.337 242.515 170.351 243.336 169.53C244.24 168.709 245.266 168.298 246.416 168.298C247.566 168.298 248.552 168.709 249.374 169.53C250.277 170.351 250.729 171.337 250.729 172.487C250.729 173.719 250.277 174.746 249.374 175.568C248.552 176.389 247.566 176.8 246.416 176.8ZM244.445 189.491H248.388V244.937H244.445V189.491ZM266.759 189.491H270.702V201.812C272.509 197.705 275.59 194.419 279.943 191.955C284.297 189.409 289.102 188.135 294.359 188.135C301.177 188.135 306.557 190.312 310.5 194.666C314.525 198.937 316.538 204.934 316.538 212.655V244.937H312.595V212.655C312.595 206.001 310.952 200.826 307.666 197.13C304.463 193.434 299.945 191.585 294.113 191.585C289.841 191.585 285.898 192.571 282.284 194.542C278.752 196.432 275.918 199.06 273.782 202.428C271.729 205.796 270.702 209.616 270.702 213.887V244.937H266.759V189.491ZM332.096 152.773H336.039V208.712L357.971 189.491H363.023L337.641 211.669L369.43 244.937H364.132L336.039 215.366V244.937H332.096V152.773ZM399.491 246.046C395.631 246.046 392.099 245.183 388.895 243.458C385.692 241.651 383.145 239.146 381.256 235.942C379.367 232.739 378.422 229.166 378.422 225.223V152.527H382.365V225.223C382.365 228.508 383.104 231.466 384.583 234.094C386.143 236.723 388.238 238.817 390.867 240.378C393.495 241.857 396.37 242.596 399.491 242.596V246.046ZM435.487 242.966C439.759 242.966 443.825 241.857 447.685 239.639C451.546 237.421 454.75 234.382 457.296 230.521V236.805C454.257 240.173 450.93 242.637 447.316 244.198C443.702 245.676 439.594 246.416 434.994 246.416C429.902 246.416 425.096 245.06 420.578 242.35C416.143 239.639 412.57 236.025 409.859 231.507C407.23 226.989 405.916 222.183 405.916 217.091C405.916 211.587 407.23 206.659 409.859 202.305C412.487 197.869 416.061 194.419 420.578 191.955C425.178 189.491 430.271 188.259 435.857 188.259C444.4 188.259 451.669 191.626 457.666 198.362L418.977 236.558C421.687 238.776 424.316 240.419 426.862 241.487C429.409 242.473 432.284 242.966 435.487 242.966ZM409.859 216.721C409.859 223.539 412.118 229.371 416.636 234.217L452.737 198.362C450.027 195.98 447.398 194.296 444.852 193.31C442.305 192.243 439.266 191.709 435.734 191.709C430.723 191.709 426.246 192.818 422.303 195.035C418.443 197.171 415.403 200.128 413.186 203.907C410.968 207.685 409.859 211.957 409.859 216.721Z" fill="url(#paint0_radial)"/>
<path d="M68.1605 233.971H67.1979V234.264L67.3607 234.507L68.1605 233.971ZM68.1605 227.317L69.0383 226.922L67.1979 227.317H68.1605ZM77.7712 238.9L77.2372 239.701L77.2444 239.705L77.7712 238.9ZM104.385 240.378L103.947 239.521L103.939 239.525L104.385 240.378ZM112.764 232.739L113.58 233.249L112.764 232.739ZM113.873 211.423L113.002 211.833L113.873 211.423ZM107.343 203.414L106.713 204.142L106.719 204.147L106.724 204.152L107.343 203.414ZM94.1586 194.173L93.6484 194.989L93.6548 194.993L94.1586 194.173ZM90.2158 191.709L90.726 190.892L90.7192 190.888L90.2158 191.709ZM81.4676 185.794L80.8766 186.554H80.8766L81.4676 185.794ZM75.6765 179.757L74.8756 180.291L74.8842 180.304L74.8932 180.316L75.6765 179.757ZM109.684 159.303H110.646V158.968L110.437 158.705L109.684 159.303ZM109.684 165.587L108.839 166.05L110.646 165.587H109.684ZM80.7283 158.318L81.3768 159.029H81.3768L80.7283 158.318ZM80.3586 179.387L79.6208 180.005L79.6298 180.016L79.6392 180.027L80.3586 179.387ZM93.5425 189.121L94.0298 188.291L94.0213 188.286L93.5425 189.121ZM111.162 201.196L111.813 200.486L111.802 200.477L111.791 200.467L111.162 201.196ZM117.569 210.191L116.676 210.548L116.679 210.558L116.683 210.567L117.569 210.191ZM116.091 234.587L116.91 235.093L116.091 234.587ZM106.234 243.582L106.657 244.446L106.664 244.443L106.671 244.439L106.234 243.582ZM92.064 245.699C82.114 245.699 74.4476 241.627 68.9602 233.435L67.3607 234.507C73.209 243.237 81.4783 247.625 92.064 247.625V245.699ZM69.1231 233.971V227.317H67.1979V233.971H69.1231ZM67.2826 227.712C69.569 232.793 72.8863 236.8 77.2372 239.7L78.3051 238.099C74.2774 235.413 71.1876 231.699 69.0383 226.922L67.2826 227.712ZM77.2444 239.705C81.6961 242.616 86.9787 244.051 93.0497 244.051V242.126C87.2921 242.126 82.3891 240.769 78.2979 238.094L77.2444 239.705ZM93.0497 244.051C97.3036 244.051 101.237 243.114 104.832 241.231L103.939 239.525C100.634 241.256 97.01 242.126 93.0497 242.126V244.051ZM104.824 241.235C108.507 239.351 111.432 236.686 113.58 233.249L111.948 232.229C109.989 235.363 107.328 237.791 103.947 239.521L104.824 241.235ZM113.58 233.249C115.739 229.795 116.807 225.836 116.807 221.403H114.882C114.882 225.513 113.896 229.111 111.948 232.229L113.58 233.249ZM116.807 221.403C116.807 217.435 116.132 213.962 114.744 211.013L113.002 211.833C114.243 214.469 114.882 217.65 114.882 221.403H116.807ZM114.744 211.013C113.356 208.063 111.078 205.288 107.961 202.676L106.724 204.152C109.686 206.633 111.761 209.197 113.002 211.833L114.744 211.013ZM107.972 202.686C104.876 200.008 100.431 196.896 94.6625 193.353L93.6548 194.993C99.3858 198.514 103.73 201.563 106.713 204.142L107.972 202.686ZM94.6688 193.357L90.7259 190.892L89.7056 192.525L93.6484 194.989L94.6688 193.357ZM90.7192 190.888C87.1217 188.681 84.2381 186.73 82.0586 185.034L80.8766 186.554C83.1327 188.309 86.0813 190.301 89.7123 192.529L90.7192 190.888ZM82.0586 185.034C79.9146 183.367 78.0489 181.422 76.4598 179.197L74.8932 180.316C76.5898 182.692 78.5848 184.772 80.8766 186.554L82.0586 185.034ZM76.4775 179.223C74.4565 176.191 73.4356 172.684 73.4356 168.668H71.5103C71.5103 173.029 72.6252 176.915 74.8756 180.291L76.4775 179.223ZM73.4356 168.668C73.4356 163.309 75.1577 159.242 78.5235 156.335L77.2652 154.878C73.4025 158.214 71.5103 162.855 71.5103 168.668H73.4356ZM78.5235 156.335C81.934 153.39 86.2983 151.887 91.6943 151.887V149.962C85.919 149.962 81.0833 151.581 77.2652 154.878L78.5235 156.335ZM91.6943 151.887C98.978 151.887 104.689 154.562 108.93 159.902L110.437 158.705C105.807 152.874 99.5249 149.962 91.6943 149.962V151.887ZM108.721 159.303V165.587H110.646V159.303H108.721ZM110.528 165.125C108.559 161.529 105.853 158.691 102.416 156.63L101.426 158.281C104.561 160.162 107.03 162.745 108.839 166.05L110.528 165.125ZM102.416 156.63C98.9766 154.566 95.1903 153.535 91.0783 153.535V155.461C94.8519 155.461 98.2942 156.402 101.426 158.281L102.416 156.63ZM91.0783 153.535C86.7538 153.535 83.0659 154.884 80.0797 157.606L81.3768 159.029C83.9764 156.659 87.1885 155.461 91.0783 155.461V153.535ZM80.0797 157.606C77.0597 160.36 75.5764 164.041 75.5764 168.544H77.5016C77.5016 164.505 78.8112 161.368 81.3768 159.029L80.0797 157.606ZM75.5764 168.544C75.5764 172.946 76.9205 176.783 79.6208 180.005L81.0965 178.769C78.7039 175.913 77.5016 172.521 77.5016 168.544H75.5764ZM79.6392 180.027C82.3712 183.1 86.8725 186.407 93.0638 189.956L94.0213 188.286C87.8911 184.771 83.6032 181.588 81.0781 178.748L79.6392 180.027ZM93.0553 189.951C100.588 194.372 106.406 198.364 110.533 201.925L111.791 200.467C107.54 196.8 101.612 192.741 94.0298 188.291L93.0553 189.951ZM110.512 201.906C113.377 204.532 115.422 207.414 116.676 210.548L118.463 209.833C117.088 206.396 114.862 203.282 111.813 200.486L110.512 201.906ZM116.683 210.567C118.023 213.72 118.701 217.245 118.701 221.157H120.627C120.627 217.019 119.908 213.233 118.455 209.814L116.683 210.567ZM118.701 221.157C118.701 226.094 117.549 230.391 115.271 234.082L116.91 235.093C119.397 231.062 120.627 226.406 120.627 221.157H118.701ZM115.271 234.082C112.985 237.786 109.834 240.665 105.796 242.724L106.671 244.439C111.011 242.226 114.432 239.109 116.91 235.093L115.271 234.082ZM105.81 242.717C101.768 244.698 97.193 245.699 92.064 245.699V247.625C97.4492 247.625 102.32 246.572 106.657 244.446L105.81 242.717ZM132.596 189.491V188.528H131.633V189.491H132.596ZM136.538 189.491H137.501V188.528H136.538V189.491ZM136.538 203.044H135.576L137.399 203.475L136.538 203.044ZM146.888 192.325L147.371 193.158L147.382 193.151L146.888 192.325ZM176.337 192.078L175.846 192.906L175.852 192.91L176.337 192.078ZM187.056 202.675L186.228 203.165L187.056 202.675ZM187.056 231.753L186.228 231.262L187.056 231.753ZM176.337 242.35L175.852 241.517L175.846 241.521L176.337 242.35ZM147.135 242.226L146.646 243.056L146.653 243.059L147.135 242.226ZM136.538 231.507L137.38 231.039L135.576 227.792V231.507H136.538ZM136.538 269.58V270.542H137.501V269.58H136.538ZM132.596 269.58H131.633V270.542H132.596V269.58ZM174.488 239.392L174.981 240.219L174.987 240.216L174.994 240.212L174.488 239.392ZM183.606 230.028L182.775 229.543L182.771 229.549L183.606 230.028ZM183.606 204.523L184.438 204.038L183.606 204.523ZM174.365 195.159L173.86 195.978L173.866 195.982L173.872 195.986L174.365 195.159ZM149.106 195.159L148.608 194.335L148.601 194.339L149.106 195.159ZM139.742 204.646L138.918 204.148L138.914 204.155L138.911 204.161L139.742 204.646ZM139.742 230.028L138.911 230.513L138.917 230.523L138.923 230.534L139.742 230.028ZM149.229 239.392L148.732 240.216L148.738 240.22L148.744 240.224L149.229 239.392ZM132.596 190.453H136.538V188.528H132.596V190.453ZM135.576 189.491V203.044H137.501V189.491H135.576ZM137.399 203.475C139.525 199.223 142.836 195.783 147.371 193.158L146.406 191.492C141.577 194.288 137.987 197.994 135.677 202.614L137.399 203.475ZM147.382 193.151C151.923 190.442 156.682 189.098 161.674 189.098V187.173C156.316 187.173 151.218 188.621 146.395 191.498L147.382 193.151ZM161.674 189.098C166.847 189.098 171.564 190.369 175.846 192.906L176.827 191.25C172.238 188.53 167.18 187.173 161.674 187.173V189.098ZM175.852 192.91C180.23 195.457 183.684 198.873 186.228 203.165L187.884 202.184C185.171 197.605 181.478 193.956 176.821 191.246L175.852 192.91ZM186.228 203.165C188.767 207.449 190.036 212.126 190.036 217.214H191.962C191.962 211.788 190.603 206.771 187.884 202.184L186.228 203.165ZM190.036 217.214C190.036 222.302 188.767 226.978 186.228 231.262L187.884 232.244C190.603 227.657 191.962 222.64 191.962 217.214H190.036ZM186.228 231.262C183.684 235.555 180.23 238.97 175.852 241.517L176.821 243.182C181.478 240.472 185.171 236.823 187.884 232.244L186.228 231.262ZM175.846 241.521C171.564 244.059 166.847 245.33 161.674 245.33V247.255C167.18 247.255 172.238 245.897 176.827 243.178L175.846 241.521ZM161.674 245.33C156.846 245.33 152.165 244.026 147.617 241.393L146.653 243.059C151.469 245.848 156.481 247.255 161.674 247.255V245.33ZM147.624 241.397C143.163 238.769 139.757 235.317 137.38 231.039L135.697 231.974C138.249 236.568 141.906 240.263 146.646 243.056L147.624 241.397ZM135.576 231.507V269.58H137.501V231.507H135.576ZM136.538 268.617H132.596V270.542H136.538V268.617ZM133.558 269.58V189.491H131.633V269.58H133.558ZM161.921 243.805C166.611 243.805 170.97 242.609 174.981 240.219L173.996 238.565C170.285 240.776 166.266 241.88 161.921 241.88V243.805ZM174.994 240.212C178.988 237.747 182.142 234.51 184.441 230.508L182.771 229.549C180.635 233.268 177.71 236.273 173.983 238.573L174.994 240.212ZM184.438 230.513C186.824 226.422 188.019 221.983 188.019 217.214H186.094C186.094 221.645 184.988 225.749 182.775 229.543L184.438 230.513ZM188.019 217.214C188.019 212.524 186.823 208.126 184.438 204.038L182.775 205.008C184.99 208.805 186.094 212.868 186.094 217.214H188.019ZM184.438 204.038C182.057 199.956 178.861 196.716 174.858 194.332L173.872 195.986C177.591 198.201 180.556 201.204 182.775 205.008L184.438 204.038ZM174.871 194.339C170.859 191.864 166.494 190.623 161.797 190.623V192.548C166.136 192.548 170.15 193.689 173.86 195.978L174.871 194.339ZM161.797 190.623C157.1 190.623 152.698 191.864 148.608 194.335L149.604 195.982C153.4 193.689 157.459 192.548 161.797 192.548V190.623ZM148.601 194.339C144.608 196.803 141.378 200.077 138.918 204.148L140.566 205.144C142.87 201.33 145.883 198.278 149.612 195.978L148.601 194.339ZM138.911 204.161C136.526 208.249 135.329 212.647 135.329 217.337H137.255C137.255 212.992 138.358 208.928 140.573 205.131L138.911 204.161ZM135.329 217.337C135.329 222.027 136.526 226.425 138.911 230.513L140.573 229.543C138.358 225.746 137.255 221.683 137.255 217.337H135.329ZM138.923 230.534C141.387 234.527 144.66 237.756 148.732 240.216L149.727 238.568C145.913 236.264 142.862 233.251 140.561 229.523L138.923 230.534ZM148.744 240.224C152.833 242.609 157.23 243.805 161.921 243.805V241.88C157.575 241.88 153.512 240.776 149.715 238.561L148.744 240.224ZM202.144 189.491V188.528H201.181V189.491H202.144ZM206.087 189.491H207.05V188.528H206.087V189.491ZM206.087 202.305H205.124L206.978 202.669L206.087 202.305ZM213.233 192.818L212.672 192.035L212.662 192.043L213.233 192.818ZM231.839 190.969H232.801V190.321L232.201 190.077L231.839 190.969ZM231.839 195.528L231.257 196.295L232.801 197.467V195.528H231.839ZM215.205 195.528L214.682 194.72L214.671 194.727L215.205 195.528ZM208.551 202.798L207.714 202.323L207.709 202.331L207.704 202.34L208.551 202.798ZM206.087 244.937V245.9H207.05V244.937H206.087ZM202.144 244.937H201.181V245.9H202.144V244.937ZM202.144 190.453H206.087V188.528H202.144V190.453ZM205.124 189.491V202.305H207.05V189.491H205.124ZM206.978 202.669C208.562 198.787 210.842 195.775 213.804 193.592L212.662 192.043C209.382 194.46 206.897 197.773 205.196 201.941L206.978 202.669ZM213.795 193.599C216.831 191.419 220.248 190.33 224.076 190.33V188.405C219.854 188.405 216.043 189.616 212.672 192.036L213.795 193.599ZM224.076 190.33C226.485 190.33 228.95 190.835 231.476 191.861L232.201 190.077C229.47 188.968 226.76 188.405 224.076 188.405V190.33ZM230.876 190.969V195.528H232.801V190.969H230.876ZM232.42 194.761C229.873 192.829 226.999 191.855 223.83 191.855V193.78C226.574 193.78 229.04 194.613 231.257 196.295L232.42 194.761ZM223.83 191.855C220.665 191.855 217.61 192.825 214.682 194.72L215.728 196.336C218.385 194.617 221.081 193.78 223.83 193.78V191.855ZM214.671 194.727C211.826 196.624 209.508 199.162 207.714 202.323L209.388 203.273C211.045 200.355 213.162 198.047 215.739 196.329L214.671 194.727ZM207.704 202.34C205.986 205.52 205.124 208.922 205.124 212.532H207.05C207.05 209.242 207.831 206.154 209.398 203.256L207.704 202.34ZM205.124 212.532V244.937H207.05V212.532H205.124ZM206.087 243.974H202.144V245.9H206.087V243.974ZM203.107 244.937V189.491H201.181V244.937H203.107ZM243.336 175.568L242.655 176.248L242.672 176.264L242.689 176.28L243.336 175.568ZM243.336 169.53L242.689 168.818L242.672 168.833L242.655 168.849L243.336 169.53ZM249.374 169.53L248.693 170.211L248.709 170.227L248.726 170.242L249.374 169.53ZM249.374 175.568L248.726 174.855L248.709 174.871L248.693 174.887L249.374 175.568ZM244.445 189.491V188.528H243.482V189.491H244.445ZM248.388 189.491H249.35V188.528H248.388V189.491ZM248.388 244.937V245.9H249.35V244.937H248.388ZM244.445 244.937H243.482V245.9H244.445V244.937ZM246.416 175.837C245.522 175.837 244.722 175.527 243.984 174.855L242.689 176.28C243.757 177.251 245.011 177.762 246.416 177.762V175.837ZM244.017 174.887C243.388 174.258 243.067 173.481 243.067 172.487H241.141C241.141 173.957 241.642 175.234 242.655 176.248L244.017 174.887ZM243.067 172.487C243.067 171.595 243.374 170.854 244.017 170.211L242.655 168.849C241.656 169.849 241.141 171.079 241.141 172.487H243.067ZM243.984 170.242C244.722 169.571 245.522 169.261 246.416 169.261V167.335C245.011 167.335 243.757 167.846 242.689 168.818L243.984 170.242ZM246.416 169.261C247.308 169.261 248.05 169.568 248.693 170.211L250.054 168.849C249.054 167.85 247.825 167.335 246.416 167.335V169.261ZM248.726 170.242C249.443 170.894 249.766 171.627 249.766 172.487H251.692C251.692 171.048 251.111 169.809 250.021 168.818L248.726 170.242ZM249.766 172.487C249.766 173.451 249.427 174.218 248.726 174.855L250.021 176.28C251.127 175.274 251.692 173.988 251.692 172.487H249.766ZM248.693 174.887C248.05 175.53 247.308 175.837 246.416 175.837V177.762C247.825 177.762 249.054 177.248 250.054 176.248L248.693 174.887ZM244.445 190.453H248.388V188.528H244.445V190.453ZM247.425 189.491V244.937H249.35V189.491H247.425ZM248.388 243.974H244.445V245.9H248.388V243.974ZM245.408 244.937V189.491H243.482V244.937H245.408ZM266.759 189.491V188.528H265.797V189.491H266.759ZM270.702 189.491H271.665V188.528H270.702V189.491ZM270.702 201.812H269.739L271.583 202.2L270.702 201.812ZM279.943 191.955L280.417 192.793L280.429 192.786L279.943 191.955ZM310.5 194.666L309.787 195.312L309.793 195.319L309.8 195.326L310.5 194.666ZM316.538 244.937V245.9H317.5V244.937H316.538ZM312.595 244.937H311.632V245.9H312.595V244.937ZM307.666 197.13L306.939 197.76L306.947 197.77L307.666 197.13ZM282.284 194.542L282.738 195.391L282.745 195.388L282.284 194.542ZM273.782 202.428L272.969 201.913L272.965 201.92L272.961 201.927L273.782 202.428ZM270.702 244.937V245.9H271.665V244.937H270.702ZM266.759 244.937H265.797V245.9H266.759V244.937ZM266.759 190.453H270.702V188.528H266.759V190.453ZM269.739 189.491V201.812H271.665V189.491H269.739ZM271.583 202.2C273.297 198.304 276.223 195.167 280.417 192.793L279.469 191.117C274.957 193.671 271.721 197.106 269.821 201.424L271.583 202.2ZM280.429 192.786C284.629 190.329 289.265 189.098 294.359 189.098V187.173C288.939 187.173 283.965 188.488 279.457 191.124L280.429 192.786ZM294.359 189.098C300.953 189.098 306.056 191.193 309.787 195.312L311.214 194.02C307.058 189.431 301.401 187.173 294.359 187.173V189.098ZM309.8 195.326C313.609 199.368 315.575 205.099 315.575 212.655H317.5C317.5 204.768 315.442 198.506 311.201 194.006L309.8 195.326ZM315.575 212.655V244.937H317.5V212.655H315.575ZM316.538 243.974H312.595V245.9H316.538V243.974ZM313.557 244.937V212.655H311.632V244.937H313.557ZM313.557 212.655C313.557 205.848 311.875 200.416 308.386 196.49L306.947 197.77C310.029 201.237 311.632 206.155 311.632 212.655H313.557ZM308.394 196.5C304.972 192.551 300.165 190.623 294.113 190.623V192.548C299.725 192.548 303.953 194.316 306.939 197.76L308.394 196.5ZM294.113 190.623C289.687 190.623 285.584 191.646 281.823 193.697L282.745 195.388C286.213 193.496 289.996 192.548 294.113 192.548V190.623ZM281.83 193.694C278.152 195.661 275.195 198.404 272.969 201.913L274.595 202.944C276.642 199.717 279.352 197.203 282.738 195.391L281.83 193.694ZM272.961 201.927C270.807 205.458 269.739 209.454 269.739 213.887H271.665C271.665 209.777 272.65 206.134 274.604 202.929L272.961 201.927ZM269.739 213.887V244.937H271.665V213.887H269.739ZM270.702 243.974H266.759V245.9H270.702V243.974ZM267.722 244.937V189.491H265.797V244.937H267.722ZM332.096 152.773V151.81H331.134V152.773H332.096ZM336.039 152.773H337.002V151.81H336.039V152.773ZM336.039 208.712H335.077V210.836L336.674 209.436L336.039 208.712ZM357.971 189.491V188.528H357.609L357.337 188.767L357.971 189.491ZM363.023 189.491L363.656 190.216L365.588 188.528H363.023V189.491ZM337.641 211.669L337.008 210.944L336.25 211.607L336.945 212.334L337.641 211.669ZM369.43 244.937V245.9H371.681L370.126 244.272L369.43 244.937ZM364.132 244.937L363.434 245.6L363.719 245.9H364.132V244.937ZM336.039 215.366L336.737 214.703L335.077 212.955V215.366H336.039ZM336.039 244.937V245.9H337.002V244.937H336.039ZM332.096 244.937H331.134V245.9H332.096V244.937ZM332.096 153.736H336.039V151.81H332.096V153.736ZM335.077 152.773V208.712H337.002V152.773H335.077ZM336.674 209.436L358.606 190.215L357.337 188.767L335.405 207.988L336.674 209.436ZM357.971 190.453H363.023V188.528H357.971V190.453ZM362.39 188.766L337.008 210.944L338.274 212.394L363.656 190.216L362.39 188.766ZM336.945 212.334L368.734 245.602L370.126 244.272L338.337 211.004L336.945 212.334ZM369.43 243.974H364.132V245.9H369.43V243.974ZM364.83 244.274L336.737 214.703L335.341 216.029L363.434 245.6L364.83 244.274ZM335.077 215.366V244.937H337.002V215.366H335.077ZM336.039 243.974H332.096V245.9H336.039V243.974ZM333.059 244.937V152.773H331.134V244.937H333.059ZM399.491 246.046V247.009H400.454V246.046H399.491ZM388.895 243.458L388.422 244.297L388.43 244.302L388.439 244.306L388.895 243.458ZM381.256 235.942L382.085 235.453L381.256 235.942ZM378.422 152.527V151.564H377.459V152.527H378.422ZM382.365 152.527H383.327V151.564H382.365V152.527ZM384.583 234.094L383.744 234.566L383.749 234.576L383.755 234.586L384.583 234.094ZM390.867 240.378L390.375 241.206L390.385 241.212L390.395 241.217L390.867 240.378ZM399.491 242.596H400.454V241.633H399.491V242.596ZM399.491 245.083C395.78 245.083 392.406 244.256 389.351 242.611L388.439 244.306C391.791 246.111 395.482 247.009 399.491 247.009V245.083ZM389.368 242.62C386.314 240.897 383.889 238.513 382.085 235.453L380.427 236.431C382.401 239.779 385.069 242.406 388.422 244.297L389.368 242.62ZM382.085 235.453C380.288 232.407 379.385 229.004 379.385 225.223H377.459C377.459 229.327 378.445 233.071 380.427 236.431L382.085 235.453ZM379.385 225.223V152.527H377.459V225.223H379.385ZM378.422 153.489H382.365V151.564H378.422V153.489ZM381.402 152.527V225.223H383.327V152.527H381.402ZM381.402 225.223C381.402 228.659 382.177 231.781 383.744 234.566L385.422 233.622C384.031 231.15 383.327 228.358 383.327 225.223H381.402ZM383.755 234.586C385.398 237.353 387.608 239.563 390.375 241.206L391.358 239.55C388.868 238.072 386.889 236.093 385.41 233.603L383.755 234.586ZM390.395 241.217C393.172 242.78 396.211 243.559 399.491 243.559V241.633C396.529 241.633 393.818 240.934 391.338 239.539L390.395 241.217ZM398.529 242.596V246.046H400.454V242.596H398.529ZM447.685 239.639L447.206 238.804L447.685 239.639ZM457.296 230.521H458.259V227.313L456.493 229.991L457.296 230.521ZM457.296 236.805L458.011 237.45L458.259 237.175V236.805H457.296ZM447.316 244.198L447.68 245.089L447.689 245.085L447.697 245.081L447.316 244.198ZM420.578 242.35L420.076 243.171L420.083 243.175L420.578 242.35ZM409.859 231.507L409.027 231.991L409.033 232.002L409.859 231.507ZM409.859 202.305L410.683 202.803L410.687 202.796L409.859 202.305ZM420.578 191.955L420.124 191.106L420.117 191.11L420.578 191.955ZM457.666 198.362L458.342 199.047L458.993 198.405L458.385 197.722L457.666 198.362ZM418.977 236.558L418.3 235.873L417.539 236.626L418.367 237.303L418.977 236.558ZM426.862 241.487L426.49 242.375L426.502 242.38L426.515 242.385L426.862 241.487ZM416.636 234.217L415.931 234.874L416.609 235.601L417.314 234.9L416.636 234.217ZM452.737 198.362L453.416 199.045L454.147 198.319L453.373 197.639L452.737 198.362ZM444.852 193.31L444.479 194.198L444.492 194.203L444.504 194.208L444.852 193.31ZM422.303 195.035L422.769 195.878L422.775 195.874L422.303 195.035ZM435.487 243.928C439.934 243.928 444.165 242.771 448.165 240.473L447.206 238.804C443.485 240.942 439.583 242.003 435.487 242.003V243.928ZM448.165 240.473C452.161 238.178 455.474 235.032 458.1 231.051L456.493 229.991C454.026 233.731 450.931 236.664 447.206 238.804L448.165 240.473ZM456.334 230.521V236.805H458.259V230.521H456.334ZM456.582 236.16C453.621 239.441 450.404 241.816 446.934 243.314L447.697 245.081C451.457 243.458 454.893 240.905 458.011 237.45L456.582 236.16ZM446.951 243.307C443.471 244.73 439.491 245.453 434.994 245.453V247.378C439.698 247.378 443.932 246.622 447.68 245.089L446.951 243.307ZM434.994 245.453C430.082 245.453 425.447 244.148 421.074 241.524L420.083 243.175C424.745 245.972 429.721 247.378 434.994 247.378V245.453ZM421.08 241.528C416.779 238.9 413.316 235.398 410.684 231.011L409.033 232.002C411.823 236.651 415.506 240.378 420.076 243.171L421.08 241.528ZM410.691 231.023C408.145 226.648 406.879 222.009 406.879 217.091H404.953C404.953 222.358 406.315 227.33 409.027 231.991L410.691 231.023ZM406.879 217.091C406.879 211.748 408.152 206.994 410.683 202.803L409.035 201.807C406.308 206.323 404.953 211.427 404.953 217.091H406.879ZM410.687 202.796C413.227 198.509 416.674 195.181 421.039 192.8L420.117 191.11C415.447 193.657 411.747 197.23 409.031 201.814L410.687 202.796ZM421.033 192.804C425.483 190.419 430.418 189.221 435.857 189.221V187.296C430.124 187.296 424.873 188.562 420.124 191.106L421.033 192.804ZM435.857 189.221C444.108 189.221 451.122 192.459 456.947 199.002L458.385 197.722C452.217 190.794 444.691 187.296 435.857 187.296V189.221ZM456.99 197.677L418.3 235.873L419.653 237.243L458.342 199.047L456.99 197.677ZM418.367 237.303C421.131 239.565 423.839 241.263 426.49 242.375L427.235 240.599C424.793 239.575 422.243 237.988 419.586 235.813L418.367 237.303ZM426.515 242.385C429.189 243.42 432.185 243.928 435.487 243.928V242.003C432.382 242.003 429.628 241.525 427.21 240.589L426.515 242.385ZM408.896 216.721C408.896 223.775 411.242 229.844 415.931 234.874L417.34 233.561C412.993 228.898 410.821 223.303 410.821 216.721H408.896ZM417.314 234.9L453.416 199.045L452.059 197.679L415.957 233.534L417.314 234.9ZM453.373 197.639C450.603 195.205 447.879 193.45 445.199 192.413L444.504 194.208C446.917 195.142 449.45 196.755 452.102 199.085L453.373 197.639ZM445.224 192.423C442.532 191.294 439.359 190.746 435.734 190.746V192.671C439.172 192.671 442.079 193.191 444.479 194.198L445.224 192.423ZM435.734 190.746C430.576 190.746 425.933 191.889 421.831 194.196L422.775 195.874C426.559 193.746 430.87 192.671 435.734 192.671V190.746ZM421.837 194.193C417.827 196.412 414.661 199.491 412.355 203.419L414.016 204.394C416.146 200.765 419.059 197.93 422.769 195.878L421.837 194.193ZM412.355 203.419C410.043 207.359 408.896 211.801 408.896 216.721H410.821C410.821 212.113 411.892 208.012 414.016 204.394L412.355 203.419Z" fill="url(#paint1_radial)" fill-opacity="0.5"/>
<rect width="6.28762" height="35.4383" rx="3.14381" transform="matrix(0.897755 -0.440495 0.44683 0.894619 88.1799 89.2542)" fill="#FFCE1C"/>
<rect width="6.25134" height="35.6438" rx="3.12567" transform="matrix(-0.393416 -0.91936 -0.921856 0.387532 35.3174 94.3125)" fill="#FFCE1C"/>
<rect width="6.26654" height="35.558" rx="3.13327" transform="matrix(0.654922 -0.755697 0.761424 0.648254 329.624 14.2253)" fill="#FFCE1C"/>
<rect width="6.29724" height="35.3834" rx="3.14862" transform="matrix(-0.988373 0.152049 -0.154711 -0.98796 219.889 79.9637)" fill="#16CCB1"/>
<rect width="6.25143" height="35.6433" rx="3.12572" transform="matrix(-0.39566 -0.918397 0.920919 -0.389753 134.743 145.656)" fill="#16CCB1"/>
<rect width="6.25742" height="35.6095" rx="3.12871" transform="matrix(0.514672 0.857387 -0.861382 0.507957 233.217 117.978)" fill="#FFCE1C"/>
<rect width="6.25513" height="35.6225" rx="3.12756" transform="matrix(-0.472608 -0.881273 0.884732 -0.4661 168.455 29.5251)" fill="#FFCE1C"/>
<rect width="6.29724" height="35.3834" rx="3.14862" transform="matrix(-0.988373 0.152049 -0.154711 -0.98796 219.889 79.9637)" fill="#16CCB1"/>
<rect width="6.28577" height="35.4488" rx="3.14289" transform="matrix(-0.879241 0.476377 -0.482944 -0.875651 161.215 92.554)" fill="#FF03FF"/>
<rect width="6.25513" height="35.6225" rx="3.12756" transform="matrix(-0.472608 -0.881273 0.884732 -0.4661 168.455 29.5251)" fill="#FFCE1C"/>
<rect width="6.25363" height="35.6309" rx="3.12681" transform="matrix(-0.442967 0.896538 -0.899627 -0.436659 213.284 99.9622)" fill="#16CCB1"/>
<rect width="6.27419" height="35.5146" rx="3.1371" transform="matrix(0.752545 -0.658541 0.665154 0.746706 238.344 37.255)" fill="#FFCE1C"/>
<rect width="6.26692" height="35.5558" rx="3.13346" transform="matrix(-0.660187 0.751101 -0.756886 -0.653547 395.476 84.1067)" fill="#16CCB1"/>
<rect width="6.27707" height="35.4983" rx="3.13854" transform="matrix(0.785989 0.61824 -0.625023 0.780607 445.568 44.5674)" fill="#16CCB1"/>
<rect width="6.25515" height="35.6223" rx="3.12758" transform="matrix(0.473004 0.88106 -0.884523 0.466496 391.23 118.641)" fill="#FF03FF"/>
<rect width="6.26547" height="35.564" rx="3.13274" transform="matrix(0.640175 -0.768229 0.773788 0.633444 385.835 26.5248)" fill="#FF03FF"/>
<rect width="6.2866" height="35.4441" rx="3.1433" transform="matrix(0.887589 -0.460636 0.467109 0.8842 417.525 91.6793)" fill="#FFCE1C"/>
<rect width="6.25227" height="35.6386" rx="3.12613" transform="matrix(-0.41429 -0.910145 -0.912886 0.408214 352.151 96.1276)" fill="#FFCE1C"/>
<rect width="6.27797" height="35.4933" rx="3.13898" transform="matrix(-0.796018 -0.605273 0.612088 -0.790789 523.578 97.5427)" fill="#16CCB1"/>
<rect width="6.25855" height="35.603" rx="3.12927" transform="matrix(0.53406 0.845446 -0.849689 0.527285 546.733 111.456)" fill="#FFCE1C"/>
<rect width="6.2847" height="35.455" rx="3.14235" transform="matrix(-0.868263 0.496103 -0.502769 -0.864421 490.617 93.3369)" fill="#FF03FF"/>
<rect width="6.25619" height="35.6164" rx="3.1281" transform="matrix(-0.492566 -0.870275 0.873986 -0.48595 500.667 63.4563)" fill="#FFCE1C"/>
<rect width="6.25265" height="35.6365" rx="3.12632" transform="matrix(-0.422405 0.906407 -0.909246 -0.41626 496.937 134.614)" fill="#16CCB1"/>
<defs>
<radialGradient id="paint0_radial" cx="0" cy="0" r="1" gradientUnits="userSpaceOnUse" gradientTransform="translate(281.335 204.972) rotate(90) scale(78.0351 218.35)">
<stop stop-color="#FF03FF"/>
<stop offset="0.989583" stop-color="#16CCB1"/>
</radialGradient>
<radialGradient id="paint1_radial" cx="0" cy="0" r="1" gradientUnits="userSpaceOnUse" gradientTransform="translate(281.335 204.972) rotate(90) scale(78.0351 218.35)">
<stop stop-color="#16CCB1"/>
<stop offset="1" stop-color="#FF03FF"/>
</radialGradient>
</defs>
</svg>
