<svg width="178" height="58" viewBox="0 0 178 58" fill="none" xmlns="http://www.w3.org/2000/svg">
<g filter="url(#filter0_d)">
<rect x="4" width="170" height="50" rx="25" fill="#D90368"/>
</g>
<path d="M30.8272 18.6246L25.3372 31.2246H23.0332L17.5252 18.6246H20.0632L24.2572 28.3446L28.4872 18.6246H30.8272ZM32.0287 21.6126H34.2787V31.2246H32.0287V21.6126ZM33.1627 20.0286C32.7547 20.0286 32.4127 19.9026 32.1367 19.6506C31.8607 19.3866 31.7227 19.0626 31.7227 18.6786C31.7227 18.2946 31.8607 17.9766 32.1367 17.7246C32.4127 17.4606 32.7547 17.3286 33.1627 17.3286C33.5707 17.3286 33.9127 17.4546 34.1887 17.7066C34.4647 17.9466 34.6027 18.2526 34.6027 18.6246C34.6027 19.0206 34.4647 19.3566 34.1887 19.6326C33.9247 19.8966 33.5827 20.0286 33.1627 20.0286ZM46.2679 26.4726C46.2679 26.6286 46.2559 26.8506 46.2319 27.1386H38.6899C38.8219 27.8466 39.1639 28.4106 39.7159 28.8306C40.2799 29.2386 40.9759 29.4426 41.8039 29.4426C42.8599 29.4426 43.7299 29.0946 44.4139 28.3986L45.6199 29.7846C45.1879 30.3006 44.6419 30.6906 43.9819 30.9546C43.3219 31.2186 42.5779 31.3506 41.7499 31.3506C40.6939 31.3506 39.7639 31.1406 38.9599 30.7206C38.1559 30.3006 37.5319 29.7186 37.0879 28.9746C36.6559 28.2186 36.4399 27.3666 36.4399 26.4186C36.4399 25.4826 36.6499 24.6426 37.0699 23.8986C37.5019 23.1426 38.0959 22.5546 38.8519 22.1346C39.6079 21.7146 40.4599 21.5046 41.4079 21.5046C42.3439 21.5046 43.1779 21.7146 43.9099 22.1346C44.6539 22.5426 45.2299 23.1246 45.6379 23.8806C46.0579 24.6246 46.2679 25.4886 46.2679 26.4726ZM41.4079 23.3046C40.6879 23.3046 40.0759 23.5206 39.5719 23.9526C39.0799 24.3726 38.7799 24.9366 38.6719 25.6446H44.1259C44.0299 24.9486 43.7359 24.3846 43.2439 23.9526C42.7519 23.5206 42.1399 23.3046 41.4079 23.3046ZM63.2473 21.6126L59.7013 31.2246H57.5413L55.0573 24.6006L52.5373 31.2246H50.3773L46.8493 21.6126H48.9733L51.5113 28.7046L54.1573 21.6126H56.0473L58.6393 28.7406L61.2493 21.6126H63.2473ZM75.169 18.6246C76.261 18.6246 77.209 18.8046 78.013 19.1646C78.829 19.5246 79.453 20.0406 79.885 20.7126C80.317 21.3846 80.533 22.1826 80.533 23.1066C80.533 24.0186 80.317 24.8166 79.885 25.5006C79.453 26.1726 78.829 26.6886 78.013 27.0486C77.209 27.4086 76.261 27.5886 75.169 27.5886H72.325V31.2246H69.985V18.6246H75.169ZM75.061 25.6086C76.081 25.6086 76.855 25.3926 77.383 24.9606C77.911 24.5286 78.175 23.9106 78.175 23.1066C78.175 22.3026 77.911 21.6846 77.383 21.2526C76.855 20.8206 76.081 20.6046 75.061 20.6046H72.325V25.6086H75.061ZM84.7078 23.0166C85.3558 22.0086 86.4958 21.5046 88.1278 21.5046V23.6466C87.9358 23.6106 87.7618 23.5926 87.6058 23.5926C86.7298 23.5926 86.0458 23.8506 85.5538 24.3666C85.0618 24.8706 84.8158 25.6026 84.8158 26.5626V31.2246H82.5658V21.6126H84.7078V23.0166ZM94.2687 31.3506C93.2967 31.3506 92.4207 31.1406 91.6407 30.7206C90.8607 30.3006 90.2487 29.7186 89.8047 28.9746C89.3727 28.2186 89.1567 27.3666 89.1567 26.4186C89.1567 25.4706 89.3727 24.6246 89.8047 23.8806C90.2487 23.1366 90.8607 22.5546 91.6407 22.1346C92.4207 21.7146 93.2967 21.5046 94.2687 21.5046C95.2527 21.5046 96.1347 21.7146 96.9147 22.1346C97.6947 22.5546 98.3007 23.1366 98.7327 23.8806C99.1767 24.6246 99.3987 25.4706 99.3987 26.4186C99.3987 27.3666 99.1767 28.2186 98.7327 28.9746C98.3007 29.7186 97.6947 30.3006 96.9147 30.7206C96.1347 31.1406 95.2527 31.3506 94.2687 31.3506ZM94.2687 29.4246C95.0967 29.4246 95.7807 29.1486 96.3207 28.5966C96.8607 28.0446 97.1307 27.3186 97.1307 26.4186C97.1307 25.5186 96.8607 24.7926 96.3207 24.2406C95.7807 23.6886 95.0967 23.4126 94.2687 23.4126C93.4407 23.4126 92.7567 23.6886 92.2167 24.2406C91.6887 24.7926 91.4247 25.5186 91.4247 26.4186C91.4247 27.3186 91.6887 28.0446 92.2167 28.5966C92.7567 29.1486 93.4407 29.4246 94.2687 29.4246ZM107.328 30.7026C107.064 30.9186 106.74 31.0806 106.356 31.1886C105.984 31.2966 105.588 31.3506 105.168 31.3506C104.112 31.3506 103.296 31.0746 102.72 30.5226C102.144 29.9706 101.856 29.1666 101.856 28.1106V23.4846H100.272V21.6846H101.856V19.4886H104.106V21.6846H106.68V23.4846H104.106V28.0566C104.106 28.5246 104.22 28.8846 104.448 29.1366C104.676 29.3766 105.006 29.4966 105.438 29.4966C105.942 29.4966 106.362 29.3646 106.698 29.1006L107.328 30.7026ZM113.183 31.3506C112.211 31.3506 111.335 31.1406 110.555 30.7206C109.775 30.3006 109.163 29.7186 108.719 28.9746C108.287 28.2186 108.071 27.3666 108.071 26.4186C108.071 25.4706 108.287 24.6246 108.719 23.8806C109.163 23.1366 109.775 22.5546 110.555 22.1346C111.335 21.7146 112.211 21.5046 113.183 21.5046C114.167 21.5046 115.049 21.7146 115.829 22.1346C116.609 22.5546 117.215 23.1366 117.647 23.8806C118.091 24.6246 118.313 25.4706 118.313 26.4186C118.313 27.3666 118.091 28.2186 117.647 28.9746C117.215 29.7186 116.609 30.3006 115.829 30.7206C115.049 31.1406 114.167 31.3506 113.183 31.3506ZM113.183 29.4246C114.011 29.4246 114.695 29.1486 115.235 28.5966C115.775 28.0446 116.045 27.3186 116.045 26.4186C116.045 25.5186 115.775 24.7926 115.235 24.2406C114.695 23.6886 114.011 23.4126 113.183 23.4126C112.355 23.4126 111.671 23.6886 111.131 24.2406C110.603 24.7926 110.339 25.5186 110.339 26.4186C110.339 27.3186 110.603 28.0446 111.131 28.5966C111.671 29.1486 112.355 29.4246 113.183 29.4246ZM126.242 30.7026C125.978 30.9186 125.654 31.0806 125.27 31.1886C124.898 31.2966 124.502 31.3506 124.082 31.3506C123.026 31.3506 122.21 31.0746 121.634 30.5226C121.058 29.9706 120.77 29.1666 120.77 28.1106V23.4846H119.186V21.6846H120.77V19.4886H123.02V21.6846H125.594V23.4846H123.02V28.0566C123.02 28.5246 123.134 28.8846 123.362 29.1366C123.59 29.3766 123.92 29.4966 124.352 29.4966C124.856 29.4966 125.276 29.3646 125.612 29.1006L126.242 30.7026ZM136.917 21.6126L132.417 31.9986C131.997 33.0426 131.487 33.7746 130.887 34.1946C130.287 34.6266 129.561 34.8426 128.709 34.8426C128.229 34.8426 127.755 34.7646 127.287 34.6086C126.819 34.4526 126.435 34.2366 126.135 33.9606L127.035 32.3046C127.251 32.5086 127.503 32.6706 127.791 32.7906C128.091 32.9106 128.391 32.9706 128.691 32.9706C129.087 32.9706 129.411 32.8686 129.663 32.6646C129.927 32.4606 130.167 32.1186 130.383 31.6386L130.545 31.2606L126.351 21.6126H128.691L131.715 28.7226L134.757 21.6126H136.917ZM143.652 21.5046C144.588 21.5046 145.422 21.7086 146.154 22.1166C146.898 22.5246 147.48 23.1006 147.9 23.8446C148.32 24.5886 148.53 25.4466 148.53 26.4186C148.53 27.3906 148.32 28.2546 147.9 29.0106C147.48 29.7546 146.898 30.3306 146.154 30.7386C145.422 31.1466 144.588 31.3506 143.652 31.3506C142.356 31.3506 141.33 30.9186 140.574 30.0546V34.7166H138.324V21.6126H140.466V22.8726C140.838 22.4166 141.294 22.0746 141.834 21.8466C142.386 21.6186 142.992 21.5046 143.652 21.5046ZM143.4 29.4246C144.228 29.4246 144.906 29.1486 145.434 28.5966C145.974 28.0446 146.244 27.3186 146.244 26.4186C146.244 25.5186 145.974 24.7926 145.434 24.2406C144.906 23.6886 144.228 23.4126 143.4 23.4126C142.86 23.4126 142.374 23.5386 141.942 23.7906C141.51 24.0306 141.168 24.3786 140.916 24.8346C140.664 25.2906 140.538 25.8186 140.538 26.4186C140.538 27.0186 140.664 27.5466 140.916 28.0026C141.168 28.4586 141.51 28.8126 141.942 29.0646C142.374 29.3046 142.86 29.4246 143.4 29.4246ZM159.7 26.4726C159.7 26.6286 159.688 26.8506 159.664 27.1386H152.122C152.254 27.8466 152.596 28.4106 153.148 28.8306C153.712 29.2386 154.408 29.4426 155.236 29.4426C156.292 29.4426 157.162 29.0946 157.846 28.3986L159.052 29.7846C158.62 30.3006 158.074 30.6906 157.414 30.9546C156.754 31.2186 156.01 31.3506 155.182 31.3506C154.126 31.3506 153.196 31.1406 152.392 30.7206C151.588 30.3006 150.964 29.7186 150.52 28.9746C150.088 28.2186 149.872 27.3666 149.872 26.4186C149.872 25.4826 150.082 24.6426 150.502 23.8986C150.934 23.1426 151.528 22.5546 152.284 22.1346C153.04 21.7146 153.892 21.5046 154.84 21.5046C155.776 21.5046 156.61 21.7146 157.342 22.1346C158.086 22.5426 158.662 23.1246 159.07 23.8806C159.49 24.6246 159.7 25.4886 159.7 26.4726ZM154.84 23.3046C154.12 23.3046 153.508 23.5206 153.004 23.9526C152.512 24.3726 152.212 24.9366 152.104 25.6446H157.558C157.462 24.9486 157.168 24.3846 156.676 23.9526C156.184 23.5206 155.572 23.3046 154.84 23.3046Z" fill="white"/>
<defs>
<filter id="filter0_d" x="0" y="0" width="178" height="58" filterUnits="userSpaceOnUse" color-interpolation-filters="sRGB">
<feFlood flood-opacity="0" result="BackgroundImageFix"/>
<feColorMatrix in="SourceAlpha" type="matrix" values="0 0 0 0 0 0 0 0 0 0 0 0 0 0 0 0 0 0 127 0"/>
<feOffset dy="4"/>
<feGaussianBlur stdDeviation="2"/>
<feColorMatrix type="matrix" values="0 0 0 0 0 0 0 0 0 0 0 0 0 0 0 0 0 0 0.25 0"/>
<feBlend mode="normal" in2="BackgroundImageFix" result="effect1_dropShadow"/>
<feBlend mode="normal" in="SourceGraphic" in2="effect1_dropShadow" result="shape"/>
</filter>
</defs>
</svg>
