<svg width="314" height="65" viewBox="0 0 314 65" fill="none" xmlns="http://www.w3.org/2000/svg">
<path d="M0 0H304C309.523 0 314 4.47715 314 10V55C314 60.5228 309.523 65 304 65H0V0Z" fill="#FE7F2D"/>
<path d="M60.8932 18.052H65.4292V43H60.8932V31.948H50.0572V43H45.5212V18.052H50.0572V28.024H60.8932V18.052ZM75.5722 43H71.2162V24.172H75.5722V43ZM76.0402 18.664C76.0402 19.48 75.7762 20.128 75.2482 20.608C74.7202 21.088 74.0962 21.328 73.3762 21.328C72.6322 21.328 71.9962 21.088 71.4682 20.608C70.9402 20.128 70.6762 19.48 70.6762 18.664C70.6762 17.824 70.9402 17.164 71.4682 16.684C71.9962 16.204 72.6322 15.964 73.3762 15.964C74.0962 15.964 74.7202 16.204 75.2482 16.684C75.7762 17.164 76.0402 17.824 76.0402 18.664ZM79.1854 30.724H88.8694V34.72H79.1854V30.724ZM92.7009 43V18.052H108.469V21.904H97.2369V28.276H107.209V32.128H97.2369V43H92.7009ZM116.705 43H112.349V24.172H116.705V43ZM117.173 18.664C117.173 19.48 116.909 20.128 116.381 20.608C115.853 21.088 115.229 21.328 114.509 21.328C113.765 21.328 113.129 21.088 112.601 20.608C112.073 20.128 111.809 19.48 111.809 18.664C111.809 17.824 112.073 17.164 112.601 16.684C113.129 16.204 113.765 15.964 114.509 15.964C115.229 15.964 115.853 16.204 116.381 16.684C116.909 17.164 117.173 17.824 117.173 18.664ZM136.317 18.052C136.845 18.964 137.433 20.08 138.081 21.4C138.729 22.72 139.389 24.112 140.061 25.576C140.733 27.016 141.393 28.492 142.041 30.004C142.713 31.492 143.325 32.872 143.877 34.144C144.429 32.872 145.029 31.492 145.677 30.004C146.325 28.492 146.985 27.016 147.657 25.576C148.329 24.112 148.989 22.72 149.637 21.4C150.285 20.08 150.873 18.964 151.401 18.052H155.505C155.721 19.876 155.925 21.82 156.117 23.884C156.309 25.924 156.477 28.024 156.621 30.184C156.789 32.32 156.933 34.48 157.053 36.664C157.197 38.824 157.317 40.936 157.413 43H152.949C152.853 40.096 152.733 37.108 152.589 34.036C152.469 30.964 152.277 27.988 152.013 25.108C151.749 25.66 151.437 26.32 151.077 27.088C150.717 27.856 150.333 28.696 149.925 29.608C149.517 30.496 149.097 31.42 148.665 32.38C148.257 33.34 147.849 34.276 147.441 35.188C147.057 36.076 146.697 36.916 146.361 37.708C146.025 38.476 145.737 39.136 145.497 39.688H142.113C141.873 39.136 141.585 38.464 141.249 37.672C140.913 36.88 140.541 36.04 140.133 35.152C139.749 34.24 139.341 33.304 138.909 32.344C138.501 31.384 138.093 30.46 137.685 29.572C137.277 28.684 136.893 27.856 136.533 27.088C136.173 26.296 135.861 25.636 135.597 25.108C135.333 27.988 135.129 30.964 134.985 34.036C134.865 37.108 134.757 40.096 134.661 43H130.197C130.293 40.936 130.401 38.8 130.521 36.592C130.665 34.384 130.809 32.2 130.953 30.04C131.121 27.856 131.301 25.744 131.493 23.704C131.685 21.664 131.889 19.78 132.105 18.052H136.317ZM179.509 33.568C179.509 35.056 179.293 36.412 178.861 37.636C178.429 38.86 177.817 39.904 177.025 40.768C176.233 41.632 175.273 42.304 174.145 42.784C173.041 43.264 171.817 43.504 170.473 43.504C169.129 43.504 167.905 43.264 166.801 42.784C165.697 42.304 164.749 41.632 163.957 40.768C163.165 39.904 162.541 38.86 162.085 37.636C161.653 36.412 161.437 35.056 161.437 33.568C161.437 32.08 161.653 30.736 162.085 29.536C162.541 28.312 163.165 27.268 163.957 26.404C164.773 25.54 165.733 24.88 166.837 24.424C167.941 23.944 169.153 23.704 170.473 23.704C171.793 23.704 173.005 23.944 174.109 24.424C175.237 24.88 176.197 25.54 176.989 26.404C177.781 27.268 178.393 28.312 178.825 29.536C179.281 30.736 179.509 32.08 179.509 33.568ZM175.045 33.568C175.045 31.696 174.637 30.22 173.821 29.14C173.029 28.036 171.913 27.484 170.473 27.484C169.033 27.484 167.905 28.036 167.089 29.14C166.297 30.22 165.901 31.696 165.901 33.568C165.901 35.464 166.297 36.964 167.089 38.068C167.905 39.172 169.033 39.724 170.473 39.724C171.913 39.724 173.029 39.172 173.821 38.068C174.637 36.964 175.045 35.464 175.045 33.568ZM182.953 33.604C182.953 32.212 183.169 30.916 183.601 29.716C184.033 28.492 184.645 27.436 185.437 26.548C186.253 25.66 187.237 24.964 188.389 24.46C189.541 23.956 190.837 23.704 192.277 23.704C194.053 23.704 195.733 24.028 197.317 24.676L196.381 28.24C195.877 28.024 195.301 27.844 194.653 27.7C194.029 27.556 193.357 27.484 192.637 27.484C190.933 27.484 189.637 28.024 188.749 29.104C187.861 30.16 187.417 31.66 187.417 33.604C187.417 35.476 187.837 36.964 188.677 38.068C189.517 39.148 190.933 39.688 192.925 39.688C193.669 39.688 194.401 39.616 195.121 39.472C195.841 39.328 196.465 39.148 196.993 38.932L197.605 42.532C197.125 42.772 196.393 42.988 195.409 43.18C194.449 43.372 193.453 43.468 192.421 43.468C190.813 43.468 189.409 43.228 188.209 42.748C187.033 42.244 186.049 41.56 185.257 40.696C184.489 39.808 183.913 38.764 183.529 37.564C183.145 36.34 182.953 35.02 182.953 33.604ZM205.333 31.516C205.885 30.94 206.473 30.328 207.097 29.68C207.721 29.008 208.333 28.348 208.933 27.7C209.533 27.028 210.097 26.392 210.625 25.792C211.177 25.168 211.645 24.628 212.029 24.172H217.177C215.977 25.516 214.705 26.908 213.361 28.348C212.041 29.788 210.709 31.192 209.365 32.56C210.085 33.16 210.841 33.892 211.633 34.756C212.425 35.596 213.193 36.496 213.937 37.456C214.681 38.416 215.377 39.376 216.025 40.336C216.673 41.296 217.213 42.184 217.645 43H212.605C212.173 42.256 211.669 41.476 211.093 40.66C210.541 39.844 209.941 39.052 209.293 38.284C208.645 37.516 207.985 36.796 207.313 36.124C206.641 35.428 205.981 34.84 205.333 34.36V43H200.977V15.784L205.333 15.064V31.516ZM236.249 42.424C235.409 42.64 234.317 42.856 232.973 43.072C231.629 43.312 230.153 43.432 228.545 43.432C227.033 43.432 225.761 43.216 224.729 42.784C223.721 42.352 222.905 41.752 222.281 40.984C221.681 40.216 221.249 39.304 220.985 38.248C220.721 37.168 220.589 35.992 220.589 34.72V24.172H224.945V34.036C224.945 36.052 225.233 37.492 225.809 38.356C226.409 39.22 227.441 39.652 228.905 39.652C229.433 39.652 229.985 39.628 230.561 39.58C231.161 39.532 231.605 39.472 231.893 39.4V24.172H236.249V42.424ZM254.285 33.676C254.285 31.732 253.841 30.22 252.953 29.14C252.089 28.06 250.685 27.52 248.741 27.52C248.333 27.52 247.901 27.544 247.445 27.592C247.013 27.616 246.581 27.688 246.149 27.808V38.572C246.533 38.836 247.037 39.088 247.661 39.328C248.309 39.544 248.993 39.652 249.713 39.652C251.297 39.652 252.449 39.112 253.169 38.032C253.913 36.952 254.285 35.5 254.285 33.676ZM258.749 33.604C258.749 35.044 258.557 36.364 258.173 37.564C257.813 38.764 257.285 39.796 256.589 40.66C255.893 41.524 255.017 42.196 253.961 42.676C252.929 43.156 251.753 43.396 250.433 43.396C249.545 43.396 248.729 43.288 247.985 43.072C247.241 42.856 246.629 42.616 246.149 42.352V49.66H241.793V24.784C242.681 24.544 243.773 24.316 245.069 24.1C246.365 23.884 247.733 23.776 249.173 23.776C250.661 23.776 251.993 24.004 253.169 24.46C254.345 24.916 255.341 25.576 256.157 26.44C256.997 27.28 257.633 28.312 258.065 29.536C258.521 30.736 258.749 32.092 258.749 33.604Z" fill="white"/>
</svg>
