<svg width="310" height="329" viewBox="0 0 310 329" fill="none" xmlns="http://www.w3.org/2000/svg">
<circle cx="144" cy="125" r="122.5" fill="url(#paint0_linear)" stroke="#FE7F2D" stroke-width="5"/>
<path d="M77.0661 121.144C77.8021 121.144 78.5701 121.08 79.3701 120.952C80.1701 120.792 80.7621 120.584 81.1461 120.328V119.896C81.1461 119.768 81.1461 119.64 81.1461 119.512C81.1781 119.384 81.1941 119.272 81.1941 119.176C81.1621 118.024 81.0661 116.952 80.9061 115.96C80.7461 114.936 80.4741 114.056 80.0901 113.32C79.7061 112.552 79.1781 111.96 78.5061 111.544C77.8661 111.096 77.0661 110.872 76.1061 110.872C75.3381 110.872 74.6661 111.032 74.0901 111.352C73.5141 111.672 73.0501 112.088 72.6981 112.6C72.3461 113.112 72.0741 113.672 71.8821 114.28C71.7221 114.888 71.6421 115.48 71.6421 116.056C71.6421 117.784 72.0581 119.064 72.8901 119.896C73.7541 120.728 75.1461 121.144 77.0661 121.144ZM80.5701 125.8C79.8981 126.12 79.1461 126.36 78.3141 126.52C77.5141 126.648 76.8261 126.712 76.2501 126.712C74.1701 126.712 72.3941 126.472 70.9221 125.992C69.4501 125.48 68.2341 124.776 67.2741 123.88C66.3461 122.952 65.6581 121.848 65.2101 120.568C64.7621 119.288 64.5381 117.88 64.5381 116.344C64.5381 115.064 64.7461 113.752 65.1621 112.408C65.6101 111.064 66.2981 109.848 67.2261 108.76C68.1541 107.64 69.3221 106.728 70.7301 106.024C72.1701 105.288 73.8981 104.92 75.9141 104.92C80.0421 104.92 83.1461 106.2 85.2261 108.76C87.3381 111.288 88.3941 114.936 88.3941 119.704C88.3941 122.84 87.9781 125.608 87.1461 128.008C86.3461 130.408 85.0821 132.424 83.3541 134.056C81.6581 135.688 79.4821 136.936 76.8261 137.8C74.1701 138.632 71.0181 139.064 67.3701 139.096C67.3381 138.072 67.2901 137.08 67.2261 136.12C67.1621 135.16 67.0981 134.168 67.0341 133.144C68.8581 133.112 70.5061 132.984 71.9781 132.76C73.4501 132.504 74.7461 132.104 75.8661 131.56C76.9861 130.984 77.9301 130.232 78.6981 129.304C79.4981 128.376 80.1221 127.208 80.5701 125.8ZM115.43 122.296C115.43 127.896 114.358 132.2 112.214 135.208C110.102 138.184 107.174 139.672 103.43 139.672C99.6857 139.672 96.7417 138.184 94.5977 135.208C92.4857 132.2 91.4297 127.896 91.4297 122.296C91.4297 119.512 91.7017 117.048 92.2457 114.904C92.8217 112.76 93.6377 110.952 94.6937 109.48C95.7497 108.008 97.0137 106.888 98.4857 106.12C99.9577 105.352 101.606 104.968 103.43 104.968C107.174 104.968 110.102 106.472 112.214 109.48C114.358 112.456 115.43 116.728 115.43 122.296ZM108.134 122.296C108.134 120.632 108.054 119.128 107.894 117.784C107.734 116.408 107.478 115.224 107.126 114.232C106.774 113.24 106.294 112.472 105.686 111.928C105.078 111.384 104.326 111.112 103.43 111.112C102.534 111.112 101.782 111.384 101.174 111.928C100.598 112.472 100.118 113.24 99.7337 114.232C99.3817 115.224 99.1257 116.408 98.9657 117.784C98.8057 119.128 98.7257 120.632 98.7257 122.296C98.7257 123.96 98.8057 125.48 98.9657 126.856C99.1257 128.232 99.3817 129.416 99.7337 130.408C100.118 131.4 100.598 132.168 101.174 132.712C101.782 133.256 102.534 133.528 103.43 133.528C104.326 133.528 105.078 133.256 105.686 132.712C106.294 132.168 106.774 131.4 107.126 130.408C107.478 129.416 107.734 128.232 107.894 126.856C108.054 125.48 108.134 123.96 108.134 122.296ZM126.769 135.208C126.769 136.648 126.305 137.752 125.377 138.52C124.481 139.256 123.457 139.624 122.305 139.624C121.153 139.624 120.113 139.256 119.185 138.52C118.289 137.752 117.841 136.648 117.841 135.208C117.841 133.768 118.289 132.68 119.185 131.944C120.113 131.176 121.153 130.792 122.305 130.792C123.457 130.792 124.481 131.176 125.377 131.944C126.305 132.68 126.769 133.768 126.769 135.208ZM140.688 123.352C139.984 123.352 139.232 123.416 138.432 123.544C137.632 123.672 137.008 123.848 136.56 124.072C136.56 124.2 136.544 124.392 136.512 124.648C136.512 124.904 136.512 125.128 136.512 125.32C136.512 126.472 136.592 127.56 136.752 128.584C136.912 129.608 137.184 130.504 137.568 131.272C137.952 132.04 138.464 132.648 139.104 133.096C139.744 133.512 140.544 133.72 141.504 133.72C142.304 133.72 142.976 133.56 143.52 133.24C144.096 132.888 144.56 132.456 144.912 131.944C145.296 131.432 145.568 130.872 145.728 130.264C145.92 129.624 146.016 129.016 146.016 128.44C146.016 126.808 145.6 125.56 144.768 124.696C143.968 123.8 142.608 123.352 140.688 123.352ZM141.6 117.784C143.68 117.784 145.44 118.072 146.88 118.648C148.352 119.192 149.552 119.944 150.48 120.904C151.408 121.864 152.08 122.984 152.496 124.264C152.912 125.544 153.12 126.904 153.12 128.344C153.12 129.624 152.88 130.936 152.4 132.28C151.952 133.624 151.248 134.84 150.288 135.928C149.36 137.016 148.16 137.912 146.688 138.616C145.248 139.32 143.536 139.672 141.552 139.672C137.552 139.672 134.512 138.408 132.432 135.88C130.352 133.352 129.312 129.864 129.312 125.416C129.312 122.216 129.808 119.384 130.8 116.92C131.792 114.456 133.2 112.392 135.024 110.728C136.88 109.032 139.104 107.752 141.696 106.888C144.32 105.992 147.264 105.528 150.528 105.496C150.592 106.488 150.656 107.464 150.72 108.424C150.784 109.352 150.848 110.328 150.912 111.352C149.28 111.384 147.744 111.544 146.304 111.832C144.896 112.088 143.6 112.504 142.416 113.08C141.264 113.656 140.256 114.408 139.392 115.336C138.528 116.232 137.856 117.336 137.376 118.648C138.08 118.328 138.8 118.104 139.536 117.976C140.272 117.848 140.96 117.784 141.6 117.784ZM171.42 129.208C171.42 128.28 171.212 127.464 170.796 126.76C170.38 126.024 169.66 125.416 168.636 124.936C167.612 124.456 166.236 124.088 164.508 123.832C162.78 123.576 160.604 123.448 157.98 123.448C158.332 120.472 158.62 117.448 158.844 114.376C159.068 111.304 159.244 108.424 159.372 105.736H177.372V111.736H165.372C165.308 112.888 165.228 114.008 165.132 115.096C165.068 116.152 164.988 117.08 164.892 117.88C169.564 118.2 173.004 119.304 175.212 121.192C177.452 123.048 178.572 125.64 178.572 128.968C178.572 130.504 178.3 131.928 177.756 133.24C177.212 134.552 176.396 135.688 175.308 136.648C174.22 137.608 172.844 138.36 171.18 138.904C169.548 139.448 167.628 139.72 165.42 139.72C164.556 139.72 163.644 139.656 162.684 139.528C161.756 139.432 160.844 139.288 159.948 139.096C159.084 138.936 158.3 138.76 157.596 138.568C156.892 138.376 156.348 138.184 155.964 137.992L157.26 132.088C158.06 132.44 159.116 132.792 160.428 133.144C161.74 133.464 163.308 133.624 165.132 133.624C167.34 133.624 168.94 133.192 169.932 132.328C170.924 131.432 171.42 130.392 171.42 129.208ZM199.415 114.28C199.415 117.288 198.647 119.592 197.111 121.192C195.575 122.792 193.511 123.592 190.919 123.592C188.327 123.592 186.263 122.792 184.727 121.192C183.191 119.592 182.423 117.288 182.423 114.28C182.423 111.272 183.191 108.968 184.727 107.368C186.263 105.768 188.327 104.968 190.919 104.968C193.511 104.968 195.575 105.768 197.111 107.368C198.647 108.968 199.415 111.272 199.415 114.28ZM193.991 114.28C193.991 112.648 193.703 111.464 193.127 110.728C192.551 109.992 191.815 109.624 190.919 109.624C189.991 109.624 189.239 109.992 188.663 110.728C188.119 111.464 187.847 112.648 187.847 114.28C187.847 115.912 188.119 117.112 188.663 117.88C189.239 118.616 189.991 118.984 190.919 118.984C191.815 118.984 192.551 118.616 193.127 117.88C193.703 117.112 193.991 115.912 193.991 114.28ZM208.775 105.736H215.447L196.679 139H190.007L208.775 105.736ZM223.127 130.456C223.127 133.464 222.359 135.768 220.823 137.368C219.287 138.968 217.223 139.768 214.631 139.768C212.039 139.768 209.975 138.968 208.439 137.368C206.903 135.768 206.135 133.464 206.135 130.456C206.135 127.448 206.903 125.144 208.439 123.544C209.975 121.944 212.039 121.144 214.631 121.144C217.223 121.144 219.287 121.944 220.823 123.544C222.359 125.144 223.127 127.448 223.127 130.456ZM217.703 130.456C217.703 128.824 217.415 127.64 216.839 126.904C216.263 126.168 215.527 125.8 214.631 125.8C213.703 125.8 212.951 126.168 212.375 126.904C211.831 127.64 211.559 128.824 211.559 130.456C211.559 132.088 211.831 133.288 212.375 134.056C212.951 134.792 213.703 135.16 214.631 135.16C215.527 135.16 216.263 134.792 216.839 134.056C217.415 133.288 217.703 132.088 217.703 130.456Z" fill="white"/>
<path d="M43.0704 291.14C41.9904 291.14 41.0171 290.907 40.1504 290.44C39.2838 289.973 38.6038 289.327 38.1104 288.5C37.6304 287.66 37.3904 286.713 37.3904 285.66C37.3904 284.607 37.6304 283.667 38.1104 282.84C38.6038 282.013 39.2838 281.367 40.1504 280.9C41.0171 280.433 41.9904 280.2 43.0704 280.2C44.1638 280.2 45.1438 280.433 46.0104 280.9C46.8771 281.367 47.5504 282.013 48.0304 282.84C48.5238 283.667 48.7704 284.607 48.7704 285.66C48.7704 286.713 48.5238 287.66 48.0304 288.5C47.5504 289.327 46.8771 289.973 46.0104 290.44C45.1438 290.907 44.1638 291.14 43.0704 291.14ZM43.0704 289C43.9904 289 44.7504 288.693 45.3504 288.08C45.9504 287.467 46.2504 286.66 46.2504 285.66C46.2504 284.66 45.9504 283.853 45.3504 283.24C44.7504 282.627 43.9904 282.32 43.0704 282.32C42.1504 282.32 41.3904 282.627 40.7904 283.24C40.2038 283.853 39.9104 284.66 39.9104 285.66C39.9104 286.66 40.2038 287.467 40.7904 288.08C41.3904 288.693 42.1504 289 43.0704 289ZM55.2187 278.04C54.1654 278.04 53.6387 278.613 53.6387 279.76V280.4H56.5787V282.4H53.7187V291H51.2187V282.4H49.4587V280.4H51.2187V279.72C51.2187 278.573 51.552 277.673 52.2187 277.02C52.8854 276.353 53.8254 276.02 55.0387 276.02C55.9987 276.02 56.752 276.213 57.2987 276.6L56.5987 278.48C56.172 278.187 55.712 278.04 55.2187 278.04ZM73.5641 280.32V291H71.1841V289.64C70.7841 290.12 70.2841 290.493 69.6841 290.76C69.0841 291.013 68.4375 291.14 67.7441 291.14C66.3175 291.14 65.1908 290.747 64.3641 289.96C63.5508 289.16 63.1441 287.98 63.1441 286.42V280.32H65.6441V286.08C65.6441 287.04 65.8575 287.76 66.2841 288.24C66.7241 288.707 67.3441 288.94 68.1441 288.94C69.0375 288.94 69.7441 288.667 70.2641 288.12C70.7975 287.56 71.0641 286.76 71.0641 285.72V280.32H73.5641ZM79.8551 291.14C78.9884 291.14 78.1417 291.027 77.3151 290.8C76.4884 290.573 75.8284 290.287 75.3351 289.94L76.2951 288.04C76.7751 288.36 77.3484 288.62 78.0151 288.82C78.6951 289.007 79.3617 289.1 80.0151 289.1C81.5084 289.1 82.2551 288.707 82.2551 287.92C82.2551 287.547 82.0617 287.287 81.6751 287.14C81.3017 286.993 80.6951 286.853 79.8551 286.72C78.9751 286.587 78.2551 286.433 77.6951 286.26C77.1484 286.087 76.6684 285.787 76.2551 285.36C75.8551 284.92 75.6551 284.313 75.6551 283.54C75.6551 282.527 76.0751 281.72 76.9151 281.12C77.7684 280.507 78.9151 280.2 80.3551 280.2C81.0884 280.2 81.8217 280.287 82.5551 280.46C83.2884 280.62 83.8884 280.84 84.3551 281.12L83.3951 283.02C82.4884 282.487 81.4684 282.22 80.3351 282.22C79.6017 282.22 79.0417 282.333 78.6551 282.56C78.2817 282.773 78.0951 283.06 78.0951 283.42C78.0951 283.82 78.2951 284.107 78.6951 284.28C79.1084 284.44 79.7417 284.593 80.5951 284.74C81.4484 284.873 82.1484 285.027 82.6951 285.2C83.2417 285.373 83.7084 285.667 84.0951 286.08C84.4951 286.493 84.6951 287.08 84.6951 287.84C84.6951 288.84 84.2617 289.64 83.3951 290.24C82.5284 290.84 81.3484 291.14 79.8551 291.14ZM96.6057 285.72C96.6057 285.893 96.5924 286.14 96.5657 286.46H88.1857C88.3324 287.247 88.7124 287.873 89.3257 288.34C89.9524 288.793 90.7257 289.02 91.6457 289.02C92.819 289.02 93.7857 288.633 94.5457 287.86L95.8857 289.4C95.4057 289.973 94.799 290.407 94.0657 290.7C93.3324 290.993 92.5057 291.14 91.5857 291.14C90.4124 291.14 89.379 290.907 88.4857 290.44C87.5924 289.973 86.899 289.327 86.4057 288.5C85.9257 287.66 85.6857 286.713 85.6857 285.66C85.6857 284.62 85.919 283.687 86.3857 282.86C86.8657 282.02 87.5257 281.367 88.3657 280.9C89.2057 280.433 90.1524 280.2 91.2057 280.2C92.2457 280.2 93.1724 280.433 93.9857 280.9C94.8124 281.353 95.4524 282 95.9057 282.84C96.3724 283.667 96.6057 284.627 96.6057 285.72ZM91.2057 282.2C90.4057 282.2 89.7257 282.44 89.1657 282.92C88.619 283.387 88.2857 284.013 88.1657 284.8H94.2257C94.119 284.027 93.7924 283.4 93.2457 282.92C92.699 282.44 92.019 282.2 91.2057 282.2ZM101.105 281.88C101.825 280.76 103.091 280.2 104.905 280.2V282.58C104.691 282.54 104.498 282.52 104.325 282.52C103.351 282.52 102.591 282.807 102.045 283.38C101.498 283.94 101.225 284.753 101.225 285.82V291H98.7247V280.32H101.105V281.88ZM114.466 281.88C115.186 280.76 116.452 280.2 118.266 280.2V282.58C118.052 282.54 117.859 282.52 117.686 282.52C116.712 282.52 115.952 282.807 115.406 283.38C114.859 283.94 114.586 284.753 114.586 285.82V291H112.086V280.32H114.466V281.88ZM130.542 280.32V291H128.162V289.64C127.762 290.12 127.262 290.493 126.662 290.76C126.062 291.013 125.415 291.14 124.722 291.14C123.295 291.14 122.169 290.747 121.342 289.96C120.529 289.16 120.122 287.98 120.122 286.42V280.32H122.622V286.08C122.622 287.04 122.835 287.76 123.262 288.24C123.702 288.707 124.322 288.94 125.122 288.94C126.015 288.94 126.722 288.667 127.242 288.12C127.775 287.56 128.042 286.76 128.042 285.72V280.32H130.542ZM139.593 280.2C140.939 280.2 142.019 280.593 142.833 281.38C143.646 282.167 144.053 283.333 144.053 284.88V291H141.553V285.2C141.553 284.267 141.333 283.567 140.893 283.1C140.453 282.62 139.826 282.38 139.013 282.38C138.093 282.38 137.366 282.66 136.833 283.22C136.299 283.767 136.033 284.56 136.033 285.6V291H133.533V280.32H135.913V281.7C136.326 281.207 136.846 280.833 137.473 280.58C138.099 280.327 138.806 280.2 139.593 280.2ZM158.607 290.42C158.314 290.66 157.954 290.84 157.527 290.96C157.114 291.08 156.674 291.14 156.207 291.14C155.034 291.14 154.127 290.833 153.487 290.22C152.847 289.607 152.527 288.713 152.527 287.54V282.4H150.767V280.4H152.527V277.96H155.027V280.4H157.887V282.4H155.027V287.48C155.027 288 155.154 288.4 155.407 288.68C155.66 288.947 156.027 289.08 156.507 289.08C157.067 289.08 157.534 288.933 157.907 288.64L158.607 290.42ZM166.441 280.2C167.788 280.2 168.868 280.593 169.681 281.38C170.494 282.167 170.901 283.333 170.901 284.88V291H168.401V285.2C168.401 284.267 168.181 283.567 167.741 283.1C167.301 282.62 166.674 282.38 165.861 282.38C164.941 282.38 164.214 282.66 163.681 283.22C163.148 283.767 162.881 284.56 162.881 285.6V291H160.381V276.16H162.881V281.56C163.294 281.12 163.801 280.787 164.401 280.56C165.014 280.32 165.694 280.2 166.441 280.2ZM183.928 285.72C183.928 285.893 183.914 286.14 183.888 286.46H175.508C175.654 287.247 176.034 287.873 176.648 288.34C177.274 288.793 178.048 289.02 178.968 289.02C180.141 289.02 181.108 288.633 181.868 287.86L183.208 289.4C182.728 289.973 182.121 290.407 181.388 290.7C180.654 290.993 179.828 291.14 178.908 291.14C177.734 291.14 176.701 290.907 175.808 290.44C174.914 289.973 174.221 289.327 173.728 288.5C173.248 287.66 173.008 286.713 173.008 285.66C173.008 284.62 173.241 283.687 173.708 282.86C174.188 282.02 174.848 281.367 175.688 280.9C176.528 280.433 177.474 280.2 178.528 280.2C179.568 280.2 180.494 280.433 181.308 280.9C182.134 281.353 182.774 282 183.228 282.84C183.694 283.667 183.928 284.627 183.928 285.72ZM178.528 282.2C177.728 282.2 177.048 282.44 176.488 282.92C175.941 283.387 175.608 284.013 175.488 284.8H181.548C181.441 284.027 181.114 283.4 180.568 282.92C180.021 282.44 179.341 282.2 178.528 282.2ZM186.047 280.32H188.547V291H186.047V280.32ZM187.307 278.56C186.854 278.56 186.474 278.42 186.167 278.14C185.86 277.847 185.707 277.487 185.707 277.06C185.707 276.633 185.86 276.28 186.167 276C186.474 275.707 186.854 275.56 187.307 275.56C187.76 275.56 188.14 275.7 188.447 275.98C188.754 276.247 188.907 276.587 188.907 277C188.907 277.44 188.754 277.813 188.447 278.12C188.154 278.413 187.774 278.56 187.307 278.56ZM193.926 281.88C194.646 280.76 195.912 280.2 197.726 280.2V282.58C197.512 282.54 197.319 282.52 197.146 282.52C196.172 282.52 195.412 282.807 194.866 283.38C194.319 283.94 194.046 284.753 194.046 285.82V291H191.546V280.32H193.926V281.88ZM210.827 280.2C211.867 280.2 212.793 280.427 213.607 280.88C214.433 281.333 215.08 281.973 215.547 282.8C216.013 283.627 216.247 284.58 216.247 285.66C216.247 286.74 216.013 287.7 215.547 288.54C215.08 289.367 214.433 290.007 213.607 290.46C212.793 290.913 211.867 291.14 210.827 291.14C210.093 291.14 209.42 291.013 208.807 290.76C208.207 290.507 207.7 290.127 207.287 289.62V291H204.907V276.16H207.407V281.62C207.833 281.153 208.333 280.8 208.907 280.56C209.493 280.32 210.133 280.2 210.827 280.2ZM210.547 289C211.467 289 212.22 288.693 212.807 288.08C213.407 287.467 213.707 286.66 213.707 285.66C213.707 284.66 213.407 283.853 212.807 283.24C212.22 282.627 211.467 282.32 210.547 282.32C209.947 282.32 209.407 282.46 208.927 282.74C208.447 283.007 208.067 283.393 207.787 283.9C207.507 284.407 207.367 284.993 207.367 285.66C207.367 286.327 207.507 286.913 207.787 287.42C208.067 287.927 208.447 288.32 208.927 288.6C209.407 288.867 209.947 289 210.547 289ZM222.279 280.2C223.852 280.2 225.052 280.58 225.879 281.34C226.719 282.087 227.139 283.22 227.139 284.74V291H224.779V289.7C224.472 290.167 224.032 290.527 223.459 290.78C222.899 291.02 222.219 291.14 221.419 291.14C220.619 291.14 219.919 291.007 219.319 290.74C218.719 290.46 218.252 290.08 217.919 289.6C217.599 289.107 217.439 288.553 217.439 287.94C217.439 286.98 217.792 286.213 218.499 285.64C219.219 285.053 220.345 284.76 221.879 284.76H224.639V284.6C224.639 283.853 224.412 283.28 223.959 282.88C223.519 282.48 222.859 282.28 221.979 282.28C221.379 282.28 220.785 282.373 220.199 282.56C219.625 282.747 219.139 283.007 218.739 283.34L217.759 281.52C218.319 281.093 218.992 280.767 219.779 280.54C220.565 280.313 221.399 280.2 222.279 280.2ZM221.939 289.32C222.565 289.32 223.119 289.18 223.599 288.9C224.092 288.607 224.439 288.193 224.639 287.66V286.42H222.059C220.619 286.42 219.899 286.893 219.899 287.84C219.899 288.293 220.079 288.653 220.439 288.92C220.799 289.187 221.299 289.32 221.939 289.32ZM234.425 286.42L232.565 288.18V291H230.065V276.16H232.565V285.12L237.745 280.32H240.745L236.285 284.8L241.165 291H238.125L234.425 286.42ZM242.4 280.32H244.9V291H242.4V280.32ZM243.66 278.56C243.206 278.56 242.826 278.42 242.52 278.14C242.213 277.847 242.06 277.487 242.06 277.06C242.06 276.633 242.213 276.28 242.52 276C242.826 275.707 243.206 275.56 243.66 275.56C244.113 275.56 244.493 275.7 244.8 275.98C245.106 276.247 245.26 276.587 245.26 277C245.26 277.44 245.106 277.813 244.8 278.12C244.506 278.413 244.126 278.56 243.66 278.56ZM253.959 280.2C255.305 280.2 256.385 280.593 257.199 281.38C258.012 282.167 258.419 283.333 258.419 284.88V291H255.919V285.2C255.919 284.267 255.699 283.567 255.259 283.1C254.819 282.62 254.192 282.38 253.379 282.38C252.459 282.38 251.732 282.66 251.199 283.22C250.665 283.767 250.399 284.56 250.399 285.6V291H247.899V280.32H250.279V281.7C250.692 281.207 251.212 280.833 251.839 280.58C252.465 280.327 253.172 280.2 253.959 280.2ZM272.005 280.32V289.38C272.005 293.14 270.085 295.02 266.245 295.02C265.219 295.02 264.245 294.887 263.325 294.62C262.405 294.367 261.645 293.993 261.045 293.5L262.165 291.62C262.632 292.007 263.219 292.313 263.925 292.54C264.645 292.78 265.372 292.9 266.105 292.9C267.279 292.9 268.139 292.633 268.685 292.1C269.232 291.567 269.505 290.753 269.505 289.66V289.1C269.079 289.567 268.559 289.92 267.945 290.16C267.332 290.4 266.659 290.52 265.925 290.52C264.912 290.52 263.992 290.307 263.165 289.88C262.352 289.44 261.705 288.827 261.225 288.04C260.759 287.253 260.525 286.353 260.525 285.34C260.525 284.327 260.759 283.433 261.225 282.66C261.705 281.873 262.352 281.267 263.165 280.84C263.992 280.413 264.912 280.2 265.925 280.2C266.699 280.2 267.399 280.327 268.025 280.58C268.665 280.833 269.199 281.22 269.625 281.74V280.32H272.005ZM266.305 288.4C267.252 288.4 268.025 288.12 268.625 287.56C269.239 286.987 269.545 286.247 269.545 285.34C269.545 284.447 269.239 283.72 268.625 283.16C268.025 282.6 267.252 282.32 266.305 282.32C265.345 282.32 264.559 282.6 263.945 283.16C263.345 283.72 263.045 284.447 263.045 285.34C263.045 286.247 263.345 286.987 263.945 287.56C264.559 288.12 265.345 288.4 266.305 288.4ZM72.9385 315.2C73.9785 315.2 74.9052 315.427 75.7185 315.88C76.5452 316.333 77.1919 316.973 77.6585 317.8C78.1252 318.627 78.3585 319.58 78.3585 320.66C78.3585 321.74 78.1252 322.7 77.6585 323.54C77.1919 324.367 76.5452 325.007 75.7185 325.46C74.9052 325.913 73.9785 326.14 72.9385 326.14C72.2052 326.14 71.5319 326.013 70.9185 325.76C70.3185 325.507 69.8119 325.127 69.3985 324.62V326H67.0185V311.16H69.5185V316.62C69.9452 316.153 70.4452 315.8 71.0185 315.56C71.6052 315.32 72.2452 315.2 72.9385 315.2ZM72.6585 324C73.5785 324 74.3319 323.693 74.9185 323.08C75.5185 322.467 75.8185 321.66 75.8185 320.66C75.8185 319.66 75.5185 318.853 74.9185 318.24C74.3319 317.627 73.5785 317.32 72.6585 317.32C72.0585 317.32 71.5185 317.46 71.0385 317.74C70.5585 318.007 70.1785 318.393 69.8985 318.9C69.6185 319.407 69.4785 319.993 69.4785 320.66C69.4785 321.327 69.6185 321.913 69.8985 322.42C70.1785 322.927 70.5585 323.32 71.0385 323.6C71.5185 323.867 72.0585 324 72.6585 324ZM90.7871 315.32V326H88.4071V324.64C88.0071 325.12 87.5071 325.493 86.9071 325.76C86.3071 326.013 85.6604 326.14 84.9671 326.14C83.5404 326.14 82.4138 325.747 81.5871 324.96C80.7738 324.16 80.3671 322.98 80.3671 321.42V315.32H82.8671V321.08C82.8671 322.04 83.0804 322.76 83.5071 323.24C83.9471 323.707 84.5671 323.94 85.3671 323.94C86.2604 323.94 86.9671 323.667 87.4871 323.12C88.0204 322.56 88.2871 321.76 88.2871 320.72V315.32H90.7871ZM97.078 326.14C96.2114 326.14 95.3647 326.027 94.538 325.8C93.7114 325.573 93.0514 325.287 92.558 324.94L93.518 323.04C93.998 323.36 94.5714 323.62 95.238 323.82C95.918 324.007 96.5847 324.1 97.238 324.1C98.7314 324.1 99.478 323.707 99.478 322.92C99.478 322.547 99.2847 322.287 98.898 322.14C98.5247 321.993 97.918 321.853 97.078 321.72C96.198 321.587 95.478 321.433 94.918 321.26C94.3714 321.087 93.8914 320.787 93.478 320.36C93.078 319.92 92.878 319.313 92.878 318.54C92.878 317.527 93.298 316.72 94.138 316.12C94.9914 315.507 96.138 315.2 97.578 315.2C98.3114 315.2 99.0447 315.287 99.778 315.46C100.511 315.62 101.111 315.84 101.578 316.12L100.618 318.02C99.7114 317.487 98.6914 317.22 97.558 317.22C96.8247 317.22 96.2647 317.333 95.878 317.56C95.5047 317.773 95.318 318.06 95.318 318.42C95.318 318.82 95.518 319.107 95.918 319.28C96.3314 319.44 96.9647 319.593 97.818 319.74C98.6714 319.873 99.3714 320.027 99.918 320.2C100.465 320.373 100.931 320.667 101.318 321.08C101.718 321.493 101.918 322.08 101.918 322.84C101.918 323.84 101.485 324.64 100.618 325.24C99.7514 325.84 98.5714 326.14 97.078 326.14ZM103.789 315.32H106.289V326H103.789V315.32ZM105.049 313.56C104.595 313.56 104.215 313.42 103.909 313.14C103.602 312.847 103.449 312.487 103.449 312.06C103.449 311.633 103.602 311.28 103.909 311C104.215 310.707 104.595 310.56 105.049 310.56C105.502 310.56 105.882 310.7 106.189 310.98C106.495 311.247 106.649 311.587 106.649 312C106.649 312.44 106.495 312.813 106.189 313.12C105.895 313.413 105.515 313.56 105.049 313.56ZM115.348 315.2C116.694 315.2 117.774 315.593 118.588 316.38C119.401 317.167 119.808 318.333 119.808 319.88V326H117.308V320.2C117.308 319.267 117.088 318.567 116.648 318.1C116.208 317.62 115.581 317.38 114.768 317.38C113.848 317.38 113.121 317.66 112.588 318.22C112.054 318.767 111.788 319.56 111.788 320.6V326H109.288V315.32H111.668V316.7C112.081 316.207 112.601 315.833 113.228 315.58C113.854 315.327 114.561 315.2 115.348 315.2ZM132.834 320.72C132.834 320.893 132.821 321.14 132.794 321.46H124.414C124.561 322.247 124.941 322.873 125.554 323.34C126.181 323.793 126.954 324.02 127.874 324.02C129.048 324.02 130.014 323.633 130.774 322.86L132.114 324.4C131.634 324.973 131.028 325.407 130.294 325.7C129.561 325.993 128.734 326.14 127.814 326.14C126.641 326.14 125.608 325.907 124.714 325.44C123.821 324.973 123.128 324.327 122.634 323.5C122.154 322.66 121.914 321.713 121.914 320.66C121.914 319.62 122.148 318.687 122.614 317.86C123.094 317.02 123.754 316.367 124.594 315.9C125.434 315.433 126.381 315.2 127.434 315.2C128.474 315.2 129.401 315.433 130.214 315.9C131.041 316.353 131.681 317 132.134 317.84C132.601 318.667 132.834 319.627 132.834 320.72ZM127.434 317.2C126.634 317.2 125.954 317.44 125.394 317.92C124.848 318.387 124.514 319.013 124.394 319.8H130.454C130.348 319.027 130.021 318.4 129.474 317.92C128.928 317.44 128.248 317.2 127.434 317.2ZM138.253 326.14C137.387 326.14 136.54 326.027 135.713 325.8C134.887 325.573 134.227 325.287 133.733 324.94L134.693 323.04C135.173 323.36 135.747 323.62 136.413 323.82C137.093 324.007 137.76 324.1 138.413 324.1C139.907 324.1 140.653 323.707 140.653 322.92C140.653 322.547 140.46 322.287 140.073 322.14C139.7 321.993 139.093 321.853 138.253 321.72C137.373 321.587 136.653 321.433 136.093 321.26C135.547 321.087 135.067 320.787 134.653 320.36C134.253 319.92 134.053 319.313 134.053 318.54C134.053 317.527 134.473 316.72 135.313 316.12C136.167 315.507 137.313 315.2 138.753 315.2C139.487 315.2 140.22 315.287 140.953 315.46C141.687 315.62 142.287 315.84 142.753 316.12L141.793 318.02C140.887 317.487 139.867 317.22 138.733 317.22C138 317.22 137.44 317.333 137.053 317.56C136.68 317.773 136.493 318.06 136.493 318.42C136.493 318.82 136.693 319.107 137.093 319.28C137.507 319.44 138.14 319.593 138.993 319.74C139.847 319.873 140.547 320.027 141.093 320.2C141.64 320.373 142.107 320.667 142.493 321.08C142.893 321.493 143.093 322.08 143.093 322.84C143.093 323.84 142.66 324.64 141.793 325.24C140.927 325.84 139.747 326.14 138.253 326.14ZM148.264 326.14C147.397 326.14 146.551 326.027 145.724 325.8C144.897 325.573 144.237 325.287 143.744 324.94L144.704 323.04C145.184 323.36 145.757 323.62 146.424 323.82C147.104 324.007 147.771 324.1 148.424 324.1C149.917 324.1 150.664 323.707 150.664 322.92C150.664 322.547 150.471 322.287 150.084 322.14C149.711 321.993 149.104 321.853 148.264 321.72C147.384 321.587 146.664 321.433 146.104 321.26C145.557 321.087 145.077 320.787 144.664 320.36C144.264 319.92 144.064 319.313 144.064 318.54C144.064 317.527 144.484 316.72 145.324 316.12C146.177 315.507 147.324 315.2 148.764 315.2C149.497 315.2 150.231 315.287 150.964 315.46C151.697 315.62 152.297 315.84 152.764 316.12L151.804 318.02C150.897 317.487 149.877 317.22 148.744 317.22C148.011 317.22 147.451 317.333 147.064 317.56C146.691 317.773 146.504 318.06 146.504 318.42C146.504 318.82 146.704 319.107 147.104 319.28C147.517 319.44 148.151 319.593 149.004 319.74C149.857 319.873 150.557 320.027 151.104 320.2C151.651 320.373 152.117 320.667 152.504 321.08C152.904 321.493 153.104 322.08 153.104 322.84C153.104 323.84 152.671 324.64 151.804 325.24C150.937 325.84 149.757 326.14 148.264 326.14ZM164.56 313.04C163.506 313.04 162.98 313.613 162.98 314.76V315.4H165.92V317.4H163.06V326H160.56V317.4H158.8V315.4H160.56V314.72C160.56 313.573 160.893 312.673 161.56 312.02C162.226 311.353 163.166 311.02 164.38 311.02C165.34 311.02 166.093 311.213 166.64 311.6L165.94 313.48C165.513 313.187 165.053 313.04 164.56 313.04ZM177.66 315.32V326H175.28V324.64C174.88 325.12 174.38 325.493 173.78 325.76C173.18 326.013 172.533 326.14 171.84 326.14C170.413 326.14 169.287 325.747 168.46 324.96C167.647 324.16 167.24 322.98 167.24 321.42V315.32H169.74V321.08C169.74 322.04 169.953 322.76 170.38 323.24C170.82 323.707 171.44 323.94 172.24 323.94C173.133 323.94 173.84 323.667 174.36 323.12C174.893 322.56 175.16 321.76 175.16 320.72V315.32H177.66ZM180.651 311.16H183.151V326H180.651V311.16ZM186.15 311.16H188.65V326H186.15V311.16ZM191.109 319.4H196.609V321.48H191.109V319.4ZM205.677 325.42C205.384 325.66 205.024 325.84 204.597 325.96C204.184 326.08 203.744 326.14 203.277 326.14C202.104 326.14 201.197 325.833 200.557 325.22C199.917 324.607 199.597 323.713 199.597 322.54V317.4H197.837V315.4H199.597V312.96H202.097V315.4H204.957V317.4H202.097V322.48C202.097 323 202.224 323.4 202.477 323.68C202.73 323.947 203.097 324.08 203.577 324.08C204.137 324.08 204.604 323.933 204.977 323.64L205.677 325.42ZM207.451 315.32H209.951V326H207.451V315.32ZM208.711 313.56C208.258 313.56 207.878 313.42 207.571 313.14C207.265 312.847 207.111 312.487 207.111 312.06C207.111 311.633 207.265 311.28 207.571 311C207.878 310.707 208.258 310.56 208.711 310.56C209.165 310.56 209.545 310.7 209.851 310.98C210.158 311.247 210.311 311.587 210.311 312C210.311 312.44 210.158 312.813 209.851 313.12C209.558 313.413 209.178 313.56 208.711 313.56ZM226.43 315.2C227.777 315.2 228.843 315.593 229.63 316.38C230.417 317.153 230.81 318.32 230.81 319.88V326H228.31V320.2C228.31 319.267 228.103 318.567 227.69 318.1C227.277 317.62 226.683 317.38 225.91 317.38C225.07 317.38 224.397 317.66 223.89 318.22C223.383 318.767 223.13 319.553 223.13 320.58V326H220.63V320.2C220.63 319.267 220.423 318.567 220.01 318.1C219.597 317.62 219.003 317.38 218.23 317.38C217.377 317.38 216.697 317.653 216.19 318.2C215.697 318.747 215.45 319.54 215.45 320.58V326H212.95V315.32H215.33V316.68C215.73 316.2 216.23 315.833 216.83 315.58C217.43 315.327 218.097 315.2 218.83 315.2C219.63 315.2 220.337 315.353 220.95 315.66C221.577 315.953 222.07 316.393 222.43 316.98C222.87 316.42 223.437 315.987 224.13 315.68C224.823 315.36 225.59 315.2 226.43 315.2ZM243.86 320.72C243.86 320.893 243.847 321.14 243.82 321.46H235.44C235.587 322.247 235.967 322.873 236.58 323.34C237.207 323.793 237.98 324.02 238.9 324.02C240.073 324.02 241.04 323.633 241.8 322.86L243.14 324.4C242.66 324.973 242.053 325.407 241.32 325.7C240.587 325.993 239.76 326.14 238.84 326.14C237.667 326.14 236.633 325.907 235.74 325.44C234.847 324.973 234.153 324.327 233.66 323.5C233.18 322.66 232.94 321.713 232.94 320.66C232.94 319.62 233.173 318.687 233.64 317.86C234.12 317.02 234.78 316.367 235.62 315.9C236.46 315.433 237.407 315.2 238.46 315.2C239.5 315.2 240.427 315.433 241.24 315.9C242.067 316.353 242.707 317 243.16 317.84C243.627 318.667 243.86 319.627 243.86 320.72ZM238.46 317.2C237.66 317.2 236.98 317.44 236.42 317.92C235.873 318.387 235.54 319.013 235.42 319.8H241.48C241.373 319.027 241.047 318.4 240.5 317.92C239.953 317.44 239.273 317.2 238.46 317.2Z" fill="#820263"/>
<defs>
<linearGradient id="paint0_linear" x1="144" y1="0" x2="144" y2="250" gradientUnits="userSpaceOnUse">
<stop stop-color="#D90368"/>
<stop offset="1" stop-color="#820263"/>
</linearGradient>
</defs>
</svg>
