<svg width="338" height="367" viewBox="0 0 338 367" fill="none" xmlns="http://www.w3.org/2000/svg">
<circle cx="158" cy="125" r="122.5" fill="url(#paint0_linear)" stroke="#FE7F2D" stroke-width="5"/>
<path d="M109.615 129.208C109.615 128.28 109.407 127.464 108.991 126.76C108.575 126.024 107.855 125.416 106.831 124.936C105.807 124.456 104.431 124.088 102.703 123.832C100.975 123.576 98.7987 123.448 96.1747 123.448C96.5267 120.472 96.8147 117.448 97.0387 114.376C97.2627 111.304 97.4387 108.424 97.5667 105.736H115.567V111.736H103.567C103.503 112.888 103.423 114.008 103.327 115.096C103.263 116.152 103.183 117.08 103.087 117.88C107.759 118.2 111.199 119.304 113.407 121.192C115.647 123.048 116.767 125.64 116.767 128.968C116.767 130.504 116.495 131.928 115.951 133.24C115.407 134.552 114.591 135.688 113.503 136.648C112.415 137.608 111.039 138.36 109.375 138.904C107.743 139.448 105.823 139.72 103.615 139.72C102.751 139.72 101.839 139.656 100.879 139.528C99.9507 139.432 99.0387 139.288 98.1427 139.096C97.2787 138.936 96.4947 138.76 95.7907 138.568C95.0867 138.376 94.5427 138.184 94.1587 137.992L95.4547 132.088C96.2547 132.44 97.3107 132.792 98.6227 133.144C99.9347 133.464 101.503 133.624 103.327 133.624C105.535 133.624 107.135 133.192 108.127 132.328C109.119 131.432 109.615 130.392 109.615 129.208ZM136.218 129.208C136.218 128.28 136.01 127.464 135.594 126.76C135.178 126.024 134.458 125.416 133.434 124.936C132.41 124.456 131.034 124.088 129.306 123.832C127.578 123.576 125.402 123.448 122.778 123.448C123.13 120.472 123.418 117.448 123.642 114.376C123.866 111.304 124.042 108.424 124.17 105.736H142.17V111.736H130.17C130.106 112.888 130.026 114.008 129.93 115.096C129.866 116.152 129.786 117.08 129.69 117.88C134.362 118.2 137.802 119.304 140.01 121.192C142.25 123.048 143.37 125.64 143.37 128.968C143.37 130.504 143.098 131.928 142.554 133.24C142.01 134.552 141.194 135.688 140.106 136.648C139.018 137.608 137.642 138.36 135.978 138.904C134.346 139.448 132.426 139.72 130.218 139.72C129.354 139.72 128.442 139.656 127.482 139.528C126.554 139.432 125.642 139.288 124.746 139.096C123.882 138.936 123.098 138.76 122.394 138.568C121.69 138.376 121.146 138.184 120.762 137.992L122.058 132.088C122.858 132.44 123.914 132.792 125.226 133.144C126.538 133.464 128.106 133.624 129.93 133.624C132.138 133.624 133.738 133.192 134.73 132.328C135.722 131.432 136.218 130.392 136.218 129.208ZM155.91 135.208C155.91 136.648 155.446 137.752 154.518 138.52C153.622 139.256 152.598 139.624 151.446 139.624C150.294 139.624 149.254 139.256 148.326 138.52C147.43 137.752 146.982 136.648 146.982 135.208C146.982 133.768 147.43 132.68 148.326 131.944C149.254 131.176 150.294 130.792 151.446 130.792C152.598 130.792 153.622 131.176 154.518 131.944C155.446 132.68 155.91 133.768 155.91 135.208ZM171.989 114.472C170.741 116.104 169.413 117.88 168.005 119.8C166.597 121.72 165.413 123.688 164.453 125.704H171.989V114.472ZM178.997 105.736V125.704H182.549V131.56H178.997V139H171.989V131.56H157.637V126.328C158.341 124.92 159.221 123.336 160.277 121.576C161.333 119.784 162.501 117.96 163.781 116.104C165.093 114.216 166.469 112.376 167.909 110.584C169.349 108.792 170.789 107.176 172.229 105.736H178.997ZM201.952 114.28C201.952 117.288 201.184 119.592 199.648 121.192C198.112 122.792 196.048 123.592 193.456 123.592C190.864 123.592 188.8 122.792 187.264 121.192C185.728 119.592 184.96 117.288 184.96 114.28C184.96 111.272 185.728 108.968 187.264 107.368C188.8 105.768 190.864 104.968 193.456 104.968C196.048 104.968 198.112 105.768 199.648 107.368C201.184 108.968 201.952 111.272 201.952 114.28ZM196.528 114.28C196.528 112.648 196.24 111.464 195.664 110.728C195.088 109.992 194.352 109.624 193.456 109.624C192.528 109.624 191.776 109.992 191.2 110.728C190.656 111.464 190.384 112.648 190.384 114.28C190.384 115.912 190.656 117.112 191.2 117.88C191.776 118.616 192.528 118.984 193.456 118.984C194.352 118.984 195.088 118.616 195.664 117.88C196.24 117.112 196.528 115.912 196.528 114.28ZM211.312 105.736H217.984L199.216 139H192.544L211.312 105.736ZM225.664 130.456C225.664 133.464 224.896 135.768 223.36 137.368C221.824 138.968 219.76 139.768 217.168 139.768C214.576 139.768 212.512 138.968 210.976 137.368C209.44 135.768 208.672 133.464 208.672 130.456C208.672 127.448 209.44 125.144 210.976 123.544C212.512 121.944 214.576 121.144 217.168 121.144C219.76 121.144 221.824 121.944 223.36 123.544C224.896 125.144 225.664 127.448 225.664 130.456ZM220.24 130.456C220.24 128.824 219.952 127.64 219.376 126.904C218.8 126.168 218.064 125.8 217.168 125.8C216.24 125.8 215.488 126.168 214.912 126.904C214.368 127.64 214.096 128.824 214.096 130.456C214.096 132.088 214.368 133.288 214.912 134.056C215.488 134.792 216.24 135.16 217.168 135.16C218.064 135.16 218.8 134.792 219.376 134.056C219.952 133.288 220.24 132.088 220.24 130.456Z" fill="white"/>
<path d="M10.9387 287.14C9.85867 287.14 8.88534 286.907 8.01867 286.44C7.15201 285.973 6.47201 285.327 5.97867 284.5C5.49867 283.66 5.25867 282.713 5.25867 281.66C5.25867 280.607 5.49867 279.667 5.97867 278.84C6.47201 278.013 7.15201 277.367 8.01867 276.9C8.88534 276.433 9.85867 276.2 10.9387 276.2C12.032 276.2 13.012 276.433 13.8787 276.9C14.7453 277.367 15.4187 278.013 15.8987 278.84C16.392 279.667 16.6387 280.607 16.6387 281.66C16.6387 282.713 16.392 283.66 15.8987 284.5C15.4187 285.327 14.7453 285.973 13.8787 286.44C13.012 286.907 12.032 287.14 10.9387 287.14ZM10.9387 285C11.8587 285 12.6187 284.693 13.2187 284.08C13.8187 283.467 14.1187 282.66 14.1187 281.66C14.1187 280.66 13.8187 279.853 13.2187 279.24C12.6187 278.627 11.8587 278.32 10.9387 278.32C10.0187 278.32 9.25867 278.627 8.65867 279.24C8.07201 279.853 7.77867 280.66 7.77867 281.66C7.77867 282.66 8.07201 283.467 8.65867 284.08C9.25867 284.693 10.0187 285 10.9387 285ZM23.0869 274.04C22.0336 274.04 21.5069 274.613 21.5069 275.76V276.4H24.4469V278.4H21.5869V287H19.0869V278.4H17.3269V276.4H19.0869V275.72C19.0869 274.573 19.4203 273.673 20.0869 273.02C20.7536 272.353 21.6936 272.02 22.9069 272.02C23.8669 272.02 24.6203 272.213 25.1669 272.6L24.4669 274.48C24.0403 274.187 23.5803 274.04 23.0869 274.04ZM41.4324 276.32V287H39.0524V285.64C38.6524 286.12 38.1524 286.493 37.5524 286.76C36.9524 287.013 36.3057 287.14 35.6124 287.14C34.1857 287.14 33.0591 286.747 32.2324 285.96C31.4191 285.16 31.0124 283.98 31.0124 282.42V276.32H33.5124V282.08C33.5124 283.04 33.7257 283.76 34.1524 284.24C34.5924 284.707 35.2124 284.94 36.0124 284.94C36.9057 284.94 37.6124 284.667 38.1324 284.12C38.6657 283.56 38.9324 282.76 38.9324 281.72V276.32H41.4324ZM47.7233 287.14C46.8567 287.14 46.01 287.027 45.1833 286.8C44.3567 286.573 43.6967 286.287 43.2033 285.94L44.1633 284.04C44.6433 284.36 45.2167 284.62 45.8833 284.82C46.5633 285.007 47.23 285.1 47.8833 285.1C49.3767 285.1 50.1233 284.707 50.1233 283.92C50.1233 283.547 49.93 283.287 49.5433 283.14C49.17 282.993 48.5633 282.853 47.7233 282.72C46.8433 282.587 46.1233 282.433 45.5633 282.26C45.0167 282.087 44.5367 281.787 44.1233 281.36C43.7233 280.92 43.5233 280.313 43.5233 279.54C43.5233 278.527 43.9433 277.72 44.7833 277.12C45.6367 276.507 46.7833 276.2 48.2233 276.2C48.9567 276.2 49.69 276.287 50.4233 276.46C51.1567 276.62 51.7567 276.84 52.2233 277.12L51.2633 279.02C50.3567 278.487 49.3367 278.22 48.2033 278.22C47.47 278.22 46.91 278.333 46.5233 278.56C46.15 278.773 45.9633 279.06 45.9633 279.42C45.9633 279.82 46.1633 280.107 46.5633 280.28C46.9767 280.44 47.61 280.593 48.4633 280.74C49.3167 280.873 50.0167 281.027 50.5633 281.2C51.11 281.373 51.5767 281.667 51.9633 282.08C52.3633 282.493 52.5633 283.08 52.5633 283.84C52.5633 284.84 52.13 285.64 51.2633 286.24C50.3967 286.84 49.2167 287.14 47.7233 287.14ZM64.4739 281.72C64.4739 281.893 64.4606 282.14 64.4339 282.46H56.0539C56.2006 283.247 56.5806 283.873 57.1939 284.34C57.8206 284.793 58.5939 285.02 59.5139 285.02C60.6873 285.02 61.6539 284.633 62.4139 283.86L63.7539 285.4C63.2739 285.973 62.6673 286.407 61.9339 286.7C61.2006 286.993 60.3739 287.14 59.4539 287.14C58.2806 287.14 57.2473 286.907 56.3539 286.44C55.4606 285.973 54.7673 285.327 54.2739 284.5C53.7939 283.66 53.5539 282.713 53.5539 281.66C53.5539 280.62 53.7873 279.687 54.2539 278.86C54.7339 278.02 55.3939 277.367 56.2339 276.9C57.0739 276.433 58.0206 276.2 59.0739 276.2C60.1139 276.2 61.0406 276.433 61.8539 276.9C62.6806 277.353 63.3206 278 63.7739 278.84C64.2406 279.667 64.4739 280.627 64.4739 281.72ZM59.0739 278.2C58.2739 278.2 57.5939 278.44 57.0339 278.92C56.4873 279.387 56.1539 280.013 56.0339 280.8H62.0939C61.9873 280.027 61.6606 279.4 61.1139 278.92C60.5673 278.44 59.8873 278.2 59.0739 278.2ZM68.973 277.88C69.693 276.76 70.9597 276.2 72.773 276.2V278.58C72.5597 278.54 72.3663 278.52 72.193 278.52C71.2197 278.52 70.4597 278.807 69.913 279.38C69.3663 279.94 69.093 280.753 69.093 281.82V287H66.593V276.32H68.973V277.88ZM77.9505 287.14C77.0838 287.14 76.2371 287.027 75.4105 286.8C74.5838 286.573 73.9238 286.287 73.4305 285.94L74.3905 284.04C74.8705 284.36 75.4438 284.62 76.1105 284.82C76.7905 285.007 77.4571 285.1 78.1105 285.1C79.6038 285.1 80.3505 284.707 80.3505 283.92C80.3505 283.547 80.1571 283.287 79.7705 283.14C79.3971 282.993 78.7905 282.853 77.9505 282.72C77.0705 282.587 76.3505 282.433 75.7905 282.26C75.2438 282.087 74.7638 281.787 74.3505 281.36C73.9505 280.92 73.7505 280.313 73.7505 279.54C73.7505 278.527 74.1705 277.72 75.0105 277.12C75.8638 276.507 77.0105 276.2 78.4505 276.2C79.1838 276.2 79.9171 276.287 80.6505 276.46C81.3838 276.62 81.9838 276.84 82.4505 277.12L81.4905 279.02C80.5838 278.487 79.5638 278.22 78.4305 278.22C77.6971 278.22 77.1371 278.333 76.7505 278.56C76.3771 278.773 76.1905 279.06 76.1905 279.42C76.1905 279.82 76.3905 280.107 76.7905 280.28C77.2038 280.44 77.8371 280.593 78.6905 280.74C79.5438 280.873 80.2438 281.027 80.7905 281.2C81.3371 281.373 81.8038 281.667 82.1905 282.08C82.5905 282.493 82.7905 283.08 82.7905 283.84C82.7905 284.84 82.3571 285.64 81.4905 286.24C80.6238 286.84 79.4438 287.14 77.9505 287.14ZM94.2661 282.42L92.4061 284.18V287H89.9061V272.16H92.4061V281.12L97.5861 276.32H100.586L96.1261 280.8L101.006 287H97.9661L94.2661 282.42ZM111.929 281.72C111.929 281.893 111.916 282.14 111.889 282.46H103.509C103.656 283.247 104.036 283.873 104.649 284.34C105.276 284.793 106.049 285.02 106.969 285.02C108.143 285.02 109.109 284.633 109.869 283.86L111.209 285.4C110.729 285.973 110.123 286.407 109.389 286.7C108.656 286.993 107.829 287.14 106.909 287.14C105.736 287.14 104.703 286.907 103.809 286.44C102.916 285.973 102.223 285.327 101.729 284.5C101.249 283.66 101.009 282.713 101.009 281.66C101.009 280.62 101.243 279.687 101.709 278.86C102.189 278.02 102.849 277.367 103.689 276.9C104.529 276.433 105.476 276.2 106.529 276.2C107.569 276.2 108.496 276.433 109.309 276.9C110.136 277.353 110.776 278 111.229 278.84C111.696 279.667 111.929 280.627 111.929 281.72ZM106.529 278.2C105.729 278.2 105.049 278.44 104.489 278.92C103.943 279.387 103.609 280.013 103.489 280.8H109.549C109.443 280.027 109.116 279.4 108.569 278.92C108.023 278.44 107.343 278.2 106.529 278.2ZM124.088 281.72C124.088 281.893 124.075 282.14 124.048 282.46H115.668C115.815 283.247 116.195 283.873 116.808 284.34C117.435 284.793 118.208 285.02 119.128 285.02C120.302 285.02 121.268 284.633 122.028 283.86L123.368 285.4C122.888 285.973 122.282 286.407 121.548 286.7C120.815 286.993 119.988 287.14 119.068 287.14C117.895 287.14 116.862 286.907 115.968 286.44C115.075 285.973 114.382 285.327 113.888 284.5C113.408 283.66 113.168 282.713 113.168 281.66C113.168 280.62 113.402 279.687 113.868 278.86C114.348 278.02 115.008 277.367 115.848 276.9C116.688 276.433 117.635 276.2 118.688 276.2C119.728 276.2 120.655 276.433 121.468 276.9C122.295 277.353 122.935 278 123.388 278.84C123.855 279.667 124.088 280.627 124.088 281.72ZM118.688 278.2C117.888 278.2 117.208 278.44 116.648 278.92C116.102 279.387 115.768 280.013 115.648 280.8H121.708C121.602 280.027 121.275 279.4 120.728 278.92C120.182 278.44 119.502 278.2 118.688 278.2ZM132.127 276.2C133.167 276.2 134.094 276.427 134.907 276.88C135.734 277.333 136.381 277.973 136.847 278.8C137.314 279.627 137.547 280.58 137.547 281.66C137.547 282.74 137.314 283.7 136.847 284.54C136.381 285.367 135.734 286.007 134.907 286.46C134.094 286.913 133.167 287.14 132.127 287.14C130.687 287.14 129.547 286.66 128.707 285.7V290.88H126.207V276.32H128.587V277.72C129.001 277.213 129.507 276.833 130.107 276.58C130.721 276.327 131.394 276.2 132.127 276.2ZM131.847 285C132.767 285 133.521 284.693 134.107 284.08C134.707 283.467 135.007 282.66 135.007 281.66C135.007 280.66 134.707 279.853 134.107 279.24C133.521 278.627 132.767 278.32 131.847 278.32C131.247 278.32 130.707 278.46 130.227 278.74C129.747 279.007 129.367 279.393 129.087 279.9C128.807 280.407 128.667 280.993 128.667 281.66C128.667 282.327 128.807 282.913 129.087 283.42C129.367 283.927 129.747 284.32 130.227 284.6C130.707 284.867 131.247 285 131.847 285ZM151.301 286.42C151.008 286.66 150.648 286.84 150.221 286.96C149.808 287.08 149.368 287.14 148.901 287.14C147.728 287.14 146.821 286.833 146.181 286.22C145.541 285.607 145.221 284.713 145.221 283.54V278.4H143.461V276.4H145.221V273.96H147.721V276.4H150.581V278.4H147.721V283.48C147.721 284 147.848 284.4 148.101 284.68C148.354 284.947 148.721 285.08 149.201 285.08C149.761 285.08 150.228 284.933 150.601 284.64L151.301 286.42ZM155.455 277.88C156.175 276.76 157.442 276.2 159.255 276.2V278.58C159.042 278.54 158.849 278.52 158.675 278.52C157.702 278.52 156.942 278.807 156.395 279.38C155.849 279.94 155.575 280.753 155.575 281.82V287H153.075V276.32H155.455V277.88ZM165.115 276.2C166.688 276.2 167.888 276.58 168.715 277.34C169.555 278.087 169.975 279.22 169.975 280.74V287H167.615V285.7C167.308 286.167 166.868 286.527 166.295 286.78C165.735 287.02 165.055 287.14 164.255 287.14C163.455 287.14 162.755 287.007 162.155 286.74C161.555 286.46 161.088 286.08 160.755 285.6C160.435 285.107 160.275 284.553 160.275 283.94C160.275 282.98 160.628 282.213 161.335 281.64C162.055 281.053 163.182 280.76 164.715 280.76H167.475V280.6C167.475 279.853 167.248 279.28 166.795 278.88C166.355 278.48 165.695 278.28 164.815 278.28C164.215 278.28 163.622 278.373 163.035 278.56C162.462 278.747 161.975 279.007 161.575 279.34L160.595 277.52C161.155 277.093 161.828 276.767 162.615 276.54C163.402 276.313 164.235 276.2 165.115 276.2ZM164.775 285.32C165.402 285.32 165.955 285.18 166.435 284.9C166.928 284.607 167.275 284.193 167.475 283.66V282.42H164.895C163.455 282.42 162.735 282.893 162.735 283.84C162.735 284.293 162.915 284.653 163.275 284.92C163.635 285.187 164.135 285.32 164.775 285.32ZM177.899 287.14C176.792 287.14 175.799 286.907 174.919 286.44C174.039 285.973 173.352 285.327 172.859 284.5C172.365 283.66 172.119 282.713 172.119 281.66C172.119 280.607 172.365 279.667 172.859 278.84C173.352 278.013 174.032 277.367 174.899 276.9C175.779 276.433 176.779 276.2 177.899 276.2C178.952 276.2 179.872 276.413 180.659 276.84C181.459 277.267 182.059 277.88 182.459 278.68L180.539 279.8C180.232 279.307 179.845 278.94 179.379 278.7C178.925 278.447 178.425 278.32 177.879 278.32C176.945 278.32 176.172 278.627 175.559 279.24C174.945 279.84 174.639 280.647 174.639 281.66C174.639 282.673 174.939 283.487 175.539 284.1C176.152 284.7 176.932 285 177.879 285C178.425 285 178.925 284.88 179.379 284.64C179.845 284.387 180.232 284.013 180.539 283.52L182.459 284.64C182.045 285.44 181.439 286.06 180.639 286.5C179.852 286.927 178.939 287.14 177.899 287.14ZM188.6 282.42L186.74 284.18V287H184.24V272.16H186.74V281.12L191.92 276.32H194.92L190.46 280.8L195.34 287H192.3L188.6 282.42ZM206.717 287.14C205.637 287.14 204.664 286.907 203.797 286.44C202.931 285.973 202.251 285.327 201.757 284.5C201.277 283.66 201.037 282.713 201.037 281.66C201.037 280.607 201.277 279.667 201.757 278.84C202.251 278.013 202.931 277.367 203.797 276.9C204.664 276.433 205.637 276.2 206.717 276.2C207.811 276.2 208.791 276.433 209.657 276.9C210.524 277.367 211.197 278.013 211.677 278.84C212.171 279.667 212.417 280.607 212.417 281.66C212.417 282.713 212.171 283.66 211.677 284.5C211.197 285.327 210.524 285.973 209.657 286.44C208.791 286.907 207.811 287.14 206.717 287.14ZM206.717 285C207.637 285 208.397 284.693 208.997 284.08C209.597 283.467 209.897 282.66 209.897 281.66C209.897 280.66 209.597 279.853 208.997 279.24C208.397 278.627 207.637 278.32 206.717 278.32C205.797 278.32 205.037 278.627 204.437 279.24C203.851 279.853 203.557 280.66 203.557 281.66C203.557 282.66 203.851 283.467 204.437 284.08C205.037 284.693 205.797 285 206.717 285ZM218.866 274.04C217.812 274.04 217.286 274.613 217.286 275.76V276.4H220.226V278.4H217.366V287H214.866V278.4H213.106V276.4H214.866V275.72C214.866 274.573 215.199 273.673 215.866 273.02C216.532 272.353 217.472 272.02 218.686 272.02C219.646 272.02 220.399 272.213 220.946 272.6L220.246 274.48C219.819 274.187 219.359 274.04 218.866 274.04ZM231.671 287.14C230.591 287.14 229.618 286.907 228.751 286.44C227.884 285.973 227.204 285.327 226.711 284.5C226.231 283.66 225.991 282.713 225.991 281.66C225.991 280.607 226.231 279.667 226.711 278.84C227.204 278.013 227.884 277.367 228.751 276.9C229.618 276.433 230.591 276.2 231.671 276.2C232.764 276.2 233.744 276.433 234.611 276.9C235.478 277.367 236.151 278.013 236.631 278.84C237.124 279.667 237.371 280.607 237.371 281.66C237.371 282.713 237.124 283.66 236.631 284.5C236.151 285.327 235.478 285.973 234.611 286.44C233.744 286.907 232.764 287.14 231.671 287.14ZM231.671 285C232.591 285 233.351 284.693 233.951 284.08C234.551 283.467 234.851 282.66 234.851 281.66C234.851 280.66 234.551 279.853 233.951 279.24C233.351 278.627 232.591 278.32 231.671 278.32C230.751 278.32 229.991 278.627 229.391 279.24C228.804 279.853 228.511 280.66 228.511 281.66C228.511 282.66 228.804 283.467 229.391 284.08C229.991 284.693 230.751 285 231.671 285ZM241.859 277.88C242.579 276.76 243.846 276.2 245.659 276.2V278.58C245.446 278.54 245.253 278.52 245.079 278.52C244.106 278.52 243.346 278.807 242.799 279.38C242.253 279.94 241.979 280.753 241.979 281.82V287H239.479V276.32H241.859V277.88ZM257.86 272.16V287H255.46V285.62C255.047 286.127 254.533 286.507 253.92 286.76C253.32 287.013 252.653 287.14 251.92 287.14C250.893 287.14 249.967 286.913 249.14 286.46C248.327 286.007 247.687 285.367 247.22 284.54C246.753 283.7 246.52 282.74 246.52 281.66C246.52 280.58 246.753 279.627 247.22 278.8C247.687 277.973 248.327 277.333 249.14 276.88C249.967 276.427 250.893 276.2 251.92 276.2C252.627 276.2 253.273 276.32 253.86 276.56C254.447 276.8 254.947 277.16 255.36 277.64V272.16H257.86ZM252.22 285C252.82 285 253.36 284.867 253.84 284.6C254.32 284.32 254.7 283.927 254.98 283.42C255.26 282.913 255.4 282.327 255.4 281.66C255.4 280.993 255.26 280.407 254.98 279.9C254.7 279.393 254.32 279.007 253.84 278.74C253.36 278.46 252.82 278.32 252.22 278.32C251.62 278.32 251.08 278.46 250.6 278.74C250.12 279.007 249.74 279.393 249.46 279.9C249.18 280.407 249.04 280.993 249.04 281.66C249.04 282.327 249.18 282.913 249.46 283.42C249.74 283.927 250.12 284.32 250.6 284.6C251.08 284.867 251.62 285 252.22 285ZM270.888 281.72C270.888 281.893 270.875 282.14 270.848 282.46H262.468C262.615 283.247 262.995 283.873 263.608 284.34C264.235 284.793 265.008 285.02 265.928 285.02C267.102 285.02 268.068 284.633 268.828 283.86L270.168 285.4C269.688 285.973 269.082 286.407 268.348 286.7C267.615 286.993 266.788 287.14 265.868 287.14C264.695 287.14 263.662 286.907 262.768 286.44C261.875 285.973 261.182 285.327 260.688 284.5C260.208 283.66 259.968 282.713 259.968 281.66C259.968 280.62 260.202 279.687 260.668 278.86C261.148 278.02 261.808 277.367 262.648 276.9C263.488 276.433 264.435 276.2 265.488 276.2C266.528 276.2 267.455 276.433 268.268 276.9C269.095 277.353 269.735 278 270.188 278.84C270.655 279.667 270.888 280.627 270.888 281.72ZM265.488 278.2C264.688 278.2 264.008 278.44 263.448 278.92C262.902 279.387 262.568 280.013 262.448 280.8H268.508C268.402 280.027 268.075 279.4 267.528 278.92C266.982 278.44 266.302 278.2 265.488 278.2ZM275.387 277.88C276.107 276.76 277.374 276.2 279.187 276.2V278.58C278.974 278.54 278.781 278.52 278.607 278.52C277.634 278.52 276.874 278.807 276.327 279.38C275.781 279.94 275.507 280.753 275.507 281.82V287H273.007V276.32H275.387V277.88ZM284.365 287.14C283.498 287.14 282.651 287.027 281.825 286.8C280.998 286.573 280.338 286.287 279.845 285.94L280.805 284.04C281.285 284.36 281.858 284.62 282.525 284.82C283.205 285.007 283.871 285.1 284.525 285.1C286.018 285.1 286.765 284.707 286.765 283.92C286.765 283.547 286.571 283.287 286.185 283.14C285.811 282.993 285.205 282.853 284.365 282.72C283.485 282.587 282.765 282.433 282.205 282.26C281.658 282.087 281.178 281.787 280.765 281.36C280.365 280.92 280.165 280.313 280.165 279.54C280.165 278.527 280.585 277.72 281.425 277.12C282.278 276.507 283.425 276.2 284.865 276.2C285.598 276.2 286.331 276.287 287.065 276.46C287.798 276.62 288.398 276.84 288.865 277.12L287.905 279.02C286.998 278.487 285.978 278.22 284.845 278.22C284.111 278.22 283.551 278.333 283.165 278.56C282.791 278.773 282.605 279.06 282.605 279.42C282.605 279.82 282.805 280.107 283.205 280.28C283.618 280.44 284.251 280.593 285.105 280.74C285.958 280.873 286.658 281.027 287.205 281.2C287.751 281.373 288.218 281.667 288.605 282.08C289.005 282.493 289.205 283.08 289.205 283.84C289.205 284.84 288.771 285.64 287.905 286.24C287.038 286.84 285.858 287.14 284.365 287.14ZM300.4 276.2C301.974 276.2 303.174 276.58 304 277.34C304.84 278.087 305.26 279.22 305.26 280.74V287H302.9V285.7C302.594 286.167 302.154 286.527 301.58 286.78C301.02 287.02 300.34 287.14 299.54 287.14C298.74 287.14 298.04 287.007 297.44 286.74C296.84 286.46 296.374 286.08 296.04 285.6C295.72 285.107 295.56 284.553 295.56 283.94C295.56 282.98 295.914 282.213 296.62 281.64C297.34 281.053 298.467 280.76 300 280.76H302.76V280.6C302.76 279.853 302.534 279.28 302.08 278.88C301.64 278.48 300.98 278.28 300.1 278.28C299.5 278.28 298.907 278.373 298.32 278.56C297.747 278.747 297.26 279.007 296.86 279.34L295.88 277.52C296.44 277.093 297.114 276.767 297.9 276.54C298.687 276.313 299.52 276.2 300.4 276.2ZM300.06 285.32C300.687 285.32 301.24 285.18 301.72 284.9C302.214 284.607 302.56 284.193 302.76 283.66V282.42H300.18C298.74 282.42 298.02 282.893 298.02 283.84C298.02 284.293 298.2 284.653 298.56 284.92C298.92 285.187 299.42 285.32 300.06 285.32ZM314.247 276.2C315.593 276.2 316.673 276.593 317.487 277.38C318.3 278.167 318.707 279.333 318.707 280.88V287H316.207V281.2C316.207 280.267 315.987 279.567 315.547 279.1C315.107 278.62 314.48 278.38 313.667 278.38C312.747 278.38 312.02 278.66 311.487 279.22C310.953 279.767 310.687 280.56 310.687 281.6V287H308.187V276.32H310.567V277.7C310.98 277.207 311.5 276.833 312.127 276.58C312.753 276.327 313.46 276.2 314.247 276.2ZM332.153 272.16V287H329.753V285.62C329.34 286.127 328.827 286.507 328.213 286.76C327.613 287.013 326.947 287.14 326.213 287.14C325.187 287.14 324.26 286.913 323.433 286.46C322.62 286.007 321.98 285.367 321.513 284.54C321.047 283.7 320.813 282.74 320.813 281.66C320.813 280.58 321.047 279.627 321.513 278.8C321.98 277.973 322.62 277.333 323.433 276.88C324.26 276.427 325.187 276.2 326.213 276.2C326.92 276.2 327.567 276.32 328.153 276.56C328.74 276.8 329.24 277.16 329.653 277.64V272.16H332.153ZM326.513 285C327.113 285 327.653 284.867 328.133 284.6C328.613 284.32 328.993 283.927 329.273 283.42C329.553 282.913 329.693 282.327 329.693 281.66C329.693 280.993 329.553 280.407 329.273 279.9C328.993 279.393 328.613 279.007 328.133 278.74C327.653 278.46 327.113 278.32 326.513 278.32C325.913 278.32 325.373 278.46 324.893 278.74C324.413 279.007 324.033 279.393 323.753 279.9C323.473 280.407 323.333 280.993 323.333 281.66C323.333 282.327 323.473 282.913 323.753 283.42C324.033 283.927 324.413 284.32 324.893 284.6C325.373 284.867 325.913 285 326.513 285ZM21.7479 311.2C22.7879 311.2 23.7145 311.427 24.5279 311.88C25.3545 312.333 26.0012 312.973 26.4679 313.8C26.9345 314.627 27.1679 315.58 27.1679 316.66C27.1679 317.74 26.9345 318.7 26.4679 319.54C26.0012 320.367 25.3545 321.007 24.5279 321.46C23.7145 321.913 22.7879 322.14 21.7479 322.14C21.0145 322.14 20.3412 322.013 19.7279 321.76C19.1279 321.507 18.6212 321.127 18.2079 320.62V322H15.8279V307.16H18.3279V312.62C18.7545 312.153 19.2545 311.8 19.8279 311.56C20.4145 311.32 21.0545 311.2 21.7479 311.2ZM21.4679 320C22.3879 320 23.1412 319.693 23.7279 319.08C24.3279 318.467 24.6279 317.66 24.6279 316.66C24.6279 315.66 24.3279 314.853 23.7279 314.24C23.1412 313.627 22.3879 313.32 21.4679 313.32C20.8679 313.32 20.3279 313.46 19.8479 313.74C19.3679 314.007 18.9879 314.393 18.7079 314.9C18.4279 315.407 18.2879 315.993 18.2879 316.66C18.2879 317.327 18.4279 317.913 18.7079 318.42C18.9879 318.927 19.3679 319.32 19.8479 319.6C20.3279 319.867 20.8679 320 21.4679 320ZM39.5965 311.32V322H37.2165V320.64C36.8165 321.12 36.3165 321.493 35.7165 321.76C35.1165 322.013 34.4698 322.14 33.7765 322.14C32.3498 322.14 31.2231 321.747 30.3965 320.96C29.5831 320.16 29.1765 318.98 29.1765 317.42V311.32H31.6765V317.08C31.6765 318.04 31.8898 318.76 32.3165 319.24C32.7565 319.707 33.3765 319.94 34.1765 319.94C35.0698 319.94 35.7765 319.667 36.2965 319.12C36.8298 318.56 37.0965 317.76 37.0965 316.72V311.32H39.5965ZM45.8874 322.14C45.0207 322.14 44.174 322.027 43.3474 321.8C42.5207 321.573 41.8607 321.287 41.3674 320.94L42.3274 319.04C42.8074 319.36 43.3807 319.62 44.0474 319.82C44.7274 320.007 45.394 320.1 46.0474 320.1C47.5407 320.1 48.2874 319.707 48.2874 318.92C48.2874 318.547 48.094 318.287 47.7074 318.14C47.334 317.993 46.7274 317.853 45.8874 317.72C45.0074 317.587 44.2874 317.433 43.7274 317.26C43.1807 317.087 42.7007 316.787 42.2874 316.36C41.8874 315.92 41.6874 315.313 41.6874 314.54C41.6874 313.527 42.1074 312.72 42.9474 312.12C43.8007 311.507 44.9474 311.2 46.3874 311.2C47.1207 311.2 47.854 311.287 48.5874 311.46C49.3207 311.62 49.9207 311.84 50.3874 312.12L49.4274 314.02C48.5207 313.487 47.5007 313.22 46.3674 313.22C45.634 313.22 45.074 313.333 44.6874 313.56C44.314 313.773 44.1274 314.06 44.1274 314.42C44.1274 314.82 44.3274 315.107 44.7274 315.28C45.1407 315.44 45.774 315.593 46.6274 315.74C47.4807 315.873 48.1807 316.027 48.7274 316.2C49.274 316.373 49.7407 316.667 50.1274 317.08C50.5274 317.493 50.7274 318.08 50.7274 318.84C50.7274 319.84 50.294 320.64 49.4274 321.24C48.5607 321.84 47.3807 322.14 45.8874 322.14ZM52.598 311.32H55.098V322H52.598V311.32ZM53.858 309.56C53.4047 309.56 53.0247 309.42 52.718 309.14C52.4113 308.847 52.258 308.487 52.258 308.06C52.258 307.633 52.4113 307.28 52.718 307C53.0247 306.707 53.4047 306.56 53.858 306.56C54.3113 306.56 54.6913 306.7 54.998 306.98C55.3047 307.247 55.458 307.587 55.458 308C55.458 308.44 55.3047 308.813 54.998 309.12C54.7047 309.413 54.3247 309.56 53.858 309.56ZM64.1569 311.2C65.5036 311.2 66.5836 311.593 67.3969 312.38C68.2102 313.167 68.6169 314.333 68.6169 315.88V322H66.1169V316.2C66.1169 315.267 65.8969 314.567 65.4569 314.1C65.0169 313.62 64.3902 313.38 63.5769 313.38C62.6569 313.38 61.9302 313.66 61.3969 314.22C60.8636 314.767 60.5969 315.56 60.5969 316.6V322H58.0969V311.32H60.4769V312.7C60.8902 312.207 61.4102 311.833 62.0369 311.58C62.6636 311.327 63.3702 311.2 64.1569 311.2ZM81.6436 316.72C81.6436 316.893 81.6303 317.14 81.6036 317.46H73.2236C73.3703 318.247 73.7503 318.873 74.3636 319.34C74.9903 319.793 75.7636 320.02 76.6836 320.02C77.8569 320.02 78.8236 319.633 79.5836 318.86L80.9236 320.4C80.4436 320.973 79.8369 321.407 79.1036 321.7C78.3703 321.993 77.5436 322.14 76.6236 322.14C75.4503 322.14 74.4169 321.907 73.5236 321.44C72.6303 320.973 71.9369 320.327 71.4436 319.5C70.9636 318.66 70.7236 317.713 70.7236 316.66C70.7236 315.62 70.9569 314.687 71.4236 313.86C71.9036 313.02 72.5636 312.367 73.4036 311.9C74.2436 311.433 75.1903 311.2 76.2436 311.2C77.2836 311.2 78.2103 311.433 79.0236 311.9C79.8503 312.353 80.4903 313 80.9436 313.84C81.4103 314.667 81.6436 315.627 81.6436 316.72ZM76.2436 313.2C75.4436 313.2 74.7636 313.44 74.2036 313.92C73.6569 314.387 73.3236 315.013 73.2036 315.8H79.2636C79.1569 315.027 78.8303 314.4 78.2836 313.92C77.7369 313.44 77.0569 313.2 76.2436 313.2ZM87.0627 322.14C86.196 322.14 85.3493 322.027 84.5227 321.8C83.696 321.573 83.036 321.287 82.5427 320.94L83.5027 319.04C83.9827 319.36 84.556 319.62 85.2227 319.82C85.9027 320.007 86.5693 320.1 87.2227 320.1C88.716 320.1 89.4627 319.707 89.4627 318.92C89.4627 318.547 89.2693 318.287 88.8827 318.14C88.5093 317.993 87.9027 317.853 87.0627 317.72C86.1827 317.587 85.4627 317.433 84.9027 317.26C84.356 317.087 83.876 316.787 83.4627 316.36C83.0627 315.92 82.8627 315.313 82.8627 314.54C82.8627 313.527 83.2827 312.72 84.1227 312.12C84.976 311.507 86.1227 311.2 87.5627 311.2C88.296 311.2 89.0293 311.287 89.7627 311.46C90.496 311.62 91.096 311.84 91.5627 312.12L90.6027 314.02C89.696 313.487 88.676 313.22 87.5427 313.22C86.8093 313.22 86.2493 313.333 85.8627 313.56C85.4893 313.773 85.3027 314.06 85.3027 314.42C85.3027 314.82 85.5027 315.107 85.9027 315.28C86.316 315.44 86.9493 315.593 87.8027 315.74C88.656 315.873 89.356 316.027 89.9027 316.2C90.4493 316.373 90.916 316.667 91.3027 317.08C91.7027 317.493 91.9027 318.08 91.9027 318.84C91.9027 319.84 91.4693 320.64 90.6027 321.24C89.736 321.84 88.556 322.14 87.0627 322.14ZM97.0733 322.14C96.2066 322.14 95.3599 322.027 94.5333 321.8C93.7066 321.573 93.0466 321.287 92.5533 320.94L93.5133 319.04C93.9933 319.36 94.5666 319.62 95.2333 319.82C95.9133 320.007 96.5799 320.1 97.2333 320.1C98.7266 320.1 99.4733 319.707 99.4733 318.92C99.4733 318.547 99.2799 318.287 98.8933 318.14C98.5199 317.993 97.9133 317.853 97.0733 317.72C96.1933 317.587 95.4733 317.433 94.9133 317.26C94.3666 317.087 93.8866 316.787 93.4733 316.36C93.0733 315.92 92.8733 315.313 92.8733 314.54C92.8733 313.527 93.2933 312.72 94.1333 312.12C94.9866 311.507 96.1333 311.2 97.5733 311.2C98.3066 311.2 99.0399 311.287 99.7733 311.46C100.507 311.62 101.107 311.84 101.573 312.12L100.613 314.02C99.7066 313.487 98.6866 313.22 97.5533 313.22C96.8199 313.22 96.2599 313.333 95.8733 313.56C95.4999 313.773 95.3133 314.06 95.3133 314.42C95.3133 314.82 95.5133 315.107 95.9133 315.28C96.3266 315.44 96.9599 315.593 97.8133 315.74C98.6666 315.873 99.3666 316.027 99.9133 316.2C100.46 316.373 100.927 316.667 101.313 317.08C101.713 317.493 101.913 318.08 101.913 318.84C101.913 319.84 101.48 320.64 100.613 321.24C99.7466 321.84 98.5666 322.14 97.0733 322.14ZM119.069 316.72C119.069 316.893 119.056 317.14 119.029 317.46H110.649C110.796 318.247 111.176 318.873 111.789 319.34C112.416 319.793 113.189 320.02 114.109 320.02C115.282 320.02 116.249 319.633 117.009 318.86L118.349 320.4C117.869 320.973 117.262 321.407 116.529 321.7C115.796 321.993 114.969 322.14 114.049 322.14C112.876 322.14 111.842 321.907 110.949 321.44C110.056 320.973 109.362 320.327 108.869 319.5C108.389 318.66 108.149 317.713 108.149 316.66C108.149 315.62 108.382 314.687 108.849 313.86C109.329 313.02 109.989 312.367 110.829 311.9C111.669 311.433 112.616 311.2 113.669 311.2C114.709 311.2 115.636 311.433 116.449 311.9C117.276 312.353 117.916 313 118.369 313.84C118.836 314.667 119.069 315.627 119.069 316.72ZM113.669 313.2C112.869 313.2 112.189 313.44 111.629 313.92C111.082 314.387 110.749 315.013 110.629 315.8H116.689C116.582 315.027 116.256 314.4 115.709 313.92C115.162 313.44 114.482 313.2 113.669 313.2ZM127.695 322L124.955 318.3L122.195 322H119.435L123.595 316.58L119.615 311.32H122.395L125.015 314.82L127.635 311.32H130.335L126.335 316.54L130.515 322H127.695ZM137.997 311.2C139.037 311.2 139.964 311.427 140.777 311.88C141.604 312.333 142.251 312.973 142.717 313.8C143.184 314.627 143.417 315.58 143.417 316.66C143.417 317.74 143.184 318.7 142.717 319.54C142.251 320.367 141.604 321.007 140.777 321.46C139.964 321.913 139.037 322.14 137.997 322.14C136.557 322.14 135.417 321.66 134.577 320.7V325.88H132.077V311.32H134.457V312.72C134.871 312.213 135.377 311.833 135.977 311.58C136.591 311.327 137.264 311.2 137.997 311.2ZM137.717 320C138.637 320 139.391 319.693 139.977 319.08C140.577 318.467 140.877 317.66 140.877 316.66C140.877 315.66 140.577 314.853 139.977 314.24C139.391 313.627 138.637 313.32 137.717 313.32C137.117 313.32 136.577 313.46 136.097 313.74C135.617 314.007 135.237 314.393 134.957 314.9C134.677 315.407 134.537 315.993 134.537 316.66C134.537 317.327 134.677 317.913 134.957 318.42C135.237 318.927 135.617 319.32 136.097 319.6C136.577 319.867 137.117 320 137.717 320ZM155.546 316.72C155.546 316.893 155.533 317.14 155.506 317.46H147.126C147.273 318.247 147.653 318.873 148.266 319.34C148.893 319.793 149.666 320.02 150.586 320.02C151.759 320.02 152.726 319.633 153.486 318.86L154.826 320.4C154.346 320.973 153.739 321.407 153.006 321.7C152.273 321.993 151.446 322.14 150.526 322.14C149.353 322.14 148.319 321.907 147.426 321.44C146.533 320.973 145.839 320.327 145.346 319.5C144.866 318.66 144.626 317.713 144.626 316.66C144.626 315.62 144.859 314.687 145.326 313.86C145.806 313.02 146.466 312.367 147.306 311.9C148.146 311.433 149.093 311.2 150.146 311.2C151.186 311.2 152.113 311.433 152.926 311.9C153.753 312.353 154.393 313 154.846 313.84C155.313 314.667 155.546 315.627 155.546 316.72ZM150.146 313.2C149.346 313.2 148.666 313.44 148.106 313.92C147.559 314.387 147.226 315.013 147.106 315.8H153.166C153.059 315.027 152.733 314.4 152.186 313.92C151.639 313.44 150.959 313.2 150.146 313.2ZM163.725 311.2C165.072 311.2 166.152 311.593 166.965 312.38C167.778 313.167 168.185 314.333 168.185 315.88V322H165.685V316.2C165.685 315.267 165.465 314.567 165.025 314.1C164.585 313.62 163.958 313.38 163.145 313.38C162.225 313.38 161.498 313.66 160.965 314.22C160.432 314.767 160.165 315.56 160.165 316.6V322H157.665V311.32H160.045V312.7C160.458 312.207 160.978 311.833 161.605 311.58C162.232 311.327 162.938 311.2 163.725 311.2ZM174.374 322.14C173.507 322.14 172.661 322.027 171.834 321.8C171.007 321.573 170.347 321.287 169.854 320.94L170.814 319.04C171.294 319.36 171.867 319.62 172.534 319.82C173.214 320.007 173.881 320.1 174.534 320.1C176.027 320.1 176.774 319.707 176.774 318.92C176.774 318.547 176.581 318.287 176.194 318.14C175.821 317.993 175.214 317.853 174.374 317.72C173.494 317.587 172.774 317.433 172.214 317.26C171.667 317.087 171.187 316.787 170.774 316.36C170.374 315.92 170.174 315.313 170.174 314.54C170.174 313.527 170.594 312.72 171.434 312.12C172.287 311.507 173.434 311.2 174.874 311.2C175.607 311.2 176.341 311.287 177.074 311.46C177.807 311.62 178.407 311.84 178.874 312.12L177.914 314.02C177.007 313.487 175.987 313.22 174.854 313.22C174.121 313.22 173.561 313.333 173.174 313.56C172.801 313.773 172.614 314.06 172.614 314.42C172.614 314.82 172.814 315.107 173.214 315.28C173.627 315.44 174.261 315.593 175.114 315.74C175.967 315.873 176.667 316.027 177.214 316.2C177.761 316.373 178.227 316.667 178.614 317.08C179.014 317.493 179.214 318.08 179.214 318.84C179.214 319.84 178.781 320.64 177.914 321.24C177.047 321.84 175.867 322.14 174.374 322.14ZM191.125 316.72C191.125 316.893 191.111 317.14 191.085 317.46H182.705C182.851 318.247 183.231 318.873 183.845 319.34C184.471 319.793 185.245 320.02 186.165 320.02C187.338 320.02 188.305 319.633 189.065 318.86L190.405 320.4C189.925 320.973 189.318 321.407 188.585 321.7C187.851 321.993 187.025 322.14 186.105 322.14C184.931 322.14 183.898 321.907 183.005 321.44C182.111 320.973 181.418 320.327 180.925 319.5C180.445 318.66 180.205 317.713 180.205 316.66C180.205 315.62 180.438 314.687 180.905 313.86C181.385 313.02 182.045 312.367 182.885 311.9C183.725 311.433 184.671 311.2 185.725 311.2C186.765 311.2 187.691 311.433 188.505 311.9C189.331 312.353 189.971 313 190.425 313.84C190.891 314.667 191.125 315.627 191.125 316.72ZM185.725 313.2C184.925 313.2 184.245 313.44 183.685 313.92C183.138 314.387 182.805 315.013 182.685 315.8H188.745C188.638 315.027 188.311 314.4 187.765 313.92C187.218 313.44 186.538 313.2 185.725 313.2ZM196.544 322.14C195.677 322.14 194.83 322.027 194.004 321.8C193.177 321.573 192.517 321.287 192.024 320.94L192.984 319.04C193.464 319.36 194.037 319.62 194.704 319.82C195.384 320.007 196.05 320.1 196.704 320.1C198.197 320.1 198.944 319.707 198.944 318.92C198.944 318.547 198.75 318.287 198.364 318.14C197.99 317.993 197.384 317.853 196.544 317.72C195.664 317.587 194.944 317.433 194.384 317.26C193.837 317.087 193.357 316.787 192.944 316.36C192.544 315.92 192.344 315.313 192.344 314.54C192.344 313.527 192.764 312.72 193.604 312.12C194.457 311.507 195.604 311.2 197.044 311.2C197.777 311.2 198.51 311.287 199.244 311.46C199.977 311.62 200.577 311.84 201.044 312.12L200.084 314.02C199.177 313.487 198.157 313.22 197.024 313.22C196.29 313.22 195.73 313.333 195.344 313.56C194.97 313.773 194.784 314.06 194.784 314.42C194.784 314.82 194.984 315.107 195.384 315.28C195.797 315.44 196.43 315.593 197.284 315.74C198.137 315.873 198.837 316.027 199.384 316.2C199.93 316.373 200.397 316.667 200.784 317.08C201.184 317.493 201.384 318.08 201.384 318.84C201.384 319.84 200.95 320.64 200.084 321.24C199.217 321.84 198.037 322.14 196.544 322.14ZM218.499 311.32L213.919 322H211.339L206.759 311.32H209.359L212.679 319.24L216.099 311.32H218.499ZM219.78 311.32H222.28V322H219.78V311.32ZM221.04 309.56C220.586 309.56 220.206 309.42 219.9 309.14C219.593 308.847 219.44 308.487 219.44 308.06C219.44 307.633 219.593 307.28 219.9 307C220.206 306.707 220.586 306.56 221.04 306.56C221.493 306.56 221.873 306.7 222.18 306.98C222.486 307.247 222.64 307.587 222.64 308C222.64 308.44 222.486 308.813 222.18 309.12C221.886 309.413 221.506 309.56 221.04 309.56ZM229.358 311.2C230.932 311.2 232.132 311.58 232.958 312.34C233.798 313.087 234.218 314.22 234.218 315.74V322H231.858V320.7C231.552 321.167 231.112 321.527 230.538 321.78C229.978 322.02 229.298 322.14 228.498 322.14C227.698 322.14 226.998 322.007 226.398 321.74C225.798 321.46 225.332 321.08 224.998 320.6C224.678 320.107 224.518 319.553 224.518 318.94C224.518 317.98 224.872 317.213 225.578 316.64C226.298 316.053 227.425 315.76 228.958 315.76H231.718V315.6C231.718 314.853 231.492 314.28 231.038 313.88C230.598 313.48 229.938 313.28 229.058 313.28C228.458 313.28 227.865 313.373 227.278 313.56C226.705 313.747 226.218 314.007 225.818 314.34L224.838 312.52C225.398 312.093 226.072 311.767 226.858 311.54C227.645 311.313 228.478 311.2 229.358 311.2ZM229.018 320.32C229.645 320.32 230.198 320.18 230.678 319.9C231.172 319.607 231.518 319.193 231.718 318.66V317.42H229.138C227.698 317.42 226.978 317.893 226.978 318.84C226.978 319.293 227.158 319.653 227.518 319.92C227.878 320.187 228.378 320.32 229.018 320.32ZM248.31 311.2C249.35 311.2 250.276 311.427 251.09 311.88C251.916 312.333 252.563 312.973 253.03 313.8C253.496 314.627 253.73 315.58 253.73 316.66C253.73 317.74 253.496 318.7 253.03 319.54C252.563 320.367 251.916 321.007 251.09 321.46C250.276 321.913 249.35 322.14 248.31 322.14C246.87 322.14 245.73 321.66 244.89 320.7V325.88H242.39V311.32H244.77V312.72C245.183 312.213 245.69 311.833 246.29 311.58C246.903 311.327 247.576 311.2 248.31 311.2ZM248.03 320C248.95 320 249.703 319.693 250.29 319.08C250.89 318.467 251.19 317.66 251.19 316.66C251.19 315.66 250.89 314.853 250.29 314.24C249.703 313.627 248.95 313.32 248.03 313.32C247.43 313.32 246.89 313.46 246.41 313.74C245.93 314.007 245.55 314.393 245.27 314.9C244.99 315.407 244.85 315.993 244.85 316.66C244.85 317.327 244.99 317.913 245.27 318.42C245.55 318.927 245.93 319.32 246.41 319.6C246.89 319.867 247.43 320 248.03 320ZM265.858 316.72C265.858 316.893 265.845 317.14 265.818 317.46H257.438C257.585 318.247 257.965 318.873 258.578 319.34C259.205 319.793 259.978 320.02 260.898 320.02C262.071 320.02 263.038 319.633 263.798 318.86L265.138 320.4C264.658 320.973 264.051 321.407 263.318 321.7C262.585 321.993 261.758 322.14 260.838 322.14C259.665 322.14 258.631 321.907 257.738 321.44C256.845 320.973 256.151 320.327 255.658 319.5C255.178 318.66 254.938 317.713 254.938 316.66C254.938 315.62 255.171 314.687 255.638 313.86C256.118 313.02 256.778 312.367 257.618 311.9C258.458 311.433 259.405 311.2 260.458 311.2C261.498 311.2 262.425 311.433 263.238 311.9C264.065 312.353 264.705 313 265.158 313.84C265.625 314.667 265.858 315.627 265.858 316.72ZM260.458 313.2C259.658 313.2 258.978 313.44 258.418 313.92C257.871 314.387 257.538 315.013 257.418 315.8H263.478C263.371 315.027 263.045 314.4 262.498 313.92C261.951 313.44 261.271 313.2 260.458 313.2ZM274.037 311.2C275.384 311.2 276.464 311.593 277.277 312.38C278.09 313.167 278.497 314.333 278.497 315.88V322H275.997V316.2C275.997 315.267 275.777 314.567 275.337 314.1C274.897 313.62 274.27 313.38 273.457 313.38C272.537 313.38 271.81 313.66 271.277 314.22C270.744 314.767 270.477 315.56 270.477 316.6V322H267.977V311.32H270.357V312.7C270.77 312.207 271.29 311.833 271.917 311.58C272.544 311.327 273.25 311.2 274.037 311.2ZM290.711 311.2C292.285 311.2 293.485 311.58 294.311 312.34C295.151 313.087 295.571 314.22 295.571 315.74V322H293.211V320.7C292.905 321.167 292.465 321.527 291.891 321.78C291.331 322.02 290.651 322.14 289.851 322.14C289.051 322.14 288.351 322.007 287.751 321.74C287.151 321.46 286.685 321.08 286.351 320.6C286.031 320.107 285.871 319.553 285.871 318.94C285.871 317.98 286.225 317.213 286.931 316.64C287.651 316.053 288.778 315.76 290.311 315.76H293.071V315.6C293.071 314.853 292.845 314.28 292.391 313.88C291.951 313.48 291.291 313.28 290.411 313.28C289.811 313.28 289.218 313.373 288.631 313.56C288.058 313.747 287.571 314.007 287.171 314.34L286.191 312.52C286.751 312.093 287.425 311.767 288.211 311.54C288.998 311.313 289.831 311.2 290.711 311.2ZM290.371 320.32C290.998 320.32 291.551 320.18 292.031 319.9C292.525 319.607 292.871 319.193 293.071 318.66V317.42H290.491C289.051 317.42 288.331 317.893 288.331 318.84C288.331 319.293 288.511 319.653 288.871 319.92C289.231 320.187 289.731 320.32 290.371 320.32ZM304.557 311.2C305.904 311.2 306.984 311.593 307.797 312.38C308.611 313.167 309.017 314.333 309.017 315.88V322H306.517V316.2C306.517 315.267 306.297 314.567 305.857 314.1C305.417 313.62 304.791 313.38 303.977 313.38C303.057 313.38 302.331 313.66 301.797 314.22C301.264 314.767 300.997 315.56 300.997 316.6V322H298.497V311.32H300.877V312.7C301.291 312.207 301.811 311.833 302.437 311.58C303.064 311.327 303.771 311.2 304.557 311.2ZM322.464 307.16V322H320.064V320.62C319.651 321.127 319.137 321.507 318.524 321.76C317.924 322.013 317.257 322.14 316.524 322.14C315.497 322.14 314.571 321.913 313.744 321.46C312.931 321.007 312.291 320.367 311.824 319.54C311.357 318.7 311.124 317.74 311.124 316.66C311.124 315.58 311.357 314.627 311.824 313.8C312.291 312.973 312.931 312.333 313.744 311.88C314.571 311.427 315.497 311.2 316.524 311.2C317.231 311.2 317.877 311.32 318.464 311.56C319.051 311.8 319.551 312.16 319.964 312.64V307.16H322.464ZM316.824 320C317.424 320 317.964 319.867 318.444 319.6C318.924 319.32 319.304 318.927 319.584 318.42C319.864 317.913 320.004 317.327 320.004 316.66C320.004 315.993 319.864 315.407 319.584 314.9C319.304 314.393 318.924 314.007 318.444 313.74C317.964 313.46 317.424 313.32 316.824 313.32C316.224 313.32 315.684 313.46 315.204 313.74C314.724 314.007 314.344 314.393 314.064 314.9C313.784 315.407 313.644 315.993 313.644 316.66C313.644 317.327 313.784 317.913 314.064 318.42C314.344 318.927 314.724 319.32 315.204 319.6C315.684 319.867 316.224 320 316.824 320ZM146.988 346.2C148.028 346.2 148.955 346.427 149.768 346.88C150.595 347.333 151.241 347.973 151.708 348.8C152.175 349.627 152.408 350.58 152.408 351.66C152.408 352.74 152.175 353.7 151.708 354.54C151.241 355.367 150.595 356.007 149.768 356.46C148.955 356.913 148.028 357.14 146.988 357.14C145.548 357.14 144.408 356.66 143.568 355.7V360.88H141.068V346.32H143.448V347.72C143.861 347.213 144.368 346.833 144.968 346.58C145.581 346.327 146.255 346.2 146.988 346.2ZM146.708 355C147.628 355 148.381 354.693 148.968 354.08C149.568 353.467 149.868 352.66 149.868 351.66C149.868 350.66 149.568 349.853 148.968 349.24C148.381 348.627 147.628 348.32 146.708 348.32C146.108 348.32 145.568 348.46 145.088 348.74C144.608 349.007 144.228 349.393 143.948 349.9C143.668 350.407 143.528 350.993 143.528 351.66C143.528 352.327 143.668 352.913 143.948 353.42C144.228 353.927 144.608 354.32 145.088 354.6C145.568 354.867 146.108 355 146.708 355ZM158.44 346.2C160.013 346.2 161.213 346.58 162.04 347.34C162.88 348.087 163.3 349.22 163.3 350.74V357H160.94V355.7C160.633 356.167 160.193 356.527 159.62 356.78C159.06 357.02 158.38 357.14 157.58 357.14C156.78 357.14 156.08 357.007 155.48 356.74C154.88 356.46 154.413 356.08 154.08 355.6C153.76 355.107 153.6 354.553 153.6 353.94C153.6 352.98 153.953 352.213 154.66 351.64C155.38 351.053 156.507 350.76 158.04 350.76H160.8V350.6C160.8 349.853 160.573 349.28 160.12 348.88C159.68 348.48 159.02 348.28 158.14 348.28C157.54 348.28 156.947 348.373 156.36 348.56C155.787 348.747 155.3 349.007 154.9 349.34L153.92 347.52C154.48 347.093 155.153 346.767 155.94 346.54C156.727 346.313 157.56 346.2 158.44 346.2ZM158.1 355.32C158.727 355.32 159.28 355.18 159.76 354.9C160.253 354.607 160.6 354.193 160.8 353.66V352.42H158.22C156.78 352.42 156.06 352.893 156.06 353.84C156.06 354.293 156.24 354.653 156.6 354.92C156.96 355.187 157.46 355.32 158.1 355.32ZM172.146 346.2C173.186 346.2 174.113 346.427 174.926 346.88C175.753 347.333 176.399 347.973 176.866 348.8C177.333 349.627 177.566 350.58 177.566 351.66C177.566 352.74 177.333 353.7 176.866 354.54C176.399 355.367 175.753 356.007 174.926 356.46C174.113 356.913 173.186 357.14 172.146 357.14C170.706 357.14 169.566 356.66 168.726 355.7V360.88H166.226V346.32H168.606V347.72C169.019 347.213 169.526 346.833 170.126 346.58C170.739 346.327 171.413 346.2 172.146 346.2ZM171.866 355C172.786 355 173.539 354.693 174.126 354.08C174.726 353.467 175.026 352.66 175.026 351.66C175.026 350.66 174.726 349.853 174.126 349.24C173.539 348.627 172.786 348.32 171.866 348.32C171.266 348.32 170.726 348.46 170.246 348.74C169.766 349.007 169.386 349.393 169.106 349.9C168.826 350.407 168.686 350.993 168.686 351.66C168.686 352.327 168.826 352.913 169.106 353.42C169.386 353.927 169.766 354.32 170.246 354.6C170.726 354.867 171.266 355 171.866 355ZM189.695 351.72C189.695 351.893 189.681 352.14 189.655 352.46H181.275C181.421 353.247 181.801 353.873 182.415 354.34C183.041 354.793 183.815 355.02 184.735 355.02C185.908 355.02 186.875 354.633 187.635 353.86L188.975 355.4C188.495 355.973 187.888 356.407 187.155 356.7C186.421 356.993 185.595 357.14 184.675 357.14C183.501 357.14 182.468 356.907 181.575 356.44C180.681 355.973 179.988 355.327 179.495 354.5C179.015 353.66 178.775 352.713 178.775 351.66C178.775 350.62 179.008 349.687 179.475 348.86C179.955 348.02 180.615 347.367 181.455 346.9C182.295 346.433 183.241 346.2 184.295 346.2C185.335 346.2 186.261 346.433 187.075 346.9C187.901 347.353 188.541 348 188.995 348.84C189.461 349.667 189.695 350.627 189.695 351.72ZM184.295 348.2C183.495 348.2 182.815 348.44 182.255 348.92C181.708 349.387 181.375 350.013 181.255 350.8H187.315C187.208 350.027 186.881 349.4 186.335 348.92C185.788 348.44 185.108 348.2 184.295 348.2ZM194.194 347.88C194.914 346.76 196.18 346.2 197.994 346.2V348.58C197.78 348.54 197.587 348.52 197.414 348.52C196.44 348.52 195.68 348.807 195.134 349.38C194.587 349.94 194.314 350.753 194.314 351.82V357H191.814V346.32H194.194V347.88Z" fill="#820263"/>
<defs>
<linearGradient id="paint0_linear" x1="158" y1="0" x2="158" y2="250" gradientUnits="userSpaceOnUse">
<stop stop-color="#D90368"/>
<stop offset="1" stop-color="#820263"/>
</linearGradient>
</defs>
</svg>
