<svg width="310" height="344" viewBox="0 0 310 344" fill="none" xmlns="http://www.w3.org/2000/svg">
<circle cx="146" cy="125" r="122.5" fill="url(#paint0_linear)" stroke="#FE7F2D" stroke-width="5"/>
<path d="M123.718 129.208C123.718 128.28 123.51 127.464 123.094 126.76C122.678 126.024 121.958 125.416 120.934 124.936C119.91 124.456 118.534 124.088 116.806 123.832C115.078 123.576 112.902 123.448 110.278 123.448C110.63 120.472 110.918 117.448 111.142 114.376C111.366 111.304 111.542 108.424 111.67 105.736H129.67V111.736H117.67C117.606 112.888 117.526 114.008 117.43 115.096C117.366 116.152 117.286 117.08 117.19 117.88C121.862 118.2 125.302 119.304 127.51 121.192C129.75 123.048 130.87 125.64 130.87 128.968C130.87 130.504 130.598 131.928 130.054 133.24C129.51 134.552 128.694 135.688 127.606 136.648C126.518 137.608 125.142 138.36 123.478 138.904C121.846 139.448 119.926 139.72 117.718 139.72C116.854 139.72 115.942 139.656 114.982 139.528C114.054 139.432 113.142 139.288 112.246 139.096C111.382 138.936 110.598 138.76 109.894 138.568C109.19 138.376 108.646 138.184 108.262 137.992L109.558 132.088C110.358 132.44 111.414 132.792 112.726 133.144C114.038 133.464 115.606 133.624 117.43 133.624C119.638 133.624 121.238 133.192 122.23 132.328C123.222 131.432 123.718 130.392 123.718 129.208ZM158.674 122.296C158.674 127.896 157.602 132.2 155.458 135.208C153.346 138.184 150.418 139.672 146.674 139.672C142.93 139.672 139.986 138.184 137.842 135.208C135.73 132.2 134.674 127.896 134.674 122.296C134.674 119.512 134.946 117.048 135.49 114.904C136.066 112.76 136.882 110.952 137.938 109.48C138.994 108.008 140.258 106.888 141.73 106.12C143.202 105.352 144.85 104.968 146.674 104.968C150.418 104.968 153.346 106.472 155.458 109.48C157.602 112.456 158.674 116.728 158.674 122.296ZM151.378 122.296C151.378 120.632 151.298 119.128 151.138 117.784C150.978 116.408 150.722 115.224 150.37 114.232C150.018 113.24 149.538 112.472 148.93 111.928C148.322 111.384 147.57 111.112 146.674 111.112C145.778 111.112 145.026 111.384 144.418 111.928C143.842 112.472 143.362 113.24 142.978 114.232C142.626 115.224 142.37 116.408 142.21 117.784C142.05 119.128 141.97 120.632 141.97 122.296C141.97 123.96 142.05 125.48 142.21 126.856C142.37 128.232 142.626 129.416 142.978 130.408C143.362 131.4 143.842 132.168 144.418 132.712C145.026 133.256 145.778 133.528 146.674 133.528C147.57 133.528 148.322 133.256 148.93 132.712C149.538 132.168 150.018 131.4 150.37 130.408C150.722 129.416 150.978 128.232 151.138 126.856C151.298 125.48 151.378 123.96 151.378 122.296ZM178.318 114.28C178.318 117.288 177.55 119.592 176.014 121.192C174.478 122.792 172.414 123.592 169.822 123.592C167.23 123.592 165.166 122.792 163.63 121.192C162.094 119.592 161.326 117.288 161.326 114.28C161.326 111.272 162.094 108.968 163.63 107.368C165.166 105.768 167.23 104.968 169.822 104.968C172.414 104.968 174.478 105.768 176.014 107.368C177.55 108.968 178.318 111.272 178.318 114.28ZM172.894 114.28C172.894 112.648 172.606 111.464 172.03 110.728C171.454 109.992 170.718 109.624 169.822 109.624C168.894 109.624 168.142 109.992 167.566 110.728C167.022 111.464 166.75 112.648 166.75 114.28C166.75 115.912 167.022 117.112 167.566 117.88C168.142 118.616 168.894 118.984 169.822 118.984C170.718 118.984 171.454 118.616 172.03 117.88C172.606 117.112 172.894 115.912 172.894 114.28ZM187.678 105.736H194.35L175.582 139H168.91L187.678 105.736ZM202.03 130.456C202.03 133.464 201.262 135.768 199.726 137.368C198.19 138.968 196.126 139.768 193.534 139.768C190.942 139.768 188.878 138.968 187.342 137.368C185.806 135.768 185.038 133.464 185.038 130.456C185.038 127.448 185.806 125.144 187.342 123.544C188.878 121.944 190.942 121.144 193.534 121.144C196.126 121.144 198.19 121.944 199.726 123.544C201.262 125.144 202.03 127.448 202.03 130.456ZM196.606 130.456C196.606 128.824 196.318 127.64 195.742 126.904C195.166 126.168 194.43 125.8 193.534 125.8C192.606 125.8 191.854 126.168 191.278 126.904C190.734 127.64 190.462 128.824 190.462 130.456C190.462 132.088 190.734 133.288 191.278 134.056C191.854 134.792 192.606 135.16 193.534 135.16C194.43 135.16 195.166 134.792 195.742 134.056C196.318 133.288 196.606 132.088 196.606 130.456Z" fill="white"/>
<path d="M29.1092 304.14C28.0292 304.14 27.0559 303.907 26.1892 303.44C25.3225 302.973 24.6425 302.327 24.1492 301.5C23.6692 300.66 23.4292 299.713 23.4292 298.66C23.4292 297.607 23.6692 296.667 24.1492 295.84C24.6425 295.013 25.3225 294.367 26.1892 293.9C27.0559 293.433 28.0292 293.2 29.1092 293.2C30.2025 293.2 31.1825 293.433 32.0492 293.9C32.9159 294.367 33.5892 295.013 34.0692 295.84C34.5625 296.667 34.8092 297.607 34.8092 298.66C34.8092 299.713 34.5625 300.66 34.0692 301.5C33.5892 302.327 32.9159 302.973 32.0492 303.44C31.1825 303.907 30.2025 304.14 29.1092 304.14ZM29.1092 302C30.0292 302 30.7892 301.693 31.3892 301.08C31.9892 300.467 32.2892 299.66 32.2892 298.66C32.2892 297.66 31.9892 296.853 31.3892 296.24C30.7892 295.627 30.0292 295.32 29.1092 295.32C28.1892 295.32 27.4292 295.627 26.8292 296.24C26.2425 296.853 25.9492 297.66 25.9492 298.66C25.9492 299.66 26.2425 300.467 26.8292 301.08C27.4292 301.693 28.1892 302 29.1092 302ZM41.2575 291.04C40.2041 291.04 39.6775 291.613 39.6775 292.76V293.4H42.6175V295.4H39.7575V304H37.2575V295.4H35.4975V293.4H37.2575V292.72C37.2575 291.573 37.5908 290.673 38.2575 290.02C38.9241 289.353 39.8641 289.02 41.0775 289.02C42.0375 289.02 42.7908 289.213 43.3375 289.6L42.6375 291.48C42.2108 291.187 41.7508 291.04 41.2575 291.04ZM59.6029 293.32V304H57.2229V302.64C56.8229 303.12 56.3229 303.493 55.7229 303.76C55.1229 304.013 54.4762 304.14 53.7829 304.14C52.3562 304.14 51.2296 303.747 50.4029 302.96C49.5896 302.16 49.1829 300.98 49.1829 299.42V293.32H51.6829V299.08C51.6829 300.04 51.8962 300.76 52.3229 301.24C52.7629 301.707 53.3829 301.94 54.1829 301.94C55.0762 301.94 55.7829 301.667 56.3029 301.12C56.8362 300.56 57.1029 299.76 57.1029 298.72V293.32H59.6029ZM65.8938 304.14C65.0272 304.14 64.1805 304.027 63.3538 303.8C62.5272 303.573 61.8672 303.287 61.3738 302.94L62.3338 301.04C62.8138 301.36 63.3872 301.62 64.0538 301.82C64.7338 302.007 65.4005 302.1 66.0538 302.1C67.5472 302.1 68.2938 301.707 68.2938 300.92C68.2938 300.547 68.1005 300.287 67.7138 300.14C67.3405 299.993 66.7338 299.853 65.8938 299.72C65.0138 299.587 64.2938 299.433 63.7338 299.26C63.1872 299.087 62.7072 298.787 62.2938 298.36C61.8938 297.92 61.6938 297.313 61.6938 296.54C61.6938 295.527 62.1138 294.72 62.9538 294.12C63.8072 293.507 64.9538 293.2 66.3938 293.2C67.1272 293.2 67.8605 293.287 68.5938 293.46C69.3272 293.62 69.9272 293.84 70.3938 294.12L69.4338 296.02C68.5272 295.487 67.5072 295.22 66.3738 295.22C65.6405 295.22 65.0805 295.333 64.6938 295.56C64.3205 295.773 64.1338 296.06 64.1338 296.42C64.1338 296.82 64.3338 297.107 64.7338 297.28C65.1472 297.44 65.7805 297.593 66.6338 297.74C67.4872 297.873 68.1872 298.027 68.7338 298.2C69.2805 298.373 69.7472 298.667 70.1338 299.08C70.5338 299.493 70.7338 300.08 70.7338 300.84C70.7338 301.84 70.3005 302.64 69.4338 303.24C68.5672 303.84 67.3872 304.14 65.8938 304.14ZM82.6445 298.72C82.6445 298.893 82.6311 299.14 82.6045 299.46H74.2245C74.3711 300.247 74.7511 300.873 75.3645 301.34C75.9911 301.793 76.7645 302.02 77.6845 302.02C78.8578 302.02 79.8245 301.633 80.5845 300.86L81.9245 302.4C81.4445 302.973 80.8378 303.407 80.1045 303.7C79.3711 303.993 78.5445 304.14 77.6245 304.14C76.4511 304.14 75.4178 303.907 74.5245 303.44C73.6311 302.973 72.9378 302.327 72.4445 301.5C71.9645 300.66 71.7245 299.713 71.7245 298.66C71.7245 297.62 71.9578 296.687 72.4245 295.86C72.9045 295.02 73.5645 294.367 74.4045 293.9C75.2445 293.433 76.1911 293.2 77.2445 293.2C78.2845 293.2 79.2111 293.433 80.0245 293.9C80.8511 294.353 81.4911 295 81.9445 295.84C82.4111 296.667 82.6445 297.627 82.6445 298.72ZM77.2445 295.2C76.4445 295.2 75.7645 295.44 75.2045 295.92C74.6578 296.387 74.3245 297.013 74.2045 297.8H80.2645C80.1578 297.027 79.8311 296.4 79.2845 295.92C78.7378 295.44 78.0578 295.2 77.2445 295.2ZM87.1435 294.88C87.8635 293.76 89.1302 293.2 90.9435 293.2V295.58C90.7302 295.54 90.5368 295.52 90.3635 295.52C89.3902 295.52 88.6302 295.807 88.0835 296.38C87.5368 296.94 87.2635 297.753 87.2635 298.82V304H84.7635V293.32H87.1435V294.88ZM96.121 304.14C95.2543 304.14 94.4077 304.027 93.581 303.8C92.7543 303.573 92.0943 303.287 91.601 302.94L92.561 301.04C93.041 301.36 93.6143 301.62 94.281 301.82C94.961 302.007 95.6277 302.1 96.281 302.1C97.7743 302.1 98.521 301.707 98.521 300.92C98.521 300.547 98.3277 300.287 97.941 300.14C97.5677 299.993 96.961 299.853 96.121 299.72C95.241 299.587 94.521 299.433 93.961 299.26C93.4143 299.087 92.9343 298.787 92.521 298.36C92.121 297.92 91.921 297.313 91.921 296.54C91.921 295.527 92.341 294.72 93.181 294.12C94.0343 293.507 95.181 293.2 96.621 293.2C97.3543 293.2 98.0877 293.287 98.821 293.46C99.5543 293.62 100.154 293.84 100.621 294.12L99.661 296.02C98.7543 295.487 97.7343 295.22 96.601 295.22C95.8677 295.22 95.3077 295.333 94.921 295.56C94.5477 295.773 94.361 296.06 94.361 296.42C94.361 296.82 94.561 297.107 94.961 297.28C95.3743 297.44 96.0077 297.593 96.861 297.74C97.7143 297.873 98.4143 298.027 98.961 298.2C99.5077 298.373 99.9743 298.667 100.361 299.08C100.761 299.493 100.961 300.08 100.961 300.84C100.961 301.84 100.528 302.64 99.661 303.24C98.7943 303.84 97.6143 304.14 96.121 304.14ZM118.417 293.32V304H116.037V302.64C115.637 303.12 115.137 303.493 114.537 303.76C113.937 304.013 113.29 304.14 112.597 304.14C111.17 304.14 110.043 303.747 109.217 302.96C108.403 302.16 107.997 300.98 107.997 299.42V293.32H110.497V299.08C110.497 300.04 110.71 300.76 111.137 301.24C111.577 301.707 112.197 301.94 112.997 301.94C113.89 301.94 114.597 301.667 115.117 301.12C115.65 300.56 115.917 299.76 115.917 298.72V293.32H118.417ZM124.708 304.14C123.841 304.14 122.994 304.027 122.168 303.8C121.341 303.573 120.681 303.287 120.188 302.94L121.148 301.04C121.628 301.36 122.201 301.62 122.868 301.82C123.548 302.007 124.214 302.1 124.868 302.1C126.361 302.1 127.108 301.707 127.108 300.92C127.108 300.547 126.914 300.287 126.528 300.14C126.154 299.993 125.548 299.853 124.708 299.72C123.828 299.587 123.108 299.433 122.548 299.26C122.001 299.087 121.521 298.787 121.108 298.36C120.708 297.92 120.508 297.313 120.508 296.54C120.508 295.527 120.928 294.72 121.768 294.12C122.621 293.507 123.768 293.2 125.208 293.2C125.941 293.2 126.674 293.287 127.408 293.46C128.141 293.62 128.741 293.84 129.208 294.12L128.248 296.02C127.341 295.487 126.321 295.22 125.188 295.22C124.454 295.22 123.894 295.333 123.508 295.56C123.134 295.773 122.948 296.06 122.948 296.42C122.948 296.82 123.148 297.107 123.548 297.28C123.961 297.44 124.594 297.593 125.448 297.74C126.301 297.873 127.001 298.027 127.548 298.2C128.094 298.373 128.561 298.667 128.948 299.08C129.348 299.493 129.548 300.08 129.548 300.84C129.548 301.84 129.114 302.64 128.248 303.24C127.381 303.84 126.201 304.14 124.708 304.14ZM141.458 298.72C141.458 298.893 141.445 299.14 141.418 299.46H133.038C133.185 300.247 133.565 300.873 134.178 301.34C134.805 301.793 135.578 302.02 136.498 302.02C137.671 302.02 138.638 301.633 139.398 300.86L140.738 302.4C140.258 302.973 139.651 303.407 138.918 303.7C138.185 303.993 137.358 304.14 136.438 304.14C135.265 304.14 134.231 303.907 133.338 303.44C132.445 302.973 131.751 302.327 131.258 301.5C130.778 300.66 130.538 299.713 130.538 298.66C130.538 297.62 130.771 296.687 131.238 295.86C131.718 295.02 132.378 294.367 133.218 293.9C134.058 293.433 135.005 293.2 136.058 293.2C137.098 293.2 138.025 293.433 138.838 293.9C139.665 294.353 140.305 295 140.758 295.84C141.225 296.667 141.458 297.627 141.458 298.72ZM136.058 295.2C135.258 295.2 134.578 295.44 134.018 295.92C133.471 296.387 133.138 297.013 133.018 297.8H139.078C138.971 297.027 138.645 296.4 138.098 295.92C137.551 295.44 136.871 295.2 136.058 295.2ZM155.242 303.42C154.949 303.66 154.589 303.84 154.162 303.96C153.749 304.08 153.309 304.14 152.842 304.14C151.669 304.14 150.762 303.833 150.122 303.22C149.482 302.607 149.162 301.713 149.162 300.54V295.4H147.402V293.4H149.162V290.96H151.662V293.4H154.522V295.4H151.662V300.48C151.662 301 151.789 301.4 152.042 301.68C152.296 301.947 152.662 302.08 153.142 302.08C153.702 302.08 154.169 301.933 154.542 301.64L155.242 303.42ZM163.076 293.2C164.423 293.2 165.503 293.593 166.316 294.38C167.13 295.167 167.536 296.333 167.536 297.88V304H165.036V298.2C165.036 297.267 164.816 296.567 164.376 296.1C163.936 295.62 163.31 295.38 162.496 295.38C161.576 295.38 160.85 295.66 160.316 296.22C159.783 296.767 159.516 297.56 159.516 298.6V304H157.016V289.16H159.516V294.56C159.93 294.12 160.436 293.787 161.036 293.56C161.65 293.32 162.33 293.2 163.076 293.2ZM180.563 298.72C180.563 298.893 180.55 299.14 180.523 299.46H172.143C172.29 300.247 172.67 300.873 173.283 301.34C173.91 301.793 174.683 302.02 175.603 302.02C176.776 302.02 177.743 301.633 178.503 300.86L179.843 302.4C179.363 302.973 178.756 303.407 178.023 303.7C177.29 303.993 176.463 304.14 175.543 304.14C174.37 304.14 173.336 303.907 172.443 303.44C171.55 302.973 170.856 302.327 170.363 301.5C169.883 300.66 169.643 299.713 169.643 298.66C169.643 297.62 169.876 296.687 170.343 295.86C170.823 295.02 171.483 294.367 172.323 293.9C173.163 293.433 174.11 293.2 175.163 293.2C176.203 293.2 177.13 293.433 177.943 293.9C178.77 294.353 179.41 295 179.863 295.84C180.33 296.667 180.563 297.627 180.563 298.72ZM175.163 295.2C174.363 295.2 173.683 295.44 173.123 295.92C172.576 296.387 172.243 297.013 172.123 297.8H178.183C178.076 297.027 177.75 296.4 177.203 295.92C176.656 295.44 175.976 295.2 175.163 295.2ZM182.682 293.32H185.182V304H182.682V293.32ZM183.942 291.56C183.489 291.56 183.109 291.42 182.802 291.14C182.495 290.847 182.342 290.487 182.342 290.06C182.342 289.633 182.495 289.28 182.802 289C183.109 288.707 183.489 288.56 183.942 288.56C184.395 288.56 184.775 288.7 185.082 288.98C185.389 289.247 185.542 289.587 185.542 290C185.542 290.44 185.389 290.813 185.082 291.12C184.789 291.413 184.409 291.56 183.942 291.56ZM190.561 294.88C191.281 293.76 192.548 293.2 194.361 293.2V295.58C194.148 295.54 193.954 295.52 193.781 295.52C192.808 295.52 192.048 295.807 191.501 296.38C190.954 296.94 190.681 297.753 190.681 298.82V304H188.181V293.32H190.561V294.88ZM204.842 304.14C203.975 304.14 203.129 304.027 202.302 303.8C201.475 303.573 200.815 303.287 200.322 302.94L201.282 301.04C201.762 301.36 202.335 301.62 203.002 301.82C203.682 302.007 204.349 302.1 205.002 302.1C206.495 302.1 207.242 301.707 207.242 300.92C207.242 300.547 207.049 300.287 206.662 300.14C206.289 299.993 205.682 299.853 204.842 299.72C203.962 299.587 203.242 299.433 202.682 299.26C202.135 299.087 201.655 298.787 201.242 298.36C200.842 297.92 200.642 297.313 200.642 296.54C200.642 295.527 201.062 294.72 201.902 294.12C202.755 293.507 203.902 293.2 205.342 293.2C206.075 293.2 206.809 293.287 207.542 293.46C208.275 293.62 208.875 293.84 209.342 294.12L208.382 296.02C207.475 295.487 206.455 295.22 205.322 295.22C204.589 295.22 204.029 295.333 203.642 295.56C203.269 295.773 203.082 296.06 203.082 296.42C203.082 296.82 203.282 297.107 203.682 297.28C204.095 297.44 204.729 297.593 205.582 297.74C206.435 297.873 207.135 298.027 207.682 298.2C208.229 298.373 208.695 298.667 209.082 299.08C209.482 299.493 209.682 300.08 209.682 300.84C209.682 301.84 209.249 302.64 208.382 303.24C207.515 303.84 206.335 304.14 204.842 304.14ZM216.353 304.14C215.273 304.14 214.299 303.907 213.433 303.44C212.566 302.973 211.886 302.327 211.393 301.5C210.913 300.66 210.673 299.713 210.673 298.66C210.673 297.607 210.913 296.667 211.393 295.84C211.886 295.013 212.566 294.367 213.433 293.9C214.299 293.433 215.273 293.2 216.353 293.2C217.446 293.2 218.426 293.433 219.293 293.9C220.159 294.367 220.833 295.013 221.313 295.84C221.806 296.667 222.053 297.607 222.053 298.66C222.053 299.713 221.806 300.66 221.313 301.5C220.833 302.327 220.159 302.973 219.293 303.44C218.426 303.907 217.446 304.14 216.353 304.14ZM216.353 302C217.273 302 218.033 301.693 218.633 301.08C219.233 300.467 219.533 299.66 219.533 298.66C219.533 297.66 219.233 296.853 218.633 296.24C218.033 295.627 217.273 295.32 216.353 295.32C215.433 295.32 214.673 295.627 214.073 296.24C213.486 296.853 213.193 297.66 213.193 298.66C213.193 299.66 213.486 300.467 214.073 301.08C214.673 301.693 215.433 302 216.353 302ZM228.501 291.04C227.448 291.04 226.921 291.613 226.921 292.76V293.4H229.861V295.4H227.001V304H224.501V295.4H222.741V293.4H224.501V292.72C224.501 291.573 224.834 290.673 225.501 290.02C226.168 289.353 227.108 289.02 228.321 289.02C229.281 289.02 230.034 289.213 230.581 289.6L229.881 291.48C229.454 291.187 228.994 291.04 228.501 291.04ZM237.681 303.42C237.388 303.66 237.028 303.84 236.601 303.96C236.188 304.08 235.748 304.14 235.281 304.14C234.108 304.14 233.201 303.833 232.561 303.22C231.921 302.607 231.601 301.713 231.601 300.54V295.4H229.841V293.4H231.601V290.96H234.101V293.4H236.961V295.4H234.101V300.48C234.101 301 234.228 301.4 234.481 301.68C234.735 301.947 235.101 302.08 235.581 302.08C236.141 302.08 236.608 301.933 236.981 301.64L237.681 303.42ZM255.92 293.32L251.98 304H249.58L246.82 296.64L244.02 304H241.62L237.7 293.32H240.06L242.88 301.2L245.82 293.32H247.92L250.8 301.24L253.7 293.32H255.92ZM261.105 293.2C262.678 293.2 263.878 293.58 264.705 294.34C265.545 295.087 265.965 296.22 265.965 297.74V304H263.605V302.7C263.298 303.167 262.858 303.527 262.285 303.78C261.725 304.02 261.045 304.14 260.245 304.14C259.445 304.14 258.745 304.007 258.145 303.74C257.545 303.46 257.078 303.08 256.745 302.6C256.425 302.107 256.265 301.553 256.265 300.94C256.265 299.98 256.618 299.213 257.325 298.64C258.045 298.053 259.172 297.76 260.705 297.76H263.465V297.6C263.465 296.853 263.238 296.28 262.785 295.88C262.345 295.48 261.685 295.28 260.805 295.28C260.205 295.28 259.612 295.373 259.025 295.56C258.452 295.747 257.965 296.007 257.565 296.34L256.585 294.52C257.145 294.093 257.818 293.767 258.605 293.54C259.392 293.313 260.225 293.2 261.105 293.2ZM260.765 302.32C261.392 302.32 261.945 302.18 262.425 301.9C262.918 301.607 263.265 301.193 263.465 300.66V299.42H260.885C259.445 299.42 258.725 299.893 258.725 300.84C258.725 301.293 258.905 301.653 259.265 301.92C259.625 302.187 260.125 302.32 260.765 302.32ZM271.271 294.88C271.991 293.76 273.258 293.2 275.071 293.2V295.58C274.858 295.54 274.664 295.52 274.491 295.52C273.518 295.52 272.758 295.807 272.211 296.38C271.664 296.94 271.391 297.753 271.391 298.82V304H268.891V293.32H271.271V294.88ZM286.852 298.72C286.852 298.893 286.838 299.14 286.812 299.46H278.432C278.578 300.247 278.958 300.873 279.572 301.34C280.198 301.793 280.972 302.02 281.892 302.02C283.065 302.02 284.032 301.633 284.792 300.86L286.132 302.4C285.652 302.973 285.045 303.407 284.312 303.7C283.578 303.993 282.752 304.14 281.832 304.14C280.658 304.14 279.625 303.907 278.732 303.44C277.838 302.973 277.145 302.327 276.652 301.5C276.172 300.66 275.932 299.713 275.932 298.66C275.932 297.62 276.165 296.687 276.632 295.86C277.112 295.02 277.772 294.367 278.612 293.9C279.452 293.433 280.398 293.2 281.452 293.2C282.492 293.2 283.418 293.433 284.232 293.9C285.058 294.353 285.698 295 286.152 295.84C286.618 296.667 286.852 297.627 286.852 298.72ZM281.452 295.2C280.652 295.2 279.972 295.44 279.412 295.92C278.865 296.387 278.532 297.013 278.412 297.8H284.472C284.365 297.027 284.038 296.4 283.492 295.92C282.945 295.44 282.265 295.2 281.452 295.2ZM121.086 333.72C121.086 333.893 121.073 334.14 121.046 334.46H112.666C112.813 335.247 113.193 335.873 113.806 336.34C114.433 336.793 115.206 337.02 116.126 337.02C117.3 337.02 118.266 336.633 119.026 335.86L120.366 337.4C119.886 337.973 119.28 338.407 118.546 338.7C117.813 338.993 116.986 339.14 116.066 339.14C114.893 339.14 113.86 338.907 112.966 338.44C112.073 337.973 111.38 337.327 110.886 336.5C110.406 335.66 110.166 334.713 110.166 333.66C110.166 332.62 110.4 331.687 110.866 330.86C111.346 330.02 112.006 329.367 112.846 328.9C113.686 328.433 114.633 328.2 115.686 328.2C116.726 328.2 117.653 328.433 118.466 328.9C119.293 329.353 119.933 330 120.386 330.84C120.853 331.667 121.086 332.627 121.086 333.72ZM115.686 330.2C114.886 330.2 114.206 330.44 113.646 330.92C113.1 331.387 112.766 332.013 112.646 332.8H118.706C118.6 332.027 118.273 331.4 117.726 330.92C117.18 330.44 116.5 330.2 115.686 330.2ZM133.01 328.32L128.43 339H125.85L121.27 328.32H123.87L127.19 336.24L130.61 328.32H133.01ZM144.037 333.72C144.037 333.893 144.024 334.14 143.997 334.46H135.617C135.764 335.247 136.144 335.873 136.757 336.34C137.384 336.793 138.157 337.02 139.077 337.02C140.25 337.02 141.217 336.633 141.977 335.86L143.317 337.4C142.837 337.973 142.23 338.407 141.497 338.7C140.764 338.993 139.937 339.14 139.017 339.14C137.844 339.14 136.81 338.907 135.917 338.44C135.024 337.973 134.33 337.327 133.837 336.5C133.357 335.66 133.117 334.713 133.117 333.66C133.117 332.62 133.35 331.687 133.817 330.86C134.297 330.02 134.957 329.367 135.797 328.9C136.637 328.433 137.584 328.2 138.637 328.2C139.677 328.2 140.604 328.433 141.417 328.9C142.244 329.353 142.884 330 143.337 330.84C143.804 331.667 144.037 332.627 144.037 333.72ZM138.637 330.2C137.837 330.2 137.157 330.44 136.597 330.92C136.05 331.387 135.717 332.013 135.597 332.8H141.657C141.55 332.027 141.224 331.4 140.677 330.92C140.13 330.44 139.45 330.2 138.637 330.2ZM148.536 329.88C149.256 328.76 150.523 328.2 152.336 328.2V330.58C152.123 330.54 151.93 330.52 151.756 330.52C150.783 330.52 150.023 330.807 149.476 331.38C148.93 331.94 148.656 332.753 148.656 333.82V339H146.156V328.32H148.536V329.88ZM164.565 328.32L159.565 339.86C159.099 341.02 158.532 341.833 157.865 342.3C157.199 342.78 156.392 343.02 155.445 343.02C154.912 343.02 154.385 342.933 153.865 342.76C153.345 342.587 152.919 342.347 152.585 342.04L153.585 340.2C153.825 340.427 154.105 340.607 154.425 340.74C154.759 340.873 155.092 340.94 155.425 340.94C155.865 340.94 156.225 340.827 156.505 340.6C156.799 340.373 157.065 339.993 157.305 339.46L157.485 339.04L152.825 328.32H155.425L158.785 336.22L162.165 328.32H164.565ZM176.012 324.16V339H173.612V337.62C173.199 338.127 172.686 338.507 172.072 338.76C171.472 339.013 170.806 339.14 170.072 339.14C169.046 339.14 168.119 338.913 167.292 338.46C166.479 338.007 165.839 337.367 165.372 336.54C164.906 335.7 164.672 334.74 164.672 333.66C164.672 332.58 164.906 331.627 165.372 330.8C165.839 329.973 166.479 329.333 167.292 328.88C168.119 328.427 169.046 328.2 170.072 328.2C170.779 328.2 171.426 328.32 172.012 328.56C172.599 328.8 173.099 329.16 173.512 329.64V324.16H176.012ZM170.372 337C170.972 337 171.512 336.867 171.992 336.6C172.472 336.32 172.852 335.927 173.132 335.42C173.412 334.913 173.552 334.327 173.552 333.66C173.552 332.993 173.412 332.407 173.132 331.9C172.852 331.393 172.472 331.007 171.992 330.74C171.512 330.46 170.972 330.32 170.372 330.32C169.772 330.32 169.232 330.46 168.752 330.74C168.272 331.007 167.892 331.393 167.612 331.9C167.332 332.407 167.192 332.993 167.192 333.66C167.192 334.327 167.332 334.913 167.612 335.42C167.892 335.927 168.272 336.32 168.752 336.6C169.232 336.867 169.772 337 170.372 337ZM183.081 328.2C184.654 328.2 185.854 328.58 186.681 329.34C187.521 330.087 187.941 331.22 187.941 332.74V339H185.581V337.7C185.274 338.167 184.834 338.527 184.261 338.78C183.701 339.02 183.021 339.14 182.221 339.14C181.421 339.14 180.721 339.007 180.121 338.74C179.521 338.46 179.054 338.08 178.721 337.6C178.401 337.107 178.241 336.553 178.241 335.94C178.241 334.98 178.594 334.213 179.301 333.64C180.021 333.053 181.147 332.76 182.681 332.76H185.441V332.6C185.441 331.853 185.214 331.28 184.761 330.88C184.321 330.48 183.661 330.28 182.781 330.28C182.181 330.28 181.587 330.373 181.001 330.56C180.427 330.747 179.941 331.007 179.541 331.34L178.561 329.52C179.121 329.093 179.794 328.767 180.581 328.54C181.367 328.313 182.201 328.2 183.081 328.2ZM182.741 337.32C183.367 337.32 183.921 337.18 184.401 336.9C184.894 336.607 185.241 336.193 185.441 335.66V334.42H182.861C181.421 334.42 180.701 334.893 180.701 335.84C180.701 336.293 180.881 336.653 181.241 336.92C181.601 337.187 182.101 337.32 182.741 337.32ZM200.671 328.32L195.671 339.86C195.205 341.02 194.638 341.833 193.971 342.3C193.305 342.78 192.498 343.02 191.551 343.02C191.018 343.02 190.491 342.933 189.971 342.76C189.451 342.587 189.025 342.347 188.691 342.04L189.691 340.2C189.931 340.427 190.211 340.607 190.531 340.74C190.865 340.873 191.198 340.94 191.531 340.94C191.971 340.94 192.331 340.827 192.611 340.6C192.905 340.373 193.171 339.993 193.411 339.46L193.591 339.04L188.931 328.32H191.531L194.891 336.22L198.271 328.32H200.671Z" fill="#820263"/>
<defs>
<linearGradient id="paint0_linear" x1="146" y1="0" x2="146" y2="250" gradientUnits="userSpaceOnUse">
<stop stop-color="#D90368"/>
<stop offset="1" stop-color="#820263"/>
</linearGradient>
</defs>
</svg>
