<svg width="353" height="65" viewBox="0 0 353 65" fill="none" xmlns="http://www.w3.org/2000/svg">
<path d="M-1 0H343C348.523 0 353 4.47715 353 10V55C353 60.5228 348.523 65 343 65H-1V0Z" fill="#FE7F2D"/>
<path d="M69.3695 45.54C67.6655 45.54 66.2015 45.3 64.9775 44.82C63.7535 44.316 62.7335 43.62 61.9175 42.732C61.1255 41.844 60.5375 40.8 60.1535 39.6C59.7695 38.4 59.5775 37.08 59.5775 35.64V20.052H64.1495V35.208C64.1495 36.336 64.2695 37.308 64.5095 38.124C64.7735 38.916 65.1335 39.564 65.5895 40.068C66.0695 40.572 66.6215 40.944 67.2455 41.184C67.8935 41.424 68.6135 41.544 69.4055 41.544C70.1975 41.544 70.9175 41.424 71.5655 41.184C72.2135 40.944 72.7655 40.572 73.2215 40.068C73.7015 39.564 74.0615 38.916 74.3015 38.124C74.5655 37.308 74.6975 36.336 74.6975 35.208V20.052H79.2695V35.64C79.2695 37.08 79.0655 38.4 78.6575 39.6C78.2735 40.8 77.6735 41.844 76.8575 42.732C76.0655 43.62 75.0455 44.316 73.7975 44.82C72.5495 45.3 71.0735 45.54 69.3695 45.54ZM89.57 41.868C90.722 41.868 91.562 41.736 92.09 41.472C92.618 41.184 92.882 40.704 92.882 40.032C92.882 39.408 92.594 38.892 92.018 38.484C91.466 38.076 90.542 37.632 89.246 37.152C88.454 36.864 87.722 36.564 87.05 36.252C86.402 35.916 85.838 35.532 85.358 35.1C84.878 34.668 84.494 34.152 84.206 33.552C83.942 32.928 83.81 32.172 83.81 31.284C83.81 29.556 84.446 28.2 85.718 27.216C86.99 26.208 88.718 25.704 90.902 25.704C92.006 25.704 93.062 25.812 94.07 26.028C95.078 26.22 95.834 26.412 96.338 26.604L95.546 30.132C95.066 29.916 94.454 29.724 93.71 29.556C92.966 29.364 92.102 29.268 91.118 29.268C90.23 29.268 89.51 29.424 88.958 29.736C88.406 30.024 88.13 30.48 88.13 31.104C88.13 31.416 88.178 31.692 88.274 31.932C88.394 32.172 88.586 32.4 88.85 32.616C89.114 32.808 89.462 33.012 89.894 33.228C90.326 33.42 90.854 33.624 91.478 33.84C92.51 34.224 93.386 34.608 94.106 34.992C94.826 35.352 95.414 35.772 95.87 36.252C96.35 36.708 96.698 37.236 96.914 37.836C97.13 38.436 97.238 39.156 97.238 39.996C97.238 41.796 96.566 43.164 95.222 44.1C93.902 45.012 92.006 45.468 89.534 45.468C87.878 45.468 86.546 45.324 85.538 45.036C84.53 44.772 83.822 44.556 83.414 44.388L84.17 40.752C84.818 41.016 85.586 41.268 86.474 41.508C87.386 41.748 88.418 41.868 89.57 41.868ZM100.263 35.676C100.263 34.02 100.503 32.568 100.983 31.32C101.487 30.072 102.147 29.04 102.963 28.224C103.779 27.384 104.715 26.76 105.771 26.352C106.827 25.92 107.907 25.704 109.011 25.704C111.603 25.704 113.619 26.508 115.059 28.116C116.523 29.724 117.255 32.124 117.255 35.316C117.255 35.556 117.243 35.832 117.219 36.144C117.219 36.432 117.207 36.696 117.183 36.936H104.763C104.883 38.448 105.411 39.624 106.347 40.464C107.307 41.28 108.687 41.688 110.487 41.688C111.543 41.688 112.503 41.592 113.367 41.4C114.255 41.208 114.951 41.004 115.455 40.788L116.031 44.352C115.791 44.472 115.455 44.604 115.023 44.748C114.615 44.868 114.135 44.976 113.583 45.072C113.055 45.192 112.479 45.288 111.855 45.36C111.231 45.432 110.595 45.468 109.947 45.468C108.291 45.468 106.851 45.228 105.627 44.748C104.403 44.244 103.395 43.56 102.603 42.696C101.811 41.808 101.223 40.776 100.839 39.6C100.455 38.4 100.263 37.092 100.263 35.676ZM112.899 33.732C112.899 33.132 112.815 32.568 112.647 32.04C112.479 31.488 112.227 31.02 111.891 30.636C111.579 30.228 111.183 29.916 110.703 29.7C110.247 29.46 109.695 29.34 109.047 29.34C108.375 29.34 107.787 29.472 107.283 29.736C106.779 29.976 106.347 30.3 105.987 30.708C105.651 31.116 105.387 31.584 105.195 32.112C105.003 32.64 104.871 33.18 104.799 33.732H112.899ZM132.602 30.096C132.242 29.976 131.738 29.856 131.09 29.736C130.466 29.592 129.734 29.52 128.894 29.52C128.414 29.52 127.898 29.568 127.346 29.664C126.818 29.76 126.446 29.844 126.23 29.916V45H121.874V27.072C122.714 26.76 123.758 26.472 125.006 26.208C126.278 25.92 127.682 25.776 129.218 25.776C129.506 25.776 129.842 25.8 130.226 25.848C130.61 25.872 130.994 25.92 131.378 25.992C131.762 26.04 132.134 26.112 132.494 26.208C132.854 26.28 133.142 26.352 133.358 26.424L132.602 30.096ZM152.067 19.8C155.691 19.8 158.463 20.46 160.383 21.78C162.327 23.1 163.299 25.164 163.299 27.972C163.299 29.436 163.035 30.696 162.507 31.752C162.003 32.784 161.259 33.636 160.275 34.308C159.291 34.956 158.091 35.436 156.675 35.748C155.259 36.06 153.639 36.216 151.815 36.216H149.547V45H145.011V20.412C146.067 20.172 147.231 20.016 148.503 19.944C149.799 19.848 150.987 19.8 152.067 19.8ZM152.391 23.724C151.239 23.724 150.291 23.76 149.547 23.832V32.328H151.743C153.927 32.328 155.607 32.028 156.783 31.428C157.959 30.804 158.547 29.64 158.547 27.936C158.547 27.12 158.391 26.436 158.079 25.884C157.767 25.332 157.335 24.9 156.783 24.588C156.231 24.276 155.571 24.06 154.803 23.94C154.059 23.796 153.255 23.724 152.391 23.724ZM165.162 35.676C165.162 34.02 165.402 32.568 165.882 31.32C166.386 30.072 167.046 29.04 167.862 28.224C168.678 27.384 169.614 26.76 170.67 26.352C171.726 25.92 172.806 25.704 173.91 25.704C176.502 25.704 178.518 26.508 179.958 28.116C181.422 29.724 182.154 32.124 182.154 35.316C182.154 35.556 182.142 35.832 182.118 36.144C182.118 36.432 182.106 36.696 182.082 36.936H169.662C169.782 38.448 170.31 39.624 171.246 40.464C172.206 41.28 173.586 41.688 175.386 41.688C176.442 41.688 177.402 41.592 178.266 41.4C179.154 41.208 179.85 41.004 180.354 40.788L180.93 44.352C180.69 44.472 180.354 44.604 179.922 44.748C179.514 44.868 179.034 44.976 178.482 45.072C177.954 45.192 177.378 45.288 176.754 45.36C176.13 45.432 175.494 45.468 174.846 45.468C173.19 45.468 171.75 45.228 170.526 44.748C169.302 44.244 168.294 43.56 167.502 42.696C166.71 41.808 166.122 40.776 165.738 39.6C165.354 38.4 165.162 37.092 165.162 35.676ZM177.798 33.732C177.798 33.132 177.714 32.568 177.546 32.04C177.378 31.488 177.126 31.02 176.79 30.636C176.478 30.228 176.082 29.916 175.602 29.7C175.146 29.46 174.594 29.34 173.946 29.34C173.274 29.34 172.686 29.472 172.182 29.736C171.678 29.976 171.246 30.3 170.886 30.708C170.55 31.116 170.286 31.584 170.094 32.112C169.902 32.64 169.77 33.18 169.698 33.732H177.798ZM197.5 30.096C197.14 29.976 196.636 29.856 195.988 29.736C195.364 29.592 194.632 29.52 193.792 29.52C193.312 29.52 192.796 29.568 192.244 29.664C191.716 29.76 191.344 29.844 191.128 29.916V45H186.772V27.072C187.612 26.76 188.656 26.472 189.904 26.208C191.176 25.92 192.58 25.776 194.116 25.776C194.404 25.776 194.74 25.8 195.124 25.848C195.508 25.872 195.892 25.92 196.276 25.992C196.66 26.04 197.032 26.112 197.392 26.208C197.752 26.28 198.04 26.352 198.256 26.424L197.5 30.096ZM206.008 41.868C207.16 41.868 208 41.736 208.528 41.472C209.056 41.184 209.32 40.704 209.32 40.032C209.32 39.408 209.032 38.892 208.456 38.484C207.904 38.076 206.98 37.632 205.684 37.152C204.892 36.864 204.16 36.564 203.488 36.252C202.84 35.916 202.276 35.532 201.796 35.1C201.316 34.668 200.932 34.152 200.644 33.552C200.38 32.928 200.248 32.172 200.248 31.284C200.248 29.556 200.884 28.2 202.156 27.216C203.428 26.208 205.156 25.704 207.34 25.704C208.444 25.704 209.5 25.812 210.508 26.028C211.516 26.22 212.272 26.412 212.776 26.604L211.984 30.132C211.504 29.916 210.892 29.724 210.148 29.556C209.404 29.364 208.54 29.268 207.556 29.268C206.668 29.268 205.948 29.424 205.396 29.736C204.844 30.024 204.568 30.48 204.568 31.104C204.568 31.416 204.616 31.692 204.712 31.932C204.832 32.172 205.024 32.4 205.288 32.616C205.552 32.808 205.9 33.012 206.332 33.228C206.764 33.42 207.292 33.624 207.916 33.84C208.948 34.224 209.824 34.608 210.544 34.992C211.264 35.352 211.852 35.772 212.308 36.252C212.788 36.708 213.136 37.236 213.352 37.836C213.568 38.436 213.676 39.156 213.676 39.996C213.676 41.796 213.004 43.164 211.66 44.1C210.34 45.012 208.444 45.468 205.972 45.468C204.316 45.468 202.984 45.324 201.976 45.036C200.968 44.772 200.26 44.556 199.852 44.388L200.608 40.752C201.256 41.016 202.024 41.268 202.912 41.508C203.824 41.748 204.856 41.868 206.008 41.868ZM234.773 35.568C234.773 37.056 234.557 38.412 234.125 39.636C233.693 40.86 233.081 41.904 232.289 42.768C231.497 43.632 230.537 44.304 229.409 44.784C228.305 45.264 227.081 45.504 225.737 45.504C224.393 45.504 223.169 45.264 222.065 44.784C220.961 44.304 220.013 43.632 219.221 42.768C218.429 41.904 217.805 40.86 217.349 39.636C216.917 38.412 216.701 37.056 216.701 35.568C216.701 34.08 216.917 32.736 217.349 31.536C217.805 30.312 218.429 29.268 219.221 28.404C220.037 27.54 220.997 26.88 222.101 26.424C223.205 25.944 224.417 25.704 225.737 25.704C227.057 25.704 228.269 25.944 229.373 26.424C230.501 26.88 231.461 27.54 232.253 28.404C233.045 29.268 233.657 30.312 234.089 31.536C234.545 32.736 234.773 34.08 234.773 35.568ZM230.309 35.568C230.309 33.696 229.901 32.22 229.085 31.14C228.293 30.036 227.177 29.484 225.737 29.484C224.297 29.484 223.169 30.036 222.353 31.14C221.561 32.22 221.165 33.696 221.165 35.568C221.165 37.464 221.561 38.964 222.353 40.068C223.169 41.172 224.297 41.724 225.737 41.724C227.177 41.724 228.293 41.172 229.085 40.068C229.901 38.964 230.309 37.464 230.309 35.568ZM239.26 26.784C240.1 26.544 241.192 26.316 242.536 26.1C243.88 25.884 245.368 25.776 247 25.776C248.536 25.776 249.82 25.992 250.852 26.424C251.884 26.832 252.7 27.42 253.3 28.188C253.924 28.932 254.356 29.844 254.596 30.924C254.86 31.98 254.992 33.144 254.992 34.416V45H250.636V35.1C250.636 34.092 250.564 33.24 250.42 32.544C250.3 31.824 250.084 31.248 249.772 30.816C249.484 30.36 249.076 30.036 248.548 29.844C248.044 29.628 247.42 29.52 246.676 29.52C246.124 29.52 245.548 29.556 244.948 29.628C244.348 29.7 243.904 29.76 243.616 29.808V45H239.26V26.784ZM266.943 41.94C268.287 41.94 269.307 41.868 270.003 41.724V36.9C269.763 36.828 269.415 36.756 268.959 36.684C268.503 36.612 267.999 36.576 267.447 36.576C266.967 36.576 266.475 36.612 265.971 36.684C265.491 36.756 265.047 36.888 264.639 37.08C264.255 37.272 263.943 37.548 263.703 37.908C263.463 38.244 263.343 38.676 263.343 39.204C263.343 40.236 263.667 40.956 264.315 41.364C264.963 41.748 265.839 41.94 266.943 41.94ZM266.583 25.704C268.023 25.704 269.235 25.884 270.219 26.244C271.203 26.604 271.983 27.108 272.559 27.756C273.159 28.404 273.579 29.196 273.819 30.132C274.083 31.044 274.215 32.052 274.215 33.156V44.568C273.543 44.712 272.523 44.88 271.155 45.072C269.811 45.288 268.287 45.396 266.583 45.396C265.455 45.396 264.423 45.288 263.487 45.072C262.551 44.856 261.747 44.508 261.075 44.028C260.427 43.548 259.911 42.924 259.527 42.156C259.167 41.388 258.987 40.44 258.987 39.312C258.987 38.232 259.191 37.32 259.599 36.576C260.031 35.832 260.607 35.232 261.327 34.776C262.047 34.296 262.875 33.96 263.811 33.768C264.771 33.552 265.767 33.444 266.799 33.444C267.279 33.444 267.783 33.48 268.311 33.552C268.839 33.6 269.403 33.696 270.003 33.84V33.12C270.003 32.616 269.943 32.136 269.823 31.68C269.703 31.224 269.487 30.828 269.175 30.492C268.887 30.132 268.491 29.856 267.987 29.664C267.507 29.472 266.895 29.376 266.151 29.376C265.143 29.376 264.219 29.448 263.379 29.592C262.539 29.736 261.855 29.904 261.327 30.096L260.787 26.568C261.339 26.376 262.143 26.184 263.199 25.992C264.255 25.8 265.383 25.704 266.583 25.704ZM284.265 41.868C285.417 41.868 286.257 41.736 286.785 41.472C287.313 41.184 287.577 40.704 287.577 40.032C287.577 39.408 287.289 38.892 286.713 38.484C286.161 38.076 285.237 37.632 283.941 37.152C283.149 36.864 282.417 36.564 281.745 36.252C281.097 35.916 280.533 35.532 280.053 35.1C279.573 34.668 279.189 34.152 278.901 33.552C278.637 32.928 278.505 32.172 278.505 31.284C278.505 29.556 279.141 28.2 280.413 27.216C281.685 26.208 283.413 25.704 285.597 25.704C286.701 25.704 287.757 25.812 288.765 26.028C289.773 26.22 290.529 26.412 291.033 26.604L290.241 30.132C289.761 29.916 289.149 29.724 288.405 29.556C287.661 29.364 286.797 29.268 285.813 29.268C284.925 29.268 284.205 29.424 283.653 29.736C283.101 30.024 282.825 30.48 282.825 31.104C282.825 31.416 282.873 31.692 282.969 31.932C283.089 32.172 283.281 32.4 283.545 32.616C283.809 32.808 284.157 33.012 284.589 33.228C285.021 33.42 285.549 33.624 286.173 33.84C287.205 34.224 288.081 34.608 288.801 34.992C289.521 35.352 290.109 35.772 290.565 36.252C291.045 36.708 291.393 37.236 291.609 37.836C291.825 38.436 291.933 39.156 291.933 39.996C291.933 41.796 291.261 43.164 289.917 44.1C288.597 45.012 286.701 45.468 284.229 45.468C282.573 45.468 281.241 45.324 280.233 45.036C279.225 44.772 278.517 44.556 278.109 44.388L278.865 40.752C279.513 41.016 280.281 41.268 281.169 41.508C282.081 41.748 283.113 41.868 284.265 41.868Z" fill="white"/>
</svg>
