<svg width="404" height="65" viewBox="0 0 404 65" fill="none" xmlns="http://www.w3.org/2000/svg">
<path d="M0 0H394C399.523 0 404 4.47715 404 10V55C404 60.5228 399.523 65 394 65H0V0Z" fill="#FE7F2D"/>
<path d="M51.4014 17.8C55.0254 17.8 57.7974 18.46 59.7174 19.78C61.6614 21.1 62.6334 23.164 62.6334 25.972C62.6334 27.436 62.3694 28.696 61.8414 29.752C61.3374 30.784 60.5934 31.636 59.6094 32.308C58.6254 32.956 57.4254 33.436 56.0094 33.748C54.5934 34.06 52.9734 34.216 51.1494 34.216H48.8814V43H44.3454V18.412C45.4014 18.172 46.5654 18.016 47.8374 17.944C49.1334 17.848 50.3214 17.8 51.4014 17.8ZM51.7254 21.724C50.5734 21.724 49.6254 21.76 48.8814 21.832V30.328H51.0774C53.2614 30.328 54.9414 30.028 56.1174 29.428C57.2934 28.804 57.8814 27.64 57.8814 25.936C57.8814 25.12 57.7254 24.436 57.4134 23.884C57.1014 23.332 56.6694 22.9 56.1174 22.588C55.5654 22.276 54.9054 22.06 54.1374 21.94C53.3934 21.796 52.5894 21.724 51.7254 21.724ZM77.2871 28.096C76.9271 27.976 76.4231 27.856 75.7751 27.736C75.1511 27.592 74.4191 27.52 73.5791 27.52C73.0991 27.52 72.5831 27.568 72.0311 27.664C71.5031 27.76 71.1311 27.844 70.9151 27.916V43H66.5591V25.072C67.3991 24.76 68.4431 24.472 69.6911 24.208C70.9631 23.92 72.3671 23.776 73.9031 23.776C74.1911 23.776 74.5271 23.8 74.9111 23.848C75.2951 23.872 75.6791 23.92 76.0631 23.992C76.4471 24.04 76.8191 24.112 77.1791 24.208C77.5391 24.28 77.8271 24.352 78.0431 24.424L77.2871 28.096ZM80.0346 33.676C80.0346 32.02 80.2746 30.568 80.7546 29.32C81.2586 28.072 81.9186 27.04 82.7346 26.224C83.5506 25.384 84.4866 24.76 85.5426 24.352C86.5986 23.92 87.6786 23.704 88.7826 23.704C91.3746 23.704 93.3906 24.508 94.8306 26.116C96.2946 27.724 97.0266 30.124 97.0266 33.316C97.0266 33.556 97.0146 33.832 96.9906 34.144C96.9906 34.432 96.9786 34.696 96.9546 34.936H84.5346C84.6546 36.448 85.1826 37.624 86.1186 38.464C87.0786 39.28 88.4586 39.688 90.2586 39.688C91.3146 39.688 92.2746 39.592 93.1386 39.4C94.0266 39.208 94.7226 39.004 95.2266 38.788L95.8026 42.352C95.5626 42.472 95.2266 42.604 94.7946 42.748C94.3866 42.868 93.9066 42.976 93.3546 43.072C92.8266 43.192 92.2506 43.288 91.6266 43.36C91.0026 43.432 90.3666 43.468 89.7186 43.468C88.0626 43.468 86.6226 43.228 85.3986 42.748C84.1746 42.244 83.1666 41.56 82.3746 40.696C81.5826 39.808 80.9946 38.776 80.6106 37.6C80.2266 36.4 80.0346 35.092 80.0346 33.676ZM92.6706 31.732C92.6706 31.132 92.5866 30.568 92.4186 30.04C92.2506 29.488 91.9986 29.02 91.6626 28.636C91.3506 28.228 90.9546 27.916 90.4746 27.7C90.0186 27.46 89.4666 27.34 88.8186 27.34C88.1466 27.34 87.5586 27.472 87.0546 27.736C86.5506 27.976 86.1186 28.3 85.7586 28.708C85.4226 29.116 85.1586 29.584 84.9666 30.112C84.7746 30.64 84.6426 31.18 84.5706 31.732H92.6706ZM109.313 15.064C110.321 15.064 111.209 15.16 111.977 15.352C112.745 15.52 113.321 15.676 113.705 15.82L112.877 19.42C112.469 19.228 111.989 19.072 111.437 18.952C110.909 18.832 110.333 18.772 109.709 18.772C109.013 18.772 108.425 18.88 107.945 19.096C107.465 19.288 107.081 19.564 106.793 19.924C106.505 20.284 106.301 20.728 106.181 21.256C106.061 21.76 106.001 22.312 106.001 22.912V24.172H112.841V27.808H106.001V43H101.645V22.84C101.645 20.416 102.281 18.52 103.553 17.152C104.825 15.76 106.745 15.064 109.313 15.064ZM114.664 33.676C114.664 32.02 114.904 30.568 115.384 29.32C115.888 28.072 116.548 27.04 117.364 26.224C118.18 25.384 119.116 24.76 120.172 24.352C121.228 23.92 122.308 23.704 123.412 23.704C126.004 23.704 128.02 24.508 129.46 26.116C130.924 27.724 131.656 30.124 131.656 33.316C131.656 33.556 131.644 33.832 131.62 34.144C131.62 34.432 131.608 34.696 131.584 34.936H119.164C119.284 36.448 119.812 37.624 120.748 38.464C121.708 39.28 123.088 39.688 124.888 39.688C125.944 39.688 126.904 39.592 127.768 39.4C128.656 39.208 129.352 39.004 129.856 38.788L130.432 42.352C130.192 42.472 129.856 42.604 129.424 42.748C129.016 42.868 128.536 42.976 127.984 43.072C127.456 43.192 126.88 43.288 126.256 43.36C125.632 43.432 124.996 43.468 124.348 43.468C122.692 43.468 121.252 43.228 120.028 42.748C118.804 42.244 117.796 41.56 117.004 40.696C116.212 39.808 115.624 38.776 115.24 37.6C114.856 36.4 114.664 35.092 114.664 33.676ZM127.3 31.732C127.3 31.132 127.216 30.568 127.048 30.04C126.88 29.488 126.628 29.02 126.292 28.636C125.98 28.228 125.584 27.916 125.104 27.7C124.648 27.46 124.096 27.34 123.448 27.34C122.776 27.34 122.188 27.472 121.684 27.736C121.18 27.976 120.748 28.3 120.388 28.708C120.052 29.116 119.788 29.584 119.596 30.112C119.404 30.64 119.272 31.18 119.2 31.732H127.3ZM147.002 28.096C146.642 27.976 146.138 27.856 145.49 27.736C144.866 27.592 144.134 27.52 143.294 27.52C142.814 27.52 142.298 27.568 141.746 27.664C141.218 27.76 140.846 27.844 140.63 27.916V43H136.274V25.072C137.114 24.76 138.158 24.472 139.406 24.208C140.678 23.92 142.082 23.776 143.618 23.776C143.906 23.776 144.242 23.8 144.626 23.848C145.01 23.872 145.394 23.92 145.778 23.992C146.162 24.04 146.534 24.112 146.894 24.208C147.254 24.28 147.542 24.352 147.758 24.424L147.002 28.096ZM149.749 33.676C149.749 32.02 149.989 30.568 150.469 29.32C150.973 28.072 151.633 27.04 152.449 26.224C153.265 25.384 154.201 24.76 155.257 24.352C156.313 23.92 157.393 23.704 158.497 23.704C161.089 23.704 163.105 24.508 164.545 26.116C166.009 27.724 166.741 30.124 166.741 33.316C166.741 33.556 166.729 33.832 166.705 34.144C166.705 34.432 166.693 34.696 166.669 34.936H154.249C154.369 36.448 154.897 37.624 155.833 38.464C156.793 39.28 158.173 39.688 159.973 39.688C161.029 39.688 161.989 39.592 162.853 39.4C163.741 39.208 164.437 39.004 164.941 38.788L165.517 42.352C165.277 42.472 164.941 42.604 164.509 42.748C164.101 42.868 163.621 42.976 163.069 43.072C162.541 43.192 161.965 43.288 161.341 43.36C160.717 43.432 160.081 43.468 159.433 43.468C157.777 43.468 156.337 43.228 155.113 42.748C153.889 42.244 152.881 41.56 152.089 40.696C151.297 39.808 150.709 38.776 150.325 37.6C149.941 36.4 149.749 35.092 149.749 33.676ZM162.385 31.732C162.385 31.132 162.301 30.568 162.133 30.04C161.965 29.488 161.713 29.02 161.377 28.636C161.065 28.228 160.669 27.916 160.189 27.7C159.733 27.46 159.181 27.34 158.533 27.34C157.861 27.34 157.273 27.472 156.769 27.736C156.265 27.976 155.833 28.3 155.473 28.708C155.137 29.116 154.873 29.584 154.681 30.112C154.489 30.64 154.357 31.18 154.285 31.732H162.385ZM171.36 24.784C172.2 24.544 173.292 24.316 174.636 24.1C175.98 23.884 177.468 23.776 179.1 23.776C180.636 23.776 181.92 23.992 182.952 24.424C183.984 24.832 184.8 25.42 185.4 26.188C186.024 26.932 186.456 27.844 186.696 28.924C186.96 29.98 187.092 31.144 187.092 32.416V43H182.736V33.1C182.736 32.092 182.664 31.24 182.52 30.544C182.4 29.824 182.184 29.248 181.872 28.816C181.584 28.36 181.176 28.036 180.648 27.844C180.144 27.628 179.52 27.52 178.776 27.52C178.224 27.52 177.648 27.556 177.048 27.628C176.448 27.7 176.004 27.76 175.716 27.808V43H171.36V24.784ZM191.374 33.604C191.374 32.212 191.59 30.916 192.022 29.716C192.454 28.492 193.066 27.436 193.858 26.548C194.674 25.66 195.658 24.964 196.81 24.46C197.962 23.956 199.258 23.704 200.698 23.704C202.474 23.704 204.154 24.028 205.738 24.676L204.802 28.24C204.298 28.024 203.722 27.844 203.074 27.7C202.45 27.556 201.778 27.484 201.058 27.484C199.354 27.484 198.058 28.024 197.17 29.104C196.282 30.16 195.838 31.66 195.838 33.604C195.838 35.476 196.258 36.964 197.098 38.068C197.938 39.148 199.354 39.688 201.346 39.688C202.09 39.688 202.822 39.616 203.542 39.472C204.262 39.328 204.886 39.148 205.414 38.932L206.026 42.532C205.546 42.772 204.814 42.988 203.83 43.18C202.87 43.372 201.874 43.468 200.842 43.468C199.234 43.468 197.83 43.228 196.63 42.748C195.454 42.244 194.47 41.56 193.678 40.696C192.91 39.808 192.334 38.764 191.95 37.564C191.566 36.34 191.374 35.02 191.374 33.604ZM208.355 33.676C208.355 32.02 208.595 30.568 209.075 29.32C209.579 28.072 210.239 27.04 211.055 26.224C211.871 25.384 212.807 24.76 213.863 24.352C214.919 23.92 215.999 23.704 217.103 23.704C219.695 23.704 221.711 24.508 223.151 26.116C224.615 27.724 225.347 30.124 225.347 33.316C225.347 33.556 225.335 33.832 225.311 34.144C225.311 34.432 225.299 34.696 225.275 34.936H212.855C212.975 36.448 213.503 37.624 214.439 38.464C215.399 39.28 216.779 39.688 218.579 39.688C219.635 39.688 220.595 39.592 221.459 39.4C222.347 39.208 223.043 39.004 223.547 38.788L224.123 42.352C223.883 42.472 223.547 42.604 223.115 42.748C222.707 42.868 222.227 42.976 221.675 43.072C221.147 43.192 220.571 43.288 219.947 43.36C219.323 43.432 218.687 43.468 218.039 43.468C216.383 43.468 214.943 43.228 213.719 42.748C212.495 42.244 211.487 41.56 210.695 40.696C209.903 39.808 209.315 38.776 208.931 37.6C208.547 36.4 208.355 35.092 208.355 33.676ZM220.991 31.732C220.991 31.132 220.907 30.568 220.739 30.04C220.571 29.488 220.319 29.02 219.983 28.636C219.671 28.228 219.275 27.916 218.795 27.7C218.339 27.46 217.787 27.34 217.139 27.34C216.467 27.34 215.879 27.472 215.375 27.736C214.871 27.976 214.439 28.3 214.079 28.708C213.743 29.116 213.479 29.584 213.287 30.112C213.095 30.64 212.963 31.18 212.891 31.732H220.991ZM255.972 18.052V21.976H248.304V43H243.732V21.976H236.064V18.052H255.972ZM256.203 33.676C256.203 32.02 256.443 30.568 256.923 29.32C257.427 28.072 258.087 27.04 258.903 26.224C259.719 25.384 260.655 24.76 261.711 24.352C262.767 23.92 263.847 23.704 264.951 23.704C267.543 23.704 269.559 24.508 270.999 26.116C272.463 27.724 273.195 30.124 273.195 33.316C273.195 33.556 273.183 33.832 273.159 34.144C273.159 34.432 273.147 34.696 273.123 34.936H260.703C260.823 36.448 261.351 37.624 262.287 38.464C263.247 39.28 264.627 39.688 266.427 39.688C267.483 39.688 268.443 39.592 269.307 39.4C270.195 39.208 270.891 39.004 271.395 38.788L271.971 42.352C271.731 42.472 271.395 42.604 270.963 42.748C270.555 42.868 270.075 42.976 269.523 43.072C268.995 43.192 268.419 43.288 267.795 43.36C267.171 43.432 266.535 43.468 265.887 43.468C264.231 43.468 262.791 43.228 261.567 42.748C260.343 42.244 259.335 41.56 258.543 40.696C257.751 39.808 257.163 38.776 256.779 37.6C256.395 36.4 256.203 35.092 256.203 33.676ZM268.839 31.732C268.839 31.132 268.755 30.568 268.587 30.04C268.419 29.488 268.167 29.02 267.831 28.636C267.519 28.228 267.123 27.916 266.643 27.7C266.187 27.46 265.635 27.34 264.987 27.34C264.315 27.34 263.727 27.472 263.223 27.736C262.719 27.976 262.287 28.3 261.927 28.708C261.591 29.116 261.327 29.584 261.135 30.112C260.943 30.64 260.811 31.18 260.739 31.732H268.839ZM282.529 39.868C283.681 39.868 284.521 39.736 285.049 39.472C285.577 39.184 285.841 38.704 285.841 38.032C285.841 37.408 285.553 36.892 284.977 36.484C284.425 36.076 283.501 35.632 282.205 35.152C281.413 34.864 280.681 34.564 280.009 34.252C279.361 33.916 278.797 33.532 278.317 33.1C277.837 32.668 277.453 32.152 277.165 31.552C276.901 30.928 276.769 30.172 276.769 29.284C276.769 27.556 277.405 26.2 278.677 25.216C279.949 24.208 281.677 23.704 283.861 23.704C284.965 23.704 286.021 23.812 287.029 24.028C288.037 24.22 288.793 24.412 289.297 24.604L288.505 28.132C288.025 27.916 287.413 27.724 286.669 27.556C285.925 27.364 285.061 27.268 284.077 27.268C283.189 27.268 282.469 27.424 281.917 27.736C281.365 28.024 281.089 28.48 281.089 29.104C281.089 29.416 281.137 29.692 281.233 29.932C281.353 30.172 281.545 30.4 281.809 30.616C282.073 30.808 282.421 31.012 282.853 31.228C283.285 31.42 283.813 31.624 284.437 31.84C285.469 32.224 286.345 32.608 287.065 32.992C287.785 33.352 288.373 33.772 288.829 34.252C289.309 34.708 289.657 35.236 289.873 35.836C290.089 36.436 290.197 37.156 290.197 37.996C290.197 39.796 289.525 41.164 288.181 42.1C286.861 43.012 284.965 43.468 282.493 43.468C280.837 43.468 279.505 43.324 278.497 43.036C277.489 42.772 276.781 42.556 276.373 42.388L277.129 38.752C277.777 39.016 278.545 39.268 279.433 39.508C280.345 39.748 281.377 39.868 282.529 39.868ZM294.05 19.204L298.406 18.484V24.172H305.102V27.808H298.406V35.476C298.406 36.988 298.646 38.068 299.126 38.716C299.606 39.364 300.422 39.688 301.574 39.688C302.366 39.688 303.062 39.604 303.662 39.436C304.286 39.268 304.778 39.112 305.138 38.968L305.858 42.424C305.354 42.64 304.694 42.856 303.878 43.072C303.062 43.312 302.102 43.432 300.998 43.432C299.654 43.432 298.526 43.252 297.614 42.892C296.726 42.532 296.018 42.016 295.49 41.344C294.962 40.648 294.59 39.82 294.374 38.86C294.158 37.876 294.05 36.76 294.05 35.512V19.204ZM313.705 43H309.349V24.172H313.705V43ZM314.173 18.664C314.173 19.48 313.909 20.128 313.381 20.608C312.853 21.088 312.229 21.328 311.509 21.328C310.765 21.328 310.129 21.088 309.601 20.608C309.073 20.128 308.809 19.48 308.809 18.664C308.809 17.824 309.073 17.164 309.601 16.684C310.129 16.204 310.765 15.964 311.509 15.964C312.229 15.964 312.853 16.204 313.381 16.684C313.909 17.164 314.173 17.824 314.173 18.664ZM319.262 24.784C320.102 24.544 321.194 24.316 322.538 24.1C323.882 23.884 325.37 23.776 327.002 23.776C328.538 23.776 329.822 23.992 330.854 24.424C331.886 24.832 332.702 25.42 333.302 26.188C333.926 26.932 334.358 27.844 334.598 28.924C334.862 29.98 334.994 31.144 334.994 32.416V43H330.638V33.1C330.638 32.092 330.566 31.24 330.422 30.544C330.302 29.824 330.086 29.248 329.774 28.816C329.486 28.36 329.078 28.036 328.55 27.844C328.046 27.628 327.422 27.52 326.678 27.52C326.126 27.52 325.55 27.556 324.95 27.628C324.35 27.7 323.906 27.76 323.618 27.808V43H319.262V24.784ZM343.741 33.1C343.741 34.948 344.137 36.304 344.929 37.168C345.745 38.008 346.789 38.428 348.061 38.428C348.757 38.428 349.405 38.332 350.005 38.14C350.629 37.948 351.133 37.72 351.517 37.456V27.7C351.205 27.628 350.821 27.568 350.365 27.52C349.909 27.448 349.333 27.412 348.637 27.412C347.053 27.412 345.841 27.94 345.001 28.996C344.161 30.028 343.741 31.396 343.741 33.1ZM355.873 41.092C355.873 44.092 355.105 46.288 353.569 47.68C352.057 49.072 349.729 49.768 346.585 49.768C345.433 49.768 344.305 49.672 343.201 49.48C342.121 49.288 341.137 49.036 340.249 48.724L341.041 45.016C341.785 45.328 342.625 45.58 343.561 45.772C344.521 45.964 345.553 46.06 346.657 46.06C348.409 46.06 349.657 45.7 350.401 44.98C351.145 44.26 351.517 43.192 351.517 41.776V41.056C351.085 41.272 350.509 41.488 349.789 41.704C349.093 41.92 348.289 42.028 347.377 42.028C346.177 42.028 345.073 41.836 344.065 41.452C343.081 41.068 342.229 40.504 341.509 39.76C340.813 39.016 340.261 38.092 339.853 36.988C339.469 35.86 339.277 34.564 339.277 33.1C339.277 31.732 339.481 30.472 339.889 29.32C340.321 28.168 340.933 27.184 341.725 26.368C342.541 25.552 343.525 24.916 344.677 24.46C345.829 24.004 347.137 23.776 348.601 23.776C350.017 23.776 351.361 23.884 352.633 24.1C353.905 24.316 354.985 24.544 355.873 24.784V41.092Z" fill="white"/>
</svg>
