<svg width="236" height="65" viewBox="0 0 236 65" fill="none" xmlns="http://www.w3.org/2000/svg">
<path d="M0 0H226C231.523 0 236 4.47715 236 10V55C236 60.5228 231.523 65 226 65H0V0Z" fill="#FE7F2D"/>
<path d="M57.3878 20.8C61.0118 20.8 63.7838 21.46 65.7038 22.78C67.6478 24.1 68.6198 26.164 68.6198 28.972C68.6198 30.436 68.3558 31.696 67.8278 32.752C67.3238 33.784 66.5798 34.636 65.5958 35.308C64.6118 35.956 63.4118 36.436 61.9958 36.748C60.5798 37.06 58.9598 37.216 57.1358 37.216H54.8678V46H50.3318V21.412C51.3878 21.172 52.5518 21.016 53.8238 20.944C55.1198 20.848 56.3078 20.8 57.3878 20.8ZM57.7118 24.724C56.5598 24.724 55.6118 24.76 54.8678 24.832V33.328H57.0638C59.2478 33.328 60.9278 33.028 62.1038 32.428C63.2798 31.804 63.8678 30.64 63.8678 28.936C63.8678 28.12 63.7118 27.436 63.3998 26.884C63.0878 26.332 62.6558 25.9 62.1038 25.588C61.5518 25.276 60.8918 25.06 60.1238 24.94C59.3798 24.796 58.5758 24.724 57.7118 24.724ZM83.2734 31.096C82.9134 30.976 82.4094 30.856 81.7614 30.736C81.1374 30.592 80.4054 30.52 79.5654 30.52C79.0854 30.52 78.5694 30.568 78.0174 30.664C77.4894 30.76 77.1174 30.844 76.9014 30.916V46H72.5454V28.072C73.3854 27.76 74.4294 27.472 75.6774 27.208C76.9494 26.92 78.3534 26.776 79.8894 26.776C80.1774 26.776 80.5134 26.8 80.8974 26.848C81.2814 26.872 81.6654 26.92 82.0494 26.992C82.4334 27.04 82.8054 27.112 83.1654 27.208C83.5254 27.28 83.8134 27.352 84.0294 27.424L83.2734 31.096ZM104.093 36.568C104.093 38.056 103.877 39.412 103.445 40.636C103.013 41.86 102.401 42.904 101.609 43.768C100.817 44.632 99.857 45.304 98.729 45.784C97.625 46.264 96.401 46.504 95.057 46.504C93.713 46.504 92.489 46.264 91.385 45.784C90.281 45.304 89.333 44.632 88.541 43.768C87.749 42.904 87.125 41.86 86.669 40.636C86.237 39.412 86.021 38.056 86.021 36.568C86.021 35.08 86.237 33.736 86.669 32.536C87.125 31.312 87.749 30.268 88.541 29.404C89.357 28.54 90.317 27.88 91.421 27.424C92.525 26.944 93.737 26.704 95.057 26.704C96.377 26.704 97.589 26.944 98.693 27.424C99.821 27.88 100.781 28.54 101.573 29.404C102.365 30.268 102.977 31.312 103.409 32.536C103.865 33.736 104.093 35.08 104.093 36.568ZM99.629 36.568C99.629 34.696 99.221 33.22 98.405 32.14C97.613 31.036 96.497 30.484 95.057 30.484C93.617 30.484 92.489 31.036 91.673 32.14C90.881 33.22 90.485 34.696 90.485 36.568C90.485 38.464 90.881 39.964 91.673 41.068C92.489 42.172 93.617 42.724 95.057 42.724C96.497 42.724 97.613 42.172 98.405 41.068C99.221 39.964 99.629 38.464 99.629 36.568ZM121.073 36.532C121.073 34.684 120.701 33.22 119.957 32.14C119.237 31.06 118.085 30.52 116.501 30.52C115.781 30.52 115.097 30.628 114.449 30.844C113.825 31.06 113.321 31.3 112.937 31.564V42.4C113.249 42.472 113.645 42.544 114.125 42.616C114.629 42.664 115.229 42.688 115.925 42.688C117.533 42.688 118.793 42.148 119.705 41.068C120.617 39.964 121.073 38.452 121.073 36.532ZM125.537 36.604C125.537 38.116 125.309 39.484 124.853 40.708C124.421 41.908 123.785 42.94 122.945 43.804C122.129 44.668 121.133 45.328 119.957 45.784C118.781 46.24 117.449 46.468 115.961 46.468C114.521 46.468 113.141 46.36 111.821 46.144C110.525 45.928 109.445 45.688 108.581 45.424V18.784L112.937 18.064V27.82C113.441 27.556 114.053 27.316 114.773 27.1C115.517 26.884 116.333 26.776 117.221 26.776C118.541 26.776 119.717 27.016 120.749 27.496C121.805 27.952 122.681 28.612 123.377 29.476C124.073 30.34 124.601 31.384 124.961 32.608C125.345 33.808 125.537 35.14 125.537 36.604ZM136.578 46.36C135.282 46.336 134.202 46.192 133.338 45.928C132.498 45.664 131.826 45.292 131.322 44.812C130.818 44.308 130.458 43.696 130.242 42.976C130.05 42.232 129.954 41.392 129.954 40.456V18.784L134.31 18.064V39.628C134.31 40.156 134.346 40.6 134.418 40.96C134.514 41.32 134.67 41.632 134.886 41.896C135.102 42.136 135.39 42.328 135.75 42.472C136.134 42.592 136.614 42.688 137.19 42.76L136.578 46.36ZM139.669 36.676C139.669 35.02 139.909 33.568 140.389 32.32C140.893 31.072 141.553 30.04 142.369 29.224C143.185 28.384 144.121 27.76 145.177 27.352C146.233 26.92 147.313 26.704 148.417 26.704C151.009 26.704 153.025 27.508 154.465 29.116C155.929 30.724 156.661 33.124 156.661 36.316C156.661 36.556 156.649 36.832 156.625 37.144C156.625 37.432 156.613 37.696 156.589 37.936H144.169C144.289 39.448 144.817 40.624 145.753 41.464C146.713 42.28 148.093 42.688 149.893 42.688C150.949 42.688 151.909 42.592 152.773 42.4C153.661 42.208 154.357 42.004 154.861 41.788L155.437 45.352C155.197 45.472 154.861 45.604 154.429 45.748C154.021 45.868 153.541 45.976 152.989 46.072C152.461 46.192 151.885 46.288 151.261 46.36C150.637 46.432 150.001 46.468 149.353 46.468C147.697 46.468 146.257 46.228 145.033 45.748C143.809 45.244 142.801 44.56 142.009 43.696C141.217 42.808 140.629 41.776 140.245 40.6C139.861 39.4 139.669 38.092 139.669 36.676ZM152.305 34.732C152.305 34.132 152.221 33.568 152.053 33.04C151.885 32.488 151.633 32.02 151.297 31.636C150.985 31.228 150.589 30.916 150.109 30.7C149.653 30.46 149.101 30.34 148.453 30.34C147.781 30.34 147.193 30.472 146.689 30.736C146.185 30.976 145.753 31.3 145.393 31.708C145.057 32.116 144.793 32.584 144.601 33.112C144.409 33.64 144.277 34.18 144.205 34.732H152.305ZM172.008 36.1C172.008 34.132 171.756 32.716 171.252 31.852C170.772 30.964 169.86 30.52 168.516 30.52C168.036 30.52 167.508 30.556 166.932 30.628C166.356 30.7 165.924 30.76 165.636 30.808V46H161.28V27.784C162.12 27.544 163.212 27.316 164.556 27.1C165.924 26.884 167.364 26.776 168.876 26.776C170.172 26.776 171.228 26.944 172.044 27.28C172.884 27.616 173.58 28.06 174.132 28.612C174.396 28.42 174.732 28.216 175.14 28C175.548 27.784 176.004 27.592 176.508 27.424C177.012 27.232 177.54 27.076 178.092 26.956C178.668 26.836 179.244 26.776 179.82 26.776C181.284 26.776 182.484 26.992 183.42 27.424C184.38 27.832 185.124 28.42 185.652 29.188C186.204 29.932 186.576 30.844 186.768 31.924C186.984 32.98 187.092 34.144 187.092 35.416V46H182.736V36.1C182.736 34.132 182.496 32.716 182.016 31.852C181.536 30.964 180.612 30.52 179.244 30.52C178.548 30.52 177.888 30.64 177.264 30.88C176.64 31.096 176.172 31.312 175.86 31.528C176.052 32.128 176.184 32.764 176.256 33.436C176.328 34.108 176.364 34.828 176.364 35.596V46H172.008V36.1Z" fill="white"/>
</svg>
