<svg width="265" height="65" viewBox="0 0 265 65" fill="none" xmlns="http://www.w3.org/2000/svg">
<path d="M0 0H255C260.523 0 265 4.47715 265 10V55C265 60.5228 260.523 65 255 65H0V0Z" fill="#FE7F2D"/>
<path d="M39.1257 22.8C42.7257 22.8 45.4737 23.46 47.3697 24.78C49.2897 26.1 50.2497 28.116 50.2497 30.828C50.2497 34.212 48.5817 36.504 45.2457 37.704C45.7017 38.256 46.2177 38.928 46.7937 39.72C47.3697 40.512 47.9577 41.376 48.5577 42.312C49.1577 43.224 49.7337 44.172 50.2857 45.156C50.8377 46.116 51.3297 47.064 51.7617 48H46.6857C46.2297 47.136 45.7377 46.272 45.2097 45.408C44.6817 44.52 44.1417 43.668 43.5897 42.852C43.0617 42.012 42.5337 41.232 42.0057 40.512C41.4777 39.768 40.9857 39.108 40.5297 38.532C40.1937 38.556 39.9057 38.568 39.6657 38.568C39.4257 38.568 39.1977 38.568 38.9817 38.568H36.7857V48H32.2497V23.412C33.3537 23.172 34.5297 23.016 35.7777 22.944C37.0257 22.848 38.1417 22.8 39.1257 22.8ZM39.4497 26.724C38.4897 26.724 37.6017 26.76 36.7857 26.832V34.896H38.7657C39.8697 34.896 40.8417 34.836 41.6817 34.716C42.5217 34.596 43.2177 34.38 43.7697 34.068C44.3457 33.756 44.7777 33.336 45.0657 32.808C45.3537 32.28 45.4977 31.608 45.4977 30.792C45.4977 30.024 45.3537 29.376 45.0657 28.848C44.7777 28.32 44.3577 27.9 43.8057 27.588C43.2777 27.276 42.6417 27.06 41.8977 26.94C41.1537 26.796 40.3377 26.724 39.4497 26.724ZM54.0171 38.676C54.0171 37.02 54.2571 35.568 54.7371 34.32C55.2411 33.072 55.9011 32.04 56.7171 31.224C57.5331 30.384 58.4691 29.76 59.5251 29.352C60.5811 28.92 61.6611 28.704 62.7651 28.704C65.3571 28.704 67.3731 29.508 68.8131 31.116C70.2771 32.724 71.0091 35.124 71.0091 38.316C71.0091 38.556 70.9971 38.832 70.9731 39.144C70.9731 39.432 70.9611 39.696 70.9371 39.936H58.5171C58.6371 41.448 59.1651 42.624 60.1011 43.464C61.0611 44.28 62.4411 44.688 64.2411 44.688C65.2971 44.688 66.2571 44.592 67.1211 44.4C68.0091 44.208 68.7051 44.004 69.2091 43.788L69.7851 47.352C69.5451 47.472 69.2091 47.604 68.7771 47.748C68.3691 47.868 67.8891 47.976 67.3371 48.072C66.8091 48.192 66.2331 48.288 65.6091 48.36C64.9851 48.432 64.3491 48.468 63.7011 48.468C62.0451 48.468 60.6051 48.228 59.3811 47.748C58.1571 47.244 57.1491 46.56 56.3571 45.696C55.5651 44.808 54.9771 43.776 54.5931 42.6C54.2091 41.4 54.0171 40.092 54.0171 38.676ZM66.6531 36.732C66.6531 36.132 66.5691 35.568 66.4011 35.04C66.2331 34.488 65.9811 34.02 65.6451 33.636C65.3331 33.228 64.9371 32.916 64.4571 32.7C64.0011 32.46 63.4491 32.34 62.8011 32.34C62.1291 32.34 61.5411 32.472 61.0371 32.736C60.5331 32.976 60.1011 33.3 59.7411 33.708C59.4051 34.116 59.1411 34.584 58.9491 35.112C58.7571 35.64 58.6251 36.18 58.5531 36.732H66.6531ZM83.3675 20.064C84.2795 20.064 85.0475 20.136 85.6715 20.28C86.3195 20.424 86.8235 20.568 87.1835 20.712L86.4995 24.24C86.1635 24.12 85.7555 24.012 85.2755 23.916C84.8195 23.82 84.3155 23.772 83.7635 23.772C82.3235 23.772 81.3275 24.156 80.7755 24.924C80.2475 25.692 79.9835 26.688 79.9835 27.912V29.172H86.8955V32.808H79.9835V48H75.6275V27.84C75.6275 25.392 76.2635 23.484 77.5355 22.116C78.8075 20.748 80.7515 20.064 83.3675 20.064ZM96.7955 48.36C95.4995 48.336 94.4195 48.192 93.5555 47.928C92.7155 47.664 92.0435 47.292 91.5395 46.812C91.0355 46.308 90.6755 45.696 90.4595 44.976C90.2675 44.232 90.1715 43.392 90.1715 42.456V20.784L94.5275 20.064V41.628C94.5275 42.156 94.5635 42.6 94.6355 42.96C94.7315 43.32 94.8875 43.632 95.1035 43.896C95.3195 44.136 95.6075 44.328 95.9675 44.472C96.3515 44.592 96.8315 44.688 97.4075 44.76L96.7955 48.36ZM99.896 38.676C99.896 37.02 100.136 35.568 100.616 34.32C101.12 33.072 101.78 32.04 102.596 31.224C103.412 30.384 104.348 29.76 105.404 29.352C106.46 28.92 107.54 28.704 108.644 28.704C111.236 28.704 113.252 29.508 114.692 31.116C116.156 32.724 116.888 35.124 116.888 38.316C116.888 38.556 116.876 38.832 116.852 39.144C116.852 39.432 116.84 39.696 116.816 39.936H104.396C104.516 41.448 105.044 42.624 105.98 43.464C106.94 44.28 108.32 44.688 110.12 44.688C111.176 44.688 112.136 44.592 113 44.4C113.888 44.208 114.584 44.004 115.088 43.788L115.664 47.352C115.424 47.472 115.088 47.604 114.656 47.748C114.248 47.868 113.768 47.976 113.216 48.072C112.688 48.192 112.112 48.288 111.488 48.36C110.864 48.432 110.228 48.468 109.58 48.468C107.924 48.468 106.484 48.228 105.26 47.748C104.036 47.244 103.028 46.56 102.236 45.696C101.444 44.808 100.856 43.776 100.472 42.6C100.088 41.4 99.896 40.092 99.896 38.676ZM112.532 36.732C112.532 36.132 112.448 35.568 112.28 35.04C112.112 34.488 111.86 34.02 111.524 33.636C111.212 33.228 110.816 32.916 110.336 32.7C109.88 32.46 109.328 32.34 108.68 32.34C108.008 32.34 107.42 32.472 106.916 32.736C106.412 32.976 105.98 33.3 105.62 33.708C105.284 34.116 105.02 34.584 104.828 35.112C104.636 35.64 104.504 36.18 104.432 36.732H112.532ZM120.462 38.604C120.462 37.212 120.678 35.916 121.11 34.716C121.542 33.492 122.154 32.436 122.946 31.548C123.762 30.66 124.746 29.964 125.898 29.46C127.05 28.956 128.346 28.704 129.786 28.704C131.562 28.704 133.242 29.028 134.826 29.676L133.89 33.24C133.386 33.024 132.81 32.844 132.162 32.7C131.538 32.556 130.866 32.484 130.146 32.484C128.442 32.484 127.146 33.024 126.258 34.104C125.37 35.16 124.926 36.66 124.926 38.604C124.926 40.476 125.346 41.964 126.186 43.068C127.026 44.148 128.442 44.688 130.434 44.688C131.178 44.688 131.91 44.616 132.63 44.472C133.35 44.328 133.974 44.148 134.502 43.932L135.114 47.532C134.634 47.772 133.902 47.988 132.918 48.18C131.958 48.372 130.962 48.468 129.93 48.468C128.322 48.468 126.918 48.228 125.718 47.748C124.542 47.244 123.558 46.56 122.766 45.696C121.998 44.808 121.422 43.764 121.038 42.564C120.654 41.34 120.462 40.02 120.462 38.604ZM138.271 24.204L142.627 23.484V29.172H149.323V32.808H142.627V40.476C142.627 41.988 142.867 43.068 143.347 43.716C143.827 44.364 144.643 44.688 145.795 44.688C146.587 44.688 147.283 44.604 147.883 44.436C148.507 44.268 148.999 44.112 149.359 43.968L150.079 47.424C149.575 47.64 148.915 47.856 148.099 48.072C147.283 48.312 146.323 48.432 145.219 48.432C143.875 48.432 142.747 48.252 141.835 47.892C140.947 47.532 140.239 47.016 139.711 46.344C139.183 45.648 138.811 44.82 138.595 43.86C138.379 42.876 138.271 41.76 138.271 40.512V24.204ZM157.926 48H153.57V29.172H157.926V48ZM158.394 23.664C158.394 24.48 158.13 25.128 157.602 25.608C157.074 26.088 156.45 26.328 155.73 26.328C154.986 26.328 154.35 26.088 153.822 25.608C153.294 25.128 153.03 24.48 153.03 23.664C153.03 22.824 153.294 22.164 153.822 21.684C154.35 21.204 154.986 20.964 155.73 20.964C156.45 20.964 157.074 21.204 157.602 21.684C158.13 22.164 158.394 22.824 158.394 23.664ZM180.511 38.568C180.511 40.056 180.295 41.412 179.863 42.636C179.431 43.86 178.819 44.904 178.027 45.768C177.235 46.632 176.275 47.304 175.147 47.784C174.043 48.264 172.819 48.504 171.475 48.504C170.131 48.504 168.907 48.264 167.803 47.784C166.699 47.304 165.751 46.632 164.959 45.768C164.167 44.904 163.543 43.86 163.087 42.636C162.655 41.412 162.439 40.056 162.439 38.568C162.439 37.08 162.655 35.736 163.087 34.536C163.543 33.312 164.167 32.268 164.959 31.404C165.775 30.54 166.735 29.88 167.839 29.424C168.943 28.944 170.155 28.704 171.475 28.704C172.795 28.704 174.007 28.944 175.111 29.424C176.239 29.88 177.199 30.54 177.991 31.404C178.783 32.268 179.395 33.312 179.827 34.536C180.283 35.736 180.511 37.08 180.511 38.568ZM176.047 38.568C176.047 36.696 175.639 35.22 174.823 34.14C174.031 33.036 172.915 32.484 171.475 32.484C170.035 32.484 168.907 33.036 168.091 34.14C167.299 35.22 166.903 36.696 166.903 38.568C166.903 40.464 167.299 41.964 168.091 43.068C168.907 44.172 170.035 44.724 171.475 44.724C172.915 44.724 174.031 44.172 174.823 43.068C175.639 41.964 176.047 40.464 176.047 38.568ZM184.999 29.784C185.839 29.544 186.931 29.316 188.275 29.1C189.619 28.884 191.107 28.776 192.739 28.776C194.275 28.776 195.559 28.992 196.591 29.424C197.623 29.832 198.439 30.42 199.039 31.188C199.663 31.932 200.095 32.844 200.335 33.924C200.599 34.98 200.731 36.144 200.731 37.416V48H196.375V38.1C196.375 37.092 196.303 36.24 196.159 35.544C196.039 34.824 195.823 34.248 195.511 33.816C195.223 33.36 194.815 33.036 194.287 32.844C193.783 32.628 193.159 32.52 192.415 32.52C191.863 32.52 191.287 32.556 190.687 32.628C190.087 32.7 189.643 32.76 189.355 32.808V48H184.999V29.784ZM210.773 44.868C211.925 44.868 212.765 44.736 213.293 44.472C213.821 44.184 214.085 43.704 214.085 43.032C214.085 42.408 213.797 41.892 213.221 41.484C212.669 41.076 211.745 40.632 210.449 40.152C209.657 39.864 208.925 39.564 208.253 39.252C207.605 38.916 207.041 38.532 206.561 38.1C206.081 37.668 205.697 37.152 205.409 36.552C205.145 35.928 205.013 35.172 205.013 34.284C205.013 32.556 205.649 31.2 206.921 30.216C208.193 29.208 209.921 28.704 212.105 28.704C213.209 28.704 214.265 28.812 215.273 29.028C216.281 29.22 217.037 29.412 217.541 29.604L216.749 33.132C216.269 32.916 215.657 32.724 214.913 32.556C214.169 32.364 213.305 32.268 212.321 32.268C211.433 32.268 210.713 32.424 210.161 32.736C209.609 33.024 209.333 33.48 209.333 34.104C209.333 34.416 209.381 34.692 209.477 34.932C209.597 35.172 209.789 35.4 210.053 35.616C210.317 35.808 210.665 36.012 211.097 36.228C211.529 36.42 212.057 36.624 212.681 36.84C213.713 37.224 214.589 37.608 215.309 37.992C216.029 38.352 216.617 38.772 217.073 39.252C217.553 39.708 217.901 40.236 218.117 40.836C218.333 41.436 218.441 42.156 218.441 42.996C218.441 44.796 217.769 46.164 216.425 47.1C215.105 48.012 213.209 48.468 210.737 48.468C209.081 48.468 207.749 48.324 206.741 48.036C205.733 47.772 205.025 47.556 204.617 47.388L205.373 43.752C206.021 44.016 206.789 44.268 207.677 44.508C208.589 44.748 209.621 44.868 210.773 44.868Z" fill="white"/>
</svg>
