<svg width="486" height="428" viewBox="0 0 486 428" fill="none" xmlns="http://www.w3.org/2000/svg">
<rect width="243" height="381" fill="#0BB399"/>
<path d="M158.997 411.668C159.613 411.668 160.117 411.621 160.509 411.528C160.92 411.416 161.246 411.276 161.489 411.108C161.732 410.921 161.9 410.707 161.993 410.464C162.086 410.221 162.133 409.951 162.133 409.652C162.133 409.017 161.834 408.495 161.237 408.084C160.64 407.655 159.613 407.197 158.157 406.712C157.522 406.488 156.888 406.236 156.253 405.956C155.618 405.657 155.049 405.293 154.545 404.864C154.041 404.416 153.63 403.884 153.313 403.268C152.996 402.633 152.837 401.868 152.837 400.972C152.837 400.076 153.005 399.273 153.341 398.564C153.677 397.836 154.153 397.22 154.769 396.716C155.385 396.212 156.132 395.829 157.009 395.568C157.886 395.288 158.876 395.148 159.977 395.148C161.284 395.148 162.413 395.288 163.365 395.568C164.317 395.848 165.101 396.156 165.717 396.492L164.457 399.936C163.916 399.656 163.309 399.413 162.637 399.208C161.984 398.984 161.19 398.872 160.257 398.872C159.212 398.872 158.456 399.021 157.989 399.32C157.541 399.6 157.317 400.039 157.317 400.636C157.317 400.991 157.401 401.289 157.569 401.532C157.737 401.775 157.97 401.999 158.269 402.204C158.586 402.391 158.941 402.568 159.333 402.736C159.744 402.885 160.192 403.044 160.677 403.212C161.685 403.585 162.562 403.959 163.309 404.332C164.056 404.687 164.672 405.107 165.157 405.592C165.661 406.077 166.034 406.647 166.277 407.3C166.52 407.953 166.641 408.747 166.641 409.68C166.641 411.491 166.006 412.9 164.737 413.908C163.468 414.897 161.554 415.392 158.997 415.392C158.138 415.392 157.364 415.336 156.673 415.224C155.982 415.131 155.366 415.009 154.825 414.86C154.302 414.711 153.845 414.552 153.453 414.384C153.08 414.216 152.762 414.057 152.501 413.908L153.733 410.436C154.312 410.753 155.021 411.043 155.861 411.304C156.72 411.547 157.765 411.668 158.997 411.668ZM173.894 415H169.722V400.272H173.894V415ZM174.286 396.016C174.286 396.781 174.034 397.388 173.53 397.836C173.044 398.265 172.466 398.48 171.794 398.48C171.122 398.48 170.534 398.265 170.03 397.836C169.544 397.388 169.302 396.781 169.302 396.016C169.302 395.251 169.544 394.653 170.03 394.224C170.534 393.776 171.122 393.552 171.794 393.552C172.466 393.552 173.044 393.776 173.53 394.224C174.034 394.653 174.286 395.251 174.286 396.016ZM181.371 407.524C181.371 408.812 181.661 409.848 182.239 410.632C182.818 411.416 183.677 411.808 184.815 411.808C185.189 411.808 185.534 411.799 185.851 411.78C186.169 411.743 186.43 411.705 186.635 411.668V404.08C186.374 403.912 186.029 403.772 185.599 403.66C185.189 403.548 184.769 403.492 184.339 403.492C182.361 403.492 181.371 404.836 181.371 407.524ZM190.807 414.524C190.434 414.636 190.005 414.748 189.519 414.86C189.034 414.953 188.521 415.037 187.979 415.112C187.457 415.187 186.915 415.243 186.355 415.28C185.814 415.336 185.291 415.364 184.787 415.364C183.574 415.364 182.491 415.187 181.539 414.832C180.587 414.477 179.785 413.973 179.131 413.32C178.478 412.648 177.974 411.845 177.619 410.912C177.283 409.96 177.115 408.896 177.115 407.72C177.115 406.525 177.265 405.452 177.563 404.5C177.862 403.529 178.291 402.708 178.851 402.036C179.411 401.364 180.093 400.851 180.895 400.496C181.717 400.141 182.65 399.964 183.695 399.964C184.274 399.964 184.787 400.02 185.235 400.132C185.702 400.244 186.169 400.403 186.635 400.608V393.944L190.807 393.272V414.524ZM194.014 407.748C194.014 406.441 194.21 405.303 194.602 404.332C195.013 403.343 195.545 402.521 196.198 401.868C196.851 401.215 197.598 400.72 198.438 400.384C199.297 400.048 200.174 399.88 201.07 399.88C203.161 399.88 204.813 400.524 206.026 401.812C207.239 403.081 207.846 404.957 207.846 407.44C207.846 407.683 207.837 407.953 207.818 408.252C207.799 408.532 207.781 408.784 207.762 409.008H198.298C198.391 409.867 198.793 410.548 199.502 411.052C200.211 411.556 201.163 411.808 202.358 411.808C203.123 411.808 203.87 411.743 204.598 411.612C205.345 411.463 205.951 411.285 206.418 411.08L206.978 414.468C206.754 414.58 206.455 414.692 206.082 414.804C205.709 414.916 205.289 415.009 204.822 415.084C204.374 415.177 203.889 415.252 203.366 415.308C202.843 415.364 202.321 415.392 201.798 415.392C200.473 415.392 199.315 415.196 198.326 414.804C197.355 414.412 196.543 413.88 195.89 413.208C195.255 412.517 194.779 411.705 194.462 410.772C194.163 409.839 194.014 408.831 194.014 407.748ZM203.814 406.152C203.795 405.797 203.73 405.452 203.618 405.116C203.525 404.78 203.366 404.481 203.142 404.22C202.937 403.959 202.666 403.744 202.33 403.576C202.013 403.408 201.611 403.324 201.126 403.324C200.659 403.324 200.258 403.408 199.922 403.576C199.586 403.725 199.306 403.931 199.082 404.192C198.858 404.453 198.681 404.761 198.55 405.116C198.438 405.452 198.354 405.797 198.298 406.152H203.814ZM220.501 407.524C220.501 404.836 219.512 403.492 217.533 403.492C217.104 403.492 216.675 403.548 216.245 403.66C215.835 403.772 215.499 403.912 215.237 404.08V411.668C215.443 411.705 215.704 411.743 216.021 411.78C216.339 411.799 216.684 411.808 217.057 411.808C218.196 411.808 219.055 411.416 219.633 410.632C220.212 409.848 220.501 408.812 220.501 407.524ZM224.757 407.636C224.757 408.812 224.58 409.876 224.225 410.828C223.889 411.78 223.395 412.592 222.741 413.264C222.088 413.936 221.285 414.459 220.333 414.832C219.381 415.187 218.299 415.364 217.085 415.364C216.581 415.364 216.049 415.336 215.489 415.28C214.948 415.243 214.407 415.187 213.865 415.112C213.343 415.037 212.839 414.953 212.353 414.86C211.868 414.748 211.439 414.636 211.065 414.524V393.944L215.237 393.272V400.608C215.704 400.403 216.189 400.244 216.693 400.132C217.197 400.02 217.739 399.964 218.317 399.964C219.363 399.964 220.287 400.151 221.089 400.524C221.892 400.879 222.564 401.392 223.105 402.064C223.647 402.736 224.057 403.548 224.337 404.5C224.617 405.433 224.757 406.479 224.757 407.636ZM233.592 412.088C234.003 412.088 234.395 412.079 234.768 412.06C235.141 412.041 235.44 412.013 235.664 411.976V408.812C235.496 408.775 235.244 408.737 234.908 408.7C234.572 408.663 234.264 408.644 233.984 408.644C233.592 408.644 233.219 408.672 232.864 408.728C232.528 408.765 232.229 408.849 231.968 408.98C231.707 409.111 231.501 409.288 231.352 409.512C231.203 409.736 231.128 410.016 231.128 410.352C231.128 411.005 231.343 411.463 231.772 411.724C232.22 411.967 232.827 412.088 233.592 412.088ZM233.256 399.88C234.488 399.88 235.515 400.02 236.336 400.3C237.157 400.58 237.811 400.981 238.296 401.504C238.8 402.027 239.155 402.661 239.36 403.408C239.565 404.155 239.668 404.985 239.668 405.9V414.58C239.071 414.711 238.24 414.86 237.176 415.028C236.112 415.215 234.824 415.308 233.312 415.308C232.36 415.308 231.492 415.224 230.708 415.056C229.943 414.888 229.28 414.617 228.72 414.244C228.16 413.852 227.731 413.348 227.432 412.732C227.133 412.116 226.984 411.36 226.984 410.464C226.984 409.605 227.152 408.877 227.488 408.28C227.843 407.683 228.309 407.207 228.888 406.852C229.467 406.497 230.129 406.245 230.876 406.096C231.623 405.928 232.397 405.844 233.2 405.844C233.741 405.844 234.217 405.872 234.628 405.928C235.057 405.965 235.403 406.021 235.664 406.096V405.704C235.664 404.995 235.449 404.425 235.02 403.996C234.591 403.567 233.844 403.352 232.78 403.352C232.071 403.352 231.371 403.408 230.68 403.52C229.989 403.613 229.392 403.753 228.888 403.94L228.356 400.58C228.599 400.505 228.897 400.431 229.252 400.356C229.625 400.263 230.027 400.188 230.456 400.132C230.885 400.057 231.333 400.001 231.8 399.964C232.285 399.908 232.771 399.88 233.256 399.88ZM252.316 403.968C251.943 403.875 251.504 403.781 251 403.688C250.496 403.576 249.955 403.52 249.376 403.52C249.115 403.52 248.798 403.548 248.424 403.604C248.07 403.641 247.799 403.688 247.612 403.744V415H243.44V401.056C244.187 400.795 245.064 400.552 246.072 400.328C247.099 400.085 248.238 399.964 249.488 399.964C249.712 399.964 249.983 399.983 250.3 400.02C250.618 400.039 250.935 400.076 251.252 400.132C251.57 400.169 251.887 400.225 252.204 400.3C252.522 400.356 252.792 400.431 253.016 400.524L252.316 403.968ZM271.108 415.392C267.953 415.392 265.545 414.515 263.884 412.76C262.241 411.005 261.42 408.513 261.42 405.284C261.42 403.679 261.672 402.251 262.176 401C262.68 399.731 263.37 398.667 264.248 397.808C265.125 396.931 266.17 396.268 267.384 395.82C268.597 395.372 269.913 395.148 271.332 395.148C272.153 395.148 272.9 395.213 273.572 395.344C274.244 395.456 274.832 395.596 275.336 395.764C275.84 395.913 276.26 396.072 276.596 396.24C276.932 396.408 277.174 396.539 277.324 396.632L276.064 400.16C275.466 399.843 274.766 399.572 273.964 399.348C273.18 399.124 272.284 399.012 271.276 399.012C270.604 399.012 269.941 399.124 269.288 399.348C268.653 399.572 268.084 399.936 267.58 400.44C267.094 400.925 266.702 401.56 266.404 402.344C266.105 403.128 265.956 404.08 265.956 405.2C265.956 406.096 266.049 406.936 266.236 407.72C266.441 408.485 266.758 409.148 267.188 409.708C267.636 410.268 268.214 410.716 268.924 411.052C269.633 411.369 270.492 411.528 271.5 411.528C272.134 411.528 272.704 411.491 273.208 411.416C273.712 411.341 274.16 411.257 274.552 411.164C274.944 411.052 275.289 410.931 275.588 410.8C275.886 410.669 276.157 410.548 276.4 410.436L277.604 413.936C276.988 414.309 276.12 414.645 275 414.944C273.88 415.243 272.582 415.392 271.108 415.392ZM293.584 407.608C293.584 408.765 293.416 409.829 293.08 410.8C292.744 411.752 292.258 412.573 291.624 413.264C290.989 413.936 290.224 414.459 289.328 414.832C288.45 415.205 287.461 415.392 286.36 415.392C285.277 415.392 284.288 415.205 283.392 414.832C282.514 414.459 281.758 413.936 281.124 413.264C280.489 412.573 279.994 411.752 279.64 410.8C279.285 409.829 279.108 408.765 279.108 407.608C279.108 406.451 279.285 405.396 279.64 404.444C280.013 403.492 280.517 402.68 281.152 402.008C281.805 401.336 282.57 400.813 283.448 400.44C284.344 400.067 285.314 399.88 286.36 399.88C287.424 399.88 288.394 400.067 289.272 400.44C290.168 400.813 290.933 401.336 291.568 402.008C292.202 402.68 292.697 403.492 293.052 404.444C293.406 405.396 293.584 406.451 293.584 407.608ZM289.328 407.608C289.328 406.32 289.066 405.312 288.544 404.584C288.04 403.837 287.312 403.464 286.36 403.464C285.408 403.464 284.67 403.837 284.148 404.584C283.625 405.312 283.364 406.32 283.364 407.608C283.364 408.896 283.625 409.923 284.148 410.688C284.67 411.435 285.408 411.808 286.36 411.808C287.312 411.808 288.04 411.435 288.544 410.688C289.066 409.923 289.328 408.896 289.328 407.608ZM302.695 415.28C301.482 415.261 300.493 415.131 299.727 414.888C298.981 414.645 298.383 414.309 297.935 413.88C297.506 413.432 297.207 412.9 297.039 412.284C296.89 411.649 296.815 410.94 296.815 410.156V393.944L300.987 393.272V409.316C300.987 409.689 301.015 410.025 301.071 410.324C301.127 410.623 301.23 410.875 301.379 411.08C301.547 411.285 301.781 411.453 302.079 411.584C302.378 411.715 302.779 411.799 303.283 411.836L302.695 415.28ZM319.451 407.608C319.451 408.765 319.283 409.829 318.947 410.8C318.611 411.752 318.126 412.573 317.491 413.264C316.856 413.936 316.091 414.459 315.195 414.832C314.318 415.205 313.328 415.392 312.227 415.392C311.144 415.392 310.155 415.205 309.259 414.832C308.382 414.459 307.626 413.936 306.991 413.264C306.356 412.573 305.862 411.752 305.507 410.8C305.152 409.829 304.975 408.765 304.975 407.608C304.975 406.451 305.152 405.396 305.507 404.444C305.88 403.492 306.384 402.68 307.019 402.008C307.672 401.336 308.438 400.813 309.315 400.44C310.211 400.067 311.182 399.88 312.227 399.88C313.291 399.88 314.262 400.067 315.139 400.44C316.035 400.813 316.8 401.336 317.435 402.008C318.07 402.68 318.564 403.492 318.919 404.444C319.274 405.396 319.451 406.451 319.451 407.608ZM315.195 407.608C315.195 406.32 314.934 405.312 314.411 404.584C313.907 403.837 313.179 403.464 312.227 403.464C311.275 403.464 310.538 403.837 310.015 404.584C309.492 405.312 309.231 406.32 309.231 407.608C309.231 408.896 309.492 409.923 310.015 410.688C310.538 411.435 311.275 411.808 312.227 411.808C313.179 411.808 313.907 411.435 314.411 410.688C314.934 409.923 315.195 408.896 315.195 407.608ZM331.559 403.968C331.185 403.875 330.747 403.781 330.243 403.688C329.739 403.576 329.197 403.52 328.619 403.52C328.357 403.52 328.04 403.548 327.667 403.604C327.312 403.641 327.041 403.688 326.855 403.744V415H322.683V401.056C323.429 400.795 324.307 400.552 325.315 400.328C326.341 400.085 327.48 399.964 328.731 399.964C328.955 399.964 329.225 399.983 329.543 400.02C329.86 400.039 330.177 400.076 330.495 400.132C330.812 400.169 331.129 400.225 331.447 400.3C331.764 400.356 332.035 400.431 332.259 400.524L331.559 403.968Z" fill="#291720"/>
<rect width="243" height="381" transform="translate(243)" fill="#B314B3"/>
<rect x="243" width="243" height="381" fill="#B314B3"/>
</svg>
