<svg width="236" height="65" viewBox="0 0 236 65" fill="none" xmlns="http://www.w3.org/2000/svg">
<path d="M-11 0H226C231.523 0 236 4.47715 236 10V55C236 60.5228 231.523 65 226 65H-11V0Z" fill="#FE7F2D"/>
<path d="M46.4344 42.616C48.0664 42.616 49.2544 42.34 49.9984 41.788C50.7424 41.236 51.1144 40.456 51.1144 39.448C51.1144 38.848 50.9824 38.332 50.7184 37.9C50.4784 37.468 50.1184 37.084 49.6384 36.748C49.1824 36.388 48.6184 36.064 47.9464 35.776C47.2744 35.464 46.5064 35.164 45.6424 34.876C44.7784 34.564 43.9384 34.228 43.1224 33.868C42.3304 33.484 41.6224 33.016 40.9984 32.464C40.3984 31.912 39.9064 31.252 39.5224 30.484C39.1624 29.716 38.9824 28.792 38.9824 27.712C38.9824 25.456 39.7624 23.692 41.3224 22.42C42.8824 21.124 45.0064 20.476 47.6944 20.476C49.2544 20.476 50.6344 20.656 51.8344 21.016C53.0584 21.352 54.0184 21.724 54.7144 22.132L53.3104 25.804C52.4944 25.348 51.5944 25 50.6104 24.76C49.6504 24.52 48.6544 24.4 47.6224 24.4C46.3984 24.4 45.4384 24.652 44.7424 25.156C44.0704 25.66 43.7344 26.368 43.7344 27.28C43.7344 27.832 43.8424 28.312 44.0584 28.72C44.2984 29.104 44.6224 29.452 45.0304 29.764C45.4624 30.076 45.9544 30.364 46.5064 30.628C47.0824 30.892 47.7064 31.144 48.3784 31.384C49.5544 31.816 50.5984 32.26 51.5104 32.716C52.4464 33.148 53.2264 33.676 53.8504 34.3C54.4984 34.9 54.9904 35.62 55.3264 36.46C55.6624 37.276 55.8304 38.272 55.8304 39.448C55.8304 41.704 55.0264 43.456 53.4184 44.704C51.8344 45.928 49.5064 46.54 46.4344 46.54C45.4024 46.54 44.4544 46.468 43.5904 46.324C42.7504 46.204 41.9944 46.048 41.3224 45.856C40.6744 45.664 40.1104 45.472 39.6304 45.28C39.1504 45.064 38.7664 44.872 38.4784 44.704L39.8104 40.996C40.4584 41.356 41.3344 41.716 42.4384 42.076C43.5424 42.436 44.8744 42.616 46.4344 42.616ZM76.6398 36.568C76.6398 38.056 76.4238 39.412 75.9918 40.636C75.5598 41.86 74.9478 42.904 74.1558 43.768C73.3638 44.632 72.4038 45.304 71.2758 45.784C70.1718 46.264 68.9478 46.504 67.6038 46.504C66.2598 46.504 65.0358 46.264 63.9318 45.784C62.8278 45.304 61.8798 44.632 61.0878 43.768C60.2958 42.904 59.6718 41.86 59.2158 40.636C58.7838 39.412 58.5678 38.056 58.5678 36.568C58.5678 35.08 58.7838 33.736 59.2158 32.536C59.6718 31.312 60.2958 30.268 61.0878 29.404C61.9038 28.54 62.8638 27.88 63.9678 27.424C65.0718 26.944 66.2838 26.704 67.6038 26.704C68.9238 26.704 70.1358 26.944 71.2398 27.424C72.3678 27.88 73.3278 28.54 74.1198 29.404C74.9118 30.268 75.5238 31.312 75.9558 32.536C76.4118 33.736 76.6398 35.08 76.6398 36.568ZM72.1758 36.568C72.1758 34.696 71.7678 33.22 70.9518 32.14C70.1598 31.036 69.0438 30.484 67.6038 30.484C66.1638 30.484 65.0358 31.036 64.2198 32.14C63.4278 33.22 63.0318 34.696 63.0318 36.568C63.0318 38.464 63.4278 39.964 64.2198 41.068C65.0358 42.172 66.1638 42.724 67.6038 42.724C69.0438 42.724 70.1598 42.172 70.9518 41.068C71.7678 39.964 72.1758 38.464 72.1758 36.568ZM87.6795 46.36C86.3835 46.336 85.3035 46.192 84.4395 45.928C83.5995 45.664 82.9275 45.292 82.4235 44.812C81.9195 44.308 81.5595 43.696 81.3435 42.976C81.1515 42.232 81.0555 41.392 81.0555 40.456V18.784L85.4115 18.064V39.628C85.4115 40.156 85.4475 40.6 85.5195 40.96C85.6155 41.32 85.7715 41.632 85.9875 41.896C86.2035 42.136 86.4915 42.328 86.8515 42.472C87.2355 42.592 87.7155 42.688 88.2915 42.76L87.6795 46.36ZM107.259 45.424C106.419 45.64 105.327 45.856 103.983 46.072C102.639 46.312 101.163 46.432 99.555 46.432C98.043 46.432 96.771 46.216 95.739 45.784C94.731 45.352 93.915 44.752 93.291 43.984C92.691 43.216 92.259 42.304 91.995 41.248C91.731 40.168 91.599 38.992 91.599 37.72V27.172H95.955V37.036C95.955 39.052 96.243 40.492 96.819 41.356C97.419 42.22 98.451 42.652 99.915 42.652C100.443 42.652 100.995 42.628 101.571 42.58C102.171 42.532 102.615 42.472 102.903 42.4V27.172H107.259V45.424ZM112.587 22.204L116.943 21.484V27.172H123.639V30.808H116.943V38.476C116.943 39.988 117.183 41.068 117.663 41.716C118.143 42.364 118.959 42.688 120.111 42.688C120.903 42.688 121.599 42.604 122.199 42.436C122.823 42.268 123.315 42.112 123.675 41.968L124.395 45.424C123.891 45.64 123.231 45.856 122.415 46.072C121.599 46.312 120.639 46.432 119.535 46.432C118.191 46.432 117.063 46.252 116.151 45.892C115.263 45.532 114.555 45.016 114.027 44.344C113.499 43.648 113.127 42.82 112.911 41.86C112.695 40.876 112.587 39.76 112.587 38.512V22.204ZM132.242 46H127.886V27.172H132.242V46ZM132.71 21.664C132.71 22.48 132.446 23.128 131.918 23.608C131.39 24.088 130.766 24.328 130.046 24.328C129.302 24.328 128.666 24.088 128.138 23.608C127.61 23.128 127.346 22.48 127.346 21.664C127.346 20.824 127.61 20.164 128.138 19.684C128.666 19.204 129.302 18.964 130.046 18.964C130.766 18.964 131.39 19.204 131.918 19.684C132.446 20.164 132.71 20.824 132.71 21.664ZM154.827 36.568C154.827 38.056 154.611 39.412 154.179 40.636C153.747 41.86 153.135 42.904 152.343 43.768C151.551 44.632 150.591 45.304 149.463 45.784C148.359 46.264 147.135 46.504 145.791 46.504C144.447 46.504 143.223 46.264 142.119 45.784C141.015 45.304 140.067 44.632 139.275 43.768C138.483 42.904 137.859 41.86 137.403 40.636C136.971 39.412 136.755 38.056 136.755 36.568C136.755 35.08 136.971 33.736 137.403 32.536C137.859 31.312 138.483 30.268 139.275 29.404C140.091 28.54 141.051 27.88 142.155 27.424C143.259 26.944 144.471 26.704 145.791 26.704C147.111 26.704 148.323 26.944 149.427 27.424C150.555 27.88 151.515 28.54 152.307 29.404C153.099 30.268 153.711 31.312 154.143 32.536C154.599 33.736 154.827 35.08 154.827 36.568ZM150.363 36.568C150.363 34.696 149.955 33.22 149.139 32.14C148.347 31.036 147.231 30.484 145.791 30.484C144.351 30.484 143.223 31.036 142.407 32.14C141.615 33.22 141.219 34.696 141.219 36.568C141.219 38.464 141.615 39.964 142.407 41.068C143.223 42.172 144.351 42.724 145.791 42.724C147.231 42.724 148.347 42.172 149.139 41.068C149.955 39.964 150.363 38.464 150.363 36.568ZM159.315 27.784C160.155 27.544 161.247 27.316 162.591 27.1C163.935 26.884 165.423 26.776 167.055 26.776C168.591 26.776 169.875 26.992 170.907 27.424C171.939 27.832 172.755 28.42 173.355 29.188C173.979 29.932 174.411 30.844 174.651 31.924C174.915 32.98 175.047 34.144 175.047 35.416V46H170.691V36.1C170.691 35.092 170.619 34.24 170.475 33.544C170.355 32.824 170.139 32.248 169.827 31.816C169.539 31.36 169.131 31.036 168.603 30.844C168.099 30.628 167.475 30.52 166.731 30.52C166.179 30.52 165.603 30.556 165.003 30.628C164.403 30.7 163.959 30.76 163.671 30.808V46H159.315V27.784Z" fill="white"/>
</svg>
