<svg width="323" height="65" viewBox="0 0 323 65" fill="none" xmlns="http://www.w3.org/2000/svg">
<path d="M0 0H313C318.523 0 323 4.47715 323 10V55C323 60.5228 318.523 65 313 65H0V0Z" fill="#FE7F2D"/>
<path d="M71.9379 45.54C70.2339 45.54 68.7699 45.3 67.5459 44.82C66.3219 44.316 65.3019 43.62 64.4859 42.732C63.6939 41.844 63.1059 40.8 62.7219 39.6C62.3379 38.4 62.1459 37.08 62.1459 35.64V20.052H66.7179V35.208C66.7179 36.336 66.8379 37.308 67.0779 38.124C67.3419 38.916 67.7019 39.564 68.1579 40.068C68.6379 40.572 69.1899 40.944 69.8139 41.184C70.4619 41.424 71.1819 41.544 71.9739 41.544C72.7659 41.544 73.4859 41.424 74.1339 41.184C74.7819 40.944 75.3339 40.572 75.7899 40.068C76.2699 39.564 76.6299 38.916 76.8699 38.124C77.1339 37.308 77.2659 36.336 77.2659 35.208V20.052H81.8379V35.64C81.8379 37.08 81.6339 38.4 81.2259 39.6C80.8419 40.8 80.2419 41.844 79.4259 42.732C78.6339 43.62 77.6139 44.316 76.3659 44.82C75.1179 45.3 73.6419 45.54 71.9379 45.54ZM92.1384 41.868C93.2904 41.868 94.1304 41.736 94.6584 41.472C95.1864 41.184 95.4504 40.704 95.4504 40.032C95.4504 39.408 95.1624 38.892 94.5864 38.484C94.0344 38.076 93.1104 37.632 91.8144 37.152C91.0224 36.864 90.2904 36.564 89.6184 36.252C88.9704 35.916 88.4064 35.532 87.9264 35.1C87.4464 34.668 87.0624 34.152 86.7744 33.552C86.5104 32.928 86.3784 32.172 86.3784 31.284C86.3784 29.556 87.0144 28.2 88.2864 27.216C89.5584 26.208 91.2864 25.704 93.4704 25.704C94.5744 25.704 95.6304 25.812 96.6384 26.028C97.6464 26.22 98.4024 26.412 98.9064 26.604L98.1144 30.132C97.6344 29.916 97.0224 29.724 96.2784 29.556C95.5344 29.364 94.6704 29.268 93.6864 29.268C92.7984 29.268 92.0784 29.424 91.5264 29.736C90.9744 30.024 90.6984 30.48 90.6984 31.104C90.6984 31.416 90.7464 31.692 90.8424 31.932C90.9624 32.172 91.1544 32.4 91.4184 32.616C91.6824 32.808 92.0304 33.012 92.4624 33.228C92.8944 33.42 93.4224 33.624 94.0464 33.84C95.0784 34.224 95.9544 34.608 96.6744 34.992C97.3944 35.352 97.9824 35.772 98.4384 36.252C98.9184 36.708 99.2664 37.236 99.4824 37.836C99.6984 38.436 99.8064 39.156 99.8064 39.996C99.8064 41.796 99.1344 43.164 97.7904 44.1C96.4704 45.012 94.5744 45.468 92.1024 45.468C90.4464 45.468 89.1144 45.324 88.1064 45.036C87.0984 44.772 86.3904 44.556 85.9824 44.388L86.7384 40.752C87.3864 41.016 88.1544 41.268 89.0424 41.508C89.9544 41.748 90.9864 41.868 92.1384 41.868ZM102.832 35.676C102.832 34.02 103.072 32.568 103.552 31.32C104.056 30.072 104.716 29.04 105.532 28.224C106.348 27.384 107.284 26.76 108.34 26.352C109.396 25.92 110.476 25.704 111.58 25.704C114.172 25.704 116.188 26.508 117.628 28.116C119.092 29.724 119.824 32.124 119.824 35.316C119.824 35.556 119.812 35.832 119.788 36.144C119.788 36.432 119.776 36.696 119.752 36.936H107.332C107.452 38.448 107.98 39.624 108.916 40.464C109.876 41.28 111.256 41.688 113.056 41.688C114.112 41.688 115.072 41.592 115.936 41.4C116.824 41.208 117.52 41.004 118.024 40.788L118.6 44.352C118.36 44.472 118.024 44.604 117.592 44.748C117.184 44.868 116.704 44.976 116.152 45.072C115.624 45.192 115.048 45.288 114.424 45.36C113.8 45.432 113.164 45.468 112.516 45.468C110.86 45.468 109.42 45.228 108.196 44.748C106.972 44.244 105.964 43.56 105.172 42.696C104.38 41.808 103.792 40.776 103.408 39.6C103.024 38.4 102.832 37.092 102.832 35.676ZM115.468 33.732C115.468 33.132 115.384 32.568 115.216 32.04C115.048 31.488 114.796 31.02 114.46 30.636C114.148 30.228 113.752 29.916 113.272 29.7C112.816 29.46 112.264 29.34 111.616 29.34C110.944 29.34 110.356 29.472 109.852 29.736C109.348 29.976 108.916 30.3 108.556 30.708C108.22 31.116 107.956 31.584 107.764 32.112C107.572 32.64 107.44 33.18 107.368 33.732H115.468ZM135.17 30.096C134.81 29.976 134.306 29.856 133.658 29.736C133.034 29.592 132.302 29.52 131.462 29.52C130.982 29.52 130.466 29.568 129.914 29.664C129.386 29.76 129.014 29.844 128.798 29.916V45H124.442V27.072C125.282 26.76 126.326 26.472 127.574 26.208C128.846 25.92 130.25 25.776 131.786 25.776C132.074 25.776 132.41 25.8 132.794 25.848C133.178 25.872 133.562 25.92 133.946 25.992C134.33 26.04 134.702 26.112 135.062 26.208C135.422 26.28 135.71 26.352 135.926 26.424L135.17 30.096ZM153.628 41.616C155.26 41.616 156.448 41.34 157.192 40.788C157.936 40.236 158.308 39.456 158.308 38.448C158.308 37.848 158.176 37.332 157.912 36.9C157.672 36.468 157.312 36.084 156.832 35.748C156.376 35.388 155.812 35.064 155.14 34.776C154.468 34.464 153.7 34.164 152.836 33.876C151.972 33.564 151.132 33.228 150.316 32.868C149.524 32.484 148.816 32.016 148.192 31.464C147.592 30.912 147.1 30.252 146.716 29.484C146.356 28.716 146.176 27.792 146.176 26.712C146.176 24.456 146.956 22.692 148.516 21.42C150.076 20.124 152.2 19.476 154.888 19.476C156.448 19.476 157.828 19.656 159.028 20.016C160.252 20.352 161.212 20.724 161.908 21.132L160.504 24.804C159.688 24.348 158.788 24 157.804 23.76C156.844 23.52 155.848 23.4 154.816 23.4C153.592 23.4 152.632 23.652 151.936 24.156C151.264 24.66 150.928 25.368 150.928 26.28C150.928 26.832 151.036 27.312 151.252 27.72C151.492 28.104 151.816 28.452 152.224 28.764C152.656 29.076 153.148 29.364 153.7 29.628C154.276 29.892 154.9 30.144 155.572 30.384C156.748 30.816 157.792 31.26 158.704 31.716C159.64 32.148 160.42 32.676 161.044 33.3C161.692 33.9 162.184 34.62 162.52 35.46C162.856 36.276 163.024 37.272 163.024 38.448C163.024 40.704 162.22 42.456 160.612 43.704C159.028 44.928 156.7 45.54 153.628 45.54C152.596 45.54 151.648 45.468 150.784 45.324C149.944 45.204 149.188 45.048 148.516 44.856C147.868 44.664 147.304 44.472 146.824 44.28C146.344 44.064 145.96 43.872 145.672 43.704L147.004 39.996C147.652 40.356 148.528 40.716 149.632 41.076C150.736 41.436 152.068 41.616 153.628 41.616ZM166.589 21.204L170.945 20.484V26.172H177.641V29.808H170.945V37.476C170.945 38.988 171.185 40.068 171.665 40.716C172.145 41.364 172.961 41.688 174.113 41.688C174.905 41.688 175.601 41.604 176.201 41.436C176.825 41.268 177.317 41.112 177.677 40.968L178.397 44.424C177.893 44.64 177.233 44.856 176.417 45.072C175.601 45.312 174.641 45.432 173.537 45.432C172.193 45.432 171.065 45.252 170.153 44.892C169.265 44.532 168.557 44.016 168.029 43.344C167.501 42.648 167.129 41.82 166.913 40.86C166.697 39.876 166.589 38.76 166.589 37.512V21.204ZM198.458 35.568C198.458 37.056 198.242 38.412 197.81 39.636C197.378 40.86 196.766 41.904 195.974 42.768C195.182 43.632 194.222 44.304 193.094 44.784C191.99 45.264 190.766 45.504 189.422 45.504C188.078 45.504 186.854 45.264 185.75 44.784C184.646 44.304 183.698 43.632 182.906 42.768C182.114 41.904 181.49 40.86 181.034 39.636C180.602 38.412 180.386 37.056 180.386 35.568C180.386 34.08 180.602 32.736 181.034 31.536C181.49 30.312 182.114 29.268 182.906 28.404C183.722 27.54 184.682 26.88 185.786 26.424C186.89 25.944 188.102 25.704 189.422 25.704C190.742 25.704 191.954 25.944 193.058 26.424C194.186 26.88 195.146 27.54 195.938 28.404C196.73 29.268 197.342 30.312 197.774 31.536C198.23 32.736 198.458 34.08 198.458 35.568ZM193.994 35.568C193.994 33.696 193.586 32.22 192.77 31.14C191.978 30.036 190.862 29.484 189.422 29.484C187.982 29.484 186.854 30.036 186.038 31.14C185.246 32.22 184.85 33.696 184.85 35.568C184.85 37.464 185.246 38.964 186.038 40.068C186.854 41.172 187.982 41.724 189.422 41.724C190.862 41.724 191.978 41.172 192.77 40.068C193.586 38.964 193.994 37.464 193.994 35.568ZM213.674 30.096C213.314 29.976 212.81 29.856 212.162 29.736C211.538 29.592 210.806 29.52 209.966 29.52C209.486 29.52 208.97 29.568 208.418 29.664C207.89 29.76 207.518 29.844 207.302 29.916V45H202.946V27.072C203.786 26.76 204.83 26.472 206.078 26.208C207.35 25.92 208.754 25.776 210.29 25.776C210.578 25.776 210.914 25.8 211.298 25.848C211.682 25.872 212.066 25.92 212.45 25.992C212.834 26.04 213.206 26.112 213.566 26.208C213.926 26.28 214.214 26.352 214.43 26.424L213.674 30.096ZM221.857 45H217.501V26.172H221.857V45ZM222.325 20.664C222.325 21.48 222.061 22.128 221.533 22.608C221.005 23.088 220.381 23.328 219.661 23.328C218.917 23.328 218.281 23.088 217.753 22.608C217.225 22.128 216.961 21.48 216.961 20.664C216.961 19.824 217.225 19.164 217.753 18.684C218.281 18.204 218.917 17.964 219.661 17.964C220.381 17.964 221.005 18.204 221.533 18.684C222.061 19.164 222.325 19.824 222.325 20.664ZM226.371 35.676C226.371 34.02 226.611 32.568 227.091 31.32C227.595 30.072 228.255 29.04 229.071 28.224C229.887 27.384 230.823 26.76 231.879 26.352C232.935 25.92 234.015 25.704 235.119 25.704C237.711 25.704 239.727 26.508 241.167 28.116C242.631 29.724 243.363 32.124 243.363 35.316C243.363 35.556 243.351 35.832 243.327 36.144C243.327 36.432 243.315 36.696 243.291 36.936H230.871C230.991 38.448 231.519 39.624 232.455 40.464C233.415 41.28 234.795 41.688 236.595 41.688C237.651 41.688 238.611 41.592 239.475 41.4C240.363 41.208 241.059 41.004 241.563 40.788L242.139 44.352C241.899 44.472 241.563 44.604 241.131 44.748C240.723 44.868 240.243 44.976 239.691 45.072C239.163 45.192 238.587 45.288 237.963 45.36C237.339 45.432 236.703 45.468 236.055 45.468C234.399 45.468 232.959 45.228 231.735 44.748C230.511 44.244 229.503 43.56 228.711 42.696C227.919 41.808 227.331 40.776 226.947 39.6C226.563 38.4 226.371 37.092 226.371 35.676ZM239.007 33.732C239.007 33.132 238.923 32.568 238.755 32.04C238.587 31.488 238.335 31.02 237.999 30.636C237.687 30.228 237.291 29.916 236.811 29.7C236.355 29.46 235.803 29.34 235.155 29.34C234.483 29.34 233.895 29.472 233.391 29.736C232.887 29.976 232.455 30.3 232.095 30.708C231.759 31.116 231.495 31.584 231.303 32.112C231.111 32.64 230.979 33.18 230.907 33.732H239.007ZM252.697 41.868C253.849 41.868 254.689 41.736 255.217 41.472C255.745 41.184 256.009 40.704 256.009 40.032C256.009 39.408 255.721 38.892 255.145 38.484C254.593 38.076 253.669 37.632 252.373 37.152C251.581 36.864 250.849 36.564 250.177 36.252C249.529 35.916 248.965 35.532 248.485 35.1C248.005 34.668 247.621 34.152 247.333 33.552C247.069 32.928 246.937 32.172 246.937 31.284C246.937 29.556 247.573 28.2 248.845 27.216C250.117 26.208 251.845 25.704 254.029 25.704C255.133 25.704 256.189 25.812 257.197 26.028C258.205 26.22 258.961 26.412 259.465 26.604L258.673 30.132C258.193 29.916 257.581 29.724 256.837 29.556C256.093 29.364 255.229 29.268 254.245 29.268C253.357 29.268 252.637 29.424 252.085 29.736C251.533 30.024 251.257 30.48 251.257 31.104C251.257 31.416 251.305 31.692 251.401 31.932C251.521 32.172 251.713 32.4 251.977 32.616C252.241 32.808 252.589 33.012 253.021 33.228C253.453 33.42 253.981 33.624 254.605 33.84C255.637 34.224 256.513 34.608 257.233 34.992C257.953 35.352 258.541 35.772 258.997 36.252C259.477 36.708 259.825 37.236 260.041 37.836C260.257 38.436 260.365 39.156 260.365 39.996C260.365 41.796 259.693 43.164 258.349 44.1C257.029 45.012 255.133 45.468 252.661 45.468C251.005 45.468 249.673 45.324 248.665 45.036C247.657 44.772 246.949 44.556 246.541 44.388L247.297 40.752C247.945 41.016 248.713 41.268 249.601 41.508C250.513 41.748 251.545 41.868 252.697 41.868Z" fill="white"/>
</svg>
