<svg width="238" height="58" viewBox="0 0 238 58" fill="none" xmlns="http://www.w3.org/2000/svg">
<g filter="url(#filter0_d)">
<rect x="4" width="230" height="50" rx="25" fill="#D90368"/>
<path d="M34.7237 18.4L29.2337 31H26.9297L21.4217 18.4H23.9597L28.1537 28.12L32.3837 18.4H34.7237ZM35.9252 21.388H38.1752V31H35.9252V21.388ZM37.0592 19.804C36.6512 19.804 36.3092 19.678 36.0332 19.426C35.7572 19.162 35.6192 18.838 35.6192 18.454C35.6192 18.07 35.7572 17.752 36.0332 17.5C36.3092 17.236 36.6512 17.104 37.0592 17.104C37.4672 17.104 37.8092 17.23 38.0852 17.482C38.3612 17.722 38.4992 18.028 38.4992 18.4C38.4992 18.796 38.3612 19.132 38.0852 19.408C37.8212 19.672 37.4792 19.804 37.0592 19.804ZM50.1643 26.248C50.1643 26.404 50.1523 26.626 50.1283 26.914H42.5863C42.7183 27.622 43.0603 28.186 43.6123 28.606C44.1763 29.014 44.8723 29.218 45.7003 29.218C46.7563 29.218 47.6263 28.87 48.3103 28.174L49.5163 29.56C49.0843 30.076 48.5383 30.466 47.8783 30.73C47.2183 30.994 46.4743 31.126 45.6463 31.126C44.5903 31.126 43.6603 30.916 42.8563 30.496C42.0523 30.076 41.4283 29.494 40.9843 28.75C40.5523 27.994 40.3363 27.142 40.3363 26.194C40.3363 25.258 40.5463 24.418 40.9663 23.674C41.3983 22.918 41.9923 22.33 42.7483 21.91C43.5043 21.49 44.3563 21.28 45.3043 21.28C46.2403 21.28 47.0743 21.49 47.8063 21.91C48.5503 22.318 49.1263 22.9 49.5343 23.656C49.9543 24.4 50.1643 25.264 50.1643 26.248ZM45.3043 23.08C44.5843 23.08 43.9723 23.296 43.4683 23.728C42.9763 24.148 42.6763 24.712 42.5683 25.42H48.0223C47.9263 24.724 47.6323 24.16 47.1403 23.728C46.6483 23.296 46.0363 23.08 45.3043 23.08ZM67.1438 21.388L63.5978 31H61.4378L58.9538 24.376L56.4338 31H54.2738L50.7458 21.388H52.8698L55.4078 28.48L58.0538 21.388H59.9438L62.5358 28.516L65.1458 21.388H67.1438ZM76.2215 20.362V24.196H82.3055V26.176H76.2215V31H73.8815V18.4H83.0795V20.362H76.2215ZM94.1687 21.388V31H92.0267V29.776C91.6667 30.208 91.2167 30.544 90.6767 30.784C90.1367 31.012 89.5547 31.126 88.9307 31.126C87.6467 31.126 86.6327 30.772 85.8887 30.064C85.1567 29.344 84.7907 28.282 84.7907 26.878V21.388H87.0407V26.572C87.0407 27.436 87.2327 28.084 87.6167 28.516C88.0127 28.936 88.5707 29.146 89.2907 29.146C90.0947 29.146 90.7307 28.9 91.1987 28.408C91.6787 27.904 91.9187 27.184 91.9187 26.248V21.388H94.1687ZM97.1147 17.644H99.3647V31H97.1147V17.644ZM102.318 17.644H104.568V31H102.318V17.644ZM116.618 31.18C115.646 31.18 114.704 31.042 113.792 30.766C112.892 30.49 112.178 30.124 111.65 29.668L112.46 27.85C112.976 28.258 113.606 28.594 114.35 28.858C115.106 29.11 115.862 29.236 116.618 29.236C117.554 29.236 118.25 29.086 118.706 28.786C119.174 28.486 119.408 28.09 119.408 27.598C119.408 27.238 119.276 26.944 119.012 26.716C118.76 26.476 118.436 26.29 118.04 26.158C117.644 26.026 117.104 25.876 116.42 25.708C115.46 25.48 114.68 25.252 114.08 25.024C113.492 24.796 112.982 24.442 112.55 23.962C112.13 23.47 111.92 22.81 111.92 21.982C111.92 21.286 112.106 20.656 112.478 20.092C112.862 19.516 113.432 19.06 114.188 18.724C114.956 18.388 115.892 18.22 116.996 18.22C117.764 18.22 118.52 18.316 119.264 18.508C120.008 18.7 120.65 18.976 121.19 19.336L120.452 21.154C119.9 20.83 119.324 20.584 118.724 20.416C118.124 20.248 117.542 20.164 116.978 20.164C116.054 20.164 115.364 20.32 114.908 20.632C114.464 20.944 114.242 21.358 114.242 21.874C114.242 22.234 114.368 22.528 114.62 22.756C114.884 22.984 115.214 23.164 115.61 23.296C116.006 23.428 116.546 23.578 117.23 23.746C118.166 23.962 118.934 24.19 119.534 24.43C120.134 24.658 120.644 25.012 121.064 25.492C121.496 25.972 121.712 26.62 121.712 27.436C121.712 28.132 121.52 28.762 121.136 29.326C120.764 29.89 120.194 30.34 119.426 30.676C118.658 31.012 117.722 31.18 116.618 31.18ZM129.594 30.478C129.33 30.694 129.006 30.856 128.622 30.964C128.25 31.072 127.854 31.126 127.434 31.126C126.378 31.126 125.562 30.85 124.986 30.298C124.41 29.746 124.122 28.942 124.122 27.886V23.26H122.538V21.46H124.122V19.264H126.372V21.46H128.946V23.26H126.372V27.832C126.372 28.3 126.486 28.66 126.714 28.912C126.942 29.152 127.272 29.272 127.704 29.272C128.208 29.272 128.628 29.14 128.964 28.876L129.594 30.478ZM140.269 21.388L135.769 31.774C135.349 32.818 134.839 33.55 134.239 33.97C133.639 34.402 132.913 34.618 132.061 34.618C131.581 34.618 131.107 34.54 130.639 34.384C130.171 34.228 129.787 34.012 129.487 33.736L130.387 32.08C130.603 32.284 130.855 32.446 131.143 32.566C131.443 32.686 131.743 32.746 132.043 32.746C132.439 32.746 132.763 32.644 133.015 32.44C133.279 32.236 133.519 31.894 133.735 31.414L133.897 31.036L129.703 21.388H132.043L135.067 28.498L138.109 21.388H140.269ZM141.675 17.644H143.925V31H141.675V17.644ZM155.914 26.248C155.914 26.404 155.902 26.626 155.878 26.914H148.336C148.468 27.622 148.81 28.186 149.362 28.606C149.926 29.014 150.622 29.218 151.45 29.218C152.506 29.218 153.376 28.87 154.06 28.174L155.266 29.56C154.834 30.076 154.288 30.466 153.628 30.73C152.968 30.994 152.224 31.126 151.396 31.126C150.34 31.126 149.41 30.916 148.606 30.496C147.802 30.076 147.178 29.494 146.734 28.75C146.302 27.994 146.086 27.142 146.086 26.194C146.086 25.258 146.296 24.418 146.716 23.674C147.148 22.918 147.742 22.33 148.498 21.91C149.254 21.49 150.106 21.28 151.054 21.28C151.99 21.28 152.824 21.49 153.556 21.91C154.3 22.318 154.876 22.9 155.284 23.656C155.704 24.4 155.914 25.264 155.914 26.248ZM151.054 23.08C150.334 23.08 149.722 23.296 149.218 23.728C148.726 24.148 148.426 24.712 148.318 25.42H153.772C153.676 24.724 153.382 24.16 152.89 23.728C152.398 23.296 151.786 23.08 151.054 23.08ZM171.87 24.556H174.084V29.578C173.436 30.094 172.68 30.49 171.816 30.766C170.952 31.042 170.064 31.18 169.152 31.18C167.868 31.18 166.71 30.904 165.678 30.352C164.646 29.788 163.836 29.014 163.248 28.03C162.66 27.046 162.366 25.936 162.366 24.7C162.366 23.464 162.66 22.354 163.248 21.37C163.836 20.386 164.646 19.618 165.678 19.066C166.722 18.502 167.892 18.22 169.188 18.22C170.244 18.22 171.204 18.394 172.068 18.742C172.932 19.09 173.658 19.6 174.246 20.272L172.77 21.712C171.81 20.752 170.652 20.272 169.296 20.272C168.408 20.272 167.616 20.458 166.92 20.83C166.236 21.202 165.696 21.724 165.3 22.396C164.916 23.068 164.724 23.836 164.724 24.7C164.724 25.54 164.916 26.296 165.3 26.968C165.696 27.64 166.236 28.168 166.92 28.552C167.616 28.936 168.402 29.128 169.278 29.128C170.262 29.128 171.126 28.912 171.87 28.48V24.556ZM186.261 21.388V31H184.119V29.776C183.759 30.208 183.309 30.544 182.769 30.784C182.229 31.012 181.647 31.126 181.023 31.126C179.739 31.126 178.725 30.772 177.981 30.064C177.249 29.344 176.883 28.282 176.883 26.878V21.388H179.133V26.572C179.133 27.436 179.325 28.084 179.709 28.516C180.105 28.936 180.663 29.146 181.383 29.146C182.187 29.146 182.823 28.9 183.291 28.408C183.771 27.904 184.011 27.184 184.011 26.248V21.388H186.261ZM189.206 21.388H191.456V31H189.206V21.388ZM190.34 19.804C189.932 19.804 189.59 19.678 189.314 19.426C189.038 19.162 188.9 18.838 188.9 18.454C188.9 18.07 189.038 17.752 189.314 17.5C189.59 17.236 189.932 17.104 190.34 17.104C190.748 17.104 191.09 17.23 191.366 17.482C191.642 17.722 191.78 18.028 191.78 18.4C191.78 18.796 191.642 19.132 191.366 19.408C191.102 19.672 190.76 19.804 190.34 19.804ZM203.824 17.644V31H201.664V29.758C201.292 30.214 200.83 30.556 200.278 30.784C199.738 31.012 199.138 31.126 198.478 31.126C197.554 31.126 196.72 30.922 195.976 30.514C195.244 30.106 194.668 29.53 194.248 28.786C193.828 28.03 193.618 27.166 193.618 26.194C193.618 25.222 193.828 24.364 194.248 23.62C194.668 22.876 195.244 22.3 195.976 21.892C196.72 21.484 197.554 21.28 198.478 21.28C199.114 21.28 199.696 21.388 200.224 21.604C200.752 21.82 201.202 22.144 201.574 22.576V17.644H203.824ZM198.748 29.2C199.288 29.2 199.774 29.08 200.206 28.84C200.638 28.588 200.98 28.234 201.232 27.778C201.484 27.322 201.61 26.794 201.61 26.194C201.61 25.594 201.484 25.066 201.232 24.61C200.98 24.154 200.638 23.806 200.206 23.566C199.774 23.314 199.288 23.188 198.748 23.188C198.208 23.188 197.722 23.314 197.29 23.566C196.858 23.806 196.516 24.154 196.264 24.61C196.012 25.066 195.886 25.594 195.886 26.194C195.886 26.794 196.012 27.322 196.264 27.778C196.516 28.234 196.858 28.588 197.29 28.84C197.722 29.08 198.208 29.2 198.748 29.2ZM215.803 26.248C215.803 26.404 215.791 26.626 215.767 26.914H208.225C208.357 27.622 208.699 28.186 209.251 28.606C209.815 29.014 210.511 29.218 211.339 29.218C212.395 29.218 213.265 28.87 213.949 28.174L215.155 29.56C214.723 30.076 214.177 30.466 213.517 30.73C212.857 30.994 212.113 31.126 211.285 31.126C210.229 31.126 209.299 30.916 208.495 30.496C207.691 30.076 207.067 29.494 206.623 28.75C206.191 27.994 205.975 27.142 205.975 26.194C205.975 25.258 206.185 24.418 206.605 23.674C207.037 22.918 207.631 22.33 208.387 21.91C209.143 21.49 209.995 21.28 210.943 21.28C211.879 21.28 212.713 21.49 213.445 21.91C214.189 22.318 214.765 22.9 215.173 23.656C215.593 24.4 215.803 25.264 215.803 26.248ZM210.943 23.08C210.223 23.08 209.611 23.296 209.107 23.728C208.615 24.148 208.315 24.712 208.207 25.42H213.661C213.565 24.724 213.271 24.16 212.779 23.728C212.287 23.296 211.675 23.08 210.943 23.08Z" fill="white"/>
</g>
<defs>
<filter id="filter0_d" x="0" y="0" width="238" height="58" filterUnits="userSpaceOnUse" color-interpolation-filters="sRGB">
<feFlood flood-opacity="0" result="BackgroundImageFix"/>
<feColorMatrix in="SourceAlpha" type="matrix" values="0 0 0 0 0 0 0 0 0 0 0 0 0 0 0 0 0 0 127 0"/>
<feOffset dy="4"/>
<feGaussianBlur stdDeviation="2"/>
<feColorMatrix type="matrix" values="0 0 0 0 0 0 0 0 0 0 0 0 0 0 0 0 0 0 0.25 0"/>
<feBlend mode="normal" in2="BackgroundImageFix" result="effect1_dropShadow"/>
<feBlend mode="normal" in="SourceGraphic" in2="effect1_dropShadow" result="shape"/>
</filter>
</defs>
</svg>
