<svg width="299" height="65" viewBox="0 0 299 65" fill="none" xmlns="http://www.w3.org/2000/svg">
<path d="M0 0H289C294.523 0 299 4.47715 299 10V55C299 60.5228 294.523 65 289 65H0V0Z" fill="#FE7F2D"/>
<path d="M61.8012 45.54C60.0972 45.54 58.6332 45.3 57.4092 44.82C56.1852 44.316 55.1652 43.62 54.3492 42.732C53.5572 41.844 52.9692 40.8 52.5852 39.6C52.2012 38.4 52.0092 37.08 52.0092 35.64V20.052H56.5812V35.208C56.5812 36.336 56.7012 37.308 56.9412 38.124C57.2052 38.916 57.5652 39.564 58.0212 40.068C58.5012 40.572 59.0532 40.944 59.6772 41.184C60.3252 41.424 61.0452 41.544 61.8372 41.544C62.6292 41.544 63.3492 41.424 63.9972 41.184C64.6452 40.944 65.1972 40.572 65.6532 40.068C66.1332 39.564 66.4932 38.916 66.7332 38.124C66.9972 37.308 67.1292 36.336 67.1292 35.208V20.052H71.7012V35.64C71.7012 37.08 71.4972 38.4 71.0892 39.6C70.7052 40.8 70.1052 41.844 69.2892 42.732C68.4972 43.62 67.4772 44.316 66.2292 44.82C64.9812 45.3 63.5052 45.54 61.8012 45.54ZM82.0017 41.868C83.1537 41.868 83.9937 41.736 84.5217 41.472C85.0497 41.184 85.3137 40.704 85.3137 40.032C85.3137 39.408 85.0257 38.892 84.4497 38.484C83.8977 38.076 82.9737 37.632 81.6777 37.152C80.8857 36.864 80.1537 36.564 79.4817 36.252C78.8337 35.916 78.2697 35.532 77.7897 35.1C77.3097 34.668 76.9257 34.152 76.6377 33.552C76.3737 32.928 76.2417 32.172 76.2417 31.284C76.2417 29.556 76.8777 28.2 78.1497 27.216C79.4217 26.208 81.1497 25.704 83.3337 25.704C84.4377 25.704 85.4937 25.812 86.5017 26.028C87.5097 26.22 88.2657 26.412 88.7697 26.604L87.9777 30.132C87.4977 29.916 86.8857 29.724 86.1417 29.556C85.3977 29.364 84.5337 29.268 83.5497 29.268C82.6617 29.268 81.9417 29.424 81.3897 29.736C80.8377 30.024 80.5617 30.48 80.5617 31.104C80.5617 31.416 80.6097 31.692 80.7057 31.932C80.8257 32.172 81.0177 32.4 81.2817 32.616C81.5457 32.808 81.8937 33.012 82.3257 33.228C82.7577 33.42 83.2857 33.624 83.9097 33.84C84.9417 34.224 85.8177 34.608 86.5377 34.992C87.2577 35.352 87.8457 35.772 88.3017 36.252C88.7817 36.708 89.1297 37.236 89.3457 37.836C89.5617 38.436 89.6697 39.156 89.6697 39.996C89.6697 41.796 88.9977 43.164 87.6537 44.1C86.3337 45.012 84.4377 45.468 81.9657 45.468C80.3097 45.468 78.9777 45.324 77.9697 45.036C76.9617 44.772 76.2537 44.556 75.8457 44.388L76.6017 40.752C77.2497 41.016 78.0177 41.268 78.9057 41.508C79.8177 41.748 80.8497 41.868 82.0017 41.868ZM92.6948 35.676C92.6948 34.02 92.9348 32.568 93.4148 31.32C93.9188 30.072 94.5788 29.04 95.3948 28.224C96.2108 27.384 97.1468 26.76 98.2028 26.352C99.2588 25.92 100.339 25.704 101.443 25.704C104.035 25.704 106.051 26.508 107.491 28.116C108.955 29.724 109.687 32.124 109.687 35.316C109.687 35.556 109.675 35.832 109.651 36.144C109.651 36.432 109.639 36.696 109.615 36.936H97.1948C97.3148 38.448 97.8428 39.624 98.7788 40.464C99.7388 41.28 101.119 41.688 102.919 41.688C103.975 41.688 104.935 41.592 105.799 41.4C106.687 41.208 107.383 41.004 107.887 40.788L108.463 44.352C108.223 44.472 107.887 44.604 107.455 44.748C107.047 44.868 106.567 44.976 106.015 45.072C105.487 45.192 104.911 45.288 104.287 45.36C103.663 45.432 103.027 45.468 102.379 45.468C100.723 45.468 99.2828 45.228 98.0588 44.748C96.8348 44.244 95.8268 43.56 95.0348 42.696C94.2428 41.808 93.6548 40.776 93.2708 39.6C92.8868 38.4 92.6948 37.092 92.6948 35.676ZM105.331 33.732C105.331 33.132 105.247 32.568 105.079 32.04C104.911 31.488 104.659 31.02 104.323 30.636C104.011 30.228 103.615 29.916 103.135 29.7C102.679 29.46 102.127 29.34 101.479 29.34C100.807 29.34 100.219 29.472 99.7148 29.736C99.2108 29.976 98.7788 30.3 98.4188 30.708C98.0828 31.116 97.8188 31.584 97.6268 32.112C97.4348 32.64 97.3028 33.18 97.2308 33.732H105.331ZM125.033 30.096C124.673 29.976 124.169 29.856 123.521 29.736C122.897 29.592 122.165 29.52 121.325 29.52C120.845 29.52 120.329 29.568 119.777 29.664C119.249 29.76 118.877 29.844 118.661 29.916V45H114.305V27.072C115.145 26.76 116.189 26.472 117.437 26.208C118.709 25.92 120.113 25.776 121.649 25.776C121.937 25.776 122.273 25.8 122.657 25.848C123.041 25.872 123.425 25.92 123.809 25.992C124.193 26.04 124.565 26.112 124.925 26.208C125.285 26.28 125.573 26.352 125.789 26.424L125.033 30.096ZM143.491 41.616C145.123 41.616 146.311 41.34 147.055 40.788C147.799 40.236 148.171 39.456 148.171 38.448C148.171 37.848 148.039 37.332 147.775 36.9C147.535 36.468 147.175 36.084 146.695 35.748C146.239 35.388 145.675 35.064 145.003 34.776C144.331 34.464 143.563 34.164 142.699 33.876C141.835 33.564 140.995 33.228 140.179 32.868C139.387 32.484 138.679 32.016 138.055 31.464C137.455 30.912 136.963 30.252 136.579 29.484C136.219 28.716 136.039 27.792 136.039 26.712C136.039 24.456 136.819 22.692 138.379 21.42C139.939 20.124 142.063 19.476 144.751 19.476C146.311 19.476 147.691 19.656 148.891 20.016C150.115 20.352 151.075 20.724 151.771 21.132L150.367 24.804C149.551 24.348 148.651 24 147.667 23.76C146.707 23.52 145.711 23.4 144.679 23.4C143.455 23.4 142.495 23.652 141.799 24.156C141.127 24.66 140.791 25.368 140.791 26.28C140.791 26.832 140.899 27.312 141.115 27.72C141.355 28.104 141.679 28.452 142.087 28.764C142.519 29.076 143.011 29.364 143.563 29.628C144.139 29.892 144.763 30.144 145.435 30.384C146.611 30.816 147.655 31.26 148.567 31.716C149.503 32.148 150.283 32.676 150.907 33.3C151.555 33.9 152.047 34.62 152.383 35.46C152.719 36.276 152.887 37.272 152.887 38.448C152.887 40.704 152.083 42.456 150.475 43.704C148.891 44.928 146.563 45.54 143.491 45.54C142.459 45.54 141.511 45.468 140.647 45.324C139.807 45.204 139.051 45.048 138.379 44.856C137.731 44.664 137.167 44.472 136.687 44.28C136.207 44.064 135.823 43.872 135.535 43.704L136.867 39.996C137.515 40.356 138.391 40.716 139.495 41.076C140.599 41.436 141.931 41.616 143.491 41.616ZM172.112 44.424C171.272 44.64 170.18 44.856 168.836 45.072C167.492 45.312 166.016 45.432 164.408 45.432C162.896 45.432 161.624 45.216 160.592 44.784C159.584 44.352 158.768 43.752 158.144 42.984C157.544 42.216 157.112 41.304 156.848 40.248C156.584 39.168 156.452 37.992 156.452 36.72V26.172H160.808V36.036C160.808 38.052 161.096 39.492 161.672 40.356C162.272 41.22 163.304 41.652 164.768 41.652C165.296 41.652 165.848 41.628 166.424 41.58C167.024 41.532 167.468 41.472 167.756 41.4V26.172H172.112V44.424ZM188.385 30.096C188.025 29.976 187.521 29.856 186.873 29.736C186.249 29.592 185.517 29.52 184.677 29.52C184.197 29.52 183.681 29.568 183.129 29.664C182.601 29.76 182.229 29.844 182.013 29.916V45H177.657V27.072C178.497 26.76 179.541 26.472 180.789 26.208C182.061 25.92 183.465 25.776 185.001 25.776C185.289 25.776 185.625 25.8 186.009 25.848C186.393 25.872 186.777 25.92 187.161 25.992C187.545 26.04 187.917 26.112 188.277 26.208C188.637 26.28 188.925 26.352 189.141 26.424L188.385 30.096ZM197.633 45C196.433 42.528 195.197 39.696 193.925 36.504C192.677 33.288 191.537 29.844 190.505 26.172H195.149C195.413 27.228 195.713 28.368 196.049 29.592C196.409 30.792 196.781 32.004 197.165 33.228C197.573 34.428 197.981 35.604 198.389 36.756C198.821 37.884 199.217 38.904 199.577 39.816C199.937 38.904 200.321 37.884 200.729 36.756C201.137 35.604 201.533 34.428 201.917 33.228C202.325 32.004 202.709 30.792 203.069 29.592C203.429 28.368 203.741 27.228 204.005 26.172H208.505C207.473 29.844 206.321 33.288 205.049 36.504C203.801 39.696 202.577 42.528 201.377 45H197.633ZM210.292 35.676C210.292 34.02 210.532 32.568 211.012 31.32C211.516 30.072 212.176 29.04 212.992 28.224C213.808 27.384 214.744 26.76 215.8 26.352C216.856 25.92 217.936 25.704 219.04 25.704C221.632 25.704 223.648 26.508 225.088 28.116C226.552 29.724 227.284 32.124 227.284 35.316C227.284 35.556 227.272 35.832 227.248 36.144C227.248 36.432 227.236 36.696 227.212 36.936H214.792C214.912 38.448 215.44 39.624 216.376 40.464C217.336 41.28 218.716 41.688 220.516 41.688C221.572 41.688 222.532 41.592 223.396 41.4C224.284 41.208 224.98 41.004 225.484 40.788L226.06 44.352C225.82 44.472 225.484 44.604 225.052 44.748C224.644 44.868 224.164 44.976 223.612 45.072C223.084 45.192 222.508 45.288 221.884 45.36C221.26 45.432 220.624 45.468 219.976 45.468C218.32 45.468 216.88 45.228 215.656 44.748C214.432 44.244 213.424 43.56 212.632 42.696C211.84 41.808 211.252 40.776 210.868 39.6C210.484 38.4 210.292 37.092 210.292 35.676ZM222.928 33.732C222.928 33.132 222.844 32.568 222.676 32.04C222.508 31.488 222.256 31.02 221.92 30.636C221.608 30.228 221.212 29.916 220.732 29.7C220.276 29.46 219.724 29.34 219.076 29.34C218.404 29.34 217.816 29.472 217.312 29.736C216.808 29.976 216.376 30.3 216.016 30.708C215.68 31.116 215.416 31.584 215.224 32.112C215.032 32.64 214.9 33.18 214.828 33.732H222.928ZM247.275 26.172C245.331 33.324 243.075 39.804 240.507 45.612C240.027 46.692 239.535 47.616 239.031 48.384C238.527 49.152 237.963 49.788 237.339 50.292C236.715 50.796 236.019 51.156 235.251 51.372C234.483 51.612 233.595 51.732 232.587 51.732C231.915 51.732 231.243 51.66 230.571 51.516C229.923 51.372 229.431 51.216 229.095 51.048L229.887 47.556C230.751 47.892 231.603 48.06 232.443 48.06C233.571 48.06 234.447 47.784 235.071 47.232C235.719 46.704 236.283 45.876 236.763 44.748C235.395 42.108 234.075 39.228 232.803 36.108C231.555 32.988 230.439 29.676 229.455 26.172H234.099C234.339 27.18 234.627 28.272 234.963 29.448C235.323 30.624 235.707 31.824 236.115 33.048C236.523 34.248 236.955 35.448 237.411 36.648C237.867 37.848 238.323 38.964 238.779 39.996C239.547 37.86 240.267 35.592 240.939 33.192C241.611 30.768 242.223 28.428 242.775 26.172H247.275Z" fill="white"/>
</svg>
