<svg width="250" height="58" viewBox="0 0 250 58" fill="none" xmlns="http://www.w3.org/2000/svg">
<g filter="url(#filter0_d)">
<rect x="12" width="227" height="50" rx="25" fill="#D90368"/>
</g>
<path d="M41.4123 18.4L35.9223 31H33.6183L28.1103 18.4H30.6483L34.8423 28.12L39.0723 18.4H41.4123ZM42.6138 21.388H44.8638V31H42.6138V21.388ZM43.7478 19.804C43.3398 19.804 42.9978 19.678 42.7218 19.426C42.4458 19.162 42.3078 18.838 42.3078 18.454C42.3078 18.07 42.4458 17.752 42.7218 17.5C42.9978 17.236 43.3398 17.104 43.7478 17.104C44.1558 17.104 44.4978 17.23 44.7738 17.482C45.0498 17.722 45.1878 18.028 45.1878 18.4C45.1878 18.796 45.0498 19.132 44.7738 19.408C44.5098 19.672 44.1678 19.804 43.7478 19.804ZM56.8529 26.248C56.8529 26.404 56.8409 26.626 56.8169 26.914H49.2749C49.4069 27.622 49.7489 28.186 50.3009 28.606C50.8649 29.014 51.5609 29.218 52.3889 29.218C53.4449 29.218 54.3149 28.87 54.9989 28.174L56.2049 29.56C55.7729 30.076 55.2269 30.466 54.5669 30.73C53.9069 30.994 53.1629 31.126 52.3349 31.126C51.2789 31.126 50.3489 30.916 49.5449 30.496C48.7409 30.076 48.1169 29.494 47.6729 28.75C47.2409 27.994 47.0249 27.142 47.0249 26.194C47.0249 25.258 47.2349 24.418 47.6549 23.674C48.0869 22.918 48.6809 22.33 49.4369 21.91C50.1929 21.49 51.0449 21.28 51.9929 21.28C52.9289 21.28 53.7629 21.49 54.4949 21.91C55.2389 22.318 55.8149 22.9 56.2229 23.656C56.6429 24.4 56.8529 25.264 56.8529 26.248ZM51.9929 23.08C51.2729 23.08 50.6609 23.296 50.1569 23.728C49.6649 24.148 49.3649 24.712 49.2569 25.42H54.7109C54.6149 24.724 54.3209 24.16 53.8289 23.728C53.3369 23.296 52.7249 23.08 51.9929 23.08ZM73.8324 21.388L70.2864 31H68.1264L65.6424 24.376L63.1224 31H60.9624L57.4344 21.388H59.5584L62.0964 28.48L64.7424 21.388H66.6324L69.2244 28.516L71.8344 21.388H73.8324ZM84.476 31.18C83.504 31.18 82.562 31.042 81.65 30.766C80.75 30.49 80.036 30.124 79.508 29.668L80.318 27.85C80.834 28.258 81.464 28.594 82.208 28.858C82.964 29.11 83.72 29.236 84.476 29.236C85.412 29.236 86.108 29.086 86.564 28.786C87.032 28.486 87.266 28.09 87.266 27.598C87.266 27.238 87.134 26.944 86.87 26.716C86.618 26.476 86.294 26.29 85.898 26.158C85.502 26.026 84.962 25.876 84.278 25.708C83.318 25.48 82.538 25.252 81.938 25.024C81.35 24.796 80.84 24.442 80.408 23.962C79.988 23.47 79.778 22.81 79.778 21.982C79.778 21.286 79.964 20.656 80.336 20.092C80.72 19.516 81.29 19.06 82.046 18.724C82.814 18.388 83.75 18.22 84.854 18.22C85.622 18.22 86.378 18.316 87.122 18.508C87.866 18.7 88.508 18.976 89.048 19.336L88.31 21.154C87.758 20.83 87.182 20.584 86.582 20.416C85.982 20.248 85.4 20.164 84.836 20.164C83.912 20.164 83.222 20.32 82.766 20.632C82.322 20.944 82.1 21.358 82.1 21.874C82.1 22.234 82.226 22.528 82.478 22.756C82.742 22.984 83.072 23.164 83.468 23.296C83.864 23.428 84.404 23.578 85.088 23.746C86.024 23.962 86.792 24.19 87.392 24.43C87.992 24.658 88.502 25.012 88.922 25.492C89.354 25.972 89.57 26.62 89.57 27.436C89.57 28.132 89.378 28.762 88.994 29.326C88.622 29.89 88.052 30.34 87.284 30.676C86.516 31.012 85.58 31.18 84.476 31.18ZM100.98 21.388V31H98.8383V29.776C98.4783 30.208 98.0283 30.544 97.4883 30.784C96.9483 31.012 96.3663 31.126 95.7423 31.126C94.4583 31.126 93.4443 30.772 92.7003 30.064C91.9683 29.344 91.6023 28.282 91.6023 26.878V21.388H93.8523V26.572C93.8523 27.436 94.0443 28.084 94.4283 28.516C94.8243 28.936 95.3823 29.146 96.1023 29.146C96.9063 29.146 97.5423 28.9 98.0103 28.408C98.4903 27.904 98.7303 27.184 98.7303 26.248V21.388H100.98ZM106.068 22.792C106.716 21.784 107.856 21.28 109.488 21.28V23.422C109.296 23.386 109.122 23.368 108.966 23.368C108.09 23.368 107.406 23.626 106.914 24.142C106.422 24.646 106.176 25.378 106.176 26.338V31H103.926V21.388H106.068V22.792ZM120.749 21.388L116.627 31H114.305L110.183 21.388H112.523L115.511 28.516L118.589 21.388H120.749ZM130.927 26.248C130.927 26.404 130.915 26.626 130.891 26.914H123.349C123.481 27.622 123.823 28.186 124.375 28.606C124.939 29.014 125.635 29.218 126.463 29.218C127.519 29.218 128.389 28.87 129.073 28.174L130.279 29.56C129.847 30.076 129.301 30.466 128.641 30.73C127.981 30.994 127.237 31.126 126.409 31.126C125.353 31.126 124.423 30.916 123.619 30.496C122.815 30.076 122.191 29.494 121.747 28.75C121.315 27.994 121.099 27.142 121.099 26.194C121.099 25.258 121.309 24.418 121.729 23.674C122.161 22.918 122.755 22.33 123.511 21.91C124.267 21.49 125.119 21.28 126.067 21.28C127.003 21.28 127.837 21.49 128.569 21.91C129.313 22.318 129.889 22.9 130.297 23.656C130.717 24.4 130.927 25.264 130.927 26.248ZM126.067 23.08C125.347 23.08 124.735 23.296 124.231 23.728C123.739 24.148 123.439 24.712 123.331 25.42H128.785C128.689 24.724 128.395 24.16 127.903 23.728C127.411 23.296 126.799 23.08 126.067 23.08ZM141.913 21.388L137.413 31.774C136.993 32.818 136.483 33.55 135.883 33.97C135.283 34.402 134.557 34.618 133.705 34.618C133.225 34.618 132.751 34.54 132.283 34.384C131.815 34.228 131.431 34.012 131.131 33.736L132.031 32.08C132.247 32.284 132.499 32.446 132.787 32.566C133.087 32.686 133.387 32.746 133.687 32.746C134.083 32.746 134.407 32.644 134.659 32.44C134.923 32.236 135.163 31.894 135.379 31.414L135.541 31.036L131.347 21.388H133.687L136.711 28.498L139.753 21.388H141.913ZM156.681 28.084H150.381L149.139 31H146.727L152.397 18.4H154.701L160.389 31H157.941L156.681 28.084ZM155.907 26.248L153.531 20.74L151.173 26.248H155.907ZM167.23 21.28C168.442 21.28 169.414 21.634 170.146 22.342C170.878 23.05 171.244 24.1 171.244 25.492V31H168.994V25.78C168.994 24.94 168.796 24.31 168.4 23.89C168.004 23.458 167.44 23.242 166.708 23.242C165.88 23.242 165.226 23.494 164.746 23.998C164.266 24.49 164.026 25.204 164.026 26.14V31H161.776V21.388H163.918V22.63C164.29 22.186 164.758 21.85 165.322 21.622C165.886 21.394 166.522 21.28 167.23 21.28ZM177.77 21.28C179.186 21.28 180.266 21.622 181.01 22.306C181.766 22.978 182.144 23.998 182.144 25.366V31H180.02V29.83C179.744 30.25 179.348 30.574 178.832 30.802C178.328 31.018 177.716 31.126 176.996 31.126C176.276 31.126 175.646 31.006 175.106 30.766C174.566 30.514 174.146 30.172 173.846 29.74C173.558 29.296 173.414 28.798 173.414 28.246C173.414 27.382 173.732 26.692 174.368 26.176C175.016 25.648 176.03 25.384 177.41 25.384H179.894V25.24C179.894 24.568 179.69 24.052 179.282 23.692C178.886 23.332 178.292 23.152 177.5 23.152C176.96 23.152 176.426 23.236 175.898 23.404C175.382 23.572 174.944 23.806 174.584 24.106L173.702 22.468C174.206 22.084 174.812 21.79 175.52 21.586C176.228 21.382 176.978 21.28 177.77 21.28ZM177.464 29.488C178.028 29.488 178.526 29.362 178.958 29.11C179.402 28.846 179.714 28.474 179.894 27.994V26.878H177.572C176.276 26.878 175.628 27.304 175.628 28.156C175.628 28.564 175.79 28.888 176.114 29.128C176.438 29.368 176.888 29.488 177.464 29.488ZM185.032 17.644H187.282V31H185.032V17.644ZM199.235 21.388L194.735 31.774C194.315 32.818 193.805 33.55 193.205 33.97C192.605 34.402 191.879 34.618 191.027 34.618C190.547 34.618 190.073 34.54 189.605 34.384C189.137 34.228 188.753 34.012 188.453 33.736L189.353 32.08C189.569 32.284 189.821 32.446 190.109 32.566C190.409 32.686 190.709 32.746 191.009 32.746C191.405 32.746 191.729 32.644 191.981 32.44C192.245 32.236 192.485 31.894 192.701 31.414L192.863 31.036L188.669 21.388H191.009L194.033 28.498L197.075 21.388H199.235ZM203.488 31.126C202.708 31.126 201.946 31.024 201.202 30.82C200.458 30.616 199.864 30.358 199.42 30.046L200.284 28.336C200.716 28.624 201.232 28.858 201.832 29.038C202.444 29.206 203.044 29.29 203.632 29.29C204.976 29.29 205.648 28.936 205.648 28.228C205.648 27.892 205.474 27.658 205.126 27.526C204.79 27.394 204.244 27.268 203.488 27.148C202.696 27.028 202.048 26.89 201.544 26.734C201.052 26.578 200.62 26.308 200.248 25.924C199.888 25.528 199.708 24.982 199.708 24.286C199.708 23.374 200.086 22.648 200.842 22.108C201.61 21.556 202.642 21.28 203.938 21.28C204.598 21.28 205.258 21.358 205.918 21.514C206.578 21.658 207.118 21.856 207.538 22.108L206.674 23.818C205.858 23.338 204.94 23.098 203.92 23.098C203.26 23.098 202.756 23.2 202.408 23.404C202.072 23.596 201.904 23.854 201.904 24.178C201.904 24.538 202.084 24.796 202.444 24.952C202.816 25.096 203.386 25.234 204.154 25.366C204.922 25.486 205.552 25.624 206.044 25.78C206.536 25.936 206.956 26.2 207.304 26.572C207.664 26.944 207.844 27.472 207.844 28.156C207.844 29.056 207.454 29.776 206.674 30.316C205.894 30.856 204.832 31.126 203.488 31.126ZM209.782 21.388H212.032V31H209.782V21.388ZM210.916 19.804C210.508 19.804 210.166 19.678 209.89 19.426C209.614 19.162 209.476 18.838 209.476 18.454C209.476 18.07 209.614 17.752 209.89 17.5C210.166 17.236 210.508 17.104 210.916 17.104C211.324 17.104 211.666 17.23 211.942 17.482C212.218 17.722 212.356 18.028 212.356 18.4C212.356 18.796 212.218 19.132 211.942 19.408C211.678 19.672 211.336 19.804 210.916 19.804ZM217.955 31.126C217.175 31.126 216.413 31.024 215.669 30.82C214.925 30.616 214.331 30.358 213.887 30.046L214.751 28.336C215.183 28.624 215.699 28.858 216.299 29.038C216.911 29.206 217.511 29.29 218.099 29.29C219.443 29.29 220.115 28.936 220.115 28.228C220.115 27.892 219.941 27.658 219.593 27.526C219.257 27.394 218.711 27.268 217.955 27.148C217.163 27.028 216.515 26.89 216.011 26.734C215.519 26.578 215.087 26.308 214.715 25.924C214.355 25.528 214.175 24.982 214.175 24.286C214.175 23.374 214.553 22.648 215.309 22.108C216.077 21.556 217.109 21.28 218.405 21.28C219.065 21.28 219.725 21.358 220.385 21.514C221.045 21.658 221.585 21.856 222.005 22.108L221.141 23.818C220.325 23.338 219.407 23.098 218.387 23.098C217.727 23.098 217.223 23.2 216.875 23.404C216.539 23.596 216.371 23.854 216.371 24.178C216.371 24.538 216.551 24.796 216.911 24.952C217.283 25.096 217.853 25.234 218.621 25.366C219.389 25.486 220.019 25.624 220.511 25.78C221.003 25.936 221.423 26.2 221.771 26.572C222.131 26.944 222.311 27.472 222.311 28.156C222.311 29.056 221.921 29.776 221.141 30.316C220.361 30.856 219.299 31.126 217.955 31.126Z" fill="white"/>
<defs>
<filter id="filter0_d" x="8" y="0" width="235" height="58" filterUnits="userSpaceOnUse" color-interpolation-filters="sRGB">
<feFlood flood-opacity="0" result="BackgroundImageFix"/>
<feColorMatrix in="SourceAlpha" type="matrix" values="0 0 0 0 0 0 0 0 0 0 0 0 0 0 0 0 0 0 127 0"/>
<feOffset dy="4"/>
<feGaussianBlur stdDeviation="2"/>
<feColorMatrix type="matrix" values="0 0 0 0 0 0 0 0 0 0 0 0 0 0 0 0 0 0 0.25 0"/>
<feBlend mode="normal" in2="BackgroundImageFix" result="effect1_dropShadow"/>
<feBlend mode="normal" in="SourceGraphic" in2="effect1_dropShadow" result="shape"/>
</filter>
</defs>
</svg>
