<svg width="463" height="65" viewBox="0 0 463 65" fill="none" xmlns="http://www.w3.org/2000/svg">
<path d="M0 0H453C458.523 0 463 4.47715 463 10V55C463 60.5228 458.523 65 453 65H0V0Z" fill="#FE7F2D"/>
<path d="M57.4047 45.54C55.7007 45.54 54.2367 45.3 53.0127 44.82C51.7887 44.316 50.7687 43.62 49.9527 42.732C49.1607 41.844 48.5727 40.8 48.1887 39.6C47.8047 38.4 47.6127 37.08 47.6127 35.64V20.052H52.1847V35.208C52.1847 36.336 52.3047 37.308 52.5447 38.124C52.8087 38.916 53.1687 39.564 53.6247 40.068C54.1047 40.572 54.6567 40.944 55.2807 41.184C55.9287 41.424 56.6487 41.544 57.4407 41.544C58.2327 41.544 58.9527 41.424 59.6007 41.184C60.2487 40.944 60.8007 40.572 61.2567 40.068C61.7367 39.564 62.0967 38.916 62.3367 38.124C62.6007 37.308 62.7327 36.336 62.7327 35.208V20.052H67.3047V35.64C67.3047 37.08 67.1007 38.4 66.6927 39.6C66.3087 40.8 65.7087 41.844 64.8927 42.732C64.1007 43.62 63.0807 44.316 61.8327 44.82C60.5847 45.3 59.1087 45.54 57.4047 45.54ZM77.6052 41.868C78.7572 41.868 79.5972 41.736 80.1252 41.472C80.6532 41.184 80.9172 40.704 80.9172 40.032C80.9172 39.408 80.6292 38.892 80.0532 38.484C79.5012 38.076 78.5772 37.632 77.2812 37.152C76.4892 36.864 75.7572 36.564 75.0852 36.252C74.4372 35.916 73.8732 35.532 73.3932 35.1C72.9132 34.668 72.5292 34.152 72.2412 33.552C71.9772 32.928 71.8452 32.172 71.8452 31.284C71.8452 29.556 72.4812 28.2 73.7532 27.216C75.0252 26.208 76.7532 25.704 78.9372 25.704C80.0412 25.704 81.0972 25.812 82.1052 26.028C83.1132 26.22 83.8692 26.412 84.3732 26.604L83.5812 30.132C83.1012 29.916 82.4892 29.724 81.7452 29.556C81.0012 29.364 80.1372 29.268 79.1532 29.268C78.2652 29.268 77.5452 29.424 76.9932 29.736C76.4412 30.024 76.1652 30.48 76.1652 31.104C76.1652 31.416 76.2132 31.692 76.3092 31.932C76.4292 32.172 76.6212 32.4 76.8852 32.616C77.1492 32.808 77.4972 33.012 77.9292 33.228C78.3612 33.42 78.8892 33.624 79.5132 33.84C80.5452 34.224 81.4212 34.608 82.1412 34.992C82.8612 35.352 83.4492 35.772 83.9052 36.252C84.3852 36.708 84.7332 37.236 84.9492 37.836C85.1652 38.436 85.2732 39.156 85.2732 39.996C85.2732 41.796 84.6012 43.164 83.2572 44.1C81.9372 45.012 80.0412 45.468 77.5692 45.468C75.9132 45.468 74.5812 45.324 73.5732 45.036C72.5652 44.772 71.8572 44.556 71.4492 44.388L72.2052 40.752C72.8532 41.016 73.6212 41.268 74.5092 41.508C75.4212 41.748 76.4532 41.868 77.6052 41.868ZM95.9663 41.94C97.3103 41.94 98.3303 41.868 99.0263 41.724V36.9C98.7863 36.828 98.4383 36.756 97.9823 36.684C97.5263 36.612 97.0223 36.576 96.4703 36.576C95.9903 36.576 95.4983 36.612 94.9943 36.684C94.5143 36.756 94.0703 36.888 93.6623 37.08C93.2783 37.272 92.9663 37.548 92.7263 37.908C92.4863 38.244 92.3663 38.676 92.3663 39.204C92.3663 40.236 92.6903 40.956 93.3383 41.364C93.9863 41.748 94.8623 41.94 95.9663 41.94ZM95.6063 25.704C97.0463 25.704 98.2583 25.884 99.2423 26.244C100.226 26.604 101.006 27.108 101.582 27.756C102.182 28.404 102.602 29.196 102.842 30.132C103.106 31.044 103.238 32.052 103.238 33.156V44.568C102.566 44.712 101.546 44.88 100.178 45.072C98.8343 45.288 97.3103 45.396 95.6063 45.396C94.4783 45.396 93.4463 45.288 92.5103 45.072C91.5743 44.856 90.7703 44.508 90.0983 44.028C89.4503 43.548 88.9343 42.924 88.5503 42.156C88.1903 41.388 88.0103 40.44 88.0103 39.312C88.0103 38.232 88.2143 37.32 88.6223 36.576C89.0543 35.832 89.6303 35.232 90.3503 34.776C91.0703 34.296 91.8983 33.96 92.8343 33.768C93.7943 33.552 94.7903 33.444 95.8223 33.444C96.3023 33.444 96.8063 33.48 97.3343 33.552C97.8623 33.6 98.4263 33.696 99.0263 33.84V33.12C99.0263 32.616 98.9663 32.136 98.8463 31.68C98.7263 31.224 98.5103 30.828 98.1983 30.492C97.9103 30.132 97.5143 29.856 97.0103 29.664C96.5303 29.472 95.9183 29.376 95.1743 29.376C94.1663 29.376 93.2423 29.448 92.4023 29.592C91.5623 29.736 90.8783 29.904 90.3503 30.096L89.8103 26.568C90.3623 26.376 91.1663 26.184 92.2223 25.992C93.2783 25.8 94.4063 25.704 95.6063 25.704ZM121.065 35.532C121.065 33.684 120.693 32.22 119.949 31.14C119.229 30.06 118.077 29.52 116.493 29.52C115.773 29.52 115.089 29.628 114.441 29.844C113.817 30.06 113.313 30.3 112.929 30.564V41.4C113.241 41.472 113.637 41.544 114.117 41.616C114.621 41.664 115.221 41.688 115.917 41.688C117.525 41.688 118.785 41.148 119.697 40.068C120.609 38.964 121.065 37.452 121.065 35.532ZM125.529 35.604C125.529 37.116 125.301 38.484 124.845 39.708C124.413 40.908 123.777 41.94 122.937 42.804C122.121 43.668 121.125 44.328 119.949 44.784C118.773 45.24 117.441 45.468 115.953 45.468C114.513 45.468 113.133 45.36 111.813 45.144C110.517 44.928 109.437 44.688 108.573 44.424V17.784L112.929 17.064V26.82C113.433 26.556 114.045 26.316 114.765 26.1C115.509 25.884 116.325 25.776 117.213 25.776C118.533 25.776 119.709 26.016 120.741 26.496C121.797 26.952 122.673 27.612 123.369 28.476C124.065 29.34 124.593 30.384 124.953 31.608C125.337 32.808 125.529 34.14 125.529 35.604ZM134.41 45H130.054V26.172H134.41V45ZM134.878 20.664C134.878 21.48 134.614 22.128 134.086 22.608C133.558 23.088 132.934 23.328 132.214 23.328C131.47 23.328 130.834 23.088 130.306 22.608C129.778 22.128 129.514 21.48 129.514 20.664C129.514 19.824 129.778 19.164 130.306 18.684C130.834 18.204 131.47 17.964 132.214 17.964C132.934 17.964 133.558 18.204 134.086 18.684C134.614 19.164 134.878 19.824 134.878 20.664ZM146.519 45.36C145.223 45.336 144.143 45.192 143.279 44.928C142.439 44.664 141.767 44.292 141.263 43.812C140.759 43.308 140.399 42.696 140.183 41.976C139.991 41.232 139.895 40.392 139.895 39.456V17.784L144.251 17.064V38.628C144.251 39.156 144.287 39.6 144.359 39.96C144.455 40.32 144.611 40.632 144.827 40.896C145.043 41.136 145.331 41.328 145.691 41.472C146.075 41.592 146.555 41.688 147.131 41.76L146.519 45.36ZM155.047 45H150.691V26.172H155.047V45ZM155.515 20.664C155.515 21.48 155.251 22.128 154.723 22.608C154.195 23.088 153.571 23.328 152.851 23.328C152.107 23.328 151.471 23.088 150.943 22.608C150.415 22.128 150.151 21.48 150.151 20.664C150.151 19.824 150.415 19.164 150.943 18.684C151.471 18.204 152.107 17.964 152.851 17.964C153.571 17.964 154.195 18.204 154.723 18.684C155.251 19.164 155.515 19.824 155.515 20.664ZM160.388 21.204L164.744 20.484V26.172H171.44V29.808H164.744V37.476C164.744 38.988 164.984 40.068 165.464 40.716C165.944 41.364 166.76 41.688 167.912 41.688C168.704 41.688 169.4 41.604 170 41.436C170.624 41.268 171.116 41.112 171.476 40.968L172.196 44.424C171.692 44.64 171.032 44.856 170.216 45.072C169.4 45.312 168.44 45.432 167.336 45.432C165.992 45.432 164.864 45.252 163.952 44.892C163.064 44.532 162.356 44.016 161.828 43.344C161.3 42.648 160.928 41.82 160.712 40.86C160.496 39.876 160.388 38.76 160.388 37.512V21.204ZM191.023 26.172C189.079 33.324 186.823 39.804 184.255 45.612C183.775 46.692 183.283 47.616 182.779 48.384C182.275 49.152 181.711 49.788 181.087 50.292C180.463 50.796 179.767 51.156 178.999 51.372C178.231 51.612 177.343 51.732 176.335 51.732C175.663 51.732 174.991 51.66 174.319 51.516C173.671 51.372 173.179 51.216 172.843 51.048L173.635 47.556C174.499 47.892 175.351 48.06 176.191 48.06C177.319 48.06 178.195 47.784 178.819 47.232C179.467 46.704 180.031 45.876 180.511 44.748C179.143 42.108 177.823 39.228 176.551 36.108C175.303 32.988 174.187 29.676 173.203 26.172H177.847C178.087 27.18 178.375 28.272 178.711 29.448C179.071 30.624 179.455 31.824 179.863 33.048C180.271 34.248 180.703 35.448 181.159 36.648C181.615 37.848 182.071 38.964 182.527 39.996C183.295 37.86 184.015 35.592 184.687 33.192C185.359 30.768 185.971 28.428 186.523 26.172H191.023ZM220.325 20.052V23.976H212.657V45H208.085V23.976H200.417V20.052H220.325ZM220.556 35.676C220.556 34.02 220.796 32.568 221.276 31.32C221.78 30.072 222.44 29.04 223.256 28.224C224.072 27.384 225.008 26.76 226.064 26.352C227.12 25.92 228.2 25.704 229.304 25.704C231.896 25.704 233.912 26.508 235.352 28.116C236.816 29.724 237.548 32.124 237.548 35.316C237.548 35.556 237.536 35.832 237.512 36.144C237.512 36.432 237.5 36.696 237.476 36.936H225.056C225.176 38.448 225.704 39.624 226.64 40.464C227.6 41.28 228.98 41.688 230.78 41.688C231.836 41.688 232.796 41.592 233.66 41.4C234.548 41.208 235.244 41.004 235.748 40.788L236.324 44.352C236.084 44.472 235.748 44.604 235.316 44.748C234.908 44.868 234.428 44.976 233.876 45.072C233.348 45.192 232.772 45.288 232.148 45.36C231.524 45.432 230.888 45.468 230.24 45.468C228.584 45.468 227.144 45.228 225.92 44.748C224.696 44.244 223.688 43.56 222.896 42.696C222.104 41.808 221.516 40.776 221.132 39.6C220.748 38.4 220.556 37.092 220.556 35.676ZM233.192 33.732C233.192 33.132 233.108 32.568 232.94 32.04C232.772 31.488 232.52 31.02 232.184 30.636C231.872 30.228 231.476 29.916 230.996 29.7C230.54 29.46 229.988 29.34 229.34 29.34C228.668 29.34 228.08 29.472 227.576 29.736C227.072 29.976 226.64 30.3 226.28 30.708C225.944 31.116 225.68 31.584 225.488 32.112C225.296 32.64 225.164 33.18 225.092 33.732H233.192ZM246.883 41.868C248.035 41.868 248.875 41.736 249.403 41.472C249.931 41.184 250.195 40.704 250.195 40.032C250.195 39.408 249.907 38.892 249.331 38.484C248.779 38.076 247.855 37.632 246.559 37.152C245.767 36.864 245.035 36.564 244.363 36.252C243.715 35.916 243.151 35.532 242.671 35.1C242.191 34.668 241.807 34.152 241.519 33.552C241.255 32.928 241.123 32.172 241.123 31.284C241.123 29.556 241.759 28.2 243.031 27.216C244.303 26.208 246.031 25.704 248.215 25.704C249.319 25.704 250.375 25.812 251.383 26.028C252.391 26.22 253.147 26.412 253.651 26.604L252.859 30.132C252.379 29.916 251.767 29.724 251.023 29.556C250.279 29.364 249.415 29.268 248.431 29.268C247.543 29.268 246.823 29.424 246.271 29.736C245.719 30.024 245.443 30.48 245.443 31.104C245.443 31.416 245.491 31.692 245.587 31.932C245.707 32.172 245.899 32.4 246.163 32.616C246.427 32.808 246.775 33.012 247.207 33.228C247.639 33.42 248.167 33.624 248.791 33.84C249.823 34.224 250.699 34.608 251.419 34.992C252.139 35.352 252.727 35.772 253.183 36.252C253.663 36.708 254.011 37.236 254.227 37.836C254.443 38.436 254.551 39.156 254.551 39.996C254.551 41.796 253.879 43.164 252.535 44.1C251.215 45.012 249.319 45.468 246.847 45.468C245.191 45.468 243.859 45.324 242.851 45.036C241.843 44.772 241.135 44.556 240.727 44.388L241.483 40.752C242.131 41.016 242.899 41.268 243.787 41.508C244.699 41.748 245.731 41.868 246.883 41.868ZM258.404 21.204L262.76 20.484V26.172H269.456V29.808H262.76V37.476C262.76 38.988 263 40.068 263.48 40.716C263.96 41.364 264.776 41.688 265.928 41.688C266.72 41.688 267.416 41.604 268.016 41.436C268.64 41.268 269.132 41.112 269.492 40.968L270.212 44.424C269.708 44.64 269.048 44.856 268.232 45.072C267.416 45.312 266.456 45.432 265.352 45.432C264.008 45.432 262.88 45.252 261.968 44.892C261.08 44.532 260.372 44.016 259.844 43.344C259.316 42.648 258.944 41.82 258.728 40.86C258.512 39.876 258.404 38.76 258.404 37.512V21.204ZM289.161 19.8C292.761 19.8 295.509 20.46 297.405 21.78C299.325 23.1 300.285 25.116 300.285 27.828C300.285 31.212 298.617 33.504 295.281 34.704C295.737 35.256 296.253 35.928 296.829 36.72C297.405 37.512 297.993 38.376 298.593 39.312C299.193 40.224 299.769 41.172 300.321 42.156C300.873 43.116 301.365 44.064 301.797 45H296.721C296.265 44.136 295.773 43.272 295.245 42.408C294.717 41.52 294.177 40.668 293.625 39.852C293.097 39.012 292.569 38.232 292.041 37.512C291.513 36.768 291.021 36.108 290.565 35.532C290.229 35.556 289.941 35.568 289.701 35.568C289.461 35.568 289.233 35.568 289.017 35.568H286.821V45H282.285V20.412C283.389 20.172 284.565 20.016 285.813 19.944C287.061 19.848 288.177 19.8 289.161 19.8ZM289.485 23.724C288.525 23.724 287.637 23.76 286.821 23.832V31.896H288.801C289.905 31.896 290.877 31.836 291.717 31.716C292.557 31.596 293.253 31.38 293.805 31.068C294.381 30.756 294.813 30.336 295.101 29.808C295.389 29.28 295.533 28.608 295.533 27.792C295.533 27.024 295.389 26.376 295.101 25.848C294.813 25.32 294.393 24.9 293.841 24.588C293.313 24.276 292.677 24.06 291.933 23.94C291.189 23.796 290.373 23.724 289.485 23.724ZM322.124 35.568C322.124 37.056 321.908 38.412 321.476 39.636C321.044 40.86 320.432 41.904 319.64 42.768C318.848 43.632 317.888 44.304 316.76 44.784C315.656 45.264 314.432 45.504 313.088 45.504C311.744 45.504 310.52 45.264 309.416 44.784C308.312 44.304 307.364 43.632 306.572 42.768C305.78 41.904 305.156 40.86 304.7 39.636C304.268 38.412 304.052 37.056 304.052 35.568C304.052 34.08 304.268 32.736 304.7 31.536C305.156 30.312 305.78 29.268 306.572 28.404C307.388 27.54 308.348 26.88 309.452 26.424C310.556 25.944 311.768 25.704 313.088 25.704C314.408 25.704 315.62 25.944 316.724 26.424C317.852 26.88 318.812 27.54 319.604 28.404C320.396 29.268 321.008 30.312 321.44 31.536C321.896 32.736 322.124 34.08 322.124 35.568ZM317.66 35.568C317.66 33.696 317.252 32.22 316.436 31.14C315.644 30.036 314.528 29.484 313.088 29.484C311.648 29.484 310.52 30.036 309.704 31.14C308.912 32.22 308.516 33.696 308.516 35.568C308.516 37.464 308.912 38.964 309.704 40.068C310.52 41.172 311.648 41.724 313.088 41.724C314.528 41.724 315.644 41.172 316.436 40.068C317.252 38.964 317.66 37.464 317.66 35.568ZM342.056 44.424C341.216 44.64 340.124 44.856 338.78 45.072C337.436 45.312 335.96 45.432 334.352 45.432C332.84 45.432 331.568 45.216 330.536 44.784C329.528 44.352 328.712 43.752 328.088 42.984C327.488 42.216 327.056 41.304 326.792 40.248C326.528 39.168 326.396 37.992 326.396 36.72V26.172H330.752V36.036C330.752 38.052 331.04 39.492 331.616 40.356C332.216 41.22 333.248 41.652 334.712 41.652C335.24 41.652 335.792 41.628 336.368 41.58C336.968 41.532 337.412 41.472 337.7 41.4V26.172H342.056V44.424ZM347.6 26.784C348.44 26.544 349.532 26.316 350.876 26.1C352.22 25.884 353.708 25.776 355.34 25.776C356.876 25.776 358.16 25.992 359.192 26.424C360.224 26.832 361.04 27.42 361.64 28.188C362.264 28.932 362.696 29.844 362.936 30.924C363.2 31.98 363.332 33.144 363.332 34.416V45H358.976V35.1C358.976 34.092 358.904 33.24 358.76 32.544C358.64 31.824 358.424 31.248 358.112 30.816C357.824 30.36 357.416 30.036 356.888 29.844C356.384 29.628 355.76 29.52 355.016 29.52C354.464 29.52 353.888 29.556 353.288 29.628C352.688 29.7 352.244 29.76 351.956 29.808V45H347.6V26.784ZM372.079 35.532C372.079 37.452 372.535 38.964 373.447 40.068C374.359 41.148 375.619 41.688 377.227 41.688C377.923 41.688 378.511 41.664 378.991 41.616C379.495 41.544 379.903 41.472 380.215 41.4V30.6C379.831 30.336 379.315 30.096 378.667 29.88C378.043 29.64 377.371 29.52 376.651 29.52C375.067 29.52 373.903 30.06 373.159 31.14C372.439 32.22 372.079 33.684 372.079 35.532ZM384.571 44.424C383.707 44.688 382.615 44.928 381.295 45.144C379.999 45.36 378.631 45.468 377.191 45.468C375.703 45.468 374.371 45.24 373.195 44.784C372.019 44.328 371.011 43.68 370.171 42.84C369.355 41.976 368.719 40.944 368.263 39.744C367.831 38.52 367.615 37.152 367.615 35.64C367.615 34.152 367.795 32.808 368.155 31.608C368.539 30.384 369.091 29.34 369.811 28.476C370.531 27.612 371.407 26.952 372.439 26.496C373.471 26.016 374.659 25.776 376.003 25.776C376.915 25.776 377.719 25.884 378.415 26.1C379.111 26.316 379.711 26.556 380.215 26.82V17.784L384.571 17.064V44.424ZM413.05 26.532C413.05 27.396 412.87 28.248 412.51 29.088C412.15 29.904 411.682 30.708 411.106 31.5C410.554 32.268 409.918 33.024 409.198 33.768C408.478 34.488 407.758 35.196 407.038 35.892C406.654 36.252 406.222 36.684 405.742 37.188C405.262 37.692 404.806 38.196 404.374 38.7C403.942 39.204 403.57 39.696 403.258 40.176C402.946 40.632 402.778 41.016 402.754 41.328H413.842V45H397.966C397.942 44.808 397.93 44.58 397.93 44.316C397.93 44.028 397.93 43.812 397.93 43.668C397.93 42.516 398.11 41.46 398.47 40.5C398.854 39.516 399.346 38.604 399.946 37.764C400.546 36.924 401.218 36.132 401.962 35.388C402.706 34.644 403.45 33.912 404.194 33.192C404.77 32.64 405.322 32.1 405.85 31.572C406.378 31.044 406.834 30.528 407.218 30.024C407.626 29.496 407.95 28.968 408.19 28.44C408.43 27.888 408.55 27.324 408.55 26.748C408.55 25.5 408.19 24.612 407.47 24.084C406.75 23.556 405.874 23.292 404.842 23.292C404.17 23.292 403.546 23.388 402.97 23.58C402.394 23.772 401.878 24 401.422 24.264C400.99 24.528 400.606 24.804 400.27 25.092C399.934 25.356 399.682 25.572 399.514 25.74L397.354 22.68C398.362 21.72 399.538 20.952 400.882 20.376C402.25 19.776 403.714 19.476 405.274 19.476C407.938 19.476 409.894 20.112 411.142 21.384C412.414 22.632 413.05 24.348 413.05 26.532Z" fill="white"/>
</svg>
