<svg width="375" height="65" viewBox="0 0 375 65" fill="none" xmlns="http://www.w3.org/2000/svg">
<path d="M-1 0H365C370.523 0 375 4.47715 375 10V55C375 60.5228 370.523 65 365 65H-1V0Z" fill="#FE7F2D"/>
<path d="M53.0043 43.54C51.3003 43.54 49.8363 43.3 48.6123 42.82C47.3883 42.316 46.3683 41.62 45.5523 40.732C44.7603 39.844 44.1723 38.8 43.7883 37.6C43.4043 36.4 43.2123 35.08 43.2123 33.64V18.052H47.7843V33.208C47.7843 34.336 47.9043 35.308 48.1443 36.124C48.4083 36.916 48.7683 37.564 49.2243 38.068C49.7043 38.572 50.2563 38.944 50.8803 39.184C51.5283 39.424 52.2483 39.544 53.0403 39.544C53.8323 39.544 54.5523 39.424 55.2003 39.184C55.8483 38.944 56.4003 38.572 56.8563 38.068C57.3363 37.564 57.6963 36.916 57.9363 36.124C58.2003 35.308 58.3323 34.336 58.3323 33.208V18.052H62.9043V33.64C62.9043 35.08 62.7003 36.4 62.2923 37.6C61.9083 38.8 61.3083 39.844 60.4923 40.732C59.7003 41.62 58.6803 42.316 57.4323 42.82C56.1843 43.3 54.7083 43.54 53.0043 43.54ZM73.2048 39.868C74.3568 39.868 75.1968 39.736 75.7248 39.472C76.2528 39.184 76.5168 38.704 76.5168 38.032C76.5168 37.408 76.2288 36.892 75.6528 36.484C75.1008 36.076 74.1768 35.632 72.8808 35.152C72.0888 34.864 71.3568 34.564 70.6848 34.252C70.0368 33.916 69.4728 33.532 68.9928 33.1C68.5128 32.668 68.1288 32.152 67.8408 31.552C67.5768 30.928 67.4448 30.172 67.4448 29.284C67.4448 27.556 68.0808 26.2 69.3528 25.216C70.6248 24.208 72.3528 23.704 74.5368 23.704C75.6408 23.704 76.6968 23.812 77.7048 24.028C78.7128 24.22 79.4688 24.412 79.9728 24.604L79.1808 28.132C78.7008 27.916 78.0888 27.724 77.3448 27.556C76.6008 27.364 75.7368 27.268 74.7528 27.268C73.8648 27.268 73.1448 27.424 72.5928 27.736C72.0408 28.024 71.7648 28.48 71.7648 29.104C71.7648 29.416 71.8128 29.692 71.9088 29.932C72.0288 30.172 72.2208 30.4 72.4848 30.616C72.7488 30.808 73.0968 31.012 73.5288 31.228C73.9608 31.42 74.4888 31.624 75.1128 31.84C76.1448 32.224 77.0208 32.608 77.7408 32.992C78.4608 33.352 79.0488 33.772 79.5048 34.252C79.9848 34.708 80.3328 35.236 80.5488 35.836C80.7648 36.436 80.8728 37.156 80.8728 37.996C80.8728 39.796 80.2008 41.164 78.8568 42.1C77.5368 43.012 75.6408 43.468 73.1688 43.468C71.5128 43.468 70.1808 43.324 69.1728 43.036C68.1648 42.772 67.4568 42.556 67.0488 42.388L67.8048 38.752C68.4528 39.016 69.2208 39.268 70.1088 39.508C71.0208 39.748 72.0528 39.868 73.2048 39.868ZM91.5659 39.94C92.9099 39.94 93.9299 39.868 94.6259 39.724V34.9C94.3859 34.828 94.0379 34.756 93.5819 34.684C93.1259 34.612 92.6219 34.576 92.0699 34.576C91.5899 34.576 91.0979 34.612 90.5939 34.684C90.1139 34.756 89.6699 34.888 89.2619 35.08C88.8779 35.272 88.5659 35.548 88.3259 35.908C88.0859 36.244 87.9659 36.676 87.9659 37.204C87.9659 38.236 88.2899 38.956 88.9379 39.364C89.5859 39.748 90.4619 39.94 91.5659 39.94ZM91.2059 23.704C92.6459 23.704 93.8579 23.884 94.8419 24.244C95.8259 24.604 96.6059 25.108 97.1819 25.756C97.7819 26.404 98.2019 27.196 98.4419 28.132C98.7059 29.044 98.8379 30.052 98.8379 31.156V42.568C98.1659 42.712 97.1459 42.88 95.7779 43.072C94.4339 43.288 92.9099 43.396 91.2059 43.396C90.0779 43.396 89.0459 43.288 88.1099 43.072C87.1739 42.856 86.3699 42.508 85.6979 42.028C85.0499 41.548 84.5339 40.924 84.1499 40.156C83.7899 39.388 83.6099 38.44 83.6099 37.312C83.6099 36.232 83.8139 35.32 84.2219 34.576C84.6539 33.832 85.2299 33.232 85.9499 32.776C86.6699 32.296 87.4979 31.96 88.4339 31.768C89.3939 31.552 90.3899 31.444 91.4219 31.444C91.9019 31.444 92.4059 31.48 92.9339 31.552C93.4619 31.6 94.0259 31.696 94.6259 31.84V31.12C94.6259 30.616 94.5659 30.136 94.4459 29.68C94.3259 29.224 94.1099 28.828 93.7979 28.492C93.5099 28.132 93.1139 27.856 92.6099 27.664C92.1299 27.472 91.5179 27.376 90.7739 27.376C89.7659 27.376 88.8419 27.448 88.0019 27.592C87.1619 27.736 86.4779 27.904 85.9499 28.096L85.4099 24.568C85.9619 24.376 86.7659 24.184 87.8219 23.992C88.8779 23.8 90.0059 23.704 91.2059 23.704ZM116.664 33.532C116.664 31.684 116.292 30.22 115.548 29.14C114.828 28.06 113.676 27.52 112.092 27.52C111.372 27.52 110.688 27.628 110.04 27.844C109.416 28.06 108.912 28.3 108.528 28.564V39.4C108.84 39.472 109.236 39.544 109.716 39.616C110.22 39.664 110.82 39.688 111.516 39.688C113.124 39.688 114.384 39.148 115.296 38.068C116.208 36.964 116.664 35.452 116.664 33.532ZM121.128 33.604C121.128 35.116 120.9 36.484 120.444 37.708C120.012 38.908 119.376 39.94 118.536 40.804C117.72 41.668 116.724 42.328 115.548 42.784C114.372 43.24 113.04 43.468 111.552 43.468C110.112 43.468 108.732 43.36 107.412 43.144C106.116 42.928 105.036 42.688 104.172 42.424V15.784L108.528 15.064V24.82C109.032 24.556 109.644 24.316 110.364 24.1C111.108 23.884 111.924 23.776 112.812 23.776C114.132 23.776 115.308 24.016 116.34 24.496C117.396 24.952 118.272 25.612 118.968 26.476C119.664 27.34 120.192 28.384 120.552 29.608C120.936 30.808 121.128 32.14 121.128 33.604ZM130.01 43H125.654V24.172H130.01V43ZM130.478 18.664C130.478 19.48 130.214 20.128 129.686 20.608C129.158 21.088 128.534 21.328 127.814 21.328C127.07 21.328 126.434 21.088 125.906 20.608C125.378 20.128 125.114 19.48 125.114 18.664C125.114 17.824 125.378 17.164 125.906 16.684C126.434 16.204 127.07 15.964 127.814 15.964C128.534 15.964 129.158 16.204 129.686 16.684C130.214 17.164 130.478 17.824 130.478 18.664ZM142.119 43.36C140.823 43.336 139.743 43.192 138.879 42.928C138.039 42.664 137.367 42.292 136.863 41.812C136.359 41.308 135.999 40.696 135.783 39.976C135.591 39.232 135.495 38.392 135.495 37.456V15.784L139.851 15.064V36.628C139.851 37.156 139.887 37.6 139.959 37.96C140.055 38.32 140.211 38.632 140.427 38.896C140.643 39.136 140.931 39.328 141.291 39.472C141.675 39.592 142.155 39.688 142.731 39.76L142.119 43.36ZM150.646 43H146.29V24.172H150.646V43ZM151.114 18.664C151.114 19.48 150.85 20.128 150.322 20.608C149.794 21.088 149.17 21.328 148.45 21.328C147.706 21.328 147.07 21.088 146.542 20.608C146.014 20.128 145.75 19.48 145.75 18.664C145.75 17.824 146.014 17.164 146.542 16.684C147.07 16.204 147.706 15.964 148.45 15.964C149.17 15.964 149.794 16.204 150.322 16.684C150.85 17.164 151.114 17.824 151.114 18.664ZM155.988 19.204L160.344 18.484V24.172H167.04V27.808H160.344V35.476C160.344 36.988 160.584 38.068 161.064 38.716C161.544 39.364 162.36 39.688 163.512 39.688C164.304 39.688 165 39.604 165.6 39.436C166.224 39.268 166.716 39.112 167.076 38.968L167.796 42.424C167.292 42.64 166.632 42.856 165.816 43.072C165 43.312 164.04 43.432 162.936 43.432C161.592 43.432 160.464 43.252 159.552 42.892C158.664 42.532 157.956 42.016 157.428 41.344C156.9 40.648 156.528 39.82 156.312 38.86C156.096 37.876 155.988 36.76 155.988 35.512V19.204ZM186.623 24.172C184.679 31.324 182.423 37.804 179.855 43.612C179.375 44.692 178.883 45.616 178.379 46.384C177.875 47.152 177.311 47.788 176.687 48.292C176.063 48.796 175.367 49.156 174.599 49.372C173.831 49.612 172.943 49.732 171.935 49.732C171.263 49.732 170.591 49.66 169.919 49.516C169.271 49.372 168.779 49.216 168.443 49.048L169.235 45.556C170.099 45.892 170.951 46.06 171.791 46.06C172.919 46.06 173.795 45.784 174.419 45.232C175.067 44.704 175.631 43.876 176.111 42.748C174.743 40.108 173.423 37.228 172.151 34.108C170.903 30.988 169.787 27.676 168.803 24.172H173.447C173.687 25.18 173.975 26.272 174.311 27.448C174.671 28.624 175.055 29.824 175.463 31.048C175.871 32.248 176.303 33.448 176.759 34.648C177.215 35.848 177.671 36.964 178.127 37.996C178.895 35.86 179.615 33.592 180.287 31.192C180.959 28.768 181.571 26.428 182.123 24.172H186.623ZM215.925 18.052V21.976H208.257V43H203.685V21.976H196.017V18.052H215.925ZM216.156 33.676C216.156 32.02 216.396 30.568 216.876 29.32C217.38 28.072 218.04 27.04 218.856 26.224C219.672 25.384 220.608 24.76 221.664 24.352C222.72 23.92 223.8 23.704 224.904 23.704C227.496 23.704 229.512 24.508 230.952 26.116C232.416 27.724 233.148 30.124 233.148 33.316C233.148 33.556 233.136 33.832 233.112 34.144C233.112 34.432 233.1 34.696 233.076 34.936H220.656C220.776 36.448 221.304 37.624 222.24 38.464C223.2 39.28 224.58 39.688 226.38 39.688C227.436 39.688 228.396 39.592 229.26 39.4C230.148 39.208 230.844 39.004 231.348 38.788L231.924 42.352C231.684 42.472 231.348 42.604 230.916 42.748C230.508 42.868 230.028 42.976 229.476 43.072C228.948 43.192 228.372 43.288 227.748 43.36C227.124 43.432 226.488 43.468 225.84 43.468C224.184 43.468 222.744 43.228 221.52 42.748C220.296 42.244 219.288 41.56 218.496 40.696C217.704 39.808 217.116 38.776 216.732 37.6C216.348 36.4 216.156 35.092 216.156 33.676ZM228.792 31.732C228.792 31.132 228.708 30.568 228.54 30.04C228.372 29.488 228.12 29.02 227.784 28.636C227.472 28.228 227.076 27.916 226.596 27.7C226.14 27.46 225.588 27.34 224.94 27.34C224.268 27.34 223.68 27.472 223.176 27.736C222.672 27.976 222.24 28.3 221.88 28.708C221.544 29.116 221.28 29.584 221.088 30.112C220.896 30.64 220.764 31.18 220.692 31.732H228.792ZM242.482 39.868C243.634 39.868 244.474 39.736 245.002 39.472C245.53 39.184 245.794 38.704 245.794 38.032C245.794 37.408 245.506 36.892 244.93 36.484C244.378 36.076 243.454 35.632 242.158 35.152C241.366 34.864 240.634 34.564 239.962 34.252C239.314 33.916 238.75 33.532 238.27 33.1C237.79 32.668 237.406 32.152 237.118 31.552C236.854 30.928 236.722 30.172 236.722 29.284C236.722 27.556 237.358 26.2 238.63 25.216C239.902 24.208 241.63 23.704 243.814 23.704C244.918 23.704 245.974 23.812 246.982 24.028C247.99 24.22 248.746 24.412 249.25 24.604L248.458 28.132C247.978 27.916 247.366 27.724 246.622 27.556C245.878 27.364 245.014 27.268 244.03 27.268C243.142 27.268 242.422 27.424 241.87 27.736C241.318 28.024 241.042 28.48 241.042 29.104C241.042 29.416 241.09 29.692 241.186 29.932C241.306 30.172 241.498 30.4 241.762 30.616C242.026 30.808 242.374 31.012 242.806 31.228C243.238 31.42 243.766 31.624 244.39 31.84C245.422 32.224 246.298 32.608 247.018 32.992C247.738 33.352 248.326 33.772 248.782 34.252C249.262 34.708 249.61 35.236 249.826 35.836C250.042 36.436 250.15 37.156 250.15 37.996C250.15 39.796 249.478 41.164 248.134 42.1C246.814 43.012 244.918 43.468 242.446 43.468C240.79 43.468 239.458 43.324 238.45 43.036C237.442 42.772 236.734 42.556 236.326 42.388L237.082 38.752C237.73 39.016 238.498 39.268 239.386 39.508C240.298 39.748 241.33 39.868 242.482 39.868ZM254.003 19.204L258.359 18.484V24.172H265.055V27.808H258.359V35.476C258.359 36.988 258.599 38.068 259.079 38.716C259.559 39.364 260.375 39.688 261.527 39.688C262.319 39.688 263.015 39.604 263.615 39.436C264.239 39.268 264.731 39.112 265.091 38.968L265.811 42.424C265.307 42.64 264.647 42.856 263.831 43.072C263.015 43.312 262.055 43.432 260.951 43.432C259.607 43.432 258.479 43.252 257.567 42.892C256.679 42.532 255.971 42.016 255.443 41.344C254.915 40.648 254.543 39.82 254.327 38.86C254.111 37.876 254.003 36.76 254.003 35.512V19.204ZM273.658 43H269.302V24.172H273.658V43ZM274.126 18.664C274.126 19.48 273.862 20.128 273.334 20.608C272.806 21.088 272.182 21.328 271.462 21.328C270.718 21.328 270.082 21.088 269.554 20.608C269.026 20.128 268.762 19.48 268.762 18.664C268.762 17.824 269.026 17.164 269.554 16.684C270.082 16.204 270.718 15.964 271.462 15.964C272.182 15.964 272.806 16.204 273.334 16.684C273.862 17.164 274.126 17.824 274.126 18.664ZM279.215 24.784C280.055 24.544 281.147 24.316 282.491 24.1C283.835 23.884 285.323 23.776 286.955 23.776C288.491 23.776 289.775 23.992 290.807 24.424C291.839 24.832 292.655 25.42 293.255 26.188C293.879 26.932 294.311 27.844 294.551 28.924C294.815 29.98 294.947 31.144 294.947 32.416V43H290.591V33.1C290.591 32.092 290.519 31.24 290.375 30.544C290.255 29.824 290.039 29.248 289.727 28.816C289.439 28.36 289.031 28.036 288.503 27.844C287.999 27.628 287.375 27.52 286.631 27.52C286.079 27.52 285.503 27.556 284.903 27.628C284.303 27.7 283.859 27.76 283.571 27.808V43H279.215V24.784ZM303.694 33.1C303.694 34.948 304.09 36.304 304.882 37.168C305.698 38.008 306.742 38.428 308.014 38.428C308.71 38.428 309.358 38.332 309.958 38.14C310.582 37.948 311.086 37.72 311.47 37.456V27.7C311.158 27.628 310.774 27.568 310.318 27.52C309.862 27.448 309.286 27.412 308.59 27.412C307.006 27.412 305.794 27.94 304.954 28.996C304.114 30.028 303.694 31.396 303.694 33.1ZM315.826 41.092C315.826 44.092 315.058 46.288 313.522 47.68C312.01 49.072 309.682 49.768 306.538 49.768C305.386 49.768 304.258 49.672 303.154 49.48C302.074 49.288 301.09 49.036 300.202 48.724L300.994 45.016C301.738 45.328 302.578 45.58 303.514 45.772C304.474 45.964 305.506 46.06 306.61 46.06C308.362 46.06 309.61 45.7 310.354 44.98C311.098 44.26 311.47 43.192 311.47 41.776V41.056C311.038 41.272 310.462 41.488 309.742 41.704C309.046 41.92 308.242 42.028 307.33 42.028C306.13 42.028 305.026 41.836 304.018 41.452C303.034 41.068 302.182 40.504 301.462 39.76C300.766 39.016 300.214 38.092 299.806 36.988C299.422 35.86 299.23 34.564 299.23 33.1C299.23 31.732 299.434 30.472 299.842 29.32C300.274 28.168 300.886 27.184 301.678 26.368C302.494 25.552 303.478 24.916 304.63 24.46C305.782 24.004 307.09 23.776 308.554 23.776C309.97 23.776 311.314 23.884 312.586 24.1C313.858 24.316 314.938 24.544 315.826 24.784V41.092Z" fill="white"/>
</svg>
