<svg width="178" height="58" viewBox="0 0 178 58" fill="none" xmlns="http://www.w3.org/2000/svg">
<g filter="url(#filter0_d)">
<rect x="4" width="170" height="50" rx="25" fill="#D90368"/>
</g>
<path d="M35.6394 19.362V23.196H41.7234V25.176H35.6394V30H33.2994V17.4H42.4974V19.362H35.6394ZM53.5867 20.388V30H51.4447V28.776C51.0847 29.208 50.6347 29.544 50.0947 29.784C49.5547 30.012 48.9727 30.126 48.3487 30.126C47.0647 30.126 46.0507 29.772 45.3067 29.064C44.5747 28.344 44.2087 27.282 44.2087 25.878V20.388H46.4587V25.572C46.4587 26.436 46.6507 27.084 47.0347 27.516C47.4307 27.936 47.9887 28.146 48.7087 28.146C49.5127 28.146 50.1487 27.9 50.6167 27.408C51.0967 26.904 51.3367 26.184 51.3367 25.248V20.388H53.5867ZM56.5326 16.644H58.7826V30H56.5326V16.644ZM61.7358 16.644H63.9858V30H61.7358V16.644ZM80.3015 27.084H74.0015L72.7595 30H70.3475L76.0175 17.4H78.3215L84.0095 30H81.5615L80.3015 27.084ZM79.5275 25.248L77.1515 19.74L74.7935 25.248H79.5275ZM90.8499 20.28C92.0619 20.28 93.0339 20.634 93.7659 21.342C94.4979 22.05 94.8639 23.1 94.8639 24.492V30H92.6139V24.78C92.6139 23.94 92.4159 23.31 92.0199 22.89C91.6239 22.458 91.0599 22.242 90.3279 22.242C89.4999 22.242 88.8459 22.494 88.3659 22.998C87.8859 23.49 87.6459 24.204 87.6459 25.14V30H85.3959V20.388H87.5379V21.63C87.9099 21.186 88.3779 20.85 88.9419 20.622C89.5059 20.394 90.1419 20.28 90.8499 20.28ZM101.39 20.28C102.806 20.28 103.886 20.622 104.63 21.306C105.386 21.978 105.764 22.998 105.764 24.366V30H103.64V28.83C103.364 29.25 102.968 29.574 102.452 29.802C101.948 30.018 101.336 30.126 100.616 30.126C99.8962 30.126 99.2662 30.006 98.7262 29.766C98.1862 29.514 97.7662 29.172 97.4662 28.74C97.1782 28.296 97.0342 27.798 97.0342 27.246C97.0342 26.382 97.3522 25.692 97.9882 25.176C98.6362 24.648 99.6502 24.384 101.03 24.384H103.514V24.24C103.514 23.568 103.31 23.052 102.902 22.692C102.506 22.332 101.912 22.152 101.12 22.152C100.58 22.152 100.046 22.236 99.5182 22.404C99.0022 22.572 98.5642 22.806 98.2042 23.106L97.3222 21.468C97.8262 21.084 98.4322 20.79 99.1402 20.586C99.8482 20.382 100.598 20.28 101.39 20.28ZM101.084 28.488C101.648 28.488 102.146 28.362 102.578 28.11C103.022 27.846 103.334 27.474 103.514 26.994V25.878H101.192C99.8962 25.878 99.2482 26.304 99.2482 27.156C99.2482 27.564 99.4102 27.888 99.7342 28.128C100.058 28.368 100.508 28.488 101.084 28.488ZM108.652 16.644H110.902V30H108.652V16.644ZM122.855 20.388L118.355 30.774C117.935 31.818 117.425 32.55 116.825 32.97C116.225 33.402 115.499 33.618 114.647 33.618C114.167 33.618 113.693 33.54 113.225 33.384C112.757 33.228 112.373 33.012 112.073 32.736L112.973 31.08C113.189 31.284 113.441 31.446 113.729 31.566C114.029 31.686 114.329 31.746 114.629 31.746C115.025 31.746 115.349 31.644 115.601 31.44C115.865 31.236 116.105 30.894 116.321 30.414L116.483 30.036L112.289 20.388H114.629L117.653 27.498L120.695 20.388H122.855ZM127.108 30.126C126.328 30.126 125.566 30.024 124.822 29.82C124.078 29.616 123.484 29.358 123.04 29.046L123.904 27.336C124.336 27.624 124.852 27.858 125.452 28.038C126.064 28.206 126.664 28.29 127.252 28.29C128.596 28.29 129.268 27.936 129.268 27.228C129.268 26.892 129.094 26.658 128.746 26.526C128.41 26.394 127.864 26.268 127.108 26.148C126.316 26.028 125.668 25.89 125.164 25.734C124.672 25.578 124.24 25.308 123.868 24.924C123.508 24.528 123.328 23.982 123.328 23.286C123.328 22.374 123.706 21.648 124.462 21.108C125.23 20.556 126.262 20.28 127.558 20.28C128.218 20.28 128.878 20.358 129.538 20.514C130.198 20.658 130.738 20.856 131.158 21.108L130.294 22.818C129.478 22.338 128.56 22.098 127.54 22.098C126.88 22.098 126.376 22.2 126.028 22.404C125.692 22.596 125.524 22.854 125.524 23.178C125.524 23.538 125.704 23.796 126.064 23.952C126.436 24.096 127.006 24.234 127.774 24.366C128.542 24.486 129.172 24.624 129.664 24.78C130.156 24.936 130.576 25.2 130.924 25.572C131.284 25.944 131.464 26.472 131.464 27.156C131.464 28.056 131.074 28.776 130.294 29.316C129.514 29.856 128.452 30.126 127.108 30.126ZM133.402 20.388H135.652V30H133.402V20.388ZM134.536 18.804C134.128 18.804 133.786 18.678 133.51 18.426C133.234 18.162 133.096 17.838 133.096 17.454C133.096 17.07 133.234 16.752 133.51 16.5C133.786 16.236 134.128 16.104 134.536 16.104C134.944 16.104 135.286 16.23 135.562 16.482C135.838 16.722 135.976 17.028 135.976 17.4C135.976 17.796 135.838 18.132 135.562 18.408C135.298 18.672 134.956 18.804 134.536 18.804ZM141.575 30.126C140.795 30.126 140.033 30.024 139.289 29.82C138.545 29.616 137.951 29.358 137.507 29.046L138.371 27.336C138.803 27.624 139.319 27.858 139.919 28.038C140.531 28.206 141.131 28.29 141.719 28.29C143.063 28.29 143.735 27.936 143.735 27.228C143.735 26.892 143.561 26.658 143.213 26.526C142.877 26.394 142.331 26.268 141.575 26.148C140.783 26.028 140.135 25.89 139.631 25.734C139.139 25.578 138.707 25.308 138.335 24.924C137.975 24.528 137.795 23.982 137.795 23.286C137.795 22.374 138.173 21.648 138.929 21.108C139.697 20.556 140.729 20.28 142.025 20.28C142.685 20.28 143.345 20.358 144.005 20.514C144.665 20.658 145.205 20.856 145.625 21.108L144.761 22.818C143.945 22.338 143.027 22.098 142.007 22.098C141.347 22.098 140.843 22.2 140.495 22.404C140.159 22.596 139.991 22.854 139.991 23.178C139.991 23.538 140.171 23.796 140.531 23.952C140.903 24.096 141.473 24.234 142.241 24.366C143.009 24.486 143.639 24.624 144.131 24.78C144.623 24.936 145.043 25.2 145.391 25.572C145.751 25.944 145.931 26.472 145.931 27.156C145.931 28.056 145.541 28.776 144.761 29.316C143.981 29.856 142.919 30.126 141.575 30.126Z" fill="white"/>
<defs>
<filter id="filter0_d" x="0" y="0" width="178" height="58" filterUnits="userSpaceOnUse" color-interpolation-filters="sRGB">
<feFlood flood-opacity="0" result="BackgroundImageFix"/>
<feColorMatrix in="SourceAlpha" type="matrix" values="0 0 0 0 0 0 0 0 0 0 0 0 0 0 0 0 0 0 127 0"/>
<feOffset dy="4"/>
<feGaussianBlur stdDeviation="2"/>
<feColorMatrix type="matrix" values="0 0 0 0 0 0 0 0 0 0 0 0 0 0 0 0 0 0 0.25 0"/>
<feBlend mode="normal" in2="BackgroundImageFix" result="effect1_dropShadow"/>
<feBlend mode="normal" in="SourceGraphic" in2="effect1_dropShadow" result="shape"/>
</filter>
</defs>
</svg>
