<svg width="290" height="65" viewBox="0 0 290 65" fill="none" xmlns="http://www.w3.org/2000/svg">
<path d="M0 0H280C285.523 0 290 4.47715 290 10V55C290 60.5228 285.523 65 280 65H0V0Z" fill="#FE7F2D"/>
<path d="M58.3548 20.86C58.7388 22.156 59.1468 23.512 59.5788 24.928C60.0108 26.32 60.4548 27.724 60.9108 29.14C61.3908 30.532 61.8588 31.912 62.3148 33.28C62.7948 34.624 63.2508 35.896 63.6828 37.096C64.0428 35.8 64.3908 34.396 64.7268 32.884C65.0628 31.348 65.3988 29.764 65.7348 28.132C66.0708 26.476 66.3948 24.796 66.7068 23.092C67.0428 21.388 67.3548 19.708 67.6428 18.052H72.3228C71.4828 22.564 70.5468 26.908 69.5148 31.084C68.4828 35.236 67.3308 39.208 66.0588 43H61.7388C59.8668 38.152 58.0548 32.86 56.3028 27.124C55.4148 30.028 54.5148 32.788 53.6028 35.404C52.6908 38.02 51.7788 40.552 50.8668 43H46.5468C45.2508 39.208 44.0868 35.236 43.0548 31.084C42.0468 26.908 41.1228 22.564 40.2828 18.052H45.1428C45.4308 19.684 45.7308 21.352 46.0428 23.056C46.3788 24.76 46.7148 26.44 47.0508 28.096C47.4108 29.728 47.7708 31.312 48.1308 32.848C48.4908 34.384 48.8508 35.8 49.2108 37.096C49.6668 35.872 50.1228 34.588 50.5788 33.244C51.0588 31.876 51.5268 30.496 51.9828 29.104C52.4388 27.688 52.8708 26.284 53.2788 24.892C53.7108 23.5 54.1068 22.156 54.4668 20.86H58.3548ZM80.332 43H75.976V24.172H80.332V43ZM80.8 18.664C80.8 19.48 80.536 20.128 80.008 20.608C79.48 21.088 78.856 21.328 78.136 21.328C77.392 21.328 76.756 21.088 76.228 20.608C75.7 20.128 75.436 19.48 75.436 18.664C75.436 17.824 75.7 17.164 76.228 16.684C76.756 16.204 77.392 15.964 78.136 15.964C78.856 15.964 79.48 16.204 80.008 16.684C80.536 17.164 80.8 17.824 80.8 18.664ZM96.6172 28.096C96.2572 27.976 95.7532 27.856 95.1052 27.736C94.4812 27.592 93.7492 27.52 92.9092 27.52C92.4292 27.52 91.9132 27.568 91.3612 27.664C90.8332 27.76 90.4612 27.844 90.2452 27.916V43H85.8892V25.072C86.7292 24.76 87.7732 24.472 89.0212 24.208C90.2932 23.92 91.6972 23.776 93.2332 23.776C93.5212 23.776 93.8572 23.8 94.2412 23.848C94.6252 23.872 95.0092 23.92 95.3932 23.992C95.7772 24.04 96.1492 24.112 96.5092 24.208C96.8692 24.28 97.1572 24.352 97.3732 24.424L96.6172 28.096ZM99.3647 33.676C99.3647 32.02 99.6047 30.568 100.085 29.32C100.589 28.072 101.249 27.04 102.065 26.224C102.881 25.384 103.817 24.76 104.873 24.352C105.929 23.92 107.009 23.704 108.113 23.704C110.705 23.704 112.721 24.508 114.161 26.116C115.625 27.724 116.357 30.124 116.357 33.316C116.357 33.556 116.345 33.832 116.321 34.144C116.321 34.432 116.309 34.696 116.285 34.936H103.865C103.985 36.448 104.513 37.624 105.449 38.464C106.409 39.28 107.789 39.688 109.589 39.688C110.645 39.688 111.605 39.592 112.469 39.4C113.357 39.208 114.053 39.004 114.557 38.788L115.133 42.352C114.893 42.472 114.557 42.604 114.125 42.748C113.717 42.868 113.237 42.976 112.685 43.072C112.157 43.192 111.581 43.288 110.957 43.36C110.333 43.432 109.697 43.468 109.049 43.468C107.393 43.468 105.953 43.228 104.729 42.748C103.505 42.244 102.497 41.56 101.705 40.696C100.913 39.808 100.325 38.776 99.9407 37.6C99.5567 36.4 99.3647 35.092 99.3647 33.676ZM112.001 31.732C112.001 31.132 111.917 30.568 111.749 30.04C111.581 29.488 111.329 29.02 110.993 28.636C110.681 28.228 110.285 27.916 109.805 27.7C109.349 27.46 108.797 27.34 108.149 27.34C107.477 27.34 106.889 27.472 106.385 27.736C105.881 27.976 105.449 28.3 105.089 28.708C104.753 29.116 104.489 29.584 104.297 30.112C104.105 30.64 103.973 31.18 103.901 31.732H112.001ZM128.643 15.064C129.651 15.064 130.539 15.16 131.307 15.352C132.075 15.52 132.651 15.676 133.035 15.82L132.207 19.42C131.799 19.228 131.319 19.072 130.767 18.952C130.239 18.832 129.663 18.772 129.039 18.772C128.343 18.772 127.755 18.88 127.275 19.096C126.795 19.288 126.411 19.564 126.123 19.924C125.835 20.284 125.631 20.728 125.511 21.256C125.391 21.76 125.331 22.312 125.331 22.912V24.172H132.171V27.808H125.331V43H120.975V22.84C120.975 20.416 121.611 18.52 122.883 17.152C124.155 15.76 126.075 15.064 128.643 15.064ZM146.117 28.096C145.757 27.976 145.253 27.856 144.605 27.736C143.981 27.592 143.249 27.52 142.409 27.52C141.929 27.52 141.413 27.568 140.861 27.664C140.333 27.76 139.961 27.844 139.745 27.916V43H135.389V25.072C136.229 24.76 137.273 24.472 138.521 24.208C139.793 23.92 141.197 23.776 142.733 23.776C143.021 23.776 143.357 23.8 143.741 23.848C144.125 23.872 144.509 23.92 144.893 23.992C145.277 24.04 145.649 24.112 146.009 24.208C146.369 24.28 146.657 24.352 146.873 24.424L146.117 28.096ZM156.533 39.94C157.877 39.94 158.897 39.868 159.593 39.724V34.9C159.353 34.828 159.005 34.756 158.549 34.684C158.093 34.612 157.589 34.576 157.037 34.576C156.557 34.576 156.065 34.612 155.561 34.684C155.081 34.756 154.637 34.888 154.229 35.08C153.845 35.272 153.533 35.548 153.293 35.908C153.053 36.244 152.933 36.676 152.933 37.204C152.933 38.236 153.257 38.956 153.905 39.364C154.553 39.748 155.429 39.94 156.533 39.94ZM156.173 23.704C157.613 23.704 158.825 23.884 159.809 24.244C160.793 24.604 161.573 25.108 162.149 25.756C162.749 26.404 163.169 27.196 163.409 28.132C163.673 29.044 163.805 30.052 163.805 31.156V42.568C163.133 42.712 162.113 42.88 160.745 43.072C159.401 43.288 157.877 43.396 156.173 43.396C155.045 43.396 154.013 43.288 153.077 43.072C152.141 42.856 151.337 42.508 150.665 42.028C150.017 41.548 149.501 40.924 149.117 40.156C148.757 39.388 148.577 38.44 148.577 37.312C148.577 36.232 148.781 35.32 149.189 34.576C149.621 33.832 150.197 33.232 150.917 32.776C151.637 32.296 152.465 31.96 153.401 31.768C154.361 31.552 155.357 31.444 156.389 31.444C156.869 31.444 157.373 31.48 157.901 31.552C158.429 31.6 158.993 31.696 159.593 31.84V31.12C159.593 30.616 159.533 30.136 159.413 29.68C159.293 29.224 159.077 28.828 158.765 28.492C158.477 28.132 158.081 27.856 157.577 27.664C157.097 27.472 156.485 27.376 155.741 27.376C154.733 27.376 153.809 27.448 152.969 27.592C152.129 27.736 151.445 27.904 150.917 28.096L150.377 24.568C150.929 24.376 151.733 24.184 152.789 23.992C153.845 23.8 154.973 23.704 156.173 23.704ZM179.867 33.1C179.867 31.132 179.615 29.716 179.111 28.852C178.631 27.964 177.719 27.52 176.375 27.52C175.895 27.52 175.367 27.556 174.791 27.628C174.215 27.7 173.783 27.76 173.495 27.808V43H169.139V24.784C169.979 24.544 171.071 24.316 172.415 24.1C173.783 23.884 175.223 23.776 176.735 23.776C178.031 23.776 179.087 23.944 179.903 24.28C180.743 24.616 181.439 25.06 181.991 25.612C182.255 25.42 182.591 25.216 182.999 25C183.407 24.784 183.863 24.592 184.367 24.424C184.871 24.232 185.399 24.076 185.951 23.956C186.527 23.836 187.103 23.776 187.679 23.776C189.143 23.776 190.343 23.992 191.279 24.424C192.239 24.832 192.983 25.42 193.511 26.188C194.063 26.932 194.435 27.844 194.627 28.924C194.843 29.98 194.951 31.144 194.951 32.416V43H190.595V33.1C190.595 31.132 190.355 29.716 189.875 28.852C189.395 27.964 188.471 27.52 187.103 27.52C186.407 27.52 185.747 27.64 185.123 27.88C184.499 28.096 184.031 28.312 183.719 28.528C183.911 29.128 184.043 29.764 184.115 30.436C184.187 31.108 184.223 31.828 184.223 32.596V43H179.867V33.1ZM204.68 43H200.324V24.172H204.68V43ZM205.148 18.664C205.148 19.48 204.884 20.128 204.356 20.608C203.828 21.088 203.204 21.328 202.484 21.328C201.74 21.328 201.104 21.088 200.576 20.608C200.048 20.128 199.784 19.48 199.784 18.664C199.784 17.824 200.048 17.164 200.576 16.684C201.104 16.204 201.74 15.964 202.484 15.964C203.204 15.964 203.828 16.204 204.356 16.684C204.884 17.164 205.148 17.824 205.148 18.664ZM210.237 24.784C211.077 24.544 212.169 24.316 213.513 24.1C214.857 23.884 216.345 23.776 217.977 23.776C219.513 23.776 220.797 23.992 221.829 24.424C222.861 24.832 223.677 25.42 224.277 26.188C224.901 26.932 225.333 27.844 225.573 28.924C225.837 29.98 225.969 31.144 225.969 32.416V43H221.613V33.1C221.613 32.092 221.541 31.24 221.397 30.544C221.277 29.824 221.061 29.248 220.749 28.816C220.461 28.36 220.053 28.036 219.525 27.844C219.021 27.628 218.397 27.52 217.653 27.52C217.101 27.52 216.525 27.556 215.925 27.628C215.325 27.7 214.881 27.76 214.593 27.808V43H210.237V24.784ZM234.715 33.1C234.715 34.948 235.111 36.304 235.903 37.168C236.719 38.008 237.763 38.428 239.035 38.428C239.731 38.428 240.379 38.332 240.979 38.14C241.603 37.948 242.107 37.72 242.491 37.456V27.7C242.179 27.628 241.795 27.568 241.339 27.52C240.883 27.448 240.307 27.412 239.611 27.412C238.027 27.412 236.815 27.94 235.975 28.996C235.135 30.028 234.715 31.396 234.715 33.1ZM246.847 41.092C246.847 44.092 246.079 46.288 244.543 47.68C243.031 49.072 240.703 49.768 237.559 49.768C236.407 49.768 235.279 49.672 234.175 49.48C233.095 49.288 232.111 49.036 231.223 48.724L232.015 45.016C232.759 45.328 233.599 45.58 234.535 45.772C235.495 45.964 236.527 46.06 237.631 46.06C239.383 46.06 240.631 45.7 241.375 44.98C242.119 44.26 242.491 43.192 242.491 41.776V41.056C242.059 41.272 241.483 41.488 240.763 41.704C240.067 41.92 239.263 42.028 238.351 42.028C237.151 42.028 236.047 41.836 235.039 41.452C234.055 41.068 233.203 40.504 232.483 39.76C231.787 39.016 231.235 38.092 230.827 36.988C230.443 35.86 230.251 34.564 230.251 33.1C230.251 31.732 230.455 30.472 230.863 29.32C231.295 28.168 231.907 27.184 232.699 26.368C233.515 25.552 234.499 24.916 235.651 24.46C236.803 24.004 238.111 23.776 239.575 23.776C240.991 23.776 242.335 23.884 243.607 24.1C244.879 24.316 245.959 24.544 246.847 24.784V41.092Z" fill="white"/>
</svg>
