<svg width="60" height="60" viewBox="0 0 60 60" fill="none" xmlns="http://www.w3.org/2000/svg">
<path d="M29.9975 18.4424C26.9316 18.4424 23.9913 19.6603 21.8233 21.8282C19.6554 23.9961 18.4375 26.9365 18.4375 30.0024C18.4375 33.0683 19.6554 36.0086 21.8233 38.1765C23.9913 40.3444 26.9316 41.5624 29.9975 41.5624C33.0634 41.5624 36.0037 40.3444 38.1717 38.1765C40.3396 36.0086 41.5575 33.0683 41.5575 30.0024C41.5575 26.9365 40.3396 23.9961 38.1717 21.8282C36.0037 19.6603 33.0634 18.4424 29.9975 18.4424ZM29.9975 37.5099C28.0057 37.5099 26.0955 36.7186 24.6871 35.3102C23.2787 33.9018 22.4875 31.9917 22.4875 29.9999C22.4875 28.0081 23.2787 26.0979 24.6871 24.6895C26.0955 23.2811 28.0057 22.4899 29.9975 22.4899C31.9893 22.4899 33.8995 23.2811 35.3079 24.6895C36.7163 26.0979 37.5075 28.0081 37.5075 29.9999C37.5075 31.9917 36.7163 33.9018 35.3079 35.3102C33.8995 36.7186 31.9893 37.5099 29.9975 37.5099Z" fill="white"/>
<path d="M42.015 20.7123C43.5034 20.7123 44.71 19.5057 44.71 18.0173C44.71 16.5289 43.5034 15.3223 42.015 15.3223C40.5266 15.3223 39.32 16.5289 39.32 18.0173C39.32 19.5057 40.5266 20.7123 42.015 20.7123Z" fill="white"/>
<path d="M51.3325 15.2777C50.7538 13.7831 49.8693 12.4259 48.7358 11.2928C47.6024 10.1598 46.2448 9.27587 44.75 8.6977C43.0008 8.04109 41.153 7.68605 39.285 7.6477C36.8775 7.5427 36.115 7.5127 30.01 7.5127C23.905 7.5127 23.1225 7.5127 20.735 7.6477C18.8685 7.68409 17.0219 8.0392 15.275 8.6977C13.7798 9.2752 12.4219 10.1589 11.2883 11.292C10.1548 12.4252 9.27058 13.7828 8.6925 15.2777C8.03577 17.0267 7.68154 18.8748 7.645 20.7427C7.5375 23.1477 7.505 23.9102 7.505 30.0177C7.505 36.1227 7.505 36.9002 7.645 39.2927C7.6825 41.1627 8.035 43.0077 8.6925 44.7602C9.2722 46.2546 10.1572 47.6116 11.2911 48.7446C12.4249 49.8776 13.7827 50.7616 15.2775 51.3402C17.0211 52.0232 18.8684 52.4036 20.74 52.4652C23.1475 52.5702 23.91 52.6027 30.015 52.6027C36.12 52.6027 36.9025 52.6027 39.29 52.4652C41.1578 52.4272 43.0056 52.073 44.755 51.4177C46.2494 50.8382 47.6066 49.9535 48.7399 48.8201C49.8733 47.6868 50.758 46.3296 51.3375 44.8352C51.995 43.0852 52.3475 41.2402 52.385 39.3702C52.4925 36.9652 52.525 36.2027 52.525 30.0952C52.525 23.9877 52.525 23.2127 52.385 20.8202C52.3559 18.9259 51.9998 17.0508 51.3325 15.2777ZM48.2875 39.1077C48.2714 40.5485 48.0084 41.9758 47.51 43.3277C47.1346 44.2999 46.5598 45.1827 45.8227 45.9194C45.0856 46.6561 44.2024 47.2303 43.23 47.6052C41.8931 48.1013 40.4809 48.3643 39.055 48.3827C36.68 48.4927 36.01 48.5202 29.92 48.5202C23.825 48.5202 23.2025 48.5202 20.7825 48.3827C19.3573 48.3653 17.9458 48.1022 16.61 47.6052C15.6342 47.2327 14.7475 46.6594 14.0072 45.9226C13.267 45.1858 12.6896 44.3017 12.3125 43.3277C11.8211 41.9903 11.5583 40.5798 11.535 39.1552C11.4275 36.7802 11.4025 36.1102 11.4025 30.0202C11.4025 23.9277 11.4025 23.3052 11.535 20.8827C11.5512 19.4428 11.8141 18.0162 12.3125 16.6652C13.075 14.6927 14.6375 13.1402 16.61 12.3852C17.9465 11.8905 19.3576 11.6276 20.7825 11.6077C23.16 11.5002 23.8275 11.4702 29.92 11.4702C36.0125 11.4702 36.6375 11.4702 39.055 11.6077C40.481 11.6249 41.8934 11.8879 43.23 12.3852C44.2023 12.7609 45.0854 13.3357 45.8224 14.0728C46.5595 14.8098 47.1343 15.6929 47.51 16.6652C48.0014 18.0026 48.2642 19.4131 48.2875 20.8377C48.395 23.2152 48.4225 23.8827 48.4225 29.9752C48.4225 36.0652 48.4225 36.7202 48.315 39.1102H48.2875V39.1077Z" fill="white"/>
</svg>
