<svg width="60" height="60" viewBox="0 0 60 60" fill="none" xmlns="http://www.w3.org/2000/svg">
<path d="M8.71197 4.81445C3.92725 4.81445 0.0112305 8.73038 0.0112305 13.5152V40.5151C0.0112305 45.2998 3.92716 49.2144 8.71197 49.2144H35.7119C40.4967 49.2144 44.4112 45.2999 44.4112 40.5151V13.5152C44.4112 8.73047 40.4967 4.81445 35.7119 4.81445H8.71197ZM10.9003 12.1413C13.1945 12.1413 14.6076 13.6474 14.6512 15.6272C14.6512 17.5632 13.1944 19.1116 10.856 19.1116H10.8129C8.56241 19.1116 7.10781 17.5633 7.10781 15.6272C7.10781 13.6475 8.60643 12.1413 10.9003 12.1413H10.9003ZM30.6705 21.3943C35.0827 21.3943 38.3902 24.2781 38.3902 30.4753V42.0443H31.6849V31.2509C31.6849 28.5387 30.7145 26.6883 28.2879 26.6883C26.4354 26.6883 25.3313 27.9355 24.8465 29.1403C24.6694 29.5713 24.6258 30.1734 24.6258 30.7763V42.0443H17.9206C17.9206 42.0443 18.0086 23.7607 17.9206 21.8675H24.6272V24.7247C25.5183 23.35 27.1121 21.3943 30.6705 21.3943V21.3943ZM7.50332 21.869H14.2086V42.0443H7.50332V21.869Z" fill="white"/>
</svg>
