<?xml version="1.0" encoding="UTF-8" standalone="no"?>
<!DOCTYPE svg PUBLIC "-//W3C//DTD SVG 1.1//EN" "http://www.w3.org/Graphics/SVG/1.1/DTD/svg11.dtd">
<svg width="100%" height="100%" viewBox="0 0 1430 342" version="1.1" xmlns="http://www.w3.org/2000/svg" xmlns:xlink="http://www.w3.org/1999/xlink" xml:space="preserve" xmlns:serif="http://www.serif.com/" style="fill-rule:evenodd;clip-rule:evenodd;stroke-linejoin:round;stroke-miterlimit:2;">
    <g transform="matrix(1,0,0,1,-608.134,-989.769)">
        <g transform="matrix(4.16667,0,0,4.16667,0,0)">
            <g transform="matrix(1,0,0,1,1.94409,-137.453)">
                <text x="248.272px" y="444.283px" style="font-family:'Autography';font-size:48px;fill:rgb(161,58,150);">Sh<tspan x="307.312px 326.512px " y="444.283px 444.283px ">an</tspan>a</text>
                <text x="366.736px" y="444.283px" style="font-family:'Autography';font-size:48px;fill:rgb(161,58,150);">Sh<tspan x="425.44px 437.872px 451.6px 463.312px 480.016px " y="444.283px 444.283px 444.283px 444.283px 444.283px ">ields</tspan></text>
            </g>
        </g>
        <g transform="matrix(4.16667,0,0,4.16667,0,0)">
            <g transform="matrix(99.2721,0,0,-99.2721,145.952,278.081)">
                <path d="M0.44,0.359C0.373,0.3 0.322,0.223 0.295,0.135C0.293,0.128 0.291,0.121 0.289,0.113C0.273,0.121 0.256,0.129 0.24,0.135C0.194,0.153 0.146,0.165 0.095,0.169C0.083,0.17 0.071,0.17 0.059,0.17C0.058,0.17 0.057,0.17 0.056,0.17C0.039,0.17 0.022,0.169 0.006,0.168C0.004,0.157 0.003,0.147 0.002,0.136C0.001,0.121 0,0.107 0,0.092C0,0.09 0,0.089 0,0.087C0,0.076 0.001,0.066 0.001,0.055C0.017,-0.158 0.166,-0.335 0.366,-0.39C0.374,-0.392 0.382,-0.394 0.391,-0.396C0.394,-0.397 0.397,-0.398 0.399,-0.398C0.413,-0.401 0.427,-0.403 0.442,-0.405C0.446,-0.405 0.449,-0.406 0.453,-0.406L0.468,-0.407C0.479,-0.408 0.489,-0.408 0.5,-0.408L0.516,-0.408L0.531,-0.407C0.535,-0.407 0.54,-0.407 0.544,-0.406L0.562,-0.405C0.57,-0.404 0.578,-0.402 0.587,-0.401C0.598,-0.399 0.608,-0.397 0.619,-0.394C0.819,-0.345 0.972,-0.176 0.996,0.032C0.999,0.051 1,0.07 1,0.089L1,0.11C0.999,0.13 0.997,0.149 0.994,0.168C0.978,0.17 0.962,0.17 0.946,0.17C0.935,0.17 0.924,0.17 0.914,0.169C0.84,0.164 0.771,0.143 0.709,0.11C0.687,0.204 0.639,0.288 0.572,0.353C0.552,0.373 0.529,0.392 0.505,0.408C0.482,0.394 0.46,0.377 0.44,0.359ZM0.492,-0.084C0.46,-0.028 0.417,0.022 0.367,0.062C0.369,0.073 0.371,0.085 0.374,0.096C0.396,0.18 0.443,0.254 0.508,0.308C0.576,0.245 0.624,0.159 0.638,0.063C0.581,0.018 0.535,-0.038 0.502,-0.103C0.498,-0.097 0.495,-0.09 0.492,-0.084ZM0.303,-0.267C0.184,-0.201 0.101,-0.078 0.09,0.065C0.089,0.073 0.089,0.082 0.089,0.091C0.136,0.088 0.181,0.077 0.222,0.059C0.24,0.051 0.258,0.042 0.274,0.032C0.273,0.017 0.272,0.001 0.272,-0.015C0.272,-0.096 0.292,-0.172 0.326,-0.24C0.335,-0.258 0.345,-0.275 0.356,-0.291C0.338,-0.284 0.32,-0.276 0.303,-0.267ZM0.641,-0.276C0.69,-0.202 0.719,-0.114 0.722,-0.019C0.722,-0.014 0.722,-0.009 0.722,-0.004C0.722,0.005 0.722,0.013 0.721,0.022C0.779,0.06 0.847,0.085 0.92,0.09C0.92,0.071 0.918,0.052 0.916,0.034C0.891,-0.126 0.776,-0.256 0.624,-0.302C0.63,-0.293 0.636,-0.285 0.641,-0.276ZM0.475,-0.296L0.468,-0.288C0.462,-0.282 0.457,-0.275 0.451,-0.268C0.4,-0.204 0.368,-0.124 0.362,-0.038C0.398,-0.075 0.427,-0.12 0.446,-0.169C0.452,-0.183 0.457,-0.198 0.461,-0.213C0.467,-0.236 0.472,-0.259 0.474,-0.283L0.475,-0.296ZM0.539,-0.272C0.54,-0.265 0.541,-0.259 0.542,-0.252C0.543,-0.245 0.545,-0.239 0.546,-0.232C0.562,-0.163 0.594,-0.101 0.639,-0.05C0.636,-0.075 0.631,-0.098 0.624,-0.121L0.624,-0.121C0.616,-0.147 0.605,-0.172 0.593,-0.195C0.593,-0.195 0.593,-0.196 0.592,-0.196C0.589,-0.202 0.578,-0.224 0.568,-0.244L0.56,-0.259L0.55,-0.278C0.546,-0.286 0.541,-0.293 0.537,-0.3C0.537,-0.29 0.538,-0.281 0.539,-0.272Z" style="fill:url(#_Linear1);fill-rule:nonzero;"/>
            </g>
        </g>
    </g>
    <defs>
        <linearGradient id="_Linear1" x1="0" y1="0" x2="1" y2="0" gradientUnits="userSpaceOnUse" gradientTransform="matrix(1,0,0,-1,0,2.30633e-06)"><stop offset="0" style="stop-color:rgb(255,243,58);stop-opacity:1"/><stop offset="0.28" style="stop-color:rgb(253,199,9);stop-opacity:1"/><stop offset="0.67" style="stop-color:rgb(244,145,63);stop-opacity:1"/><stop offset="0.89" style="stop-color:rgb(238,104,60);stop-opacity:1"/><stop offset="1" style="stop-color:rgb(234,61,57);stop-opacity:1"/></linearGradient>
    </defs>
</svg>
