<svg width="97" height="78" viewBox="0 0 97 78" fill="none" xmlns="http://www.w3.org/2000/svg">
<path d="M42.5452 4.89812C36.0667 10.4763 31.1354 17.7562 28.5246 26.0762C28.3312 26.738 28.1379 27.3998 27.9445 28.1562C26.3974 27.3998 24.7536 26.6434 23.2065 26.0762C18.7586 24.3744 14.1173 23.2398 9.1859 22.8616C8.02558 22.7671 6.86525 22.7671 5.70493 22.7671C5.60823 22.7671 5.51154 22.7671 5.41485 22.7671C3.77105 22.7671 2.12726 22.8617 0.580162 22.9562C0.386775 23.9962 0.290081 24.9416 0.193387 25.9816C0.0966937 27.3998 0 28.7234 0 30.1416C0 30.3307 0 30.4252 0 30.6143C0 31.6543 0.0966937 32.5998 0.0966937 33.6398C1.64379 53.7778 16.0512 70.5123 35.3899 75.7123C36.1634 75.9013 36.937 76.0904 37.8072 76.2795C38.0973 76.3741 38.3874 76.4686 38.5808 76.4686C39.9345 76.7522 41.2882 76.9413 42.7386 77.1304C43.1254 77.1304 43.4155 77.225 43.8022 77.225L45.2526 77.3195C46.3163 77.4141 47.2832 77.4141 48.3468 77.4141H49.8939L51.3443 77.3195C51.7311 77.3195 52.2146 77.3195 52.6014 77.225L54.3419 77.1304C55.1154 77.0359 55.889 76.8468 56.7592 76.7522C57.8228 76.5632 58.7898 76.3741 59.8534 76.0904C79.1921 71.4577 93.9863 55.4796 96.3069 35.8143C96.597 34.018 96.6937 32.2216 96.6937 30.4252V28.4398C96.597 26.5489 96.4036 24.7526 96.1135 22.9562C94.5664 22.7671 93.0193 22.7671 91.4722 22.7671C90.4086 22.7671 89.345 22.7671 88.378 22.8616C81.2227 23.3344 74.5508 25.3198 68.5558 28.4398C66.4286 19.5526 61.7873 11.6108 55.3088 5.46539C53.3749 3.57449 51.151 1.77814 48.8303 0.265419C46.6064 1.58905 44.4791 3.19631 42.5452 4.89812ZM47.5733 46.7815C44.4791 41.487 40.3213 36.7598 35.4866 32.978C35.68 31.938 35.8734 30.8034 36.1634 29.7634C38.2907 21.8217 42.8353 14.8253 49.1204 9.71991C55.6956 15.6762 60.3369 23.8071 61.6906 32.8834C56.179 37.1379 51.7311 42.4324 48.5402 48.5779C48.1535 48.0106 47.8634 47.3488 47.5733 46.7815ZM29.2982 64.0832C17.7916 57.8433 9.76606 46.2142 8.70243 32.6943C8.60574 31.938 8.60574 31.0871 8.60574 30.2362C13.1503 30.5198 17.5016 31.5598 21.466 33.2616C23.2065 34.0179 24.947 34.8689 26.4941 35.8143C26.3974 37.2325 26.3007 38.7452 26.3007 40.2579C26.3007 47.9161 28.2346 55.1015 31.5221 61.5305C32.3924 63.2323 33.3593 64.8396 34.423 66.3523C32.6825 65.6905 30.942 64.9341 29.2982 64.0832ZM61.9807 64.9341C66.7186 57.9378 69.5228 49.6179 69.8128 40.6361C69.8128 40.1634 69.8128 39.6906 69.8128 39.2179C69.8128 38.367 69.8128 37.6107 69.7161 36.7598C75.3244 33.167 81.8996 30.8034 88.9582 30.3307C88.9582 32.1271 88.7648 33.9234 88.5714 35.6252C86.1541 50.7524 75.0343 63.0432 60.3369 67.3923C60.917 66.5414 61.4972 65.785 61.9807 64.9341ZM45.9295 66.825L45.2526 66.0687C44.6725 65.5014 44.189 64.8396 43.6089 64.1778C38.6775 58.1269 35.5833 50.5633 35.0031 42.4324C38.4841 45.9306 41.2882 50.1851 43.1254 54.8178C43.7055 56.1415 44.189 57.5596 44.5758 58.9778C45.156 61.1523 45.6394 63.3269 45.8328 65.5959L45.9295 66.825ZM52.1179 64.556C52.2146 63.8941 52.3113 63.3269 52.408 62.6651C52.5047 62.0032 52.6981 61.436 52.7948 60.7742C54.3419 54.2506 57.4361 48.3888 61.7873 43.567C61.4972 45.9306 61.0137 48.1051 60.3369 50.2797C59.5633 52.7378 58.4997 55.1015 57.3394 57.276C57.3394 57.276 57.3394 57.3705 57.2427 57.3705C56.9526 57.9378 55.889 60.0178 54.922 61.9087L54.1485 63.3269L53.1815 65.1232C52.7948 65.8796 52.3113 66.5414 51.9245 67.2032C51.9245 66.2578 52.0212 65.4069 52.1179 64.556Z" fill="url(#paint0_linear)"/>
<defs>
<linearGradient id="paint0_linear" x1="0" y1="38.8395" x2="96.6937" y2="38.8395" gradientUnits="userSpaceOnUse">
<stop stop-color="#FFF33A"/>
<stop offset="0.28" stop-color="#FDC709"/>
<stop offset="0.67" stop-color="#F4913F"/>
<stop offset="0.89" stop-color="#EE683C"/>
<stop offset="1" stop-color="#EA3D39"/>
</linearGradient>
</defs>
</svg>
