<svg width="178" height="58" viewBox="0 0 178 58" fill="none" xmlns="http://www.w3.org/2000/svg">
<g filter="url(#filter0_d)">
<rect x="4" width="170" height="50" rx="25" fill="#D90368"/>
<path d="M51.8155 20.6246L46.3255 33.2246H44.0215L38.5135 20.6246H41.0515L45.2455 30.3446L49.4755 20.6246H51.8155ZM53.017 23.6126H55.267V33.2246H53.017V23.6126ZM54.151 22.0286C53.743 22.0286 53.401 21.9026 53.125 21.6506C52.849 21.3866 52.711 21.0626 52.711 20.6786C52.711 20.2946 52.849 19.9766 53.125 19.7246C53.401 19.4606 53.743 19.3286 54.151 19.3286C54.559 19.3286 54.901 19.4546 55.177 19.7066C55.453 19.9466 55.591 20.2526 55.591 20.6246C55.591 21.0206 55.453 21.3566 55.177 21.6326C54.913 21.8966 54.571 22.0286 54.151 22.0286ZM67.2561 28.4726C67.2561 28.6286 67.2441 28.8506 67.2201 29.1386H59.6781C59.8101 29.8466 60.1521 30.4106 60.7041 30.8306C61.2681 31.2386 61.9641 31.4426 62.7921 31.4426C63.8481 31.4426 64.7181 31.0946 65.4021 30.3986L66.6081 31.7846C66.1761 32.3006 65.6301 32.6906 64.9701 32.9546C64.3101 33.2186 63.5661 33.3506 62.7381 33.3506C61.6821 33.3506 60.7521 33.1406 59.9481 32.7206C59.1441 32.3006 58.5201 31.7186 58.0761 30.9746C57.6441 30.2186 57.4281 29.3666 57.4281 28.4186C57.4281 27.4826 57.6381 26.6426 58.0581 25.8986C58.4901 25.1426 59.0841 24.5546 59.8401 24.1346C60.5961 23.7146 61.4481 23.5046 62.3961 23.5046C63.3321 23.5046 64.1661 23.7146 64.8981 24.1346C65.6421 24.5426 66.2181 25.1246 66.6261 25.8806C67.0461 26.6246 67.2561 27.4886 67.2561 28.4726ZM62.3961 25.3046C61.6761 25.3046 61.0641 25.5206 60.5601 25.9526C60.0681 26.3726 59.7681 26.9366 59.6601 27.6446H65.1141C65.0181 26.9486 64.7241 26.3846 64.2321 25.9526C63.7401 25.5206 63.1281 25.3046 62.3961 25.3046ZM84.2356 23.6126L80.6896 33.2246H78.5296L76.0456 26.6006L73.5256 33.2246H71.3656L67.8376 23.6126H69.9616L72.4996 30.7046L75.1456 23.6126H77.0356L79.6276 30.7406L82.2376 23.6126H84.2356ZM109.387 20.6246L105.211 33.2246H102.727L99.6133 23.9006L96.4453 33.2246H93.9433L89.7673 20.6246H92.1973L95.3293 30.2006L98.5873 20.6246H100.747L103.933 30.2546L107.155 20.6246H109.387ZM114.677 33.3506C113.705 33.3506 112.829 33.1406 112.049 32.7206C111.269 32.3006 110.657 31.7186 110.213 30.9746C109.781 30.2186 109.565 29.3666 109.565 28.4186C109.565 27.4706 109.781 26.6246 110.213 25.8806C110.657 25.1366 111.269 24.5546 112.049 24.1346C112.829 23.7146 113.705 23.5046 114.677 23.5046C115.661 23.5046 116.543 23.7146 117.323 24.1346C118.103 24.5546 118.709 25.1366 119.141 25.8806C119.585 26.6246 119.807 27.4706 119.807 28.4186C119.807 29.3666 119.585 30.2186 119.141 30.9746C118.709 31.7186 118.103 32.3006 117.323 32.7206C116.543 33.1406 115.661 33.3506 114.677 33.3506ZM114.677 31.4246C115.505 31.4246 116.189 31.1486 116.729 30.5966C117.269 30.0446 117.539 29.3186 117.539 28.4186C117.539 27.5186 117.269 26.7926 116.729 26.2406C116.189 25.6886 115.505 25.4126 114.677 25.4126C113.849 25.4126 113.165 25.6886 112.625 26.2406C112.097 26.7926 111.833 27.5186 111.833 28.4186C111.833 29.3186 112.097 30.0446 112.625 30.5966C113.165 31.1486 113.849 31.4246 114.677 31.4246ZM124.1 25.0166C124.748 24.0086 125.888 23.5046 127.52 23.5046V25.6466C127.328 25.6106 127.154 25.5926 126.998 25.5926C126.122 25.5926 125.438 25.8506 124.946 26.3666C124.454 26.8706 124.208 27.6026 124.208 28.5626V33.2246H121.958V23.6126H124.1V25.0166ZM133.353 29.1026L131.679 30.6866V33.2246H129.429V19.8686H131.679V27.9326L136.341 23.6126H139.041L135.027 27.6446L139.419 33.2246H136.683L133.353 29.1026Z" fill="white"/>
</g>
<defs>
<filter id="filter0_d" x="0" y="0" width="178" height="58" filterUnits="userSpaceOnUse" color-interpolation-filters="sRGB">
<feFlood flood-opacity="0" result="BackgroundImageFix"/>
<feColorMatrix in="SourceAlpha" type="matrix" values="0 0 0 0 0 0 0 0 0 0 0 0 0 0 0 0 0 0 127 0"/>
<feOffset dy="4"/>
<feGaussianBlur stdDeviation="2"/>
<feColorMatrix type="matrix" values="0 0 0 0 0 0 0 0 0 0 0 0 0 0 0 0 0 0 0.25 0"/>
<feBlend mode="normal" in2="BackgroundImageFix" result="effect1_dropShadow"/>
<feBlend mode="normal" in="SourceGraphic" in2="effect1_dropShadow" result="shape"/>
</filter>
</defs>
</svg>
